%TF.GenerationSoftware,KiCad,Pcbnew,7.0.9*%
%TF.CreationDate,2024-01-22T18:22:55+13:00*%
%TF.ProjectId,jst_breakout,6a73745f-6272-4656-916b-6f75742e6b69,rev?*%
%TF.SameCoordinates,Original*%
%TF.FileFunction,Legend,Top*%
%TF.FilePolarity,Positive*%
%FSLAX46Y46*%
G04 Gerber Fmt 4.6, Leading zero omitted, Abs format (unit mm)*
G04 Created by KiCad (PCBNEW 7.0.9) date 2024-01-22 18:22:55*
%MOMM*%
%LPD*%
G01*
G04 APERTURE LIST*
%ADD10C,0.150000*%
%ADD11C,0.120000*%
G04 APERTURE END LIST*
D10*
X73132017Y-34860961D02*
X73132017Y-35508580D01*
X73132017Y-35508580D02*
X73093922Y-35584771D01*
X73093922Y-35584771D02*
X73055826Y-35622866D01*
X73055826Y-35622866D02*
X72979636Y-35660961D01*
X72979636Y-35660961D02*
X72865350Y-35660961D01*
X72865350Y-35660961D02*
X72789160Y-35622866D01*
X73132017Y-35356200D02*
X73055826Y-35394295D01*
X73055826Y-35394295D02*
X72903445Y-35394295D01*
X72903445Y-35394295D02*
X72827255Y-35356200D01*
X72827255Y-35356200D02*
X72789160Y-35318104D01*
X72789160Y-35318104D02*
X72751064Y-35241914D01*
X72751064Y-35241914D02*
X72751064Y-35013342D01*
X72751064Y-35013342D02*
X72789160Y-34937152D01*
X72789160Y-34937152D02*
X72827255Y-34899057D01*
X72827255Y-34899057D02*
X72903445Y-34860961D01*
X72903445Y-34860961D02*
X73055826Y-34860961D01*
X73055826Y-34860961D02*
X73132017Y-34899057D01*
X73512970Y-34860961D02*
X73512970Y-35394295D01*
X73512970Y-34937152D02*
X73551065Y-34899057D01*
X73551065Y-34899057D02*
X73627255Y-34860961D01*
X73627255Y-34860961D02*
X73741541Y-34860961D01*
X73741541Y-34860961D02*
X73817732Y-34899057D01*
X73817732Y-34899057D02*
X73855827Y-34975247D01*
X73855827Y-34975247D02*
X73855827Y-35394295D01*
X74579637Y-35394295D02*
X74579637Y-34594295D01*
X74579637Y-35356200D02*
X74503446Y-35394295D01*
X74503446Y-35394295D02*
X74351065Y-35394295D01*
X74351065Y-35394295D02*
X74274875Y-35356200D01*
X74274875Y-35356200D02*
X74236780Y-35318104D01*
X74236780Y-35318104D02*
X74198684Y-35241914D01*
X74198684Y-35241914D02*
X74198684Y-35013342D01*
X74198684Y-35013342D02*
X74236780Y-34937152D01*
X74236780Y-34937152D02*
X74274875Y-34899057D01*
X74274875Y-34899057D02*
X74351065Y-34860961D01*
X74351065Y-34860961D02*
X74503446Y-34860961D01*
X74503446Y-34860961D02*
X74579637Y-34899057D01*
X76522495Y-35394295D02*
X76522495Y-34594295D01*
X76522495Y-35356200D02*
X76446304Y-35394295D01*
X76446304Y-35394295D02*
X76293923Y-35394295D01*
X76293923Y-35394295D02*
X76217733Y-35356200D01*
X76217733Y-35356200D02*
X76179638Y-35318104D01*
X76179638Y-35318104D02*
X76141542Y-35241914D01*
X76141542Y-35241914D02*
X76141542Y-35013342D01*
X76141542Y-35013342D02*
X76179638Y-34937152D01*
X76179638Y-34937152D02*
X76217733Y-34899057D01*
X76217733Y-34899057D02*
X76293923Y-34860961D01*
X76293923Y-34860961D02*
X76446304Y-34860961D01*
X76446304Y-34860961D02*
X76522495Y-34899057D01*
X76865352Y-34670485D02*
X76903448Y-34632390D01*
X76903448Y-34632390D02*
X76979638Y-34594295D01*
X76979638Y-34594295D02*
X77170114Y-34594295D01*
X77170114Y-34594295D02*
X77246305Y-34632390D01*
X77246305Y-34632390D02*
X77284400Y-34670485D01*
X77284400Y-34670485D02*
X77322495Y-34746676D01*
X77322495Y-34746676D02*
X77322495Y-34822866D01*
X77322495Y-34822866D02*
X77284400Y-34937152D01*
X77284400Y-34937152D02*
X76827257Y-35394295D01*
X76827257Y-35394295D02*
X77322495Y-35394295D01*
X79227258Y-35394295D02*
X79227258Y-34594295D01*
X79227258Y-35356200D02*
X79151067Y-35394295D01*
X79151067Y-35394295D02*
X78998686Y-35394295D01*
X78998686Y-35394295D02*
X78922496Y-35356200D01*
X78922496Y-35356200D02*
X78884401Y-35318104D01*
X78884401Y-35318104D02*
X78846305Y-35241914D01*
X78846305Y-35241914D02*
X78846305Y-35013342D01*
X78846305Y-35013342D02*
X78884401Y-34937152D01*
X78884401Y-34937152D02*
X78922496Y-34899057D01*
X78922496Y-34899057D02*
X78998686Y-34860961D01*
X78998686Y-34860961D02*
X79151067Y-34860961D01*
X79151067Y-34860961D02*
X79227258Y-34899057D01*
X80027258Y-35394295D02*
X79570115Y-35394295D01*
X79798687Y-35394295D02*
X79798687Y-34594295D01*
X79798687Y-34594295D02*
X79722496Y-34708580D01*
X79722496Y-34708580D02*
X79646306Y-34784771D01*
X79646306Y-34784771D02*
X79570115Y-34822866D01*
X81512973Y-34860961D02*
X81703449Y-35394295D01*
X81703449Y-35394295D02*
X81893926Y-34860961D01*
X82541545Y-35356200D02*
X82465354Y-35394295D01*
X82465354Y-35394295D02*
X82312973Y-35394295D01*
X82312973Y-35394295D02*
X82236783Y-35356200D01*
X82236783Y-35356200D02*
X82198688Y-35318104D01*
X82198688Y-35318104D02*
X82160592Y-35241914D01*
X82160592Y-35241914D02*
X82160592Y-35013342D01*
X82160592Y-35013342D02*
X82198688Y-34937152D01*
X82198688Y-34937152D02*
X82236783Y-34899057D01*
X82236783Y-34899057D02*
X82312973Y-34860961D01*
X82312973Y-34860961D02*
X82465354Y-34860961D01*
X82465354Y-34860961D02*
X82541545Y-34899057D01*
X83227259Y-35356200D02*
X83151068Y-35394295D01*
X83151068Y-35394295D02*
X82998687Y-35394295D01*
X82998687Y-35394295D02*
X82922497Y-35356200D01*
X82922497Y-35356200D02*
X82884402Y-35318104D01*
X82884402Y-35318104D02*
X82846306Y-35241914D01*
X82846306Y-35241914D02*
X82846306Y-35013342D01*
X82846306Y-35013342D02*
X82884402Y-34937152D01*
X82884402Y-34937152D02*
X82922497Y-34899057D01*
X82922497Y-34899057D02*
X82998687Y-34860961D01*
X82998687Y-34860961D02*
X83151068Y-34860961D01*
X83151068Y-34860961D02*
X83227259Y-34899057D01*
X71132017Y-55394295D02*
X71132017Y-54594295D01*
X71132017Y-55356200D02*
X71055826Y-55394295D01*
X71055826Y-55394295D02*
X70903445Y-55394295D01*
X70903445Y-55394295D02*
X70827255Y-55356200D01*
X70827255Y-55356200D02*
X70789160Y-55318104D01*
X70789160Y-55318104D02*
X70751064Y-55241914D01*
X70751064Y-55241914D02*
X70751064Y-55013342D01*
X70751064Y-55013342D02*
X70789160Y-54937152D01*
X70789160Y-54937152D02*
X70827255Y-54899057D01*
X70827255Y-54899057D02*
X70903445Y-54860961D01*
X70903445Y-54860961D02*
X71055826Y-54860961D01*
X71055826Y-54860961D02*
X71132017Y-54899057D01*
X71932017Y-55394295D02*
X71474874Y-55394295D01*
X71703446Y-55394295D02*
X71703446Y-54594295D01*
X71703446Y-54594295D02*
X71627255Y-54708580D01*
X71627255Y-54708580D02*
X71551065Y-54784771D01*
X71551065Y-54784771D02*
X71474874Y-54822866D01*
X74446304Y-55394295D02*
X74446304Y-54594295D01*
X74446304Y-55356200D02*
X74370113Y-55394295D01*
X74370113Y-55394295D02*
X74217732Y-55394295D01*
X74217732Y-55394295D02*
X74141542Y-55356200D01*
X74141542Y-55356200D02*
X74103447Y-55318104D01*
X74103447Y-55318104D02*
X74065351Y-55241914D01*
X74065351Y-55241914D02*
X74065351Y-55013342D01*
X74065351Y-55013342D02*
X74103447Y-54937152D01*
X74103447Y-54937152D02*
X74141542Y-54899057D01*
X74141542Y-54899057D02*
X74217732Y-54860961D01*
X74217732Y-54860961D02*
X74370113Y-54860961D01*
X74370113Y-54860961D02*
X74446304Y-54899057D01*
X74789161Y-54670485D02*
X74827257Y-54632390D01*
X74827257Y-54632390D02*
X74903447Y-54594295D01*
X74903447Y-54594295D02*
X75093923Y-54594295D01*
X75093923Y-54594295D02*
X75170114Y-54632390D01*
X75170114Y-54632390D02*
X75208209Y-54670485D01*
X75208209Y-54670485D02*
X75246304Y-54746676D01*
X75246304Y-54746676D02*
X75246304Y-54822866D01*
X75246304Y-54822866D02*
X75208209Y-54937152D01*
X75208209Y-54937152D02*
X74751066Y-55394295D01*
X74751066Y-55394295D02*
X75246304Y-55394295D01*
X77416666Y-25554819D02*
X77416666Y-26269104D01*
X77416666Y-26269104D02*
X77369047Y-26411961D01*
X77369047Y-26411961D02*
X77273809Y-26507200D01*
X77273809Y-26507200D02*
X77130952Y-26554819D01*
X77130952Y-26554819D02*
X77035714Y-26554819D01*
X77797619Y-25554819D02*
X78416666Y-25554819D01*
X78416666Y-25554819D02*
X78083333Y-25935771D01*
X78083333Y-25935771D02*
X78226190Y-25935771D01*
X78226190Y-25935771D02*
X78321428Y-25983390D01*
X78321428Y-25983390D02*
X78369047Y-26031009D01*
X78369047Y-26031009D02*
X78416666Y-26126247D01*
X78416666Y-26126247D02*
X78416666Y-26364342D01*
X78416666Y-26364342D02*
X78369047Y-26459580D01*
X78369047Y-26459580D02*
X78321428Y-26507200D01*
X78321428Y-26507200D02*
X78226190Y-26554819D01*
X78226190Y-26554819D02*
X77940476Y-26554819D01*
X77940476Y-26554819D02*
X77845238Y-26507200D01*
X77845238Y-26507200D02*
X77797619Y-26459580D01*
X72656666Y-41604819D02*
X72656666Y-42319104D01*
X72656666Y-42319104D02*
X72609047Y-42461961D01*
X72609047Y-42461961D02*
X72513809Y-42557200D01*
X72513809Y-42557200D02*
X72370952Y-42604819D01*
X72370952Y-42604819D02*
X72275714Y-42604819D01*
X73085238Y-41700057D02*
X73132857Y-41652438D01*
X73132857Y-41652438D02*
X73228095Y-41604819D01*
X73228095Y-41604819D02*
X73466190Y-41604819D01*
X73466190Y-41604819D02*
X73561428Y-41652438D01*
X73561428Y-41652438D02*
X73609047Y-41700057D01*
X73609047Y-41700057D02*
X73656666Y-41795295D01*
X73656666Y-41795295D02*
X73656666Y-41890533D01*
X73656666Y-41890533D02*
X73609047Y-42033390D01*
X73609047Y-42033390D02*
X73037619Y-42604819D01*
X73037619Y-42604819D02*
X73656666Y-42604819D01*
X87004819Y-52783333D02*
X87719104Y-52783333D01*
X87719104Y-52783333D02*
X87861961Y-52830952D01*
X87861961Y-52830952D02*
X87957200Y-52926190D01*
X87957200Y-52926190D02*
X88004819Y-53069047D01*
X88004819Y-53069047D02*
X88004819Y-53164285D01*
X88004819Y-51783333D02*
X88004819Y-52354761D01*
X88004819Y-52069047D02*
X87004819Y-52069047D01*
X87004819Y-52069047D02*
X87147676Y-52164285D01*
X87147676Y-52164285D02*
X87242914Y-52259523D01*
X87242914Y-52259523D02*
X87290533Y-52354761D01*
D11*
%TO.C,J3*%
X80450000Y-28190000D02*
X78550000Y-28190000D01*
X78550000Y-27590000D02*
X76950000Y-27590000D01*
X80450000Y-27190000D02*
X80450000Y-28190000D01*
X83100000Y-28800000D02*
X83100000Y-33100000D01*
X84110000Y-27190000D02*
X80450000Y-27190000D01*
X72400000Y-31100000D02*
X72400000Y-28800000D01*
X84110000Y-30500000D02*
X83100000Y-30500000D01*
X84110000Y-33810000D02*
X84110000Y-27190000D01*
X76950000Y-28190000D02*
X75050000Y-28190000D01*
X75050000Y-27190000D02*
X71390000Y-27190000D01*
X83100000Y-33100000D02*
X72400000Y-33100000D01*
X76950000Y-27590000D02*
X76950000Y-28190000D01*
X72400000Y-28800000D02*
X83100000Y-28800000D01*
X75050000Y-28190000D02*
X75050000Y-27190000D01*
X71390000Y-33810000D02*
X84110000Y-33810000D01*
X71390000Y-27190000D02*
X71390000Y-33810000D01*
X78550000Y-28190000D02*
X78550000Y-27590000D01*
X71090000Y-26890000D02*
X71090000Y-28140000D01*
X71390000Y-30500000D02*
X72400000Y-30500000D01*
X72340000Y-26890000D02*
X71090000Y-26890000D01*
%TO.C,J2*%
X68190000Y-42950000D02*
X76590000Y-42950000D01*
X76590000Y-42950000D02*
X76590000Y-54000000D01*
X76590000Y-54000000D02*
X68190000Y-54000000D01*
X68190000Y-54000000D02*
X68190000Y-42950000D01*
%TO.C,J1*%
X77200000Y-57800000D02*
X77200000Y-43100000D01*
X86400000Y-57800000D02*
X77200000Y-57800000D01*
X86400000Y-43100000D02*
X86400000Y-45000000D01*
X83700000Y-43100000D02*
X86400000Y-43100000D01*
X77200000Y-43100000D02*
X79800000Y-43100000D01*
X86400000Y-49000000D02*
X86400000Y-57800000D01*
X78050000Y-42900000D02*
X77000000Y-42900000D01*
X77000000Y-43950000D02*
X77000000Y-42900000D01*
%TD*%
M02*
