%TF.GenerationSoftware,KiCad,Pcbnew,7.0.9*%
%TF.CreationDate,2024-01-22T18:22:55+13:00*%
%TF.ProjectId,jst_breakout,6a73745f-6272-4656-916b-6f75742e6b69,rev?*%
%TF.SameCoordinates,Original*%
%TF.FileFunction,Copper,L2,Bot*%
%TF.FilePolarity,Positive*%
%FSLAX46Y46*%
G04 Gerber Fmt 4.6, Leading zero omitted, Abs format (unit mm)*
G04 Created by KiCad (PCBNEW 7.0.9) date 2024-01-22 18:22:55*
%MOMM*%
%LPD*%
G01*
G04 APERTURE LIST*
G04 Aperture macros list*
%AMRoundRect*
0 Rectangle with rounded corners*
0 $1 Rounding radius*
0 $2 $3 $4 $5 $6 $7 $8 $9 X,Y pos of 4 corners*
0 Add a 4 corners polygon primitive as box body*
4,1,4,$2,$3,$4,$5,$6,$7,$8,$9,$2,$3,0*
0 Add four circle primitives for the rounded corners*
1,1,$1+$1,$2,$3*
1,1,$1+$1,$4,$5*
1,1,$1+$1,$6,$7*
1,1,$1+$1,$8,$9*
0 Add four rect primitives between the rounded corners*
20,1,$1+$1,$2,$3,$4,$5,0*
20,1,$1+$1,$4,$5,$6,$7,0*
20,1,$1+$1,$6,$7,$8,$9,0*
20,1,$1+$1,$8,$9,$2,$3,0*%
G04 Aperture macros list end*
%TA.AperFunction,ComponentPad*%
%ADD10RoundRect,0.250000X-0.600000X-0.725000X0.600000X-0.725000X0.600000X0.725000X-0.600000X0.725000X0*%
%TD*%
%TA.AperFunction,ComponentPad*%
%ADD11O,1.700000X1.950000*%
%TD*%
%TA.AperFunction,ComponentPad*%
%ADD12R,2.000000X2.000000*%
%TD*%
%TA.AperFunction,ComponentPad*%
%ADD13O,2.000000X2.000000*%
%TD*%
%TA.AperFunction,ComponentPad*%
%ADD14C,2.000000*%
%TD*%
%TA.AperFunction,ComponentPad*%
%ADD15R,3.500000X3.500000*%
%TD*%
%TA.AperFunction,ComponentPad*%
%ADD16RoundRect,0.750000X1.000000X-0.750000X1.000000X0.750000X-1.000000X0.750000X-1.000000X-0.750000X0*%
%TD*%
%TA.AperFunction,ComponentPad*%
%ADD17RoundRect,0.875000X0.875000X-0.875000X0.875000X0.875000X-0.875000X0.875000X-0.875000X-0.875000X0*%
%TD*%
G04 APERTURE END LIST*
D10*
%TO.P,J3,1,Pin_1*%
%TO.N,GND*%
X74000000Y-30500000D03*
D11*
%TO.P,J3,2,Pin_2*%
%TO.N,Net-(J2-Pin_2)*%
X76500000Y-30500000D03*
%TO.P,J3,3,Pin_3*%
%TO.N,Net-(J2-Pin_1)*%
X79000000Y-30500000D03*
%TO.P,J3,4,Pin_4*%
%TO.N,Net-(J3-Pin_4)*%
X81500000Y-30500000D03*
%TD*%
D12*
%TO.P,J2,1,Pin_1*%
%TO.N,Net-(J2-Pin_1)*%
X70690000Y-46000000D03*
D13*
X70690000Y-51003800D03*
D14*
%TO.P,J2,2,Pin_2*%
%TO.N,Net-(J2-Pin_2)*%
X74500000Y-46000000D03*
X74500000Y-51003800D03*
%TD*%
D15*
%TO.P,J1,1*%
%TO.N,Net-(J3-Pin_4)*%
X81800000Y-44000000D03*
D16*
%TO.P,J1,2*%
%TO.N,GND*%
X81800000Y-50000000D03*
D17*
%TO.P,J1,3*%
X86500000Y-47000000D03*
%TD*%
%TA.AperFunction,Conductor*%
%TO.N,GND*%
G36*
X84551766Y-26000575D02*
G01*
X84608876Y-26003379D01*
X84702317Y-26007968D01*
X84896901Y-26018166D01*
X84902714Y-26018748D01*
X85071340Y-26043759D01*
X85247961Y-26071734D01*
X85253278Y-26072819D01*
X85421813Y-26115032D01*
X85574443Y-26155930D01*
X85591737Y-26160564D01*
X85596574Y-26162074D01*
X85761468Y-26221072D01*
X85924753Y-26283752D01*
X85929031Y-26285582D01*
X86088085Y-26360806D01*
X86243566Y-26440028D01*
X86247282Y-26442086D01*
X86398629Y-26532798D01*
X86450018Y-26566169D01*
X86544902Y-26627788D01*
X86548041Y-26629969D01*
X86690067Y-26735301D01*
X86825104Y-26844652D01*
X86825661Y-26845103D01*
X86828265Y-26847334D01*
X86889855Y-26903155D01*
X86958296Y-26965186D01*
X86960501Y-26967285D01*
X86963681Y-26970465D01*
X86997166Y-27031788D01*
X87000000Y-27058146D01*
X87000000Y-44626000D01*
X86980315Y-44693039D01*
X86927511Y-44738794D01*
X86876000Y-44750000D01*
X86750000Y-44750000D01*
X86750000Y-45566313D01*
X86709844Y-45540507D01*
X86571889Y-45500000D01*
X86428111Y-45500000D01*
X86290156Y-45540507D01*
X86250000Y-45566313D01*
X86250000Y-44750000D01*
X86249999Y-44750000D01*
X85531409Y-44750001D01*
X85478809Y-44752794D01*
X85249012Y-44797237D01*
X85030024Y-44879879D01*
X84828158Y-44998339D01*
X84828151Y-44998344D01*
X84649213Y-45149211D01*
X84649211Y-45149213D01*
X84498344Y-45328151D01*
X84498339Y-45328158D01*
X84379879Y-45530024D01*
X84297236Y-45749014D01*
X84296241Y-45754161D01*
X84264179Y-45816240D01*
X84203644Y-45851130D01*
X84133856Y-45847754D01*
X84076972Y-45807184D01*
X84051052Y-45742300D01*
X84050499Y-45730624D01*
X84050499Y-42202128D01*
X84044091Y-42142517D01*
X83993796Y-42007669D01*
X83993795Y-42007668D01*
X83993793Y-42007664D01*
X83907547Y-41892455D01*
X83907544Y-41892452D01*
X83792335Y-41806206D01*
X83792328Y-41806202D01*
X83657482Y-41755908D01*
X83657483Y-41755908D01*
X83597883Y-41749501D01*
X83597881Y-41749500D01*
X83597873Y-41749500D01*
X83597864Y-41749500D01*
X80002129Y-41749500D01*
X80002123Y-41749501D01*
X79942516Y-41755908D01*
X79807671Y-41806202D01*
X79807664Y-41806206D01*
X79692455Y-41892452D01*
X79692452Y-41892455D01*
X79606206Y-42007664D01*
X79606202Y-42007671D01*
X79555908Y-42142517D01*
X79549501Y-42202116D01*
X79549501Y-42202123D01*
X79549500Y-42202135D01*
X79549500Y-45797870D01*
X79549501Y-45797876D01*
X79555908Y-45857483D01*
X79606202Y-45992328D01*
X79606206Y-45992335D01*
X79692452Y-46107544D01*
X79692455Y-46107547D01*
X79807664Y-46193793D01*
X79807671Y-46193797D01*
X79942517Y-46244091D01*
X79942516Y-46244091D01*
X79949444Y-46244835D01*
X80002127Y-46250500D01*
X83597872Y-46250499D01*
X83657483Y-46244091D01*
X83792331Y-46193796D01*
X83907546Y-46107546D01*
X83993796Y-45992331D01*
X84012012Y-45943491D01*
X84053880Y-45887560D01*
X84119344Y-45863141D01*
X84187617Y-45877991D01*
X84237024Y-45927396D01*
X84252018Y-45993401D01*
X84250000Y-46031407D01*
X84250000Y-46750000D01*
X86000000Y-46750000D01*
X86000000Y-47250000D01*
X84250001Y-47250000D01*
X84250001Y-47968591D01*
X84252794Y-48021190D01*
X84297237Y-48250987D01*
X84379879Y-48469975D01*
X84498339Y-48671841D01*
X84498344Y-48671848D01*
X84649211Y-48850786D01*
X84649213Y-48850788D01*
X84828151Y-49001655D01*
X84828158Y-49001660D01*
X85030024Y-49120120D01*
X85249012Y-49202762D01*
X85478808Y-49247205D01*
X85531408Y-49249999D01*
X86249999Y-49249999D01*
X86250000Y-49249998D01*
X86250000Y-48433686D01*
X86290156Y-48459493D01*
X86428111Y-48500000D01*
X86571889Y-48500000D01*
X86709844Y-48459493D01*
X86750000Y-48433686D01*
X86750000Y-49249999D01*
X86876000Y-49249999D01*
X86943039Y-49269684D01*
X86988794Y-49322488D01*
X87000000Y-49373999D01*
X87000000Y-54713959D01*
X86980315Y-54780998D01*
X86963680Y-54801641D01*
X86906338Y-54858983D01*
X86904133Y-54861081D01*
X86766843Y-54985513D01*
X86764224Y-54987758D01*
X86622483Y-55102538D01*
X86472653Y-55213657D01*
X86469487Y-55215856D01*
X86316550Y-55315175D01*
X86156880Y-55410877D01*
X86153152Y-55412940D01*
X85990538Y-55495797D01*
X85822766Y-55575145D01*
X85818476Y-55576980D01*
X85647595Y-55642575D01*
X85473745Y-55704777D01*
X85468903Y-55706289D01*
X85290880Y-55753990D01*
X85113364Y-55798455D01*
X85107996Y-55799550D01*
X84922678Y-55828900D01*
X84745325Y-55855207D01*
X84739470Y-55855793D01*
X84534375Y-55866541D01*
X84376457Y-55874299D01*
X84373414Y-55874374D01*
X71701530Y-55874374D01*
X71698487Y-55874299D01*
X71548194Y-55866916D01*
X71335636Y-55855773D01*
X71329781Y-55855187D01*
X71155426Y-55829324D01*
X70967065Y-55799489D01*
X70961697Y-55798394D01*
X70786238Y-55754444D01*
X70606104Y-55706175D01*
X70601263Y-55704663D01*
X70429103Y-55643063D01*
X70256954Y-55576980D01*
X70256496Y-55576804D01*
X70252205Y-55574969D01*
X70085886Y-55496306D01*
X69921790Y-55412694D01*
X69918062Y-55410630D01*
X69759627Y-55315666D01*
X69605458Y-55215547D01*
X69602292Y-55213348D01*
X69453523Y-55103014D01*
X69332544Y-55005047D01*
X69310688Y-54987349D01*
X69308073Y-54985107D01*
X69171734Y-54861537D01*
X69169530Y-54859438D01*
X69040560Y-54730468D01*
X69038461Y-54728264D01*
X68986741Y-54671200D01*
X68914891Y-54591925D01*
X68912655Y-54589317D01*
X68862095Y-54526880D01*
X68796985Y-54446476D01*
X68686650Y-54297706D01*
X68684451Y-54294540D01*
X68584333Y-54140372D01*
X68535635Y-54059127D01*
X68489357Y-53981917D01*
X68487304Y-53978207D01*
X68403693Y-53814113D01*
X68325020Y-53647774D01*
X68323202Y-53643521D01*
X68256946Y-53470923D01*
X68195325Y-53298704D01*
X68193823Y-53293894D01*
X68145555Y-53113761D01*
X68101599Y-52938280D01*
X68100513Y-52932954D01*
X68070681Y-52744612D01*
X68044808Y-52570194D01*
X68044226Y-52564381D01*
X68033086Y-52351868D01*
X68028784Y-52264274D01*
X68025701Y-52201513D01*
X68025626Y-52198471D01*
X68025626Y-51003805D01*
X69184357Y-51003805D01*
X69204890Y-51251612D01*
X69204892Y-51251624D01*
X69265936Y-51492681D01*
X69365826Y-51720406D01*
X69501833Y-51928582D01*
X69501836Y-51928585D01*
X69670256Y-52111538D01*
X69866491Y-52264274D01*
X70085190Y-52382628D01*
X70320386Y-52463371D01*
X70565665Y-52504300D01*
X70814335Y-52504300D01*
X71059614Y-52463371D01*
X71294810Y-52382628D01*
X71513509Y-52264274D01*
X71709744Y-52111538D01*
X71878164Y-51928585D01*
X72014173Y-51720407D01*
X72114063Y-51492681D01*
X72175108Y-51251621D01*
X72175109Y-51251612D01*
X72195643Y-51003805D01*
X72994357Y-51003805D01*
X73014890Y-51251612D01*
X73014892Y-51251624D01*
X73075936Y-51492681D01*
X73175826Y-51720406D01*
X73311833Y-51928582D01*
X73311836Y-51928585D01*
X73480256Y-52111538D01*
X73676491Y-52264274D01*
X73895190Y-52382628D01*
X74130386Y-52463371D01*
X74375665Y-52504300D01*
X74624335Y-52504300D01*
X74869614Y-52463371D01*
X75104810Y-52382628D01*
X75323509Y-52264274D01*
X75519744Y-52111538D01*
X75688164Y-51928585D01*
X75824173Y-51720407D01*
X75924063Y-51492681D01*
X75985108Y-51251621D01*
X75985109Y-51251612D01*
X76005643Y-51003805D01*
X76005643Y-51003794D01*
X75985109Y-50755987D01*
X75985107Y-50755975D01*
X75924063Y-50514918D01*
X75824173Y-50287193D01*
X75688166Y-50079017D01*
X75666557Y-50055544D01*
X75519744Y-49896062D01*
X75332084Y-49750000D01*
X79550000Y-49750000D01*
X80366314Y-49750000D01*
X80340507Y-49790156D01*
X80300000Y-49928111D01*
X80300000Y-50071889D01*
X80340507Y-50209844D01*
X80366314Y-50250000D01*
X79550001Y-50250000D01*
X79550001Y-50814192D01*
X79560400Y-50946332D01*
X79615377Y-51164519D01*
X79708428Y-51369374D01*
X79708431Y-51369380D01*
X79836559Y-51554323D01*
X79836569Y-51554335D01*
X79995664Y-51713430D01*
X79995676Y-51713440D01*
X80180619Y-51841568D01*
X80180625Y-51841571D01*
X80385480Y-51934622D01*
X80603667Y-51989599D01*
X80735807Y-52000000D01*
X81549999Y-51999999D01*
X81550000Y-51999998D01*
X81550000Y-50500000D01*
X82050000Y-50500000D01*
X82050000Y-51999999D01*
X82864192Y-51999999D01*
X82996332Y-51989599D01*
X83214519Y-51934622D01*
X83419374Y-51841571D01*
X83419380Y-51841568D01*
X83604323Y-51713440D01*
X83604335Y-51713430D01*
X83763430Y-51554335D01*
X83763440Y-51554323D01*
X83891568Y-51369380D01*
X83891571Y-51369374D01*
X83984622Y-51164519D01*
X84039599Y-50946332D01*
X84050000Y-50814194D01*
X84050000Y-50250000D01*
X83233686Y-50250000D01*
X83259493Y-50209844D01*
X83300000Y-50071889D01*
X83300000Y-49928111D01*
X83259493Y-49790156D01*
X83233686Y-49750000D01*
X84049999Y-49750000D01*
X84049999Y-49185808D01*
X84039599Y-49053667D01*
X83984622Y-48835480D01*
X83891571Y-48630625D01*
X83891568Y-48630619D01*
X83763440Y-48445676D01*
X83763430Y-48445664D01*
X83604335Y-48286569D01*
X83604323Y-48286559D01*
X83419380Y-48158431D01*
X83419374Y-48158428D01*
X83214519Y-48065377D01*
X82996332Y-48010400D01*
X82864194Y-48000000D01*
X82050000Y-48000000D01*
X82050000Y-49500000D01*
X81550000Y-49500000D01*
X81550000Y-48000000D01*
X81549999Y-48000000D01*
X80735808Y-48000001D01*
X80603667Y-48010400D01*
X80385480Y-48065377D01*
X80180625Y-48158428D01*
X80180619Y-48158431D01*
X79995676Y-48286559D01*
X79995664Y-48286569D01*
X79836569Y-48445664D01*
X79836559Y-48445676D01*
X79708431Y-48630619D01*
X79708428Y-48630625D01*
X79615377Y-48835480D01*
X79560400Y-49053667D01*
X79550000Y-49185806D01*
X79550000Y-49750000D01*
X75332084Y-49750000D01*
X75323509Y-49743326D01*
X75323507Y-49743325D01*
X75323506Y-49743324D01*
X75104811Y-49624972D01*
X75104802Y-49624969D01*
X74869616Y-49544229D01*
X74624335Y-49503300D01*
X74375665Y-49503300D01*
X74130383Y-49544229D01*
X73895197Y-49624969D01*
X73895188Y-49624972D01*
X73676493Y-49743324D01*
X73480257Y-49896061D01*
X73311833Y-50079017D01*
X73175826Y-50287193D01*
X73075936Y-50514918D01*
X73014892Y-50755975D01*
X73014890Y-50755987D01*
X72994357Y-51003794D01*
X72994357Y-51003805D01*
X72195643Y-51003805D01*
X72195643Y-51003794D01*
X72175109Y-50755987D01*
X72175107Y-50755975D01*
X72114063Y-50514918D01*
X72014173Y-50287193D01*
X71878166Y-50079017D01*
X71856557Y-50055544D01*
X71709744Y-49896062D01*
X71513509Y-49743326D01*
X71513507Y-49743325D01*
X71513506Y-49743324D01*
X71294811Y-49624972D01*
X71294802Y-49624969D01*
X71059616Y-49544229D01*
X70814335Y-49503300D01*
X70565665Y-49503300D01*
X70320383Y-49544229D01*
X70085197Y-49624969D01*
X70085188Y-49624972D01*
X69866493Y-49743324D01*
X69670257Y-49896061D01*
X69501833Y-50079017D01*
X69365826Y-50287193D01*
X69265936Y-50514918D01*
X69204892Y-50755975D01*
X69204890Y-50755987D01*
X69184357Y-51003794D01*
X69184357Y-51003805D01*
X68025626Y-51003805D01*
X68025626Y-47047870D01*
X69189500Y-47047870D01*
X69189501Y-47047876D01*
X69195908Y-47107483D01*
X69246202Y-47242328D01*
X69246206Y-47242335D01*
X69332452Y-47357544D01*
X69332455Y-47357547D01*
X69447664Y-47443793D01*
X69447671Y-47443797D01*
X69582517Y-47494091D01*
X69582516Y-47494091D01*
X69589444Y-47494835D01*
X69642127Y-47500500D01*
X71737872Y-47500499D01*
X71797483Y-47494091D01*
X71932331Y-47443796D01*
X72047546Y-47357546D01*
X72133796Y-47242331D01*
X72184091Y-47107483D01*
X72190500Y-47047873D01*
X72190500Y-46000005D01*
X72994357Y-46000005D01*
X73014890Y-46247812D01*
X73014892Y-46247824D01*
X73075936Y-46488881D01*
X73175826Y-46716606D01*
X73311833Y-46924782D01*
X73311836Y-46924785D01*
X73480256Y-47107738D01*
X73676491Y-47260474D01*
X73895190Y-47378828D01*
X74130386Y-47459571D01*
X74375665Y-47500500D01*
X74624335Y-47500500D01*
X74869614Y-47459571D01*
X75104810Y-47378828D01*
X75323509Y-47260474D01*
X75519744Y-47107738D01*
X75688164Y-46924785D01*
X75824173Y-46716607D01*
X75924063Y-46488881D01*
X75985108Y-46247821D01*
X75989585Y-46193793D01*
X76005643Y-46000005D01*
X76005643Y-45999994D01*
X75985109Y-45752187D01*
X75985107Y-45752175D01*
X75924063Y-45511118D01*
X75824173Y-45283393D01*
X75688166Y-45075217D01*
X75617399Y-44998344D01*
X75519744Y-44892262D01*
X75323509Y-44739526D01*
X75323507Y-44739525D01*
X75323506Y-44739524D01*
X75104811Y-44621172D01*
X75104802Y-44621169D01*
X74869616Y-44540429D01*
X74624335Y-44499500D01*
X74375665Y-44499500D01*
X74130383Y-44540429D01*
X73895197Y-44621169D01*
X73895188Y-44621172D01*
X73676493Y-44739524D01*
X73480257Y-44892261D01*
X73311833Y-45075217D01*
X73175826Y-45283393D01*
X73075936Y-45511118D01*
X73014892Y-45752175D01*
X73014890Y-45752187D01*
X72994357Y-45999994D01*
X72994357Y-46000005D01*
X72190500Y-46000005D01*
X72190499Y-44952128D01*
X72184091Y-44892517D01*
X72179377Y-44879879D01*
X72133797Y-44757671D01*
X72133793Y-44757664D01*
X72047547Y-44642455D01*
X72047544Y-44642452D01*
X71932335Y-44556206D01*
X71932328Y-44556202D01*
X71797482Y-44505908D01*
X71797483Y-44505908D01*
X71737883Y-44499501D01*
X71737881Y-44499500D01*
X71737873Y-44499500D01*
X71737864Y-44499500D01*
X69642129Y-44499500D01*
X69642123Y-44499501D01*
X69582516Y-44505908D01*
X69447671Y-44556202D01*
X69447664Y-44556206D01*
X69332455Y-44642452D01*
X69332452Y-44642455D01*
X69246206Y-44757664D01*
X69246202Y-44757671D01*
X69195908Y-44892517D01*
X69189501Y-44952116D01*
X69189501Y-44952123D01*
X69189500Y-44952135D01*
X69189500Y-47047870D01*
X68025626Y-47047870D01*
X68025626Y-32052324D01*
X71520630Y-32052324D01*
X71530939Y-32242476D01*
X71581887Y-32425969D01*
X71581888Y-32425972D01*
X71671087Y-32594217D01*
X71671088Y-32594220D01*
X71794368Y-32739356D01*
X71794369Y-32739357D01*
X71945971Y-32854602D01*
X71945972Y-32854602D01*
X71945973Y-32854603D01*
X71945974Y-32854604D01*
X72051758Y-32903543D01*
X72118803Y-32934562D01*
X72118804Y-32934562D01*
X72118806Y-32934563D01*
X72175227Y-32946982D01*
X72304784Y-32975500D01*
X72304785Y-32975500D01*
X72447459Y-32975500D01*
X72447465Y-32975500D01*
X72589316Y-32960073D01*
X72769780Y-32899267D01*
X72932954Y-32801089D01*
X73071207Y-32670129D01*
X73178075Y-32512510D01*
X73178077Y-32512506D01*
X73248561Y-32335606D01*
X73248562Y-32335602D01*
X73279370Y-32147678D01*
X73277094Y-32105710D01*
X73293119Y-32037707D01*
X73343368Y-31989160D01*
X73400912Y-31974999D01*
X73749999Y-31974999D01*
X73750000Y-31974998D01*
X73750000Y-30908018D01*
X73864801Y-30960446D01*
X73966025Y-30975000D01*
X74033975Y-30975000D01*
X74135199Y-30960446D01*
X74250000Y-30908018D01*
X74250000Y-31974999D01*
X74649972Y-31974999D01*
X74649986Y-31974998D01*
X74752697Y-31964505D01*
X74919119Y-31909358D01*
X74919124Y-31909356D01*
X75068345Y-31817315D01*
X75192315Y-31693345D01*
X75287815Y-31538516D01*
X75339763Y-31491792D01*
X75408726Y-31480569D01*
X75472808Y-31508413D01*
X75481035Y-31515931D01*
X75628599Y-31663495D01*
X75628602Y-31663497D01*
X75628603Y-31663498D01*
X75822165Y-31799032D01*
X75822167Y-31799033D01*
X75822170Y-31799035D01*
X76036337Y-31898903D01*
X76036343Y-31898904D01*
X76036344Y-31898905D01*
X76075356Y-31909358D01*
X76264592Y-31960063D01*
X76452918Y-31976539D01*
X76499999Y-31980659D01*
X76500000Y-31980659D01*
X76500001Y-31980659D01*
X76539234Y-31977226D01*
X76735408Y-31960063D01*
X76963663Y-31898903D01*
X77177829Y-31799035D01*
X77371401Y-31663495D01*
X77538495Y-31496401D01*
X77648426Y-31339401D01*
X77703001Y-31295778D01*
X77772500Y-31288584D01*
X77834855Y-31320106D01*
X77851571Y-31339398D01*
X77893241Y-31398909D01*
X77961506Y-31496403D01*
X78070888Y-31605784D01*
X78128599Y-31663495D01*
X78225384Y-31731265D01*
X78322165Y-31799032D01*
X78322167Y-31799033D01*
X78322170Y-31799035D01*
X78536337Y-31898903D01*
X78536343Y-31898904D01*
X78536344Y-31898905D01*
X78575356Y-31909358D01*
X78764592Y-31960063D01*
X78952918Y-31976539D01*
X78999999Y-31980659D01*
X79000000Y-31980659D01*
X79000001Y-31980659D01*
X79039234Y-31977226D01*
X79235408Y-31960063D01*
X79463663Y-31898903D01*
X79677829Y-31799035D01*
X79871401Y-31663495D01*
X80038495Y-31496401D01*
X80148426Y-31339401D01*
X80203001Y-31295778D01*
X80272500Y-31288584D01*
X80334855Y-31320106D01*
X80351571Y-31339398D01*
X80393241Y-31398909D01*
X80461506Y-31496403D01*
X80570888Y-31605784D01*
X80628599Y-31663495D01*
X80725384Y-31731265D01*
X80822165Y-31799032D01*
X80822167Y-31799033D01*
X80822170Y-31799035D01*
X81036337Y-31898903D01*
X81036343Y-31898904D01*
X81036344Y-31898905D01*
X81075356Y-31909358D01*
X81264592Y-31960063D01*
X81452918Y-31976539D01*
X81499999Y-31980659D01*
X81500000Y-31980659D01*
X81500001Y-31980659D01*
X81539234Y-31977226D01*
X81735408Y-31960063D01*
X81963663Y-31898903D01*
X82177829Y-31799035D01*
X82371401Y-31663495D01*
X82538495Y-31496401D01*
X82674035Y-31302829D01*
X82773903Y-31088663D01*
X82835063Y-30860408D01*
X82850500Y-30683966D01*
X82850500Y-30316034D01*
X82835063Y-30139592D01*
X82773903Y-29911337D01*
X82674035Y-29697171D01*
X82661936Y-29679891D01*
X82538494Y-29503597D01*
X82371402Y-29336506D01*
X82371395Y-29336501D01*
X82177834Y-29200967D01*
X82177830Y-29200965D01*
X82138626Y-29182684D01*
X81963663Y-29101097D01*
X81963659Y-29101096D01*
X81963655Y-29101094D01*
X81735413Y-29039938D01*
X81735403Y-29039936D01*
X81500001Y-29019341D01*
X81499999Y-29019341D01*
X81264596Y-29039936D01*
X81264586Y-29039938D01*
X81036344Y-29101094D01*
X81036335Y-29101098D01*
X80822171Y-29200964D01*
X80822169Y-29200965D01*
X80628597Y-29336505D01*
X80461505Y-29503597D01*
X80351575Y-29660595D01*
X80296998Y-29704220D01*
X80227500Y-29711414D01*
X80165145Y-29679891D01*
X80148425Y-29660595D01*
X80038494Y-29503597D01*
X79871402Y-29336506D01*
X79871395Y-29336501D01*
X79677834Y-29200967D01*
X79677830Y-29200965D01*
X79638626Y-29182684D01*
X79463663Y-29101097D01*
X79463659Y-29101096D01*
X79463655Y-29101094D01*
X79235413Y-29039938D01*
X79235403Y-29039936D01*
X79000001Y-29019341D01*
X78999999Y-29019341D01*
X78764596Y-29039936D01*
X78764586Y-29039938D01*
X78536344Y-29101094D01*
X78536335Y-29101098D01*
X78322171Y-29200964D01*
X78322169Y-29200965D01*
X78128597Y-29336505D01*
X77961505Y-29503597D01*
X77851575Y-29660595D01*
X77796998Y-29704220D01*
X77727500Y-29711414D01*
X77665145Y-29679891D01*
X77648425Y-29660595D01*
X77538494Y-29503597D01*
X77371402Y-29336506D01*
X77371395Y-29336501D01*
X77177834Y-29200967D01*
X77177830Y-29200965D01*
X77138626Y-29182684D01*
X76963663Y-29101097D01*
X76963659Y-29101096D01*
X76963655Y-29101094D01*
X76735413Y-29039938D01*
X76735403Y-29039936D01*
X76500001Y-29019341D01*
X76499999Y-29019341D01*
X76264596Y-29039936D01*
X76264586Y-29039938D01*
X76036344Y-29101094D01*
X76036335Y-29101098D01*
X75822171Y-29200964D01*
X75822169Y-29200965D01*
X75628597Y-29336505D01*
X75481035Y-29484068D01*
X75419712Y-29517553D01*
X75350020Y-29512569D01*
X75294087Y-29470697D01*
X75287815Y-29461484D01*
X75192315Y-29306654D01*
X75068345Y-29182684D01*
X74919124Y-29090643D01*
X74919119Y-29090641D01*
X74752697Y-29035494D01*
X74752690Y-29035493D01*
X74649986Y-29025000D01*
X74250000Y-29025000D01*
X74250000Y-30091981D01*
X74135199Y-30039554D01*
X74033975Y-30025000D01*
X73966025Y-30025000D01*
X73864801Y-30039554D01*
X73750000Y-30091981D01*
X73750000Y-29025000D01*
X73350028Y-29025000D01*
X73350012Y-29025001D01*
X73247302Y-29035494D01*
X73080880Y-29090641D01*
X73080875Y-29090643D01*
X72931654Y-29182684D01*
X72807684Y-29306654D01*
X72715643Y-29455875D01*
X72715641Y-29455880D01*
X72660494Y-29622302D01*
X72660493Y-29622309D01*
X72650000Y-29725013D01*
X72650000Y-30250000D01*
X73596031Y-30250000D01*
X73563481Y-30300649D01*
X73525000Y-30431705D01*
X73525000Y-30568295D01*
X73563481Y-30699351D01*
X73596031Y-30750000D01*
X72650000Y-30750000D01*
X72650000Y-31104307D01*
X72630315Y-31171347D01*
X72577511Y-31217101D01*
X72508353Y-31227045D01*
X72499351Y-31225410D01*
X72495216Y-31224500D01*
X72352535Y-31224500D01*
X72352533Y-31224500D01*
X72210683Y-31239927D01*
X72030217Y-31300734D01*
X71867048Y-31398909D01*
X71728791Y-31529872D01*
X71621922Y-31687493D01*
X71551438Y-31864393D01*
X71520630Y-32052324D01*
X68025626Y-32052324D01*
X68025626Y-29501528D01*
X68025701Y-29498486D01*
X68033115Y-29347556D01*
X68033694Y-29336501D01*
X68043290Y-29153392D01*
X68043870Y-29147593D01*
X68068986Y-28978277D01*
X68096843Y-28802397D01*
X68097932Y-28797065D01*
X68140353Y-28627714D01*
X68185644Y-28458683D01*
X68187134Y-28453909D01*
X68246485Y-28288036D01*
X68308786Y-28125737D01*
X68310600Y-28121496D01*
X68386292Y-27961459D01*
X68464994Y-27806998D01*
X68467017Y-27803345D01*
X68558365Y-27650942D01*
X68652650Y-27505756D01*
X68654775Y-27502695D01*
X68760934Y-27359557D01*
X68869825Y-27225089D01*
X68872047Y-27222498D01*
X68990914Y-27091349D01*
X68992944Y-27089217D01*
X69114333Y-26967828D01*
X69116447Y-26965815D01*
X69247683Y-26846871D01*
X69250233Y-26844684D01*
X69384585Y-26735887D01*
X69527887Y-26629608D01*
X69530977Y-26627462D01*
X69675847Y-26533382D01*
X69828613Y-26441818D01*
X69832254Y-26439802D01*
X69986195Y-26361364D01*
X70146796Y-26285406D01*
X70151033Y-26283595D01*
X70312531Y-26221601D01*
X70479212Y-26161963D01*
X70484007Y-26160465D01*
X70651702Y-26115531D01*
X70822460Y-26072759D01*
X70827735Y-26071683D01*
X71001124Y-26044221D01*
X71172970Y-26018731D01*
X71178766Y-26018151D01*
X71364799Y-26008401D01*
X71492140Y-26002146D01*
X71524136Y-26000575D01*
X71527178Y-26000500D01*
X84548724Y-26000500D01*
X84551766Y-26000575D01*
G37*
%TD.AperFunction*%
%TD*%
M02*
