<?xml version="1.0" encoding="UTF-8" standalone="no"?>
<!DOCTYPE svg PUBLIC "-//W3C//DTD SVG 1.1//EN" "http://www.w3.org/Graphics/SVG/1.1/DTD/svg11.dtd">
<svg width="100%" height="100%" viewBox="0 0 1182 1182" version="1.1" xmlns="http://www.w3.org/2000/svg" xmlns:xlink="http://www.w3.org/1999/xlink" xml:space="preserve" xmlns:serif="http://www.serif.com/" style="fill-rule:evenodd;clip-rule:evenodd;stroke-linejoin:round;stroke-miterlimit:2;">
    <g transform="matrix(4.16667,0,0,4.16667,-527.282,-502.117)">
        <rect x="233.079" y="166.181" width="4.819" height="4.819" style="fill:rgb(44,255,0);stroke:rgb(44,255,0);stroke-width:0.24px;"/>
    </g>
    <g transform="matrix(4.16667,0,0,4.16667,-527.282,-502.117)">
        <circle cx="242.688" cy="168.591" r="2.409" style="fill:rgb(44,255,0);stroke:rgb(44,255,0);stroke-width:0.24px;"/>
    </g>
    <g transform="matrix(4.16667,0,0,4.16667,-527.282,-502.117)">
        <circle cx="249.888" cy="168.591" r="2.409" style="fill:rgb(44,255,0);stroke:rgb(44,255,0);stroke-width:0.24px;"/>
    </g>
    <g transform="matrix(4.16667,0,0,4.16667,-527.282,-502.117)">
        <circle cx="170.079" cy="325.984" r="1.984" style="fill:rgb(44,255,0);stroke:rgb(44,255,0);stroke-width:0.24px;"/>
    </g>
    <g transform="matrix(4.16667,0,0,4.16667,-527.282,-502.117)">
        <circle cx="170.079" cy="340.384" r="1.984" style="fill:rgb(44,255,0);stroke:rgb(44,255,0);stroke-width:0.24px;"/>
    </g>
    <g transform="matrix(4.16667,0,0,4.16667,-527.282,-502.117)">
        <rect x="341.575" y="216.142" width="5.669" height="5.669" style="fill:rgb(44,255,0);stroke:rgb(44,255,0);stroke-width:0.24px;"/>
    </g>
    <g transform="matrix(4.16667,0,0,4.16667,-527.282,-502.117)">
        <circle cx="330.225" cy="218.976" r="2.835" style="fill:rgb(44,255,0);stroke:rgb(44,255,0);stroke-width:0.24px;"/>
    </g>
    <g transform="matrix(4.16667,0,0,4.16667,-527.282,-502.117)">
        <circle cx="344.409" cy="229.776" r="2.835" style="fill:rgb(44,255,0);stroke:rgb(44,255,0);stroke-width:0.24px;"/>
    </g>
    <g transform="matrix(4.16667,0,0,4.16667,-527.282,-502.117)">
        <circle cx="330.225" cy="229.776" r="2.835" style="fill:rgb(44,255,0);stroke:rgb(44,255,0);stroke-width:0.24px;"/>
    </g>
    <g transform="matrix(4.16667,0,0,4.16667,-527.282,-502.117)">
        <circle cx="344.409" cy="240.576" r="2.835" style="fill:rgb(44,255,0);stroke:rgb(44,255,0);stroke-width:0.24px;"/>
    </g>
    <g transform="matrix(4.16667,0,0,4.16667,-527.282,-502.117)">
        <circle cx="330.225" cy="240.576" r="2.835" style="fill:rgb(44,255,0);stroke:rgb(44,255,0);stroke-width:0.24px;"/>
    </g>
    <g transform="matrix(4.16667,0,0,4.16667,-527.282,-502.117)">
        <circle cx="344.409" cy="251.376" r="2.835" style="fill:rgb(44,255,0);stroke:rgb(44,255,0);stroke-width:0.24px;"/>
    </g>
    <g transform="matrix(4.16667,0,0,4.16667,-527.282,-502.117)">
        <circle cx="330.225" cy="251.376" r="2.835" style="fill:rgb(44,255,0);stroke:rgb(44,255,0);stroke-width:0.24px;"/>
    </g>
    <g transform="matrix(4.16667,0,0,4.16667,-527.282,-502.117)">
        <circle cx="158.173" cy="365.669" r="3.118" style="fill:rgb(44,255,0);stroke:rgb(44,255,0);stroke-width:0.24px;"/>
    </g>
    <g transform="matrix(4.16667,0,0,4.16667,-527.282,-502.117)">
        <circle cx="158.173" cy="345.827" r="3.118" style="fill:rgb(44,255,0);stroke:rgb(44,255,0);stroke-width:0.24px;"/>
    </g>
    <g transform="matrix(4.16667,0,0,4.16667,-527.282,-502.117)">
        <circle cx="151.087" cy="362.126" r="2.409" style="fill:rgb(44,255,0);stroke:rgb(44,255,0);stroke-width:0.24px;"/>
    </g>
    <g transform="matrix(4.16667,0,0,4.16667,-527.282,-502.117)">
        <circle cx="151.087" cy="349.37" r="2.409" style="fill:rgb(44,255,0);stroke:rgb(44,255,0);stroke-width:0.24px;"/>
    </g>
    <g transform="matrix(4.16667,0,0,4.16667,-527.282,-502.117)">
        <circle cx="248.726" cy="362.537" r="1.984" style="fill:rgb(44,255,0);stroke:rgb(44,255,0);stroke-width:0.24px;"/>
    </g>
    <g transform="matrix(4.16667,0,0,4.16667,-527.282,-502.117)">
        <circle cx="248.726" cy="376.937" r="1.984" style="fill:rgb(44,255,0);stroke:rgb(44,255,0);stroke-width:0.24px;"/>
    </g>
    <g transform="matrix(4.16667,0,0,4.16667,-527.282,-502.117)">
        <rect x="271.559" y="201.189" width="4.819" height="4.819" style="fill:rgb(44,255,0);stroke:rgb(44,255,0);stroke-width:0.24px;"/>
    </g>
    <g transform="matrix(4.16667,0,0,4.16667,-527.282,-502.117)">
        <circle cx="281.169" cy="203.598" r="2.409" style="fill:rgb(44,255,0);stroke:rgb(44,255,0);stroke-width:0.24px;"/>
    </g>
    <g transform="matrix(4.16667,0,0,4.16667,-527.282,-502.117)">
        <circle cx="288.369" cy="203.598" r="2.409" style="fill:rgb(44,255,0);stroke:rgb(44,255,0);stroke-width:0.24px;"/>
    </g>
    <g transform="matrix(4.16667,0,0,4.16667,-527.282,-502.117)">
        <circle cx="295.569" cy="203.598" r="2.409" style="fill:rgb(44,255,0);stroke:rgb(44,255,0);stroke-width:0.24px;"/>
    </g>
    <g transform="matrix(4.16667,0,0,4.16667,-527.282,-502.117)">
        <circle cx="302.769" cy="203.598" r="2.409" style="fill:rgb(44,255,0);stroke:rgb(44,255,0);stroke-width:0.24px;"/>
    </g>
    <g transform="matrix(4.16667,0,0,4.16667,-527.282,-502.117)">
        <circle cx="309.969" cy="203.598" r="2.409" style="fill:rgb(44,255,0);stroke:rgb(44,255,0);stroke-width:0.24px;"/>
    </g>
    <g transform="matrix(4.16667,0,0,4.16667,-527.282,-502.117)">
        <rect x="148.819" y="211.748" width="5.669" height="5.669" style="fill:rgb(44,255,0);stroke:rgb(44,255,0);stroke-width:0.24px;"/>
    </g>
    <g transform="matrix(4.16667,0,0,4.16667,-527.282,-502.117)">
        <circle cx="165.838" cy="214.583" r="2.835" style="fill:rgb(44,255,0);stroke:rgb(44,255,0);stroke-width:0.24px;"/>
    </g>
    <g transform="matrix(4.16667,0,0,4.16667,-527.282,-502.117)">
        <circle cx="151.654" cy="203.783" r="2.835" style="fill:rgb(44,255,0);stroke:rgb(44,255,0);stroke-width:0.24px;"/>
    </g>
    <g transform="matrix(4.16667,0,0,4.16667,-527.282,-502.117)">
        <circle cx="165.838" cy="203.783" r="2.835" style="fill:rgb(44,255,0);stroke:rgb(44,255,0);stroke-width:0.24px;"/>
    </g>
    <g transform="matrix(4.16667,0,0,4.16667,-527.282,-502.117)">
        <rect x="303.874" y="230.173" width="4.535" height="4.535" style="fill:rgb(44,255,0);stroke:rgb(44,255,0);stroke-width:0.24px;"/>
    </g>
    <g transform="matrix(4.16667,0,0,4.16667,-527.282,-502.117)">
        <circle cx="311.811" cy="232.441" r="2.268" style="fill:rgb(44,255,0);stroke:rgb(44,255,0);stroke-width:0.24px;"/>
    </g>
    <g transform="matrix(4.16667,0,0,4.16667,-527.282,-502.117)">
        <circle cx="257.953" cy="238.337" r="1.984" style="fill:rgb(44,255,0);stroke:rgb(44,255,0);stroke-width:0.24px;"/>
    </g>
    <g transform="matrix(4.16667,0,0,4.16667,-527.282,-502.117)">
        <circle cx="257.953" cy="223.937" r="1.984" style="fill:rgb(44,255,0);stroke:rgb(44,255,0);stroke-width:0.24px;"/>
    </g>
    <g transform="matrix(4.16667,0,0,4.16667,-527.282,-502.117)">
        <rect x="238.662" y="195.296" width="4.819" height="4.819" style="fill:rgb(44,255,0);stroke:rgb(44,255,0);stroke-width:0.24px;"/>
    </g>
    <g transform="matrix(4.16667,0,0,4.16667,-527.282,-502.117)">
        <circle cx="241.072" cy="205.338" r="2.409" style="fill:rgb(44,255,0);stroke:rgb(44,255,0);stroke-width:0.24px;"/>
    </g>
    <g transform="matrix(4.16667,0,0,4.16667,-527.282,-502.117)">
        <path d="M236.126,198.376L236.17,197.822L236.325,197.206L236.587,196.628L236.949,196.106L237.398,195.656L237.921,195.295L238.499,195.032L239.115,194.877L239.669,194.833L246.756,194.833L247.31,194.877L247.926,195.032L248.505,195.295L249.027,195.656L249.476,196.106L249.838,196.628L250.101,197.206L250.256,197.822L250.299,198.376L250.299,205.463L250.256,206.017L250.101,206.633L249.838,207.212L249.476,207.734L249.027,208.183L248.505,208.545L247.926,208.808L247.31,208.963L246.756,209.006L239.669,209.006L239.115,208.963L238.499,208.808L237.921,208.545L237.398,208.183L236.949,207.734L236.587,207.212L236.325,206.633L236.17,206.017L236.126,205.463L236.126,198.376Z" style="fill:rgb(44,255,0);stroke:rgb(44,255,0);stroke-width:0.24px;"/>
    </g>
    <g transform="matrix(4.16667,0,0,4.16667,-527.282,-502.117)">
        <circle cx="241.216" cy="236.802" r="2.409" style="fill:rgb(44,255,0);stroke:rgb(44,255,0);stroke-width:0.24px;"/>
    </g>
    <g transform="matrix(4.16667,0,0,4.16667,-527.282,-502.117)">
        <rect x="238.878" y="226.976" width="4.819" height="4.819" style="fill:rgb(44,255,0);stroke:rgb(44,255,0);stroke-width:0.24px;"/>
    </g>
    <g transform="matrix(4.16667,0,0,4.16667,-527.282,-502.117)">
        <path d="M236.268,229.841L236.311,229.287L236.466,228.671L236.729,228.092L237.091,227.57L237.54,227.121L238.062,226.759L238.641,226.496L239.257,226.341L239.811,226.298L246.898,226.298L247.452,226.341L248.068,226.496L248.646,226.759L249.168,227.121L249.618,227.57L249.979,228.092L250.242,228.671L250.397,229.287L250.441,229.841L250.441,236.928L250.397,237.482L250.242,238.098L249.979,238.676L249.618,239.198L249.168,239.648L248.646,240.009L248.068,240.272L247.452,240.427L246.898,240.471L239.811,240.471L239.257,240.427L238.641,240.272L238.062,240.009L237.54,239.648L237.091,239.198L236.729,238.676L236.466,238.098L236.311,237.482L236.268,236.928L236.268,229.841Z" style="fill:rgb(44,255,0);stroke:rgb(44,255,0);stroke-width:0.24px;"/>
    </g>
    <g transform="matrix(4.16667,0,0,4.16667,-527.282,-502.117)">
        <path d="M179.858,229.983L179.902,229.429L180.057,228.813L180.32,228.234L180.681,227.712L181.131,227.263L181.653,226.901L182.231,226.638L182.847,226.483L183.402,226.439L190.488,226.439L191.042,226.483L191.658,226.638L192.237,226.901L192.759,227.263L193.208,227.712L193.57,228.234L193.833,228.813L193.988,229.429L194.031,229.983L194.031,237.069L193.988,237.624L193.833,238.239L193.57,238.818L193.208,239.34L192.759,239.789L192.237,240.151L191.658,240.414L191.042,240.569L190.488,240.613L183.402,240.613L182.847,240.569L182.231,240.414L181.653,240.151L181.131,239.789L180.681,239.34L180.32,238.818L180.057,238.239L179.902,237.624L179.858,237.069L179.858,229.983Z" style="fill:rgb(44,255,0);stroke:rgb(44,255,0);stroke-width:0.24px;"/>
    </g>
    <g transform="matrix(4.16667,0,0,4.16667,-527.282,-502.117)">
        <rect x="187.254" y="227.336" width="4.819" height="4.819" style="fill:rgb(44,255,0);stroke:rgb(44,255,0);stroke-width:0.24px;"/>
    </g>
    <g transform="matrix(4.16667,0,0,4.16667,-527.282,-502.117)">
        <circle cx="189.78" cy="237.495" r="2.409" style="fill:rgb(44,255,0);stroke:rgb(44,255,0);stroke-width:0.24px;"/>
    </g>
    <g transform="matrix(4.16667,0,0,4.16667,-527.282,-502.117)">
        <path d="M179.575,198.802L179.618,198.247L179.774,197.631L180.036,197.053L180.398,196.531L180.847,196.082L181.369,195.72L181.948,195.457L182.564,195.302L183.118,195.258L190.205,195.258L190.759,195.302L191.375,195.457L191.953,195.72L192.476,196.082L192.925,196.531L193.287,197.053L193.549,197.631L193.704,198.247L193.748,198.802L193.748,205.888L193.704,206.442L193.549,207.058L193.287,207.637L192.925,208.159L192.476,208.608L191.953,208.97L191.375,209.233L190.759,209.388L190.205,209.432L183.118,209.432L182.564,209.388L181.948,209.233L181.369,208.97L180.847,208.608L180.398,208.159L180.036,207.637L179.774,207.058L179.618,206.442L179.575,205.888L179.575,198.802Z" style="fill:rgb(44,255,0);stroke:rgb(44,255,0);stroke-width:0.24px;"/>
    </g>
    <g transform="matrix(4.16667,0,0,4.16667,-527.282,-502.117)">
        <circle cx="189.088" cy="206.058" r="2.409" style="fill:rgb(44,255,0);stroke:rgb(44,255,0);stroke-width:0.24px;"/>
    </g>
    <g transform="matrix(4.16667,0,0,4.16667,-527.282,-502.117)">
        <rect x="186.822" y="195.8" width="4.819" height="4.819" style="fill:rgb(44,255,0);stroke:rgb(44,255,0);stroke-width:0.24px;"/>
    </g>
    <g transform="matrix(4.16667,0,0,4.16667,-527.282,-502.117)">
        <circle cx="221.797" cy="362.537" r="1.984" style="fill:rgb(44,255,0);stroke:rgb(44,255,0);stroke-width:0.24px;"/>
    </g>
    <g transform="matrix(4.16667,0,0,4.16667,-527.282,-502.117)">
        <circle cx="221.797" cy="376.937" r="1.984" style="fill:rgb(44,255,0);stroke:rgb(44,255,0);stroke-width:0.24px;"/>
    </g>
    <g transform="matrix(4.16667,0,0,4.16667,-527.282,-502.117)">
        <circle cx="170.079" cy="367.172" r="1.984" style="fill:rgb(44,255,0);stroke:rgb(44,255,0);stroke-width:0.24px;"/>
    </g>
    <g transform="matrix(4.16667,0,0,4.16667,-527.282,-502.117)">
        <circle cx="170.079" cy="352.772" r="1.984" style="fill:rgb(44,255,0);stroke:rgb(44,255,0);stroke-width:0.24px;"/>
    </g>
    <g transform="matrix(4.16667,0,0,4.16667,-527.282,-502.117)">
        <rect x="341.575" y="162.283" width="5.669" height="5.669" style="fill:rgb(44,255,0);stroke:rgb(44,255,0);stroke-width:0.24px;"/>
    </g>
    <g transform="matrix(4.16667,0,0,4.16667,-527.282,-502.117)">
        <circle cx="330.225" cy="165.118" r="2.835" style="fill:rgb(44,255,0);stroke:rgb(44,255,0);stroke-width:0.24px;"/>
    </g>
    <g transform="matrix(4.16667,0,0,4.16667,-527.282,-502.117)">
        <circle cx="344.409" cy="175.918" r="2.835" style="fill:rgb(44,255,0);stroke:rgb(44,255,0);stroke-width:0.24px;"/>
    </g>
    <g transform="matrix(4.16667,0,0,4.16667,-527.282,-502.117)">
        <circle cx="330.225" cy="175.918" r="2.835" style="fill:rgb(44,255,0);stroke:rgb(44,255,0);stroke-width:0.24px;"/>
    </g>
    <g transform="matrix(4.16667,0,0,4.16667,-527.282,-502.117)">
        <circle cx="344.409" cy="186.718" r="2.835" style="fill:rgb(44,255,0);stroke:rgb(44,255,0);stroke-width:0.24px;"/>
    </g>
    <g transform="matrix(4.16667,0,0,4.16667,-527.282,-502.117)">
        <circle cx="330.225" cy="186.718" r="2.835" style="fill:rgb(44,255,0);stroke:rgb(44,255,0);stroke-width:0.24px;"/>
    </g>
    <g transform="matrix(4.16667,0,0,4.16667,-527.282,-502.117)">
        <circle cx="344.409" cy="197.518" r="2.835" style="fill:rgb(44,255,0);stroke:rgb(44,255,0);stroke-width:0.24px;"/>
    </g>
    <g transform="matrix(4.16667,0,0,4.16667,-527.282,-502.117)">
        <circle cx="330.225" cy="197.518" r="2.835" style="fill:rgb(44,255,0);stroke:rgb(44,255,0);stroke-width:0.24px;"/>
    </g>
    <g transform="matrix(4.16667,0,0,4.16667,-527.282,-502.117)">
        <rect x="286.809" y="231.789" width="3.118" height="5.102" style="fill:rgb(44,255,0);stroke:rgb(44,255,0);stroke-width:0.24px;"/>
    </g>
    <g transform="matrix(4.16667,0,0,4.16667,-527.282,-502.117)">
        <path d="M290.409,226.701L290.469,226.403L290.638,226.149L290.891,225.981L291.189,225.921L292.748,225.921L293.046,225.981L293.299,226.149L293.468,226.403L293.528,226.701L293.528,230.244L293.468,230.542L293.299,230.795L293.046,230.964L292.748,231.024L291.189,231.024L290.891,230.964L290.638,230.795L290.469,230.542L290.409,230.244L290.409,226.701Z" style="fill:rgb(44,255,0);stroke:rgb(44,255,0);stroke-width:0.24px;"/>
    </g>
    <g transform="matrix(4.16667,0,0,4.16667,-527.282,-502.117)">
        <path d="M294.009,232.569L294.069,232.27L294.238,232.017L294.491,231.848L294.789,231.789L296.348,231.789L296.646,231.848L296.899,232.017L297.068,232.27L297.128,232.569L297.128,236.112L297.068,236.41L296.899,236.663L296.646,236.832L296.348,236.891L294.789,236.891L294.491,236.832L294.238,236.663L294.069,236.41L294.009,236.112L294.009,232.569Z" style="fill:rgb(44,255,0);stroke:rgb(44,255,0);stroke-width:0.24px;"/>
    </g>
    <g transform="matrix(4.16667,0,0,4.16667,-527.282,-502.117)">
        <rect x="266.967" y="231.789" width="3.118" height="5.102" style="fill:rgb(44,255,0);stroke:rgb(44,255,0);stroke-width:0.24px;"/>
    </g>
    <g transform="matrix(4.16667,0,0,4.16667,-527.282,-502.117)">
        <path d="M270.567,226.701L270.626,226.403L270.795,226.149L271.048,225.981L271.346,225.921L272.906,225.921L273.204,225.981L273.457,226.149L273.626,226.403L273.685,226.701L273.685,230.244L273.626,230.542L273.457,230.795L273.204,230.964L272.906,231.024L271.346,231.024L271.048,230.964L270.795,230.795L270.626,230.542L270.567,230.244L270.567,226.701Z" style="fill:rgb(44,255,0);stroke:rgb(44,255,0);stroke-width:0.24px;"/>
    </g>
    <g transform="matrix(4.16667,0,0,4.16667,-527.282,-502.117)">
        <path d="M274.167,232.569L274.226,232.27L274.395,232.017L274.648,231.848L274.946,231.789L276.506,231.789L276.804,231.848L277.057,232.017L277.226,232.27L277.285,232.569L277.285,236.112L277.226,236.41L277.057,236.663L276.804,236.832L276.506,236.891L274.946,236.891L274.648,236.832L274.395,236.663L274.226,236.41L274.167,236.112L274.167,232.569Z" style="fill:rgb(44,255,0);stroke:rgb(44,255,0);stroke-width:0.24px;"/>
    </g>
    <g transform="matrix(4.16667,0,0,4.16667,-527.282,-502.117)">
        <circle cx="163.134" cy="148.252" r="2.849" style="fill:rgb(44,255,0);stroke:rgb(44,255,0);stroke-width:0.24px;"/>
    </g>
    <g transform="matrix(4.16667,0,0,4.16667,-527.282,-502.117)">
        <circle cx="177.591" cy="151.654" r="2.849" style="fill:rgb(44,255,0);stroke:rgb(44,255,0);stroke-width:0.24px;"/>
    </g>
    <g transform="matrix(4.16667,0,0,4.16667,-527.282,-502.117)">
        <circle cx="203.088" cy="362.254" r="1.984" style="fill:rgb(44,255,0);stroke:rgb(44,255,0);stroke-width:0.24px;"/>
    </g>
    <g transform="matrix(4.16667,0,0,4.16667,-527.282,-502.117)">
        <circle cx="203.088" cy="376.654" r="1.984" style="fill:rgb(44,255,0);stroke:rgb(44,255,0);stroke-width:0.24px;"/>
    </g>
    <g transform="matrix(4.16667,0,0,4.16667,-527.282,-502.117)">
        <circle cx="257.953" cy="214.129" r="1.984" style="fill:rgb(44,255,0);stroke:rgb(44,255,0);stroke-width:0.24px;"/>
    </g>
    <g transform="matrix(4.16667,0,0,4.16667,-527.282,-502.117)">
        <circle cx="257.953" cy="199.729" r="1.984" style="fill:rgb(44,255,0);stroke:rgb(44,255,0);stroke-width:0.24px;"/>
    </g>
    <g transform="matrix(4.16667,0,0,4.16667,-527.282,-502.117)">
        <circle cx="258.08" cy="362.537" r="1.984" style="fill:rgb(44,255,0);stroke:rgb(44,255,0);stroke-width:0.24px;"/>
    </g>
    <g transform="matrix(4.16667,0,0,4.16667,-527.282,-502.117)">
        <circle cx="258.08" cy="376.937" r="1.984" style="fill:rgb(44,255,0);stroke:rgb(44,255,0);stroke-width:0.24px;"/>
    </g>
    <g transform="matrix(4.16667,0,0,4.16667,-527.282,-502.117)">
        <rect x="186.874" y="165.898" width="4.819" height="4.819" style="fill:rgb(44,255,0);stroke:rgb(44,255,0);stroke-width:0.24px;"/>
    </g>
    <g transform="matrix(4.16667,0,0,4.16667,-527.282,-502.117)">
        <circle cx="196.483" cy="168.307" r="2.409" style="fill:rgb(44,255,0);stroke:rgb(44,255,0);stroke-width:0.24px;"/>
    </g>
    <g transform="matrix(4.16667,0,0,4.16667,-527.282,-502.117)">
        <circle cx="203.683" cy="168.307" r="2.409" style="fill:rgb(44,255,0);stroke:rgb(44,255,0);stroke-width:0.24px;"/>
    </g>
    <g transform="matrix(4.16667,0,0,4.16667,-527.282,-502.117)">
        <circle cx="212.443" cy="362.367" r="1.984" style="fill:rgb(44,255,0);stroke:rgb(44,255,0);stroke-width:0.24px;"/>
    </g>
    <g transform="matrix(4.16667,0,0,4.16667,-527.282,-502.117)">
        <circle cx="212.443" cy="376.767" r="1.984" style="fill:rgb(44,255,0);stroke:rgb(44,255,0);stroke-width:0.24px;"/>
    </g>
    <g transform="matrix(4.16667,0,0,4.16667,-527.282,-502.117)">
        <rect x="146.438" y="329.102" width="5.102" height="5.102" style="fill:rgb(44,255,0);stroke:rgb(44,255,0);stroke-width:0.24px;"/>
    </g>
    <g transform="matrix(4.16667,0,0,4.16667,-527.282,-502.117)">
        <circle cx="156.189" cy="331.654" r="2.551" style="fill:rgb(44,255,0);stroke:rgb(44,255,0);stroke-width:0.24px;"/>
    </g>
    <g transform="matrix(4.16667,0,0,4.16667,-527.282,-502.117)">
        <rect x="162.142" y="230.173" width="4.535" height="4.535" style="fill:rgb(44,255,0);stroke:rgb(44,255,0);stroke-width:0.24px;"/>
    </g>
    <g transform="matrix(4.16667,0,0,4.16667,-527.282,-502.117)">
        <circle cx="170.079" cy="232.441" r="2.268" style="fill:rgb(44,255,0);stroke:rgb(44,255,0);stroke-width:0.24px;"/>
    </g>
    <g transform="matrix(4.16667,0,0,4.16667,-527.282,-502.117)">
        <rect x="166.535" y="168.073" width="9.921" height="9.921" style="fill:rgb(44,255,0);stroke:rgb(44,255,0);stroke-width:0.24px;"/>
    </g>
    <g transform="matrix(4.16667,0,0,4.16667,-527.282,-502.117)">
        <path d="M150.236,170.199L150.28,169.769L150.435,169.301L150.695,168.881L151.044,168.532L151.464,168.273L151.932,168.117L152.362,168.073L156.614,168.073L157.044,168.117L157.513,168.273L157.933,168.532L158.282,168.881L158.541,169.301L158.696,169.769L158.74,170.199L158.74,175.869L158.696,176.299L158.541,176.767L158.282,177.187L157.933,177.536L157.513,177.795L157.044,177.951L156.614,177.994L152.362,177.994L151.932,177.951L151.464,177.795L151.044,177.536L150.695,177.187L150.435,176.767L150.28,176.299L150.236,175.869L150.236,170.199Z" style="fill:rgb(44,255,0);stroke:rgb(44,255,0);stroke-width:0.24px;"/>
    </g>
    <g transform="matrix(4.16667,0,0,4.16667,-527.282,-502.117)">
        <path d="M158.031,183.876L158.054,183.542L158.184,183.021L158.422,182.541L158.758,182.123L159.176,181.786L159.657,181.548L160.177,181.419L160.512,181.396L165.472,181.396L165.807,181.419L166.328,181.548L166.808,181.786L167.226,182.123L167.562,182.541L167.801,183.021L167.93,183.542L167.953,183.876L167.953,188.837L167.93,189.172L167.801,189.692L167.562,190.173L167.226,190.591L166.808,190.927L166.328,191.165L165.807,191.295L165.472,191.317L160.512,191.317L160.177,191.295L159.657,191.165L159.176,190.927L158.758,190.591L158.422,190.173L158.184,189.692L158.054,189.172L158.031,188.837L158.031,183.876Z" style="fill:rgb(44,255,0);stroke:rgb(44,255,0);stroke-width:0.24px;"/>
    </g>
    <g transform="matrix(4.16667,0,0,4.16667,-527.282,-502.117)">
        <circle cx="338.031" cy="306.517" r="4.535" style="fill:rgb(44,255,0);stroke:rgb(44,255,0);stroke-width:0.24px;"/>
    </g>
    <g transform="matrix(4.16667,0,0,4.16667,-527.282,-502.117)">
        <circle cx="338.031" cy="304.873" r="4.535" style="fill:rgb(44,255,0);stroke:rgb(44,255,0);stroke-width:0.24px;"/>
    </g>
    <g transform="matrix(4.16667,0,0,4.16667,-527.282,-502.117)">
        <circle cx="338.031" cy="272.473" r="4.535" style="fill:rgb(44,255,0);stroke:rgb(44,255,0);stroke-width:0.24px;"/>
    </g>
    <g transform="matrix(4.16667,0,0,4.16667,-527.282,-502.117)">
        <circle cx="338.031" cy="270.801" r="4.535" style="fill:rgb(44,255,0);stroke:rgb(44,255,0);stroke-width:0.24px;"/>
    </g>
    <g transform="matrix(4.16667,0,0,4.16667,-527.282,-502.117)">
        <rect x="317.906" y="299.147" width="4.252" height="4.252" style="fill:rgb(44,255,0);stroke:rgb(44,255,0);stroke-width:0.24px;"/>
    </g>
    <g transform="matrix(4.16667,0,0,4.16667,-527.282,-502.117)">
        <rect x="328.677" y="276.47" width="4.252" height="4.252" style="fill:rgb(44,255,0);stroke:rgb(44,255,0);stroke-width:0.24px;"/>
    </g>
    <g transform="matrix(4.16667,0,0,4.16667,-527.282,-502.117)">
        <circle cx="312.831" cy="297.673" r="2.126" style="fill:rgb(44,255,0);stroke:rgb(44,255,0);stroke-width:0.24px;"/>
    </g>
    <g transform="matrix(4.16667,0,0,4.16667,-527.282,-502.117)">
        <circle cx="325.843" cy="281.431" r="2.126" style="fill:rgb(44,255,0);stroke:rgb(44,255,0);stroke-width:0.24px;"/>
    </g>
    <g transform="matrix(4.16667,0,0,4.16667,-527.282,-502.117)">
        <circle cx="320.031" cy="294.073" r="2.126" style="fill:rgb(44,255,0);stroke:rgb(44,255,0);stroke-width:0.24px;"/>
    </g>
    <g transform="matrix(4.16667,0,0,4.16667,-527.282,-502.117)">
        <circle cx="330.803" cy="284.265" r="2.126" style="fill:rgb(44,255,0);stroke:rgb(44,255,0);stroke-width:0.24px;"/>
    </g>
    <g transform="matrix(4.16667,0,0,4.16667,-527.282,-502.117)">
        <circle cx="312.831" cy="290.473" r="2.126" style="fill:rgb(44,255,0);stroke:rgb(44,255,0);stroke-width:0.24px;"/>
    </g>
    <g transform="matrix(4.16667,0,0,4.16667,-527.282,-502.117)">
        <circle cx="325.843" cy="287.1" r="2.126" style="fill:rgb(44,255,0);stroke:rgb(44,255,0);stroke-width:0.24px;"/>
    </g>
    <g transform="matrix(4.16667,0,0,4.16667,-527.282,-502.117)">
        <circle cx="330.803" cy="289.935" r="2.126" style="fill:rgb(44,255,0);stroke:rgb(44,255,0);stroke-width:0.24px;"/>
    </g>
    <g transform="matrix(4.16667,0,0,4.16667,-527.282,-502.117)">
        <circle cx="320.031" cy="286.873" r="2.126" style="fill:rgb(44,255,0);stroke:rgb(44,255,0);stroke-width:0.24px;"/>
    </g>
    <g transform="matrix(4.16667,0,0,4.16667,-527.282,-502.117)">
        <circle cx="325.843" cy="292.769" r="2.126" style="fill:rgb(44,255,0);stroke:rgb(44,255,0);stroke-width:0.24px;"/>
    </g>
    <g transform="matrix(4.16667,0,0,4.16667,-527.282,-502.117)">
        <circle cx="312.831" cy="283.273" r="2.126" style="fill:rgb(44,255,0);stroke:rgb(44,255,0);stroke-width:0.24px;"/>
    </g>
    <g transform="matrix(4.16667,0,0,4.16667,-527.282,-502.117)">
        <circle cx="330.803" cy="295.604" r="2.126" style="fill:rgb(44,255,0);stroke:rgb(44,255,0);stroke-width:0.24px;"/>
    </g>
    <g transform="matrix(4.16667,0,0,4.16667,-527.282,-502.117)">
        <circle cx="320.031" cy="279.673" r="2.126" style="fill:rgb(44,255,0);stroke:rgb(44,255,0);stroke-width:0.24px;"/>
    </g>
    <g transform="matrix(4.16667,0,0,4.16667,-527.282,-502.117)">
        <circle cx="325.843" cy="298.155" r="2.126" style="fill:rgb(44,255,0);stroke:rgb(44,255,0);stroke-width:0.24px;"/>
    </g>
    <g transform="matrix(4.16667,0,0,4.16667,-527.282,-502.117)">
        <circle cx="312.831" cy="276.073" r="2.126" style="fill:rgb(44,255,0);stroke:rgb(44,255,0);stroke-width:0.24px;"/>
    </g>
    <g transform="matrix(4.16667,0,0,4.16667,-527.282,-502.117)">
        <circle cx="338.031" cy="360.376" r="4.535" style="fill:rgb(44,255,0);stroke:rgb(44,255,0);stroke-width:0.24px;"/>
    </g>
    <g transform="matrix(4.16667,0,0,4.16667,-527.282,-502.117)">
        <circle cx="338.031" cy="358.731" r="4.535" style="fill:rgb(44,255,0);stroke:rgb(44,255,0);stroke-width:0.24px;"/>
    </g>
    <g transform="matrix(4.16667,0,0,4.16667,-527.282,-502.117)">
        <circle cx="338.031" cy="326.331" r="4.535" style="fill:rgb(44,255,0);stroke:rgb(44,255,0);stroke-width:0.24px;"/>
    </g>
    <g transform="matrix(4.16667,0,0,4.16667,-527.282,-502.117)">
        <circle cx="338.031" cy="324.659" r="4.535" style="fill:rgb(44,255,0);stroke:rgb(44,255,0);stroke-width:0.24px;"/>
    </g>
    <g transform="matrix(4.16667,0,0,4.16667,-527.282,-502.117)">
        <rect x="317.906" y="353.006" width="4.252" height="4.252" style="fill:rgb(44,255,0);stroke:rgb(44,255,0);stroke-width:0.24px;"/>
    </g>
    <g transform="matrix(4.16667,0,0,4.16667,-527.282,-502.117)">
        <rect x="328.677" y="330.328" width="4.252" height="4.252" style="fill:rgb(44,255,0);stroke:rgb(44,255,0);stroke-width:0.24px;"/>
    </g>
    <g transform="matrix(4.16667,0,0,4.16667,-527.282,-502.117)">
        <circle cx="312.831" cy="351.531" r="2.126" style="fill:rgb(44,255,0);stroke:rgb(44,255,0);stroke-width:0.24px;"/>
    </g>
    <g transform="matrix(4.16667,0,0,4.16667,-527.282,-502.117)">
        <circle cx="325.843" cy="335.289" r="2.126" style="fill:rgb(44,255,0);stroke:rgb(44,255,0);stroke-width:0.24px;"/>
    </g>
    <g transform="matrix(4.16667,0,0,4.16667,-527.282,-502.117)">
        <circle cx="320.031" cy="347.931" r="2.126" style="fill:rgb(44,255,0);stroke:rgb(44,255,0);stroke-width:0.24px;"/>
    </g>
    <g transform="matrix(4.16667,0,0,4.16667,-527.282,-502.117)">
        <circle cx="330.803" cy="338.124" r="2.126" style="fill:rgb(44,255,0);stroke:rgb(44,255,0);stroke-width:0.24px;"/>
    </g>
    <g transform="matrix(4.16667,0,0,4.16667,-527.282,-502.117)">
        <circle cx="312.831" cy="344.331" r="2.126" style="fill:rgb(44,255,0);stroke:rgb(44,255,0);stroke-width:0.24px;"/>
    </g>
    <g transform="matrix(4.16667,0,0,4.16667,-527.282,-502.117)">
        <circle cx="325.843" cy="340.958" r="2.126" style="fill:rgb(44,255,0);stroke:rgb(44,255,0);stroke-width:0.24px;"/>
    </g>
    <g transform="matrix(4.16667,0,0,4.16667,-527.282,-502.117)">
        <circle cx="330.803" cy="343.793" r="2.126" style="fill:rgb(44,255,0);stroke:rgb(44,255,0);stroke-width:0.24px;"/>
    </g>
    <g transform="matrix(4.16667,0,0,4.16667,-527.282,-502.117)">
        <circle cx="320.031" cy="340.731" r="2.126" style="fill:rgb(44,255,0);stroke:rgb(44,255,0);stroke-width:0.24px;"/>
    </g>
    <g transform="matrix(4.16667,0,0,4.16667,-527.282,-502.117)">
        <circle cx="325.843" cy="346.628" r="2.126" style="fill:rgb(44,255,0);stroke:rgb(44,255,0);stroke-width:0.24px;"/>
    </g>
    <g transform="matrix(4.16667,0,0,4.16667,-527.282,-502.117)">
        <circle cx="312.831" cy="337.131" r="2.126" style="fill:rgb(44,255,0);stroke:rgb(44,255,0);stroke-width:0.24px;"/>
    </g>
    <g transform="matrix(4.16667,0,0,4.16667,-527.282,-502.117)">
        <circle cx="330.803" cy="349.462" r="2.126" style="fill:rgb(44,255,0);stroke:rgb(44,255,0);stroke-width:0.24px;"/>
    </g>
    <g transform="matrix(4.16667,0,0,4.16667,-527.282,-502.117)">
        <circle cx="320.031" cy="333.531" r="2.126" style="fill:rgb(44,255,0);stroke:rgb(44,255,0);stroke-width:0.24px;"/>
    </g>
    <g transform="matrix(4.16667,0,0,4.16667,-527.282,-502.117)">
        <circle cx="325.843" cy="352.013" r="2.126" style="fill:rgb(44,255,0);stroke:rgb(44,255,0);stroke-width:0.24px;"/>
    </g>
    <g transform="matrix(4.16667,0,0,4.16667,-527.282,-502.117)">
        <circle cx="312.831" cy="329.931" r="2.126" style="fill:rgb(44,255,0);stroke:rgb(44,255,0);stroke-width:0.24px;"/>
    </g>
    <g transform="matrix(4.16667,0,0,4.16667,-527.282,-502.117)">
        <path d="M271.75,244.709L271.798,244.471L271.933,244.268L272.135,244.133L272.374,244.086L277.363,244.086L277.602,244.133L277.804,244.268L277.939,244.471L277.987,244.709L277.987,255.934L277.939,256.173L277.804,256.376L277.602,256.511L277.363,256.558L272.374,256.558L272.135,256.511L271.933,256.376L271.798,256.173L271.75,255.934L271.75,244.709Z" style="fill:rgb(44,255,0);stroke:rgb(44,255,0);stroke-width:0.24px;"/>
    </g>
    <g transform="matrix(4.16667,0,0,4.16667,-527.282,-502.117)">
        <circle cx="274.869" cy="252.482" r="2.409" style="fill:rgb(44,255,0);stroke:rgb(44,255,0);stroke-width:0.24px;"/>
    </g>
    <g transform="matrix(4.16667,0,0,4.16667,-527.282,-502.117)">
        <path d="M264.55,244.709L264.598,244.471L264.733,244.268L264.935,244.133L265.174,244.086L270.163,244.086L270.402,244.133L270.604,244.268L270.739,244.471L270.787,244.709L270.787,255.934L270.739,256.173L270.604,256.376L270.402,256.511L270.163,256.558L265.174,256.558L264.935,256.511L264.733,256.376L264.598,256.173L264.55,255.934L264.55,244.709Z" style="fill:rgb(44,255,0);stroke:rgb(44,255,0);stroke-width:0.24px;"/>
    </g>
    <g transform="matrix(4.16667,0,0,4.16667,-527.282,-502.117)">
        <circle cx="267.669" cy="252.482" r="2.409" style="fill:rgb(44,255,0);stroke:rgb(44,255,0);stroke-width:0.24px;"/>
    </g>
    <g transform="matrix(4.16667,0,0,4.16667,-527.282,-502.117)">
        <path d="M257.35,244.709L257.398,244.471L257.533,244.268L257.735,244.133L257.974,244.086L262.963,244.086L263.202,244.133L263.404,244.268L263.539,244.471L263.587,244.709L263.587,255.934L263.539,256.173L263.404,256.376L263.202,256.511L262.963,256.558L257.974,256.558L257.735,256.511L257.533,256.376L257.398,256.173L257.35,255.934L257.35,244.709Z" style="fill:rgb(44,255,0);stroke:rgb(44,255,0);stroke-width:0.24px;"/>
    </g>
    <g transform="matrix(4.16667,0,0,4.16667,-527.282,-502.117)">
        <circle cx="260.469" cy="252.482" r="2.409" style="fill:rgb(44,255,0);stroke:rgb(44,255,0);stroke-width:0.24px;"/>
    </g>
    <g transform="matrix(4.16667,0,0,4.16667,-527.282,-502.117)">
        <path d="M250.15,244.709L250.198,244.471L250.333,244.268L250.535,244.133L250.774,244.086L255.763,244.086L256.002,244.133L256.204,244.268L256.339,244.471L256.387,244.709L256.387,255.934L256.339,256.173L256.204,256.376L256.002,256.511L255.763,256.558L250.774,256.558L250.535,256.511L250.333,256.376L250.198,256.173L250.15,255.934L250.15,244.709Z" style="fill:rgb(44,255,0);stroke:rgb(44,255,0);stroke-width:0.24px;"/>
    </g>
    <g transform="matrix(4.16667,0,0,4.16667,-527.282,-502.117)">
        <circle cx="253.269" cy="252.482" r="2.409" style="fill:rgb(44,255,0);stroke:rgb(44,255,0);stroke-width:0.24px;"/>
    </g>
    <g transform="matrix(4.16667,0,0,4.16667,-527.282,-502.117)">
        <path d="M242.95,244.709L242.998,244.471L243.133,244.268L243.335,244.133L243.574,244.086L248.563,244.086L248.802,244.133L249.004,244.268L249.139,244.471L249.187,244.709L249.187,255.934L249.139,256.173L249.004,256.376L248.802,256.511L248.563,256.558L243.574,256.558L243.335,256.511L243.133,256.376L242.998,256.173L242.95,255.934L242.95,244.709Z" style="fill:rgb(44,255,0);stroke:rgb(44,255,0);stroke-width:0.24px;"/>
    </g>
    <g transform="matrix(4.16667,0,0,4.16667,-527.282,-502.117)">
        <circle cx="246.069" cy="252.482" r="2.409" style="fill:rgb(44,255,0);stroke:rgb(44,255,0);stroke-width:0.24px;"/>
    </g>
    <g transform="matrix(4.16667,0,0,4.16667,-527.282,-502.117)">
        <path d="M235.75,244.709L235.798,244.471L235.933,244.268L236.135,244.133L236.374,244.086L241.363,244.086L241.602,244.133L241.804,244.268L241.939,244.471L241.987,244.709L241.987,255.934L241.939,256.173L241.804,256.376L241.602,256.511L241.363,256.558L236.374,256.558L236.135,256.511L235.933,256.376L235.798,256.173L235.75,255.934L235.75,244.709Z" style="fill:rgb(44,255,0);stroke:rgb(44,255,0);stroke-width:0.24px;"/>
    </g>
    <g transform="matrix(4.16667,0,0,4.16667,-527.282,-502.117)">
        <circle cx="238.869" cy="252.482" r="2.409" style="fill:rgb(44,255,0);stroke:rgb(44,255,0);stroke-width:0.24px;"/>
    </g>
    <g transform="matrix(4.16667,0,0,4.16667,-527.282,-502.117)">
        <path d="M228.55,244.709L228.598,244.471L228.733,244.268L228.935,244.133L229.174,244.086L234.163,244.086L234.402,244.133L234.604,244.268L234.739,244.471L234.787,244.709L234.787,255.934L234.739,256.173L234.604,256.376L234.402,256.511L234.163,256.558L229.174,256.558L228.935,256.511L228.733,256.376L228.598,256.173L228.55,255.934L228.55,244.709Z" style="fill:rgb(44,255,0);stroke:rgb(44,255,0);stroke-width:0.24px;"/>
    </g>
    <g transform="matrix(4.16667,0,0,4.16667,-527.282,-502.117)">
        <circle cx="231.669" cy="252.482" r="2.409" style="fill:rgb(44,255,0);stroke:rgb(44,255,0);stroke-width:0.24px;"/>
    </g>
    <g transform="matrix(4.16667,0,0,4.16667,-527.282,-502.117)">
        <path d="M221.35,244.709L221.398,244.471L221.533,244.268L221.735,244.133L221.974,244.086L226.963,244.086L227.202,244.133L227.404,244.268L227.539,244.471L227.587,244.709L227.587,255.934L227.539,256.173L227.404,256.376L227.202,256.511L226.963,256.558L221.974,256.558L221.735,256.511L221.533,256.376L221.398,256.173L221.35,255.934L221.35,244.709Z" style="fill:rgb(44,255,0);stroke:rgb(44,255,0);stroke-width:0.24px;"/>
    </g>
    <g transform="matrix(4.16667,0,0,4.16667,-527.282,-502.117)">
        <circle cx="224.469" cy="252.482" r="2.409" style="fill:rgb(44,255,0);stroke:rgb(44,255,0);stroke-width:0.24px;"/>
    </g>
    <g transform="matrix(4.16667,0,0,4.16667,-527.282,-502.117)">
        <path d="M214.15,244.709L214.198,244.471L214.333,244.268L214.535,244.133L214.774,244.086L219.763,244.086L220.002,244.133L220.204,244.268L220.339,244.471L220.387,244.709L220.387,255.934L220.339,256.173L220.204,256.376L220.002,256.511L219.763,256.558L214.774,256.558L214.535,256.511L214.333,256.376L214.198,256.173L214.15,255.934L214.15,244.709Z" style="fill:rgb(44,255,0);stroke:rgb(44,255,0);stroke-width:0.24px;"/>
    </g>
    <g transform="matrix(4.16667,0,0,4.16667,-527.282,-502.117)">
        <circle cx="217.269" cy="252.482" r="2.409" style="fill:rgb(44,255,0);stroke:rgb(44,255,0);stroke-width:0.24px;"/>
    </g>
    <g transform="matrix(4.16667,0,0,4.16667,-527.282,-502.117)">
        <path d="M206.95,244.709L206.998,244.471L207.133,244.268L207.335,244.133L207.574,244.086L212.563,244.086L212.802,244.133L213.004,244.268L213.139,244.471L213.187,244.709L213.187,255.934L213.139,256.173L213.004,256.376L212.802,256.511L212.563,256.558L207.574,256.558L207.335,256.511L207.133,256.376L206.998,256.173L206.95,255.934L206.95,244.709Z" style="fill:rgb(44,255,0);stroke:rgb(44,255,0);stroke-width:0.24px;"/>
    </g>
    <g transform="matrix(4.16667,0,0,4.16667,-527.282,-502.117)">
        <circle cx="210.069" cy="252.482" r="2.409" style="fill:rgb(44,255,0);stroke:rgb(44,255,0);stroke-width:0.24px;"/>
    </g>
    <g transform="matrix(4.16667,0,0,4.16667,-527.282,-502.117)">
        <path d="M199.75,244.709L199.798,244.471L199.933,244.268L200.135,244.133L200.374,244.086L205.363,244.086L205.602,244.133L205.804,244.268L205.939,244.471L205.987,244.709L205.987,255.934L205.939,256.173L205.804,256.376L205.602,256.511L205.363,256.558L200.374,256.558L200.135,256.511L199.933,256.376L199.798,256.173L199.75,255.934L199.75,244.709Z" style="fill:rgb(44,255,0);stroke:rgb(44,255,0);stroke-width:0.24px;"/>
    </g>
    <g transform="matrix(4.16667,0,0,4.16667,-527.282,-502.117)">
        <circle cx="202.869" cy="252.482" r="2.409" style="fill:rgb(44,255,0);stroke:rgb(44,255,0);stroke-width:0.24px;"/>
    </g>
    <g transform="matrix(4.16667,0,0,4.16667,-527.282,-502.117)">
        <path d="M192.55,244.709L192.598,244.471L192.733,244.268L192.935,244.133L193.174,244.086L198.163,244.086L198.402,244.133L198.604,244.268L198.739,244.471L198.787,244.709L198.787,255.934L198.739,256.173L198.604,256.376L198.402,256.511L198.163,256.558L193.174,256.558L192.935,256.511L192.733,256.376L192.598,256.173L192.55,255.934L192.55,244.709Z" style="fill:rgb(44,255,0);stroke:rgb(44,255,0);stroke-width:0.24px;"/>
    </g>
    <g transform="matrix(4.16667,0,0,4.16667,-527.282,-502.117)">
        <circle cx="195.669" cy="252.482" r="2.409" style="fill:rgb(44,255,0);stroke:rgb(44,255,0);stroke-width:0.24px;"/>
    </g>
    <g transform="matrix(4.16667,0,0,4.16667,-527.282,-502.117)">
        <path d="M185.35,244.709L185.398,244.471L185.533,244.268L185.735,244.133L185.974,244.086L190.963,244.086L191.202,244.133L191.404,244.268L191.539,244.471L191.587,244.709L191.587,255.934L191.539,256.173L191.404,256.376L191.202,256.511L190.963,256.558L185.974,256.558L185.735,256.511L185.533,256.376L185.398,256.173L185.35,255.934L185.35,244.709Z" style="fill:rgb(44,255,0);stroke:rgb(44,255,0);stroke-width:0.24px;"/>
    </g>
    <g transform="matrix(4.16667,0,0,4.16667,-527.282,-502.117)">
        <circle cx="188.469" cy="252.482" r="2.409" style="fill:rgb(44,255,0);stroke:rgb(44,255,0);stroke-width:0.24px;"/>
    </g>
    <g transform="matrix(4.16667,0,0,4.16667,-527.282,-502.117)">
        <circle cx="188.469" cy="317.282" r="2.409" style="fill:rgb(44,255,0);stroke:rgb(44,255,0);stroke-width:0.24px;"/>
    </g>
    <g transform="matrix(4.16667,0,0,4.16667,-527.282,-502.117)">
        <path d="M185.35,313.829L185.398,313.591L185.533,313.388L185.735,313.253L185.974,313.206L190.963,313.206L191.202,313.253L191.404,313.388L191.539,313.591L191.587,313.829L191.587,325.054L191.539,325.293L191.404,325.496L191.202,325.631L190.963,325.678L185.974,325.678L185.735,325.631L185.533,325.496L185.398,325.293L185.35,325.054L185.35,313.829Z" style="fill:rgb(44,255,0);stroke:rgb(44,255,0);stroke-width:0.24px;"/>
    </g>
    <g transform="matrix(4.16667,0,0,4.16667,-527.282,-502.117)">
        <circle cx="195.669" cy="317.282" r="2.409" style="fill:rgb(44,255,0);stroke:rgb(44,255,0);stroke-width:0.24px;"/>
    </g>
    <g transform="matrix(4.16667,0,0,4.16667,-527.282,-502.117)">
        <path d="M192.55,313.829L192.598,313.591L192.733,313.388L192.935,313.253L193.174,313.206L198.163,313.206L198.402,313.253L198.604,313.388L198.739,313.591L198.787,313.829L198.787,325.054L198.739,325.293L198.604,325.496L198.402,325.631L198.163,325.678L193.174,325.678L192.935,325.631L192.733,325.496L192.598,325.293L192.55,325.054L192.55,313.829Z" style="fill:rgb(44,255,0);stroke:rgb(44,255,0);stroke-width:0.24px;"/>
    </g>
    <g transform="matrix(4.16667,0,0,4.16667,-527.282,-502.117)">
        <circle cx="202.869" cy="317.282" r="2.409" style="fill:rgb(44,255,0);stroke:rgb(44,255,0);stroke-width:0.24px;"/>
    </g>
    <g transform="matrix(4.16667,0,0,4.16667,-527.282,-502.117)">
        <path d="M199.75,313.829L199.798,313.591L199.933,313.388L200.135,313.253L200.374,313.206L205.363,313.206L205.602,313.253L205.804,313.388L205.939,313.591L205.987,313.829L205.987,325.054L205.939,325.293L205.804,325.496L205.602,325.631L205.363,325.678L200.374,325.678L200.135,325.631L199.933,325.496L199.798,325.293L199.75,325.054L199.75,313.829Z" style="fill:rgb(44,255,0);stroke:rgb(44,255,0);stroke-width:0.24px;"/>
    </g>
    <g transform="matrix(4.16667,0,0,4.16667,-527.282,-502.117)">
        <circle cx="210.069" cy="317.282" r="2.409" style="fill:rgb(44,255,0);stroke:rgb(44,255,0);stroke-width:0.24px;"/>
    </g>
    <g transform="matrix(4.16667,0,0,4.16667,-527.282,-502.117)">
        <path d="M206.95,313.829L206.998,313.591L207.133,313.388L207.335,313.253L207.574,313.206L212.563,313.206L212.802,313.253L213.004,313.388L213.139,313.591L213.187,313.829L213.187,325.054L213.139,325.293L213.004,325.496L212.802,325.631L212.563,325.678L207.574,325.678L207.335,325.631L207.133,325.496L206.998,325.293L206.95,325.054L206.95,313.829Z" style="fill:rgb(44,255,0);stroke:rgb(44,255,0);stroke-width:0.24px;"/>
    </g>
    <g transform="matrix(4.16667,0,0,4.16667,-527.282,-502.117)">
        <circle cx="217.269" cy="317.282" r="2.409" style="fill:rgb(44,255,0);stroke:rgb(44,255,0);stroke-width:0.24px;"/>
    </g>
    <g transform="matrix(4.16667,0,0,4.16667,-527.282,-502.117)">
        <path d="M214.15,313.829L214.198,313.591L214.333,313.388L214.535,313.253L214.774,313.206L219.763,313.206L220.002,313.253L220.204,313.388L220.339,313.591L220.387,313.829L220.387,325.054L220.339,325.293L220.204,325.496L220.002,325.631L219.763,325.678L214.774,325.678L214.535,325.631L214.333,325.496L214.198,325.293L214.15,325.054L214.15,313.829Z" style="fill:rgb(44,255,0);stroke:rgb(44,255,0);stroke-width:0.24px;"/>
    </g>
    <g transform="matrix(4.16667,0,0,4.16667,-527.282,-502.117)">
        <circle cx="224.469" cy="317.282" r="2.409" style="fill:rgb(44,255,0);stroke:rgb(44,255,0);stroke-width:0.24px;"/>
    </g>
    <g transform="matrix(4.16667,0,0,4.16667,-527.282,-502.117)">
        <path d="M221.35,313.829L221.398,313.591L221.533,313.388L221.735,313.253L221.974,313.206L226.963,313.206L227.202,313.253L227.404,313.388L227.539,313.591L227.587,313.829L227.587,325.054L227.539,325.293L227.404,325.496L227.202,325.631L226.963,325.678L221.974,325.678L221.735,325.631L221.533,325.496L221.398,325.293L221.35,325.054L221.35,313.829Z" style="fill:rgb(44,255,0);stroke:rgb(44,255,0);stroke-width:0.24px;"/>
    </g>
    <g transform="matrix(4.16667,0,0,4.16667,-527.282,-502.117)">
        <circle cx="231.669" cy="317.282" r="2.409" style="fill:rgb(44,255,0);stroke:rgb(44,255,0);stroke-width:0.24px;"/>
    </g>
    <g transform="matrix(4.16667,0,0,4.16667,-527.282,-502.117)">
        <path d="M228.55,313.829L228.598,313.591L228.733,313.388L228.935,313.253L229.174,313.206L234.163,313.206L234.402,313.253L234.604,313.388L234.739,313.591L234.787,313.829L234.787,325.054L234.739,325.293L234.604,325.496L234.402,325.631L234.163,325.678L229.174,325.678L228.935,325.631L228.733,325.496L228.598,325.293L228.55,325.054L228.55,313.829Z" style="fill:rgb(44,255,0);stroke:rgb(44,255,0);stroke-width:0.24px;"/>
    </g>
    <g transform="matrix(4.16667,0,0,4.16667,-527.282,-502.117)">
        <circle cx="238.869" cy="317.282" r="2.409" style="fill:rgb(44,255,0);stroke:rgb(44,255,0);stroke-width:0.24px;"/>
    </g>
    <g transform="matrix(4.16667,0,0,4.16667,-527.282,-502.117)">
        <path d="M235.75,313.829L235.798,313.591L235.933,313.388L236.135,313.253L236.374,313.206L241.363,313.206L241.602,313.253L241.804,313.388L241.939,313.591L241.987,313.829L241.987,325.054L241.939,325.293L241.804,325.496L241.602,325.631L241.363,325.678L236.374,325.678L236.135,325.631L235.933,325.496L235.798,325.293L235.75,325.054L235.75,313.829Z" style="fill:rgb(44,255,0);stroke:rgb(44,255,0);stroke-width:0.24px;"/>
    </g>
    <g transform="matrix(4.16667,0,0,4.16667,-527.282,-502.117)">
        <circle cx="246.069" cy="317.282" r="2.409" style="fill:rgb(44,255,0);stroke:rgb(44,255,0);stroke-width:0.24px;"/>
    </g>
    <g transform="matrix(4.16667,0,0,4.16667,-527.282,-502.117)">
        <path d="M242.95,313.829L242.998,313.591L243.133,313.388L243.335,313.253L243.574,313.206L248.563,313.206L248.802,313.253L249.004,313.388L249.139,313.591L249.187,313.829L249.187,325.054L249.139,325.293L249.004,325.496L248.802,325.631L248.563,325.678L243.574,325.678L243.335,325.631L243.133,325.496L242.998,325.293L242.95,325.054L242.95,313.829Z" style="fill:rgb(44,255,0);stroke:rgb(44,255,0);stroke-width:0.24px;"/>
    </g>
    <g transform="matrix(4.16667,0,0,4.16667,-527.282,-502.117)">
        <circle cx="253.269" cy="317.282" r="2.409" style="fill:rgb(44,255,0);stroke:rgb(44,255,0);stroke-width:0.24px;"/>
    </g>
    <g transform="matrix(4.16667,0,0,4.16667,-527.282,-502.117)">
        <path d="M250.15,313.829L250.198,313.591L250.333,313.388L250.535,313.253L250.774,313.206L255.763,313.206L256.002,313.253L256.204,313.388L256.339,313.591L256.387,313.829L256.387,325.054L256.339,325.293L256.204,325.496L256.002,325.631L255.763,325.678L250.774,325.678L250.535,325.631L250.333,325.496L250.198,325.293L250.15,325.054L250.15,313.829Z" style="fill:rgb(44,255,0);stroke:rgb(44,255,0);stroke-width:0.24px;"/>
    </g>
    <g transform="matrix(4.16667,0,0,4.16667,-527.282,-502.117)">
        <circle cx="260.469" cy="317.282" r="2.409" style="fill:rgb(44,255,0);stroke:rgb(44,255,0);stroke-width:0.24px;"/>
    </g>
    <g transform="matrix(4.16667,0,0,4.16667,-527.282,-502.117)">
        <path d="M257.35,313.829L257.398,313.591L257.533,313.388L257.735,313.253L257.974,313.206L262.963,313.206L263.202,313.253L263.404,313.388L263.539,313.591L263.587,313.829L263.587,325.054L263.539,325.293L263.404,325.496L263.202,325.631L262.963,325.678L257.974,325.678L257.735,325.631L257.533,325.496L257.398,325.293L257.35,325.054L257.35,313.829Z" style="fill:rgb(44,255,0);stroke:rgb(44,255,0);stroke-width:0.24px;"/>
    </g>
    <g transform="matrix(4.16667,0,0,4.16667,-527.282,-502.117)">
        <circle cx="267.669" cy="317.282" r="2.409" style="fill:rgb(44,255,0);stroke:rgb(44,255,0);stroke-width:0.24px;"/>
    </g>
    <g transform="matrix(4.16667,0,0,4.16667,-527.282,-502.117)">
        <path d="M264.55,313.829L264.598,313.591L264.733,313.388L264.935,313.253L265.174,313.206L270.163,313.206L270.402,313.253L270.604,313.388L270.739,313.591L270.787,313.829L270.787,325.054L270.739,325.293L270.604,325.496L270.402,325.631L270.163,325.678L265.174,325.678L264.935,325.631L264.733,325.496L264.598,325.293L264.55,325.054L264.55,313.829Z" style="fill:rgb(44,255,0);stroke:rgb(44,255,0);stroke-width:0.24px;"/>
    </g>
    <g transform="matrix(4.16667,0,0,4.16667,-527.282,-502.117)">
        <circle cx="274.869" cy="317.282" r="2.409" style="fill:rgb(44,255,0);stroke:rgb(44,255,0);stroke-width:0.24px;"/>
    </g>
    <g transform="matrix(4.16667,0,0,4.16667,-527.282,-502.117)">
        <path d="M271.75,313.829L271.798,313.591L271.933,313.388L272.135,313.253L272.374,313.206L277.363,313.206L277.602,313.253L277.804,313.388L277.939,313.591L277.987,313.829L277.987,325.054L277.939,325.293L277.804,325.496L277.602,325.631L277.363,325.678L272.374,325.678L272.135,325.631L271.933,325.496L271.798,325.293L271.75,325.054L271.75,313.829Z" style="fill:rgb(44,255,0);stroke:rgb(44,255,0);stroke-width:0.24px;"/>
    </g>
    <g transform="matrix(4.16667,0,0,4.16667,-527.282,-502.117)">
        <circle cx="267.435" cy="362.537" r="1.984" style="fill:rgb(44,255,0);stroke:rgb(44,255,0);stroke-width:0.24px;"/>
    </g>
    <g transform="matrix(4.16667,0,0,4.16667,-527.282,-502.117)">
        <circle cx="267.435" cy="376.937" r="1.984" style="fill:rgb(44,255,0);stroke:rgb(44,255,0);stroke-width:0.24px;"/>
    </g>
    <g transform="matrix(4.16667,0,0,4.16667,-527.282,-502.117)">
        <circle cx="239.655" cy="362.65" r="1.984" style="fill:rgb(44,255,0);stroke:rgb(44,255,0);stroke-width:0.24px;"/>
    </g>
    <g transform="matrix(4.16667,0,0,4.16667,-527.282,-502.117)">
        <circle cx="239.655" cy="377.05" r="1.984" style="fill:rgb(44,255,0);stroke:rgb(44,255,0);stroke-width:0.24px;"/>
    </g>
    <g transform="matrix(4.16667,0,0,4.16667,-527.282,-502.117)">
        <rect x="272.48" y="328.748" width="4.535" height="6.803" style="fill:rgb(44,255,0);stroke:rgb(44,255,0);stroke-width:3.98px;"/>
    </g>
    <g transform="matrix(4.16667,0,0,4.16667,-527.282,-502.117)">
        <path d="M267.548,331.016L267.548,333.283" style="fill:none;fill-rule:nonzero;stroke:rgb(44,255,0);stroke-width:3.98px;stroke-linecap:round;stroke-miterlimit:4;"/>
    </g>
    <g transform="matrix(4.16667,0,0,4.16667,-527.282,-502.117)">
        <path d="M260.348,331.016L260.348,333.283" style="fill:none;fill-rule:nonzero;stroke:rgb(44,255,0);stroke-width:3.98px;stroke-linecap:round;stroke-miterlimit:4;"/>
    </g>
    <g transform="matrix(4.16667,0,0,4.16667,-527.282,-502.117)">
        <path d="M253.148,331.016L253.148,333.283" style="fill:none;fill-rule:nonzero;stroke:rgb(44,255,0);stroke-width:3.98px;stroke-linecap:round;stroke-miterlimit:4;"/>
    </g>
    <g transform="matrix(4.16667,0,0,4.16667,-527.282,-502.117)">
        <path d="M245.948,331.016L245.948,333.283" style="fill:none;fill-rule:nonzero;stroke:rgb(44,255,0);stroke-width:3.98px;stroke-linecap:round;stroke-miterlimit:4;"/>
    </g>
    <g transform="matrix(4.16667,0,0,4.16667,-527.282,-502.117)">
        <path d="M238.748,331.016L238.748,333.283" style="fill:none;fill-rule:nonzero;stroke:rgb(44,255,0);stroke-width:3.98px;stroke-linecap:round;stroke-miterlimit:4;"/>
    </g>
    <g transform="matrix(4.16667,0,0,4.16667,-527.282,-502.117)">
        <path d="M231.548,331.016L231.548,333.283" style="fill:none;fill-rule:nonzero;stroke:rgb(44,255,0);stroke-width:3.98px;stroke-linecap:round;stroke-miterlimit:4;"/>
    </g>
    <g transform="matrix(4.16667,0,0,4.16667,-527.282,-502.117)">
        <path d="M224.348,331.016L224.348,333.283" style="fill:none;fill-rule:nonzero;stroke:rgb(44,255,0);stroke-width:3.98px;stroke-linecap:round;stroke-miterlimit:4;"/>
    </g>
    <g transform="matrix(4.16667,0,0,4.16667,-527.282,-502.117)">
        <path d="M217.148,331.016L217.148,333.283" style="fill:none;fill-rule:nonzero;stroke:rgb(44,255,0);stroke-width:3.98px;stroke-linecap:round;stroke-miterlimit:4;"/>
    </g>
    <g transform="matrix(4.16667,0,0,4.16667,-527.282,-502.117)">
        <path d="M209.948,331.016L209.948,333.283" style="fill:none;fill-rule:nonzero;stroke:rgb(44,255,0);stroke-width:3.98px;stroke-linecap:round;stroke-miterlimit:4;"/>
    </g>
    <g transform="matrix(4.16667,0,0,4.16667,-527.282,-502.117)">
        <path d="M209.948,352.616L209.948,354.883" style="fill:none;fill-rule:nonzero;stroke:rgb(44,255,0);stroke-width:3.98px;stroke-linecap:round;stroke-miterlimit:4;"/>
    </g>
    <g transform="matrix(4.16667,0,0,4.16667,-527.282,-502.117)">
        <path d="M217.148,352.616L217.148,354.883" style="fill:none;fill-rule:nonzero;stroke:rgb(44,255,0);stroke-width:3.98px;stroke-linecap:round;stroke-miterlimit:4;"/>
    </g>
    <g transform="matrix(4.16667,0,0,4.16667,-527.282,-502.117)">
        <path d="M224.348,352.616L224.348,354.883" style="fill:none;fill-rule:nonzero;stroke:rgb(44,255,0);stroke-width:3.98px;stroke-linecap:round;stroke-miterlimit:4;"/>
    </g>
    <g transform="matrix(4.16667,0,0,4.16667,-527.282,-502.117)">
        <path d="M231.548,352.616L231.548,354.883" style="fill:none;fill-rule:nonzero;stroke:rgb(44,255,0);stroke-width:3.98px;stroke-linecap:round;stroke-miterlimit:4;"/>
    </g>
    <g transform="matrix(4.16667,0,0,4.16667,-527.282,-502.117)">
        <path d="M238.748,352.616L238.748,354.883" style="fill:none;fill-rule:nonzero;stroke:rgb(44,255,0);stroke-width:3.98px;stroke-linecap:round;stroke-miterlimit:4;"/>
    </g>
    <g transform="matrix(4.16667,0,0,4.16667,-527.282,-502.117)">
        <path d="M245.948,352.616L245.948,354.883" style="fill:none;fill-rule:nonzero;stroke:rgb(44,255,0);stroke-width:3.98px;stroke-linecap:round;stroke-miterlimit:4;"/>
    </g>
    <g transform="matrix(4.16667,0,0,4.16667,-527.282,-502.117)">
        <path d="M253.148,352.616L253.148,354.883" style="fill:none;fill-rule:nonzero;stroke:rgb(44,255,0);stroke-width:3.98px;stroke-linecap:round;stroke-miterlimit:4;"/>
    </g>
    <g transform="matrix(4.16667,0,0,4.16667,-527.282,-502.117)">
        <path d="M260.348,352.616L260.348,354.883" style="fill:none;fill-rule:nonzero;stroke:rgb(44,255,0);stroke-width:3.98px;stroke-linecap:round;stroke-miterlimit:4;"/>
    </g>
    <g transform="matrix(4.16667,0,0,4.16667,-527.282,-502.117)">
        <path d="M267.548,352.616L267.548,354.883" style="fill:none;fill-rule:nonzero;stroke:rgb(44,255,0);stroke-width:3.98px;stroke-linecap:round;stroke-miterlimit:4;"/>
    </g>
    <g transform="matrix(4.16667,0,0,4.16667,-527.282,-502.117)">
        <path d="M274.748,352.616L274.748,354.883" style="fill:none;fill-rule:nonzero;stroke:rgb(44,255,0);stroke-width:3.98px;stroke-linecap:round;stroke-miterlimit:4;"/>
    </g>
    <g transform="matrix(4.16667,0,0,4.16667,-527.282,-502.117)">
        <circle cx="230.868" cy="362.537" r="1.984" style="fill:rgb(44,255,0);stroke:rgb(44,255,0);stroke-width:0.24px;"/>
    </g>
    <g transform="matrix(4.16667,0,0,4.16667,-527.282,-502.117)">
        <circle cx="230.868" cy="376.937" r="1.984" style="fill:rgb(44,255,0);stroke:rgb(44,255,0);stroke-width:0.24px;"/>
    </g>
    <g transform="matrix(4.16667,0,0,4.16667,-527.282,-502.117)">
        <path d="M176.882,257.811L151.654,257.882" style="fill:none;fill-rule:nonzero;stroke:rgb(44,255,0);stroke-width:1.18px;stroke-linecap:round;stroke-miterlimit:4;"/>
    </g>
    <g transform="matrix(4.16667,0,0,4.16667,-527.282,-502.117)">
        <path d="M151.654,141.732C146.211,141.732 141.732,146.211 141.732,151.654" style="fill:rgb(44,255,0);fill-rule:nonzero;stroke:rgb(44,255,0);stroke-width:1.18px;stroke-linecap:round;stroke-miterlimit:4;"/>
    </g>
    <g transform="matrix(4.16667,0,0,4.16667,-527.282,-502.117)">
        <path d="M141.732,247.961L141.732,151.654" style="fill:none;fill-rule:nonzero;stroke:rgb(44,255,0);stroke-width:1.18px;stroke-linecap:round;stroke-miterlimit:4;"/>
    </g>
    <g transform="matrix(4.16667,0,0,4.16667,-527.282,-502.117)">
        <path d="M344.481,382.748L151.582,382.748" style="fill:none;fill-rule:nonzero;stroke:rgb(44,255,0);stroke-width:1.18px;stroke-linecap:round;stroke-miterlimit:4;"/>
    </g>
    <g transform="matrix(4.16667,0,0,4.16667,-527.282,-502.117)">
        <path d="M176.882,311.386C182.325,311.386 186.803,306.907 186.803,301.465" style="fill:rgb(44,255,0);fill-rule:nonzero;stroke:rgb(44,255,0);stroke-width:1.18px;stroke-linecap:round;stroke-miterlimit:4;"/>
    </g>
    <g transform="matrix(4.16667,0,0,4.16667,-527.282,-502.117)">
        <path d="M186.803,301.465L186.803,267.732" style="fill:none;fill-rule:nonzero;stroke:rgb(44,255,0);stroke-width:1.18px;stroke-linecap:round;stroke-miterlimit:4;"/>
    </g>
    <g transform="matrix(4.16667,0,0,4.16667,-527.282,-502.117)">
        <path d="M141.661,372.827L141.732,321.307" style="fill:none;fill-rule:nonzero;stroke:rgb(44,255,0);stroke-width:1.18px;stroke-linecap:round;stroke-miterlimit:4;"/>
    </g>
    <g transform="matrix(4.16667,0,0,4.16667,-527.282,-502.117)">
        <path d="M354.402,151.654L354.402,372.827" style="fill:none;fill-rule:nonzero;stroke:rgb(44,255,0);stroke-width:1.18px;stroke-linecap:round;stroke-miterlimit:4;"/>
    </g>
    <g transform="matrix(4.16667,0,0,4.16667,-527.282,-502.117)">
        <path d="M151.654,311.386C146.211,311.386 141.732,315.864 141.732,321.307" style="fill:rgb(44,255,0);fill-rule:nonzero;stroke:rgb(44,255,0);stroke-width:1.18px;stroke-linecap:round;stroke-miterlimit:4;"/>
    </g>
    <g transform="matrix(4.16667,0,0,4.16667,-527.282,-502.117)">
        <circle cx="344.409" cy="151.654" r="5.102" style="fill:rgb(44,255,0);stroke:rgb(44,255,0);stroke-width:1.18px;stroke-linecap:round;stroke-miterlimit:4;"/>
    </g>
    <g transform="matrix(4.16667,0,0,4.16667,-527.282,-502.117)">
        <path d="M141.732,247.961C141.732,253.404 146.211,257.882 151.654,257.882" style="fill:rgb(44,255,0);fill-rule:nonzero;stroke:rgb(44,255,0);stroke-width:1.18px;stroke-linecap:round;stroke-miterlimit:4;"/>
    </g>
    <g transform="matrix(4.16667,0,0,4.16667,-527.282,-502.117)">
        <path d="M354.402,151.654C354.402,146.211 349.923,141.732 344.481,141.732" style="fill:rgb(44,255,0);fill-rule:nonzero;stroke:rgb(44,255,0);stroke-width:1.18px;stroke-linecap:round;stroke-miterlimit:4;"/>
    </g>
    <g transform="matrix(4.16667,0,0,4.16667,-527.282,-502.117)">
        <circle cx="151.654" cy="151.654" r="5.102" style="fill:rgb(44,255,0);stroke:rgb(44,255,0);stroke-width:1.18px;stroke-linecap:round;stroke-miterlimit:4;"/>
    </g>
    <g transform="matrix(4.16667,0,0,4.16667,-527.282,-502.117)">
        <path d="M151.654,141.732L344.481,141.732" style="fill:none;fill-rule:nonzero;stroke:rgb(44,255,0);stroke-width:1.18px;stroke-linecap:round;stroke-miterlimit:4;"/>
    </g>
    <g transform="matrix(4.16667,0,0,4.16667,-527.282,-502.117)">
        <path d="M186.803,267.732C186.803,262.29 182.325,257.811 176.882,257.811" style="fill:rgb(44,255,0);fill-rule:nonzero;stroke:rgb(44,255,0);stroke-width:1.18px;stroke-linecap:round;stroke-miterlimit:4;"/>
    </g>
    <g transform="matrix(4.16667,0,0,4.16667,-527.282,-502.117)">
        <circle cx="344.409" cy="372.756" r="5.102" style="fill:rgb(44,255,0);stroke:rgb(44,255,0);stroke-width:1.18px;stroke-linecap:round;stroke-miterlimit:4;"/>
    </g>
    <g transform="matrix(4.16667,0,0,4.16667,-527.282,-502.117)">
        <path d="M151.654,311.386L176.882,311.386" style="fill:none;fill-rule:nonzero;stroke:rgb(44,255,0);stroke-width:1.18px;stroke-linecap:round;stroke-miterlimit:4;"/>
    </g>
    <g transform="matrix(4.16667,0,0,4.16667,-527.282,-502.117)">
        <path d="M141.661,372.827C141.661,378.27 146.14,382.748 151.582,382.748" style="fill:rgb(44,255,0);fill-rule:nonzero;stroke:rgb(44,255,0);stroke-width:1.18px;stroke-linecap:round;stroke-miterlimit:4;"/>
    </g>
    <g transform="matrix(4.16667,0,0,4.16667,-527.282,-502.117)">
        <path d="M344.481,382.748C349.923,382.748 354.402,378.27 354.402,372.827" style="fill:rgb(44,255,0);fill-rule:nonzero;stroke:rgb(44,255,0);stroke-width:1.18px;stroke-linecap:round;stroke-miterlimit:4;"/>
    </g>
    <g transform="matrix(4.16667,0,0,4.16667,-527.282,-502.117)">
        <circle cx="151.654" cy="372.756" r="5.102" style="fill:rgb(44,255,0);stroke:rgb(44,255,0);stroke-width:1.18px;stroke-linecap:round;stroke-miterlimit:4;"/>
    </g>
    <g transform="matrix(1.24823e-16,2.03851,-2.03851,1.24823e-16,989.679,140.888)">
        <g transform="matrix(50,0,0,50,200.146,0)">
        </g>
        <text x="0px" y="0px" style="font-family:'ArialMT', 'Arial', sans-serif;font-size:50px;fill:rgb(44,255,0);stroke:rgb(44,255,0);stroke-width:0.49px;">datalines</text>
    </g>
</svg>
