<?xml version="1.0" standalone="no"?>
 <!DOCTYPE svg PUBLIC "-//W3C//DTD SVG 1.1//EN" 
 "http://www.w3.org/Graphics/SVG/1.1/DTD/svg11.dtd"> 
<svg
  xmlns:svg="http://www.w3.org/2000/svg"
  xmlns="http://www.w3.org/2000/svg"
  xmlns:xlink="http://www.w3.org/1999/xlink"
  version="1.1"
  width="100.0760mm" height="60.0964mm" viewBox="0.0000 0.0000 100.0760 60.0964">
<title>SVG Image created as ethernet_led_controller_back_panel-Edge_Cuts.svg date 2024/08/07 11:58:22 </title>
  <desc>Image generated by PCBNEW </desc>
<g style="fill:#000000; fill-opacity:1.0000;stroke:#000000; stroke-opacity:1.0000;
stroke-linecap:round; stroke-linejoin:round;"
 transform="translate(0 0) scale(1 1)">
</g>
<g style="fill:#000000; fill-opacity:0.0; 
stroke:#000000; stroke-width:0.0000; stroke-opacity:1; 
stroke-linecap:round; stroke-linejoin:round;">
</g>
<g style="fill:#000000; fill-opacity:1.0000; 
stroke:#000000; stroke-width:0.0212; stroke-opacity:1; 
stroke-linecap:round; stroke-linejoin:round;">
<rect x="-5.000000" y="-5.000000" width="110.100000" height="70.100000" rx="0.000000" />
</g>
<g style="fill:#FFFFFF; fill-opacity:1.0000; 
stroke:#FFFFFF; stroke-width:0.0212; stroke-opacity:1; 
stroke-linecap:round; stroke-linejoin:round;">
</g>
<g style="fill:#FFFFFF; fill-opacity:1.0000; 
stroke:#FFFFFF; stroke-width:0.1000; stroke-opacity:1; 
stroke-linecap:round; stroke-linejoin:round;">
</g>
<g style="fill:#FFFFFF; fill-opacity:0.0; 
stroke:#FFFFFF; stroke-width:0.1000; stroke-opacity:1; 
stroke-linecap:round; stroke-linejoin:round;">
<path d="M100.0500 3.5500
L100.0500 56.5500
" />
<path d="M96.5500 60.0500
L3.5500 60.0500
" />
<circle cx="96.5500" cy="56.5500" r="1.8000" /> 
<path d="M0.0500 56.5500
L0.0500 3.5500
" />
<circle cx="3.5500" cy="3.5500" r="1.8000" /> 
<path d="M3.5500 0.0500 A3.5000 3.5000 0.0 0 0 0.0500 3.5500" />
<path d="M96.5500 60.0500 A3.5000 3.5000 0.0 0 0 100.0500 56.5500" />
<circle cx="96.5500" cy="3.5500" r="1.8000" /> 
<circle cx="3.5500" cy="56.5500" r="1.8000" /> 
<path d="M100.0500 3.5500 A3.5000 3.5000 0.0 0 0 96.5500 0.0500" />
<path d="M0.0500 56.5500 A3.5000 3.5000 0.0 0 0 3.5500 60.0500" />
<path d="M3.5500 0.0500
L96.5500 0.0500
" />
<g >
</g>
<g >
</g>
<g >
</g>
</g> 
</svg>
