  0
SECTION
  2
HEADER
  9
$ACADVER
  1
AC1014
  9
$HANDSEED
  5
FFFF
  9
$INSUNITS
 70
     4
  9
$MEASUREMENT
 70
     1
  0
ENDSEC
  0
SECTION
  2
TABLES
  0
TABLE
  2
VPORT
  5
8
330
0
100
AcDbSymbolTable
 70
     4
  0
VPORT
  5
2E
330
8
100
AcDbSymbolTableRecord
100
AcDbViewportTableRecord
  2
*ACTIVE
 70
     0
 10
0.0
 20
0.0
 11
1.0
 21
1.0
 12
210.0
 22
148.5
 13
0.0
 23
0.0
 14
10.0
 24
10.0
 15
10.0
 25
10.0
 16
0.0
 26
0.0
 36
1.0
 17
0.0
 27
0.0
 37
0.0
 40
341.0
 41
1.24
 42
50.0
 43
0.0
 44
0.0
 50
0.0
 51
0.0
 71
     0
 72
   100
 73
     1
 74
     3
 75
     0
 76
     0
 77
     0
 78
     0
  0
ENDTAB
  0
TABLE
  2
LTYPE
  5
5
330
0
100
AcDbSymbolTable
 70
     1
  0
LTYPE
  5
14
330
5
100
AcDbSymbolTableRecord
100
AcDbLinetypeTableRecord
  2
BYBLOCK
 70
     0
  3

 72
    65
 73
     0
 40
0.0
  0
LTYPE
  5
15
330
5
100
AcDbSymbolTableRecord
100
AcDbLinetypeTableRecord
  2
BYLAYER
 70
     0
  3

 72
    65
 73
     0
 40
0.0
  0
LTYPE
  5
16
330
5
100
AcDbSymbolTableRecord
100
AcDbLinetypeTableRecord
  2
CONTINUOUS
 70
     0
  3
Solid line
 72
    65
 73
     0
 40
0.0
  0
ENDTAB
  0
TABLE
  2
LAYER
  5
2
100
AcDbSymbolTable
 70
1
  0
LAYER
  5
50
100
AcDbSymbolTableRecord
100
AcDbLayerTableRecord
  2
0
 70
0
  6
CONTINUOUS
  0
ENDTAB
  0
TABLE
  2
STYLE
  5
3
330
0
100
AcDbSymbolTable
 70
     1
  0
STYLE
  5
11
330
3
100
AcDbSymbolTableRecord
100
AcDbTextStyleTableRecord
  2
STANDARD
 70
     0
 40
0.0
 41
1.0
 50
0.0
 71
     0
 42
2.5
  3
txt
  4

  0
ENDTAB
  0
TABLE
  2
VIEW
  5
6
330
0
100
AcDbSymbolTable
 70
     0
  0
ENDTAB
  0
TABLE
  2
UCS
  5
7
330
0
100
AcDbSymbolTable
 70
     0
  0
ENDTAB
  0
TABLE
  2
APPID
  5
9
330
0
100
AcDbSymbolTable
 70
     2
  0
APPID
  5
12
330
9
100
AcDbSymbolTableRecord
100
AcDbRegAppTableRecord
  2
ACAD
 70
     0
  0
ENDTAB
  0
TABLE
  2
DIMSTYLE
  5
A
330
0
100
AcDbSymbolTable
 70
     1
  0
DIMSTYLE
105
27
330
A
100
AcDbSymbolTableRecord
100
AcDbDimStyleTableRecord
  2
ISO-25
 70
     0
  3

  4

  5

  6

  7

 40
1.0
 41
2.5
 42
0.625
 43
3.75
 44
1.25
 45
0.0
 46
0.0
 47
0.0
 48
0.0
140
2.5
141
2.5
142
0.0
143
0.03937007874016
144
1.0
145
0.0
146
1.0
147
0.625
 71
     0
 72
     0
 73
     0
 74
     0
 75
     0
 76
     0
 77
     1
 78
     8
170
     0
171
     3
172
     1
173
     0
174
     0
175
     0
176
     0
177
     0
178
     0
270
     2
271
     2
272
     2
273
     2
274
     3
340
11
275
     0
280
     0
281
     0
282
     0
283
     0
284
     8
285
     0
286
     0
287
     3
288
     0
  0
ENDTAB
  0
TABLE
  2
BLOCK_RECORD
  5
1
330
0
100
AcDbSymbolTable
 70
     1
  0
BLOCK_RECORD
  5
1F
330
1
100
AcDbSymbolTableRecord
100
AcDbBlockTableRecord
  2
*MODEL_SPACE
  0
BLOCK_RECORD
  5
1B
330
1
100
AcDbSymbolTableRecord
100
AcDbBlockTableRecord
  2
*PAPER_SPACE
  0
ENDTAB
  0
ENDSEC
  0
SECTION
  2
BLOCKS
  0
BLOCK
  5
20
330
1F
100
AcDbEntity
  8
0
100
AcDbBlockBegin
  2
*MODEL_SPACE
 70
     0
 10
0.0
 20
0.0
 30
0.0
  3
*MODEL_SPACE
  1

  0
ENDBLK
  5
21
330
1F
100
AcDbEntity
  8
0
100
AcDbBlockEnd
  0
BLOCK
  5
1C
330
1B
100
AcDbEntity
 67
     1
  8
0
100
AcDbBlockBegin
  2
*PAPER_SPACE
  1

  0
ENDBLK
  5
1D
330
1B
100
AcDbEntity
 67
     1
  8
0
100
AcDbBlockEnd
  0
ENDSEC
  0
SECTION
  2
ENTITIES
  0
LWPOLYLINE
  5
100
100
AcDbEntity
  8
0
 62
7
100
AcDbPolyline
 90
4
 70
1
 10
-5.000000
 20
65.096400
 30
0.0
 10
105.100000
 20
65.096400
 30
0.0
 10
105.100000
 20
-5.003600
 30
0.0
 10
-5.000000
 20
-5.003600
 30
0.0
  0
LWPOLYLINE
  5
101
100
AcDbEntity
  8
0
 62
7
100
AcDbPolyline
 90
12
 70
1
 10
61.434500
 20
54.875600
 30
0.0
 10
61.434500
 20
56.375600
 30
0.0
 10
61.791700
 20
56.375600
 30
0.0
 10
62.005900
 20
56.304100
 30
0.0
 10
62.148800
 20
56.161300
 30
0.0
 10
62.220200
 20
56.018400
 30
0.0
 10
62.291700
 20
55.732700
 30
0.0
 10
62.291700
 20
55.518400
 30
0.0
 10
62.220200
 20
55.232700
 30
0.0
 10
62.148800
 20
55.089900
 30
0.0
 10
62.005900
 20
54.947000
 30
0.0
 10
61.791700
 20
54.875600
 30
0.0
  0
LWPOLYLINE
  5
102
100
AcDbEntity
  8
0
 62
7
100
AcDbPolyline
 90
20
 70
1
 10
63.220200
 20
56.375600
 30
0.0
 10
63.363100
 20
56.375600
 30
0.0
 10
63.505900
 20
56.304100
 30
0.0
 10
63.577400
 20
56.232700
 30
0.0
 10
63.648800
 20
56.089900
 30
0.0
 10
63.720200
 20
55.804100
 30
0.0
 10
63.720200
 20
55.447000
 30
0.0
 10
63.648800
 20
55.161300
 30
0.0
 10
63.577400
 20
55.018400
 30
0.0
 10
63.505900
 20
54.947000
 30
0.0
 10
63.363100
 20
54.875600
 30
0.0
 10
63.220200
 20
54.875600
 30
0.0
 10
63.077400
 20
54.947000
 30
0.0
 10
63.005900
 20
55.018400
 30
0.0
 10
62.934500
 20
55.161300
 30
0.0
 10
62.863100
 20
55.447000
 30
0.0
 10
62.863100
 20
55.804100
 30
0.0
 10
62.934500
 20
56.089900
 30
0.0
 10
63.005900
 20
56.232700
 30
0.0
 10
63.077400
 20
56.304100
 30
0.0
  0
LWPOLYLINE
  5
103
100
AcDbEntity
  8
0
 62
7
100
AcDbPolyline
 90
2
 70
0
 10
64.363100
 20
55.447000
 30
0.0
 10
65.505900
 20
55.447000
 30
0.0
  0
LWPOLYLINE
  5
104
100
AcDbEntity
  8
0
 62
7
100
AcDbPolyline
 90
12
 70
1
 10
66.220200
 20
54.875600
 30
0.0
 10
66.220200
 20
56.375600
 30
0.0
 10
66.577400
 20
56.375600
 30
0.0
 10
66.791700
 20
56.304100
 30
0.0
 10
66.934500
 20
56.161300
 30
0.0
 10
67.005900
 20
56.018400
 30
0.0
 10
67.077400
 20
55.732700
 30
0.0
 10
67.077400
 20
55.518400
 30
0.0
 10
67.005900
 20
55.232700
 30
0.0
 10
66.934500
 20
55.089900
 30
0.0
 10
66.791700
 20
54.947000
 30
0.0
 10
66.577400
 20
54.875600
 30
0.0
  0
LWPOLYLINE
  5
105
100
AcDbEntity
  8
0
 62
7
100
AcDbPolyline
 90
14
 70
0
 10
67.577400
 20
56.375600
 30
0.0
 10
68.505900
 20
56.375600
 30
0.0
 10
68.005900
 20
55.804100
 30
0.0
 10
68.220200
 20
55.804100
 30
0.0
 10
68.363100
 20
55.732700
 30
0.0
 10
68.434500
 20
55.661300
 30
0.0
 10
68.505900
 20
55.518400
 30
0.0
 10
68.505900
 20
55.161300
 30
0.0
 10
68.434500
 20
55.018400
 30
0.0
 10
68.363100
 20
54.947000
 30
0.0
 10
68.220200
 20
54.875600
 30
0.0
 10
67.791700
 20
54.875600
 30
0.0
 10
67.648800
 20
54.947000
 30
0.0
 10
67.577400
 20
55.018400
 30
0.0
  0
LWPOLYLINE
  5
106
100
AcDbEntity
  8
0
 62
7
100
AcDbPolyline
 90
12
 70
1
 10
61.034500
 20
11.875600
 30
0.0
 10
61.034500
 20
13.375600
 30
0.0
 10
61.391700
 20
13.375600
 30
0.0
 10
61.605900
 20
13.304100
 30
0.0
 10
61.748800
 20
13.161300
 30
0.0
 10
61.820200
 20
13.018400
 30
0.0
 10
61.891700
 20
12.732700
 30
0.0
 10
61.891700
 20
12.518400
 30
0.0
 10
61.820200
 20
12.232700
 30
0.0
 10
61.748800
 20
12.089900
 30
0.0
 10
61.605900
 20
11.947000
 30
0.0
 10
61.391700
 20
11.875600
 30
0.0
  0
LWPOLYLINE
  5
107
100
AcDbEntity
  8
0
 62
7
100
AcDbPolyline
 90
2
 70
0
 10
63.320200
 20
11.875600
 30
0.0
 10
62.463100
 20
11.875600
 30
0.0
  0
LWPOLYLINE
  5
108
100
AcDbEntity
  8
0
 62
7
100
AcDbPolyline
 90
5
 70
0
 10
62.891700
 20
11.875600
 30
0.0
 10
62.891700
 20
13.375600
 30
0.0
 10
62.748800
 20
13.161300
 30
0.0
 10
62.605900
 20
13.018400
 30
0.0
 10
62.463100
 20
12.947000
 30
0.0
  0
LWPOLYLINE
  5
109
100
AcDbEntity
  8
0
 62
7
100
AcDbPolyline
 90
19
 70
0
 10
1.695100
 20
13.630900
 30
0.0
 10
1.766500
 20
13.845200
 30
0.0
 10
1.838000
 20
13.916600
 30
0.0
 10
1.980800
 20
13.988100
 30
0.0
 10
2.195100
 20
13.988100
 30
0.0
 10
2.338000
 20
13.916600
 30
0.0
 10
2.409400
 20
13.845200
 30
0.0
 10
2.480800
 20
13.702300
 30
0.0
 10
2.480800
 20
13.130900
 30
0.0
 10
0.980800
 20
13.130900
 30
0.0
 10
0.980800
 20
13.630900
 30
0.0
 10
1.052300
 20
13.773800
 30
0.0
 10
1.123700
 20
13.845200
 30
0.0
 10
1.266500
 20
13.916600
 30
0.0
 10
1.409400
 20
13.916600
 30
0.0
 10
1.552300
 20
13.845200
 30
0.0
 10
1.623700
 20
13.773800
 30
0.0
 10
1.695100
 20
13.630900
 30
0.0
 10
1.695100
 20
13.130900
 30
0.0
  0
LWPOLYLINE
  5
10a
100
AcDbEntity
  8
0
 62
7
100
AcDbPolyline
 90
16
 70
1
 10
0.980800
 20
14.916600
 30
0.0
 10
0.980800
 20
15.202300
 30
0.0
 10
1.052300
 20
15.345200
 30
0.0
 10
1.195100
 20
15.488100
 30
0.0
 10
1.480800
 20
15.559500
 30
0.0
 10
1.980800
 20
15.559500
 30
0.0
 10
2.266500
 20
15.488100
 30
0.0
 10
2.409400
 20
15.345200
 30
0.0
 10
2.480800
 20
15.202300
 30
0.0
 10
2.480800
 20
14.916600
 30
0.0
 10
2.409400
 20
14.773800
 30
0.0
 10
2.266500
 20
14.630900
 30
0.0
 10
1.980800
 20
14.559500
 30
0.0
 10
1.480800
 20
14.559500
 30
0.0
 10
1.195100
 20
14.630900
 30
0.0
 10
1.052300
 20
14.773800
 30
0.0
  0
LWPOLYLINE
  5
10b
100
AcDbEntity
  8
0
 62
7
100
AcDbPolyline
 90
16
 70
1
 10
0.980800
 20
16.488100
 30
0.0
 10
0.980800
 20
16.773800
 30
0.0
 10
1.052300
 20
16.916600
 30
0.0
 10
1.195100
 20
17.059500
 30
0.0
 10
1.480800
 20
17.130900
 30
0.0
 10
1.980800
 20
17.130900
 30
0.0
 10
2.266500
 20
17.059500
 30
0.0
 10
2.409400
 20
16.916600
 30
0.0
 10
2.480800
 20
16.773800
 30
0.0
 10
2.480800
 20
16.488100
 30
0.0
 10
2.409400
 20
16.345200
 30
0.0
 10
2.266500
 20
16.202300
 30
0.0
 10
1.980800
 20
16.130900
 30
0.0
 10
1.480800
 20
16.130900
 30
0.0
 10
1.195100
 20
16.202300
 30
0.0
 10
1.052300
 20
16.345200
 30
0.0
  0
LWPOLYLINE
  5
10c
100
AcDbEntity
  8
0
 62
7
100
AcDbPolyline
 90
2
 70
0
 10
0.980800
 20
17.559500
 30
0.0
 10
0.980800
 20
18.416600
 30
0.0
  0
LWPOLYLINE
  5
10d
100
AcDbEntity
  8
0
 62
7
100
AcDbPolyline
 90
2
 70
0
 10
2.480800
 20
17.988100
 30
0.0
 10
0.980800
 20
17.988100
 30
0.0
  0
LWPOLYLINE
  5
10e
100
AcDbEntity
  8
0
 62
7
100
AcDbPolyline
 90
3
 70
0
 10
2.480800
 20
19.630900
 30
0.0
 10
2.480800
 20
18.916600
 30
0.0
 10
0.980800
 20
18.916600
 30
0.0
  0
LWPOLYLINE
  5
10f
100
AcDbEntity
  8
0
 62
7
100
AcDbPolyline
 90
16
 70
1
 10
0.980800
 20
20.416600
 30
0.0
 10
0.980800
 20
20.702300
 30
0.0
 10
1.052300
 20
20.845200
 30
0.0
 10
1.195100
 20
20.988100
 30
0.0
 10
1.480800
 20
21.059500
 30
0.0
 10
1.980800
 20
21.059500
 30
0.0
 10
2.266500
 20
20.988100
 30
0.0
 10
2.409400
 20
20.845200
 30
0.0
 10
2.480800
 20
20.702300
 30
0.0
 10
2.480800
 20
20.416600
 30
0.0
 10
2.409400
 20
20.273800
 30
0.0
 10
2.266500
 20
20.130900
 30
0.0
 10
1.980800
 20
20.059500
 30
0.0
 10
1.480800
 20
20.059500
 30
0.0
 10
1.195100
 20
20.130900
 30
0.0
 10
1.052300
 20
20.273800
 30
0.0
  0
LWPOLYLINE
  5
110
100
AcDbEntity
  8
0
 62
7
100
AcDbPolyline
 90
2
 70
0
 10
2.052300
 20
21.630900
 30
0.0
 10
2.052300
 20
22.345200
 30
0.0
  0
LWPOLYLINE
  5
111
100
AcDbEntity
  8
0
 62
7
100
AcDbPolyline
 90
3
 70
0
 10
2.480800
 20
21.488100
 30
0.0
 10
0.980800
 20
21.988100
 30
0.0
 10
2.480800
 20
22.488100
 30
0.0
  0
LWPOLYLINE
  5
112
100
AcDbEntity
  8
0
 62
7
100
AcDbPolyline
 90
12
 70
1
 10
2.480800
 20
22.988100
 30
0.0
 10
0.980800
 20
22.988100
 30
0.0
 10
0.980800
 20
23.345200
 30
0.0
 10
1.052300
 20
23.559500
 30
0.0
 10
1.195100
 20
23.702300
 30
0.0
 10
1.338000
 20
23.773800
 30
0.0
 10
1.623700
 20
23.845200
 30
0.0
 10
1.838000
 20
23.845200
 30
0.0
 10
2.123700
 20
23.773800
 30
0.0
 10
2.266500
 20
23.702300
 30
0.0
 10
2.409400
 20
23.559500
 30
0.0
 10
2.480800
 20
23.345200
 30
0.0
  0
LWPOLYLINE
  5
113
100
AcDbEntity
  8
0
 62
7
100
AcDbPolyline
 90
2
 70
0
 10
1.695100
 20
24.488100
 30
0.0
 10
1.695100
 20
24.988100
 30
0.0
  0
LWPOLYLINE
  5
114
100
AcDbEntity
  8
0
 62
7
100
AcDbPolyline
 90
4
 70
0
 10
2.480800
 20
25.202300
 30
0.0
 10
2.480800
 20
24.488100
 30
0.0
 10
0.980800
 20
24.488100
 30
0.0
 10
0.980800
 20
25.202300
 30
0.0
  0
LWPOLYLINE
  5
115
100
AcDbEntity
  8
0
 62
7
100
AcDbPolyline
 90
2
 70
0
 10
2.480800
 20
26.702300
 30
0.0
 10
1.766500
 20
26.202300
 30
0.0
  0
LWPOLYLINE
  5
116
100
AcDbEntity
  8
0
 62
7
100
AcDbPolyline
 90
11
 70
0
 10
2.480800
 20
25.845200
 30
0.0
 10
0.980800
 20
25.845200
 30
0.0
 10
0.980800
 20
26.416600
 30
0.0
 10
1.052300
 20
26.559500
 30
0.0
 10
1.123700
 20
26.630900
 30
0.0
 10
1.266500
 20
26.702300
 30
0.0
 10
1.480800
 20
26.702300
 30
0.0
 10
1.623700
 20
26.630900
 30
0.0
 10
1.695100
 20
26.559500
 30
0.0
 10
1.766500
 20
26.416600
 30
0.0
 10
1.766500
 20
25.845200
 30
0.0
  0
LWPOLYLINE
  5
117
100
AcDbEntity
  8
0
 62
7
100
AcDbPolyline
 90
12
 70
1
 10
69.034500
 20
11.875600
 30
0.0
 10
69.034500
 20
13.375600
 30
0.0
 10
69.391700
 20
13.375600
 30
0.0
 10
69.605900
 20
13.304100
 30
0.0
 10
69.748800
 20
13.161300
 30
0.0
 10
69.820200
 20
13.018400
 30
0.0
 10
69.891700
 20
12.732700
 30
0.0
 10
69.891700
 20
12.518400
 30
0.0
 10
69.820200
 20
12.232700
 30
0.0
 10
69.748800
 20
12.089900
 30
0.0
 10
69.605900
 20
11.947000
 30
0.0
 10
69.391700
 20
11.875600
 30
0.0
  0
LWPOLYLINE
  5
118
100
AcDbEntity
  8
0
 62
7
100
AcDbPolyline
 90
14
 70
0
 10
70.391700
 20
13.375600
 30
0.0
 10
71.320200
 20
13.375600
 30
0.0
 10
70.820200
 20
12.804100
 30
0.0
 10
71.034500
 20
12.804100
 30
0.0
 10
71.177400
 20
12.732700
 30
0.0
 10
71.248800
 20
12.661300
 30
0.0
 10
71.320200
 20
12.518400
 30
0.0
 10
71.320200
 20
12.161300
 30
0.0
 10
71.248800
 20
12.018400
 30
0.0
 10
71.177400
 20
11.947000
 30
0.0
 10
71.034500
 20
11.875600
 30
0.0
 10
70.605900
 20
11.875600
 30
0.0
 10
70.463100
 20
11.947000
 30
0.0
 10
70.391700
 20
12.018400
 30
0.0
  0
LWPOLYLINE
  5
119
100
AcDbEntity
  8
0
 62
7
100
AcDbPolyline
 90
16
 70
0
 10
2.050800
 20
41.061700
 30
0.0
 10
1.988900
 20
40.999800
 30
0.0
 10
1.803200
 20
40.937900
 30
0.0
 10
1.679400
 20
40.937900
 30
0.0
 10
1.493700
 20
40.999800
 30
0.0
 10
1.369800
 20
41.123600
 30
0.0
 10
1.307900
 20
41.247400
 30
0.0
 10
1.246000
 20
41.495000
 30
0.0
 10
1.246000
 20
41.680700
 30
0.0
 10
1.307900
 20
41.928300
 30
0.0
 10
1.369800
 20
42.052100
 30
0.0
 10
1.493700
 20
42.176000
 30
0.0
 10
1.679400
 20
42.237900
 30
0.0
 10
1.803200
 20
42.237900
 30
0.0
 10
1.988900
 20
42.176000
 30
0.0
 10
2.050800
 20
42.114000
 30
0.0
  0
LWPOLYLINE
  5
11a
100
AcDbEntity
  8
0
 62
7
100
AcDbPolyline
 90
16
 70
1
 10
2.855600
 20
42.237900
 30
0.0
 10
3.103200
 20
42.237900
 30
0.0
 10
3.227000
 20
42.176000
 30
0.0
 10
3.350800
 20
42.052100
 30
0.0
 10
3.412700
 20
41.804500
 30
0.0
 10
3.412700
 20
41.371200
 30
0.0
 10
3.350800
 20
41.123600
 30
0.0
 10
3.227000
 20
40.999800
 30
0.0
 10
3.103200
 20
40.937900
 30
0.0
 10
2.855600
 20
40.937900
 30
0.0
 10
2.731800
 20
40.999800
 30
0.0
 10
2.607900
 20
41.123600
 30
0.0
 10
2.546000
 20
41.371200
 30
0.0
 10
2.546000
 20
41.804500
 30
0.0
 10
2.607900
 20
42.052100
 30
0.0
 10
2.731800
 20
42.176000
 30
0.0
  0
LWPOLYLINE
  5
11b
100
AcDbEntity
  8
0
 62
7
100
AcDbPolyline
 90
4
 70
0
 10
3.969800
 20
40.937900
 30
0.0
 10
3.969800
 20
42.237900
 30
0.0
 10
4.712700
 20
40.937900
 30
0.0
 10
4.712700
 20
42.237900
 30
0.0
  0
LWPOLYLINE
  5
11c
100
AcDbEntity
  8
0
 62
7
100
AcDbPolyline
 90
2
 70
0
 10
5.146000
 20
42.237900
 30
0.0
 10
5.888900
 20
42.237900
 30
0.0
  0
LWPOLYLINE
  5
11d
100
AcDbEntity
  8
0
 62
7
100
AcDbPolyline
 90
2
 70
0
 10
5.517500
 20
40.937900
 30
0.0
 10
5.517500
 20
42.237900
 30
0.0
  0
LWPOLYLINE
  5
11e
100
AcDbEntity
  8
0
 62
7
100
AcDbPolyline
 90
2
 70
0
 10
7.065100
 20
40.937900
 30
0.0
 10
6.631800
 20
41.556900
 30
0.0
  0
LWPOLYLINE
  5
11f
100
AcDbEntity
  8
0
 62
7
100
AcDbPolyline
 90
11
 70
0
 10
6.322200
 20
40.937900
 30
0.0
 10
6.322200
 20
42.237900
 30
0.0
 10
6.817500
 20
42.237900
 30
0.0
 10
6.941300
 20
42.176000
 30
0.0
 10
7.003200
 20
42.114000
 30
0.0
 10
7.065100
 20
41.990200
 30
0.0
 10
7.065100
 20
41.804500
 30
0.0
 10
7.003200
 20
41.680700
 30
0.0
 10
6.941300
 20
41.618800
 30
0.0
 10
6.817500
 20
41.556900
 30
0.0
 10
6.322200
 20
41.556900
 30
0.0
  0
LWPOLYLINE
  5
120
100
AcDbEntity
  8
0
 62
7
100
AcDbPolyline
 90
16
 70
1
 10
7.869800
 20
42.237900
 30
0.0
 10
8.117500
 20
42.237900
 30
0.0
 10
8.241300
 20
42.176000
 30
0.0
 10
8.365100
 20
42.052100
 30
0.0
 10
8.427000
 20
41.804500
 30
0.0
 10
8.427000
 20
41.371200
 30
0.0
 10
8.365100
 20
41.123600
 30
0.0
 10
8.241300
 20
40.999800
 30
0.0
 10
8.117500
 20
40.937900
 30
0.0
 10
7.869800
 20
40.937900
 30
0.0
 10
7.746000
 20
40.999800
 30
0.0
 10
7.622200
 20
41.123600
 30
0.0
 10
7.560300
 20
41.371200
 30
0.0
 10
7.560300
 20
41.804500
 30
0.0
 10
7.622200
 20
42.052100
 30
0.0
 10
7.746000
 20
42.176000
 30
0.0
  0
LWPOLYLINE
  5
121
100
AcDbEntity
  8
0
 62
7
100
AcDbPolyline
 90
3
 70
0
 10
9.603200
 20
40.937900
 30
0.0
 10
8.984100
 20
40.937900
 30
0.0
 10
8.984100
 20
42.237900
 30
0.0
  0
LWPOLYLINE
  5
122
100
AcDbEntity
  8
0
 62
7
100
AcDbPolyline
 90
3
 70
0
 10
10.655600
 20
40.937900
 30
0.0
 10
10.036500
 20
40.937900
 30
0.0
 10
10.036500
 20
42.237900
 30
0.0
  0
LWPOLYLINE
  5
123
100
AcDbEntity
  8
0
 62
7
100
AcDbPolyline
 90
2
 70
0
 10
11.088900
 20
41.618800
 30
0.0
 10
11.522200
 20
41.618800
 30
0.0
  0
LWPOLYLINE
  5
124
100
AcDbEntity
  8
0
 62
7
100
AcDbPolyline
 90
4
 70
0
 10
11.707900
 20
40.937900
 30
0.0
 10
11.088900
 20
40.937900
 30
0.0
 10
11.088900
 20
42.237900
 30
0.0
 10
11.707900
 20
42.237900
 30
0.0
  0
LWPOLYLINE
  5
125
100
AcDbEntity
  8
0
 62
7
100
AcDbPolyline
 90
2
 70
0
 10
13.007900
 20
40.937900
 30
0.0
 10
12.574600
 20
41.556900
 30
0.0
  0
LWPOLYLINE
  5
126
100
AcDbEntity
  8
0
 62
7
100
AcDbPolyline
 90
11
 70
0
 10
12.265100
 20
40.937900
 30
0.0
 10
12.265100
 20
42.237900
 30
0.0
 10
12.760300
 20
42.237900
 30
0.0
 10
12.884100
 20
42.176000
 30
0.0
 10
12.946000
 20
42.114000
 30
0.0
 10
13.007900
 20
41.990200
 30
0.0
 10
13.007900
 20
41.804500
 30
0.0
 10
12.946000
 20
41.680700
 30
0.0
 10
12.884100
 20
41.618800
 30
0.0
 10
12.760300
 20
41.556900
 30
0.0
 10
12.265100
 20
41.556900
 30
0.0
  0
LWPOLYLINE
  5
127
100
AcDbEntity
  8
0
 62
7
100
AcDbPolyline
 90
2
 70
0
 10
2.050800
 20
38.844900
 30
0.0
 10
1.617500
 20
39.463900
 30
0.0
  0
LWPOLYLINE
  5
128
100
AcDbEntity
  8
0
 62
7
100
AcDbPolyline
 90
11
 70
0
 10
1.307900
 20
38.844900
 30
0.0
 10
1.307900
 20
40.144900
 30
0.0
 10
1.803200
 20
40.144900
 30
0.0
 10
1.927000
 20
40.083000
 30
0.0
 10
1.988900
 20
40.021000
 30
0.0
 10
2.050800
 20
39.897200
 30
0.0
 10
2.050800
 20
39.711500
 30
0.0
 10
1.988900
 20
39.587700
 30
0.0
 10
1.927000
 20
39.525800
 30
0.0
 10
1.803200
 20
39.463900
 30
0.0
 10
1.307900
 20
39.463900
 30
0.0
  0
LWPOLYLINE
  5
129
100
AcDbEntity
  8
0
 62
7
100
AcDbPolyline
 90
2
 70
0
 10
2.607900
 20
39.525800
 30
0.0
 10
3.041300
 20
39.525800
 30
0.0
  0
LWPOLYLINE
  5
12a
100
AcDbEntity
  8
0
 62
7
100
AcDbPolyline
 90
4
 70
0
 10
3.227000
 20
38.844900
 30
0.0
 10
2.607900
 20
38.844900
 30
0.0
 10
2.607900
 20
40.144900
 30
0.0
 10
3.227000
 20
40.144900
 30
0.0
  0
LWPOLYLINE
  5
12b
100
AcDbEntity
  8
0
 62
7
100
AcDbPolyline
 90
20
 70
0
 10
3.722200
 20
38.906800
 30
0.0
 10
3.907900
 20
38.844900
 30
0.0
 10
4.217500
 20
38.844900
 30
0.0
 10
4.341300
 20
38.906800
 30
0.0
 10
4.403200
 20
38.968700
 30
0.0
 10
4.465100
 20
39.092500
 30
0.0
 10
4.465100
 20
39.216300
 30
0.0
 10
4.403200
 20
39.340100
 30
0.0
 10
4.341300
 20
39.402000
 30
0.0
 10
4.217500
 20
39.463900
 30
0.0
 10
3.969800
 20
39.525800
 30
0.0
 10
3.846000
 20
39.587700
 30
0.0
 10
3.784100
 20
39.649600
 30
0.0
 10
3.722200
 20
39.773400
 30
0.0
 10
3.722200
 20
39.897200
 30
0.0
 10
3.784100
 20
40.021000
 30
0.0
 10
3.846000
 20
40.083000
 30
0.0
 10
3.969800
 20
40.144900
 30
0.0
 10
4.279400
 20
40.144900
 30
0.0
 10
4.465100
 20
40.083000
 30
0.0
  0
LWPOLYLINE
  5
12c
100
AcDbEntity
  8
0
 62
7
100
AcDbPolyline
 90
2
 70
0
 10
5.022200
 20
39.525800
 30
0.0
 10
5.455600
 20
39.525800
 30
0.0
  0
LWPOLYLINE
  5
12d
100
AcDbEntity
  8
0
 62
7
100
AcDbPolyline
 90
4
 70
0
 10
5.641300
 20
38.844900
 30
0.0
 10
5.022200
 20
38.844900
 30
0.0
 10
5.022200
 20
40.144900
 30
0.0
 10
5.641300
 20
40.144900
 30
0.0
  0
LWPOLYLINE
  5
12e
100
AcDbEntity
  8
0
 62
7
100
AcDbPolyline
 90
2
 70
0
 10
6.012700
 20
40.144900
 30
0.0
 10
6.755600
 20
40.144900
 30
0.0
  0
LWPOLYLINE
  5
12f
100
AcDbEntity
  8
0
 62
7
100
AcDbPolyline
 90
2
 70
0
 10
6.384100
 20
38.844900
 30
0.0
 10
6.384100
 20
40.144900
 30
0.0
  0
LWPOLYLINE
  5
130
100
AcDbEntity
  8
0
 62
7
100
AcDbPolyline
 90
12
 70
1
 10
57.034500
 20
11.875600
 30
0.0
 10
57.034500
 20
13.375600
 30
0.0
 10
57.391700
 20
13.375600
 30
0.0
 10
57.605900
 20
13.304100
 30
0.0
 10
57.748800
 20
13.161300
 30
0.0
 10
57.820200
 20
13.018400
 30
0.0
 10
57.891700
 20
12.732700
 30
0.0
 10
57.891700
 20
12.518400
 30
0.0
 10
57.820200
 20
12.232700
 30
0.0
 10
57.748800
 20
12.089900
 30
0.0
 10
57.605900
 20
11.947000
 30
0.0
 10
57.391700
 20
11.875600
 30
0.0
  0
LWPOLYLINE
  5
131
100
AcDbEntity
  8
0
 62
7
100
AcDbPolyline
 90
20
 70
1
 10
58.820200
 20
13.375600
 30
0.0
 10
58.963100
 20
13.375600
 30
0.0
 10
59.105900
 20
13.304100
 30
0.0
 10
59.177400
 20
13.232700
 30
0.0
 10
59.248800
 20
13.089900
 30
0.0
 10
59.320200
 20
12.804100
 30
0.0
 10
59.320200
 20
12.447000
 30
0.0
 10
59.248800
 20
12.161300
 30
0.0
 10
59.177400
 20
12.018400
 30
0.0
 10
59.105900
 20
11.947000
 30
0.0
 10
58.963100
 20
11.875600
 30
0.0
 10
58.820200
 20
11.875600
 30
0.0
 10
58.677400
 20
11.947000
 30
0.0
 10
58.605900
 20
12.018400
 30
0.0
 10
58.534500
 20
12.161300
 30
0.0
 10
58.463100
 20
12.447000
 30
0.0
 10
58.463100
 20
12.804100
 30
0.0
 10
58.534500
 20
13.089900
 30
0.0
 10
58.605900
 20
13.232700
 30
0.0
 10
58.677400
 20
13.304100
 30
0.0
  0
LWPOLYLINE
  5
132
100
AcDbEntity
  8
0
 62
7
100
AcDbPolyline
 90
12
 70
1
 10
75.834500
 20
11.875600
 30
0.0
 10
75.834500
 20
13.375600
 30
0.0
 10
76.191700
 20
13.375600
 30
0.0
 10
76.405900
 20
13.304100
 30
0.0
 10
76.548800
 20
13.161300
 30
0.0
 10
76.620200
 20
13.018400
 30
0.0
 10
76.691700
 20
12.732700
 30
0.0
 10
76.691700
 20
12.518400
 30
0.0
 10
76.620200
 20
12.232700
 30
0.0
 10
76.548800
 20
12.089900
 30
0.0
 10
76.405900
 20
11.947000
 30
0.0
 10
76.191700
 20
11.875600
 30
0.0
  0
LWPOLYLINE
  5
133
100
AcDbEntity
  8
0
 62
7
100
AcDbPolyline
 90
2
 70
0
 10
77.977400
 20
12.875600
 30
0.0
 10
77.977400
 20
11.875600
 30
0.0
  0
LWPOLYLINE
  5
134
100
AcDbEntity
  8
0
 62
7
100
AcDbPolyline
 90
3
 70
0
 10
77.620200
 20
13.447000
 30
0.0
 10
77.263100
 20
12.375600
 30
0.0
 10
78.191700
 20
12.375600
 30
0.0
  0
LWPOLYLINE
  5
135
100
AcDbEntity
  8
0
 62
7
100
AcDbPolyline
 90
2
 70
0
 10
33.586500
 20
6.207000
 30
0.0
 10
34.253100
 20
6.207000
 30
0.0
  0
LWPOLYLINE
  5
136
100
AcDbEntity
  8
0
 62
7
100
AcDbPolyline
 90
4
 70
0
 10
34.538800
 20
5.159400
 30
0.0
 10
33.586500
 20
5.159400
 30
0.0
 10
33.586500
 20
7.159400
 30
0.0
 10
34.538800
 20
7.159400
 30
0.0
  0
LWPOLYLINE
  5
137
100
AcDbEntity
  8
0
 62
7
100
AcDbPolyline
 90
2
 70
0
 10
35.110300
 20
7.159400
 30
0.0
 10
36.253100
 20
7.159400
 30
0.0
  0
LWPOLYLINE
  5
138
100
AcDbEntity
  8
0
 62
7
100
AcDbPolyline
 90
2
 70
0
 10
35.681700
 20
5.159400
 30
0.0
 10
35.681700
 20
7.159400
 30
0.0
  0
LWPOLYLINE
  5
139
100
AcDbEntity
  8
0
 62
7
100
AcDbPolyline
 90
2
 70
0
 10
36.919800
 20
5.159400
 30
0.0
 10
36.919800
 20
7.159400
 30
0.0
  0
LWPOLYLINE
  5
13a
100
AcDbEntity
  8
0
 62
7
100
AcDbPolyline
 90
2
 70
0
 10
36.919800
 20
6.207000
 30
0.0
 10
38.062600
 20
6.207000
 30
0.0
  0
LWPOLYLINE
  5
13b
100
AcDbEntity
  8
0
 62
7
100
AcDbPolyline
 90
2
 70
0
 10
38.062600
 20
5.159400
 30
0.0
 10
38.062600
 20
7.159400
 30
0.0
  0
LWPOLYLINE
  5
13c
100
AcDbEntity
  8
0
 62
7
100
AcDbPolyline
 90
2
 70
0
 10
39.015000
 20
6.207000
 30
0.0
 10
39.681700
 20
6.207000
 30
0.0
  0
LWPOLYLINE
  5
13d
100
AcDbEntity
  8
0
 62
7
100
AcDbPolyline
 90
4
 70
0
 10
39.967400
 20
5.159400
 30
0.0
 10
39.015000
 20
5.159400
 30
0.0
 10
39.015000
 20
7.159400
 30
0.0
 10
39.967400
 20
7.159400
 30
0.0
  0
LWPOLYLINE
  5
13e
100
AcDbEntity
  8
0
 62
7
100
AcDbPolyline
 90
2
 70
0
 10
41.967400
 20
5.159400
 30
0.0
 10
41.300700
 20
6.111700
 30
0.0
  0
LWPOLYLINE
  5
13f
100
AcDbEntity
  8
0
 62
7
100
AcDbPolyline
 90
11
 70
0
 10
40.824500
 20
5.159400
 30
0.0
 10
40.824500
 20
7.159400
 30
0.0
 10
41.586500
 20
7.159400
 30
0.0
 10
41.776900
 20
7.064100
 30
0.0
 10
41.872200
 20
6.968900
 30
0.0
 10
41.967400
 20
6.778400
 30
0.0
 10
41.967400
 20
6.492700
 30
0.0
 10
41.872200
 20
6.302200
 30
0.0
 10
41.776900
 20
6.207000
 30
0.0
 10
41.586500
 20
6.111700
 30
0.0
 10
40.824500
 20
6.111700
 30
0.0
  0
LWPOLYLINE
  5
140
100
AcDbEntity
  8
0
 62
7
100
AcDbPolyline
 90
4
 70
0
 10
42.824500
 20
5.159400
 30
0.0
 10
42.824500
 20
7.159400
 30
0.0
 10
43.967400
 20
5.159400
 30
0.0
 10
43.967400
 20
7.159400
 30
0.0
  0
LWPOLYLINE
  5
141
100
AcDbEntity
  8
0
 62
7
100
AcDbPolyline
 90
2
 70
0
 10
44.919800
 20
6.207000
 30
0.0
 10
45.586500
 20
6.207000
 30
0.0
  0
LWPOLYLINE
  5
142
100
AcDbEntity
  8
0
 62
7
100
AcDbPolyline
 90
4
 70
0
 10
45.872200
 20
5.159400
 30
0.0
 10
44.919800
 20
5.159400
 30
0.0
 10
44.919800
 20
7.159400
 30
0.0
 10
45.872200
 20
7.159400
 30
0.0
  0
LWPOLYLINE
  5
143
100
AcDbEntity
  8
0
 62
7
100
AcDbPolyline
 90
2
 70
0
 10
46.443600
 20
7.159400
 30
0.0
 10
47.586500
 20
7.159400
 30
0.0
  0
LWPOLYLINE
  5
144
100
AcDbEntity
  8
0
 62
7
100
AcDbPolyline
 90
2
 70
0
 10
47.015000
 20
5.159400
 30
0.0
 10
47.015000
 20
7.159400
 30
0.0
  0
LWPOLYLINE
  5
145
100
AcDbEntity
  8
0
 62
7
100
AcDbPolyline
 90
2
 70
0
 10
33.586500
 20
1.939400
 30
0.0
 10
33.586500
 20
3.939400
 30
0.0
  0
LWPOLYLINE
  5
146
100
AcDbEntity
  8
0
 62
7
100
AcDbPolyline
 90
4
 70
0
 10
34.538800
 20
1.939400
 30
0.0
 10
34.538800
 20
3.939400
 30
0.0
 10
35.681700
 20
1.939400
 30
0.0
 10
35.681700
 20
3.939400
 30
0.0
  0
LWPOLYLINE
  5
147
100
AcDbEntity
  8
0
 62
7
100
AcDbPolyline
 90
12
 70
1
 10
87.834500
 20
11.875600
 30
0.0
 10
87.834500
 20
13.375600
 30
0.0
 10
88.191700
 20
13.375600
 30
0.0
 10
88.405900
 20
13.304100
 30
0.0
 10
88.548800
 20
13.161300
 30
0.0
 10
88.620200
 20
13.018400
 30
0.0
 10
88.691700
 20
12.732700
 30
0.0
 10
88.691700
 20
12.518400
 30
0.0
 10
88.620200
 20
12.232700
 30
0.0
 10
88.548800
 20
12.089900
 30
0.0
 10
88.405900
 20
11.947000
 30
0.0
 10
88.191700
 20
11.875600
 30
0.0
  0
LWPOLYLINE
  5
148
100
AcDbEntity
  8
0
 62
7
100
AcDbPolyline
 90
3
 70
0
 10
89.191700
 20
13.375600
 30
0.0
 10
90.191700
 20
13.375600
 30
0.0
 10
89.548800
 20
11.875600
 30
0.0
  0
LWPOLYLINE
  5
149
100
AcDbEntity
  8
0
 62
7
100
AcDbPolyline
 90
12
 70
1
 10
65.034500
 20
11.875600
 30
0.0
 10
65.034500
 20
13.375600
 30
0.0
 10
65.391700
 20
13.375600
 30
0.0
 10
65.605900
 20
13.304100
 30
0.0
 10
65.748800
 20
13.161300
 30
0.0
 10
65.820200
 20
13.018400
 30
0.0
 10
65.891700
 20
12.732700
 30
0.0
 10
65.891700
 20
12.518400
 30
0.0
 10
65.820200
 20
12.232700
 30
0.0
 10
65.748800
 20
12.089900
 30
0.0
 10
65.605900
 20
11.947000
 30
0.0
 10
65.391700
 20
11.875600
 30
0.0
  0
LWPOLYLINE
  5
14a
100
AcDbEntity
  8
0
 62
7
100
AcDbPolyline
 90
11
 70
0
 10
66.463100
 20
13.232700
 30
0.0
 10
66.534500
 20
13.304100
 30
0.0
 10
66.677400
 20
13.375600
 30
0.0
 10
67.034500
 20
13.375600
 30
0.0
 10
67.177400
 20
13.304100
 30
0.0
 10
67.248800
 20
13.232700
 30
0.0
 10
67.320200
 20
13.089900
 30
0.0
 10
67.320200
 20
12.947000
 30
0.0
 10
67.248800
 20
12.732700
 30
0.0
 10
66.391700
 20
11.875600
 30
0.0
 10
67.320200
 20
11.875600
 30
0.0
  0
LWPOLYLINE
  5
14b
100
AcDbEntity
  8
0
 62
7
100
AcDbPolyline
 90
12
 70
1
 10
83.834500
 20
11.875600
 30
0.0
 10
83.834500
 20
13.375600
 30
0.0
 10
84.191700
 20
13.375600
 30
0.0
 10
84.405900
 20
13.304100
 30
0.0
 10
84.548800
 20
13.161300
 30
0.0
 10
84.620200
 20
13.018400
 30
0.0
 10
84.691700
 20
12.732700
 30
0.0
 10
84.691700
 20
12.518400
 30
0.0
 10
84.620200
 20
12.232700
 30
0.0
 10
84.548800
 20
12.089900
 30
0.0
 10
84.405900
 20
11.947000
 30
0.0
 10
84.191700
 20
11.875600
 30
0.0
  0
LWPOLYLINE
  5
14c
100
AcDbEntity
  8
0
 62
7
100
AcDbPolyline
 90
22
 70
0
 10
85.977400
 20
13.375600
 30
0.0
 10
85.691700
 20
13.375600
 30
0.0
 10
85.548800
 20
13.304100
 30
0.0
 10
85.477400
 20
13.232700
 30
0.0
 10
85.334500
 20
13.018400
 30
0.0
 10
85.263100
 20
12.732700
 30
0.0
 10
85.263100
 20
12.161300
 30
0.0
 10
85.334500
 20
12.018400
 30
0.0
 10
85.405900
 20
11.947000
 30
0.0
 10
85.548800
 20
11.875600
 30
0.0
 10
85.834500
 20
11.875600
 30
0.0
 10
85.977400
 20
11.947000
 30
0.0
 10
86.048800
 20
12.018400
 30
0.0
 10
86.120200
 20
12.161300
 30
0.0
 10
86.120200
 20
12.518400
 30
0.0
 10
86.048800
 20
12.661300
 30
0.0
 10
85.977400
 20
12.732700
 30
0.0
 10
85.834500
 20
12.804100
 30
0.0
 10
85.548800
 20
12.804100
 30
0.0
 10
85.405900
 20
12.732700
 30
0.0
 10
85.334500
 20
12.661300
 30
0.0
 10
85.263100
 20
12.518400
 30
0.0
  0
LWPOLYLINE
  5
14d
100
AcDbEntity
  8
0
 62
7
100
AcDbPolyline
 90
11
 70
0
 10
8.586500
 20
5.159400
 30
0.0
 10
8.586500
 20
7.159400
 30
0.0
 10
9.348400
 20
7.159400
 30
0.0
 10
9.538800
 20
7.064100
 30
0.0
 10
9.634100
 20
6.968900
 30
0.0
 10
9.729300
 20
6.778400
 30
0.0
 10
9.729300
 20
6.492700
 30
0.0
 10
9.634100
 20
6.302200
 30
0.0
 10
9.538800
 20
6.207000
 30
0.0
 10
9.348400
 20
6.111700
 30
0.0
 10
8.586500
 20
6.111700
 30
0.0
  0
LWPOLYLINE
  5
14e
100
AcDbEntity
  8
0
 62
7
100
AcDbPolyline
 90
16
 70
1
 10
10.967400
 20
7.159400
 30
0.0
 10
11.348400
 20
7.159400
 30
0.0
 10
11.538800
 20
7.064100
 30
0.0
 10
11.729300
 20
6.873600
 30
0.0
 10
11.824500
 20
6.492700
 30
0.0
 10
11.824500
 20
5.826000
 30
0.0
 10
11.729300
 20
5.445100
 30
0.0
 10
11.538800
 20
5.254600
 30
0.0
 10
11.348400
 20
5.159400
 30
0.0
 10
10.967400
 20
5.159400
 30
0.0
 10
10.776900
 20
5.254600
 30
0.0
 10
10.586500
 20
5.445100
 30
0.0
 10
10.491200
 20
5.826000
 30
0.0
 10
10.491200
 20
6.492700
 30
0.0
 10
10.586500
 20
6.873600
 30
0.0
 10
10.776900
 20
7.064100
 30
0.0
  0
LWPOLYLINE
  5
14f
100
AcDbEntity
  8
0
 62
7
100
AcDbPolyline
 90
5
 70
0
 10
12.491200
 20
7.159400
 30
0.0
 10
12.967400
 20
5.159400
 30
0.0
 10
13.348400
 20
6.587900
 30
0.0
 10
13.729300
 20
5.159400
 30
0.0
 10
14.205500
 20
7.159400
 30
0.0
  0
LWPOLYLINE
  5
150
100
AcDbEntity
  8
0
 62
7
100
AcDbPolyline
 90
2
 70
0
 10
14.967400
 20
6.207000
 30
0.0
 10
15.634100
 20
6.207000
 30
0.0
  0
LWPOLYLINE
  5
151
100
AcDbEntity
  8
0
 62
7
100
AcDbPolyline
 90
4
 70
0
 10
15.919800
 20
5.159400
 30
0.0
 10
14.967400
 20
5.159400
 30
0.0
 10
14.967400
 20
7.159400
 30
0.0
 10
15.919800
 20
7.159400
 30
0.0
  0
LWPOLYLINE
  5
152
100
AcDbEntity
  8
0
 62
7
100
AcDbPolyline
 90
2
 70
0
 10
17.919800
 20
5.159400
 30
0.0
 10
17.253100
 20
6.111700
 30
0.0
  0
LWPOLYLINE
  5
153
100
AcDbEntity
  8
0
 62
7
100
AcDbPolyline
 90
11
 70
0
 10
16.776900
 20
5.159400
 30
0.0
 10
16.776900
 20
7.159400
 30
0.0
 10
17.538800
 20
7.159400
 30
0.0
 10
17.729300
 20
7.064100
 30
0.0
 10
17.824500
 20
6.968900
 30
0.0
 10
17.919800
 20
6.778400
 30
0.0
 10
17.919800
 20
6.492700
 30
0.0
 10
17.824500
 20
6.302200
 30
0.0
 10
17.729300
 20
6.207000
 30
0.0
 10
17.538800
 20
6.111700
 30
0.0
 10
16.776900
 20
6.111700
 30
0.0
  0
LWPOLYLINE
  5
154
100
AcDbEntity
  8
0
 62
7
100
AcDbPolyline
 90
2
 70
0
 10
8.586500
 20
1.939400
 30
0.0
 10
8.586500
 20
3.939400
 30
0.0
  0
LWPOLYLINE
  5
155
100
AcDbEntity
  8
0
 62
7
100
AcDbPolyline
 90
4
 70
0
 10
9.538800
 20
1.939400
 30
0.0
 10
9.538800
 20
3.939400
 30
0.0
 10
10.681700
 20
1.939400
 30
0.0
 10
10.681700
 20
3.939400
 30
0.0
  0
LWPOLYLINE
  5
156
100
AcDbEntity
  8
0
 62
7
100
AcDbPolyline
 90
4
 70
0
 10
1.307900
 20
51.937900
 30
0.0
 10
1.307900
 20
53.237900
 30
0.0
 10
2.050800
 20
51.937900
 30
0.0
 10
2.050800
 20
53.237900
 30
0.0
  0
LWPOLYLINE
  5
157
100
AcDbEntity
  8
0
 62
7
100
AcDbPolyline
 90
2
 70
0
 10
2.669800
 20
52.618800
 30
0.0
 10
3.103200
 20
52.618800
 30
0.0
  0
LWPOLYLINE
  5
158
100
AcDbEntity
  8
0
 62
7
100
AcDbPolyline
 90
4
 70
0
 10
3.288900
 20
51.937900
 30
0.0
 10
2.669800
 20
51.937900
 30
0.0
 10
2.669800
 20
53.237900
 30
0.0
 10
3.288900
 20
53.237900
 30
0.0
  0
LWPOLYLINE
  5
159
100
AcDbEntity
  8
0
 62
7
100
AcDbPolyline
 90
2
 70
0
 10
3.660300
 20
53.237900
 30
0.0
 10
4.403200
 20
53.237900
 30
0.0
  0
LWPOLYLINE
  5
15a
100
AcDbEntity
  8
0
 62
7
100
AcDbPolyline
 90
2
 70
0
 10
4.031800
 20
51.937900
 30
0.0
 10
4.031800
 20
53.237900
 30
0.0
  0
LWPOLYLINE
  5
15b
100
AcDbEntity
  8
0
 62
7
100
AcDbPolyline
 90
5
 70
0
 10
4.712700
 20
53.237900
 30
0.0
 10
5.022200
 20
51.937900
 30
0.0
 10
5.269800
 20
52.866400
 30
0.0
 10
5.517500
 20
51.937900
 30
0.0
 10
5.827000
 20
53.237900
 30
0.0
  0
LWPOLYLINE
  5
15c
100
AcDbEntity
  8
0
 62
7
100
AcDbPolyline
 90
16
 70
1
 10
6.569800
 20
53.237900
 30
0.0
 10
6.817500
 20
53.237900
 30
0.0
 10
6.941300
 20
53.176000
 30
0.0
 10
7.065100
 20
53.052100
 30
0.0
 10
7.127000
 20
52.804500
 30
0.0
 10
7.127000
 20
52.371200
 30
0.0
 10
7.065100
 20
52.123600
 30
0.0
 10
6.941300
 20
51.999800
 30
0.0
 10
6.817500
 20
51.937900
 30
0.0
 10
6.569800
 20
51.937900
 30
0.0
 10
6.446000
 20
51.999800
 30
0.0
 10
6.322200
 20
52.123600
 30
0.0
 10
6.260300
 20
52.371200
 30
0.0
 10
6.260300
 20
52.804500
 30
0.0
 10
6.322200
 20
53.052100
 30
0.0
 10
6.446000
 20
53.176000
 30
0.0
  0
LWPOLYLINE
  5
15d
100
AcDbEntity
  8
0
 62
7
100
AcDbPolyline
 90
2
 70
0
 10
8.427000
 20
51.937900
 30
0.0
 10
7.993700
 20
52.556900
 30
0.0
  0
LWPOLYLINE
  5
15e
100
AcDbEntity
  8
0
 62
7
100
AcDbPolyline
 90
11
 70
0
 10
7.684100
 20
51.937900
 30
0.0
 10
7.684100
 20
53.237900
 30
0.0
 10
8.179400
 20
53.237900
 30
0.0
 10
8.303200
 20
53.176000
 30
0.0
 10
8.365100
 20
53.114000
 30
0.0
 10
8.427000
 20
52.990200
 30
0.0
 10
8.427000
 20
52.804500
 30
0.0
 10
8.365100
 20
52.680700
 30
0.0
 10
8.303200
 20
52.618800
 30
0.0
 10
8.179400
 20
52.556900
 30
0.0
 10
7.684100
 20
52.556900
 30
0.0
  0
LWPOLYLINE
  5
15f
100
AcDbEntity
  8
0
 62
7
100
AcDbPolyline
 90
2
 70
0
 10
8.984100
 20
51.937900
 30
0.0
 10
8.984100
 20
53.237900
 30
0.0
  0
LWPOLYLINE
  5
160
100
AcDbEntity
  8
0
 62
7
100
AcDbPolyline
 90
2
 70
0
 10
9.727000
 20
51.937900
 30
0.0
 10
9.169800
 20
52.680700
 30
0.0
  0
LWPOLYLINE
  5
161
100
AcDbEntity
  8
0
 62
7
100
AcDbPolyline
 90
2
 70
0
 10
9.727000
 20
53.237900
 30
0.0
 10
8.984100
 20
52.495000
 30
0.0
  0
LWPOLYLINE
  5
162
100
AcDbEntity
  8
0
 62
7
100
AcDbPolyline
 90
16
 70
0
 10
2.050800
 20
49.968700
 30
0.0
 10
1.988900
 20
49.906800
 30
0.0
 10
1.803200
 20
49.844900
 30
0.0
 10
1.679400
 20
49.844900
 30
0.0
 10
1.493700
 20
49.906800
 30
0.0
 10
1.369800
 20
50.030600
 30
0.0
 10
1.307900
 20
50.154400
 30
0.0
 10
1.246000
 20
50.402000
 30
0.0
 10
1.246000
 20
50.587700
 30
0.0
 10
1.307900
 20
50.835300
 30
0.0
 10
1.369800
 20
50.959100
 30
0.0
 10
1.493700
 20
51.083000
 30
0.0
 10
1.679400
 20
51.144900
 30
0.0
 10
1.803200
 20
51.144900
 30
0.0
 10
1.988900
 20
51.083000
 30
0.0
 10
2.050800
 20
51.021000
 30
0.0
  0
LWPOLYLINE
  5
163
100
AcDbEntity
  8
0
 62
7
100
AcDbPolyline
 90
16
 70
1
 10
2.855600
 20
51.144900
 30
0.0
 10
3.103200
 20
51.144900
 30
0.0
 10
3.227000
 20
51.083000
 30
0.0
 10
3.350800
 20
50.959100
 30
0.0
 10
3.412700
 20
50.711500
 30
0.0
 10
3.412700
 20
50.278200
 30
0.0
 10
3.350800
 20
50.030600
 30
0.0
 10
3.227000
 20
49.906800
 30
0.0
 10
3.103200
 20
49.844900
 30
0.0
 10
2.855600
 20
49.844900
 30
0.0
 10
2.731800
 20
49.906800
 30
0.0
 10
2.607900
 20
50.030600
 30
0.0
 10
2.546000
 20
50.278200
 30
0.0
 10
2.546000
 20
50.711500
 30
0.0
 10
2.607900
 20
50.959100
 30
0.0
 10
2.731800
 20
51.083000
 30
0.0
  0
LWPOLYLINE
  5
164
100
AcDbEntity
  8
0
 62
7
100
AcDbPolyline
 90
4
 70
0
 10
3.969800
 20
49.844900
 30
0.0
 10
3.969800
 20
51.144900
 30
0.0
 10
4.712700
 20
49.844900
 30
0.0
 10
4.712700
 20
51.144900
 30
0.0
  0
LWPOLYLINE
  5
165
100
AcDbEntity
  8
0
 62
7
100
AcDbPolyline
 90
4
 70
0
 10
5.331800
 20
49.844900
 30
0.0
 10
5.331800
 20
51.144900
 30
0.0
 10
6.074600
 20
49.844900
 30
0.0
 10
6.074600
 20
51.144900
 30
0.0
  0
LWPOLYLINE
  5
166
100
AcDbEntity
  8
0
 62
7
100
AcDbPolyline
 90
2
 70
0
 10
6.693700
 20
50.525800
 30
0.0
 10
7.127000
 20
50.525800
 30
0.0
  0
LWPOLYLINE
  5
167
100
AcDbEntity
  8
0
 62
7
100
AcDbPolyline
 90
4
 70
0
 10
7.312700
 20
49.844900
 30
0.0
 10
6.693700
 20
49.844900
 30
0.0
 10
6.693700
 20
51.144900
 30
0.0
 10
7.312700
 20
51.144900
 30
0.0
  0
LWPOLYLINE
  5
168
100
AcDbEntity
  8
0
 62
7
100
AcDbPolyline
 90
16
 70
0
 10
8.612700
 20
49.968700
 30
0.0
 10
8.550800
 20
49.906800
 30
0.0
 10
8.365100
 20
49.844900
 30
0.0
 10
8.241300
 20
49.844900
 30
0.0
 10
8.055600
 20
49.906800
 30
0.0
 10
7.931800
 20
50.030600
 30
0.0
 10
7.869800
 20
50.154400
 30
0.0
 10
7.807900
 20
50.402000
 30
0.0
 10
7.807900
 20
50.587700
 30
0.0
 10
7.869800
 20
50.835300
 30
0.0
 10
7.931800
 20
50.959100
 30
0.0
 10
8.055600
 20
51.083000
 30
0.0
 10
8.241300
 20
51.144900
 30
0.0
 10
8.365100
 20
51.144900
 30
0.0
 10
8.550800
 20
51.083000
 30
0.0
 10
8.612700
 20
51.021000
 30
0.0
  0
LWPOLYLINE
  5
169
100
AcDbEntity
  8
0
 62
7
100
AcDbPolyline
 90
2
 70
0
 10
8.984100
 20
51.144900
 30
0.0
 10
9.727000
 20
51.144900
 30
0.0
  0
LWPOLYLINE
  5
16a
100
AcDbEntity
  8
0
 62
7
100
AcDbPolyline
 90
2
 70
0
 10
9.355600
 20
49.844900
 30
0.0
 10
9.355600
 20
51.144900
 30
0.0
  0
LWPOLYLINE
  5
16b
100
AcDbEntity
  8
0
 62
7
100
AcDbPolyline
 90
2
 70
0
 10
10.160300
 20
50.525800
 30
0.0
 10
10.593700
 20
50.525800
 30
0.0
  0
LWPOLYLINE
  5
16c
100
AcDbEntity
  8
0
 62
7
100
AcDbPolyline
 90
4
 70
0
 10
10.779400
 20
49.844900
 30
0.0
 10
10.160300
 20
49.844900
 30
0.0
 10
10.160300
 20
51.144900
 30
0.0
 10
10.779400
 20
51.144900
 30
0.0
  0
LWPOLYLINE
  5
16d
100
AcDbEntity
  8
0
 62
7
100
AcDbPolyline
 90
12
 70
1
 10
11.336500
 20
49.844900
 30
0.0
 10
11.336500
 20
51.144900
 30
0.0
 10
11.646000
 20
51.144900
 30
0.0
 10
11.831800
 20
51.083000
 30
0.0
 10
11.955600
 20
50.959100
 30
0.0
 10
12.017500
 20
50.835300
 30
0.0
 10
12.079400
 20
50.587700
 30
0.0
 10
12.079400
 20
50.402000
 30
0.0
 10
12.017500
 20
50.154400
 30
0.0
 10
11.955600
 20
50.030600
 30
0.0
 10
11.831800
 20
49.906800
 30
0.0
 10
11.646000
 20
49.844900
 30
0.0
  0
LWPOLYLINE
  5
16e
100
AcDbEntity
  8
0
 62
7
100
AcDbPolyline
 90
12
 70
1
 10
67.935400
 20
18.769400
 30
0.0
 10
67.935400
 20
20.769400
 30
0.0
 10
68.411600
 20
20.769400
 30
0.0
 10
68.697400
 20
20.674100
 30
0.0
 10
68.887800
 20
20.483600
 30
0.0
 10
68.983100
 20
20.293200
 30
0.0
 10
69.078300
 20
19.912200
 30
0.0
 10
69.078300
 20
19.626500
 30
0.0
 10
68.983100
 20
19.245600
 30
0.0
 10
68.887800
 20
19.055100
 30
0.0
 10
68.697400
 20
18.864600
 30
0.0
 10
68.411600
 20
18.769400
 30
0.0
  0
LWPOLYLINE
  5
16f
100
AcDbEntity
  8
0
 62
7
100
AcDbPolyline
 90
2
 70
0
 10
69.840200
 20
19.340800
 30
0.0
 10
70.792600
 20
19.340800
 30
0.0
  0
LWPOLYLINE
  5
170
100
AcDbEntity
  8
0
 62
7
100
AcDbPolyline
 90
3
 70
0
 10
69.649700
 20
18.769400
 30
0.0
 10
70.316400
 20
20.769400
 30
0.0
 10
70.983100
 20
18.769400
 30
0.0
  0
LWPOLYLINE
  5
171
100
AcDbEntity
  8
0
 62
7
100
AcDbPolyline
 90
2
 70
0
 10
71.364000
 20
20.769400
 30
0.0
 10
72.506900
 20
20.769400
 30
0.0
  0
LWPOLYLINE
  5
172
100
AcDbEntity
  8
0
 62
7
100
AcDbPolyline
 90
2
 70
0
 10
71.935400
 20
18.769400
 30
0.0
 10
71.935400
 20
20.769400
 30
0.0
  0
LWPOLYLINE
  5
173
100
AcDbEntity
  8
0
 62
7
100
AcDbPolyline
 90
2
 70
0
 10
73.078300
 20
19.340800
 30
0.0
 10
74.030700
 20
19.340800
 30
0.0
  0
LWPOLYLINE
  5
174
100
AcDbEntity
  8
0
 62
7
100
AcDbPolyline
 90
3
 70
0
 10
72.887800
 20
18.769400
 30
0.0
 10
73.554500
 20
20.769400
 30
0.0
 10
74.221200
 20
18.769400
 30
0.0
  0
LWPOLYLINE
  5
175
100
AcDbEntity
  8
0
 62
7
100
AcDbPolyline
 90
16
 70
1
 10
76.792600
 20
20.769400
 30
0.0
 10
77.173500
 20
20.769400
 30
0.0
 10
77.364000
 20
20.674100
 30
0.0
 10
77.554500
 20
20.483600
 30
0.0
 10
77.649700
 20
20.102700
 30
0.0
 10
77.649700
 20
19.436000
 30
0.0
 10
77.554500
 20
19.055100
 30
0.0
 10
77.364000
 20
18.864600
 30
0.0
 10
77.173500
 20
18.769400
 30
0.0
 10
76.792600
 20
18.769400
 30
0.0
 10
76.602100
 20
18.864600
 30
0.0
 10
76.411600
 20
19.055100
 30
0.0
 10
76.316400
 20
19.436000
 30
0.0
 10
76.316400
 20
20.102700
 30
0.0
 10
76.411600
 20
20.483600
 30
0.0
 10
76.602100
 20
20.674100
 30
0.0
  0
LWPOLYLINE
  5
176
100
AcDbEntity
  8
0
 62
7
100
AcDbPolyline
 90
10
 70
0
 10
78.506900
 20
20.769400
 30
0.0
 10
78.506900
 20
19.150300
 30
0.0
 10
78.602100
 20
18.959800
 30
0.0
 10
78.697400
 20
18.864600
 30
0.0
 10
78.887800
 20
18.769400
 30
0.0
 10
79.268800
 20
18.769400
 30
0.0
 10
79.459300
 20
18.864600
 30
0.0
 10
79.554500
 20
18.959800
 30
0.0
 10
79.649700
 20
19.150300
 30
0.0
 10
79.649700
 20
20.769400
 30
0.0
  0
LWPOLYLINE
  5
177
100
AcDbEntity
  8
0
 62
7
100
AcDbPolyline
 90
2
 70
0
 10
80.316400
 20
20.769400
 30
0.0
 10
81.459300
 20
20.769400
 30
0.0
  0
LWPOLYLINE
  5
178
100
AcDbEntity
  8
0
 62
7
100
AcDbPolyline
 90
2
 70
0
 10
80.887800
 20
18.769400
 30
0.0
 10
80.887800
 20
20.769400
 30
0.0
  0
LWPOLYLINE
  5
179
100
AcDbEntity
  8
0
 62
7
100
AcDbPolyline
 90
12
 70
1
 10
79.834500
 20
11.875600
 30
0.0
 10
79.834500
 20
13.375600
 30
0.0
 10
80.191700
 20
13.375600
 30
0.0
 10
80.405900
 20
13.304100
 30
0.0
 10
80.548800
 20
13.161300
 30
0.0
 10
80.620200
 20
13.018400
 30
0.0
 10
80.691700
 20
12.732700
 30
0.0
 10
80.691700
 20
12.518400
 30
0.0
 10
80.620200
 20
12.232700
 30
0.0
 10
80.548800
 20
12.089900
 30
0.0
 10
80.405900
 20
11.947000
 30
0.0
 10
80.191700
 20
11.875600
 30
0.0
  0
LWPOLYLINE
  5
17a
100
AcDbEntity
  8
0
 62
7
100
AcDbPolyline
 90
16
 70
0
 10
82.048800
 20
13.375600
 30
0.0
 10
81.334500
 20
13.375600
 30
0.0
 10
81.263100
 20
12.661300
 30
0.0
 10
81.334500
 20
12.732700
 30
0.0
 10
81.477400
 20
12.804100
 30
0.0
 10
81.834500
 20
12.804100
 30
0.0
 10
81.977400
 20
12.732700
 30
0.0
 10
82.048800
 20
12.661300
 30
0.0
 10
82.120200
 20
12.518400
 30
0.0
 10
82.120200
 20
12.161300
 30
0.0
 10
82.048800
 20
12.018400
 30
0.0
 10
81.977400
 20
11.947000
 30
0.0
 10
81.834500
 20
11.875600
 30
0.0
 10
81.477400
 20
11.875600
 30
0.0
 10
81.334500
 20
11.947000
 30
0.0
 10
81.263100
 20
12.018400
 30
0.0
  0
LWPOLYLINE
  5
17b
100
AcDbEntity
  8
0
 62
7
100
AcDbPolyline
 90
3
 70
0
 10
20.372900
 20
53.593300
 30
0.0
 10
18.944300
 20
53.593300
 30
0.0
 10
18.944300
 20
56.593300
 30
0.0
  0
LWPOLYLINE
  5
17c
100
AcDbEntity
  8
0
 62
7
100
AcDbPolyline
 90
2
 70
0
 10
21.230000
 20
54.450400
 30
0.0
 10
22.658600
 20
54.450400
 30
0.0
  0
LWPOLYLINE
  5
17d
100
AcDbEntity
  8
0
 62
7
100
AcDbPolyline
 90
3
 70
0
 10
20.944300
 20
53.593300
 30
0.0
 10
21.944300
 20
56.593300
 30
0.0
 10
22.944300
 20
53.593300
 30
0.0
  0
LWPOLYLINE
  5
17e
100
AcDbEntity
  8
0
 62
7
100
AcDbPolyline
 90
2
 70
0
 10
23.515700
 20
56.593300
 30
0.0
 10
25.230000
 20
56.593300
 30
0.0
  0
LWPOLYLINE
  5
17f
100
AcDbEntity
  8
0
 62
7
100
AcDbPolyline
 90
2
 70
0
 10
24.372900
 20
53.593300
 30
0.0
 10
24.372900
 20
56.593300
 30
0.0
  0
LWPOLYLINE
  5
180
100
AcDbEntity
  8
0
 62
7
100
AcDbPolyline
 90
2
 70
0
 10
26.230000
 20
55.164700
 30
0.0
 10
27.230000
 20
55.164700
 30
0.0
  0
LWPOLYLINE
  5
181
100
AcDbEntity
  8
0
 62
7
100
AcDbPolyline
 90
4
 70
0
 10
27.658600
 20
53.593300
 30
0.0
 10
26.230000
 20
53.593300
 30
0.0
 10
26.230000
 20
56.593300
 30
0.0
 10
27.658600
 20
56.593300
 30
0.0
  0
LWPOLYLINE
  5
182
100
AcDbEntity
  8
0
 62
7
100
AcDbPolyline
 90
2
 70
0
 10
30.658600
 20
53.593300
 30
0.0
 10
29.658600
 20
55.021900
 30
0.0
  0
LWPOLYLINE
  5
183
100
AcDbEntity
  8
0
 62
7
100
AcDbPolyline
 90
11
 70
0
 10
28.944300
 20
53.593300
 30
0.0
 10
28.944300
 20
56.593300
 30
0.0
 10
30.087100
 20
56.593300
 30
0.0
 10
30.372900
 20
56.450400
 30
0.0
 10
30.515700
 20
56.307600
 30
0.0
 10
30.658600
 20
56.021900
 30
0.0
 10
30.658600
 20
55.593300
 30
0.0
 10
30.515700
 20
55.307600
 30
0.0
 10
30.372900
 20
55.164700
 30
0.0
 10
30.087100
 20
55.021900
 30
0.0
 10
28.944300
 20
55.021900
 30
0.0
  0
LWPOLYLINE
  5
184
100
AcDbEntity
  8
0
 62
7
100
AcDbPolyline
 90
2
 70
0
 10
31.801400
 20
54.450400
 30
0.0
 10
33.230000
 20
54.450400
 30
0.0
  0
LWPOLYLINE
  5
185
100
AcDbEntity
  8
0
 62
7
100
AcDbPolyline
 90
3
 70
0
 10
31.515700
 20
53.593300
 30
0.0
 10
32.515700
 20
56.593300
 30
0.0
 10
33.515700
 20
53.593300
 30
0.0
  0
LWPOLYLINE
  5
186
100
AcDbEntity
  8
0
 62
7
100
AcDbPolyline
 90
3
 70
0
 10
35.944300
 20
53.593300
 30
0.0
 10
34.515700
 20
53.593300
 30
0.0
 10
34.515700
 20
56.593300
 30
0.0
  0
LWPOLYLINE
  5
187
100
AcDbEntity
  8
0
 62
7
100
AcDbPolyline
 90
3
 70
0
 10
20.372900
 20
48.763300
 30
0.0
 10
18.944300
 20
48.763300
 30
0.0
 10
18.944300
 20
51.763300
 30
0.0
  0
LWPOLYLINE
  5
188
100
AcDbEntity
  8
0
 62
7
100
AcDbPolyline
 90
2
 70
0
 10
21.372900
 20
50.334700
 30
0.0
 10
22.372900
 20
50.334700
 30
0.0
  0
LWPOLYLINE
  5
189
100
AcDbEntity
  8
0
 62
7
100
AcDbPolyline
 90
4
 70
0
 10
22.801400
 20
48.763300
 30
0.0
 10
21.372900
 20
48.763300
 30
0.0
 10
21.372900
 20
51.763300
 30
0.0
 10
22.801400
 20
51.763300
 30
0.0
  0
LWPOLYLINE
  5
18a
100
AcDbEntity
  8
0
 62
7
100
AcDbPolyline
 90
12
 70
1
 10
24.087100
 20
48.763300
 30
0.0
 10
24.087100
 20
51.763300
 30
0.0
 10
24.801400
 20
51.763300
 30
0.0
 10
25.230000
 20
51.620400
 30
0.0
 10
25.515700
 20
51.334700
 30
0.0
 10
25.658600
 20
51.049000
 30
0.0
 10
25.801400
 20
50.477600
 30
0.0
 10
25.801400
 20
50.049000
 30
0.0
 10
25.658600
 20
49.477600
 30
0.0
 10
25.515700
 20
49.191900
 30
0.0
 10
25.230000
 20
48.906200
 30
0.0
 10
24.801400
 20
48.763300
 30
0.0
  0
LWPOLYLINE
  5
18b
100
AcDbEntity
  8
0
 62
7
100
AcDbPolyline
 90
2
 70
0
 10
26.372900
 20
48.477600
 30
0.0
 10
28.658600
 20
48.477600
 30
0.0
  0
LWPOLYLINE
  5
18c
100
AcDbEntity
  8
0
 62
7
100
AcDbPolyline
 90
16
 70
0
 10
31.087100
 20
49.049000
 30
0.0
 10
30.944300
 20
48.906200
 30
0.0
 10
30.515700
 20
48.763300
 30
0.0
 10
30.230000
 20
48.763300
 30
0.0
 10
29.801400
 20
48.906200
 30
0.0
 10
29.515700
 20
49.191900
 30
0.0
 10
29.372900
 20
49.477600
 30
0.0
 10
29.230000
 20
50.049000
 30
0.0
 10
29.230000
 20
50.477600
 30
0.0
 10
29.372900
 20
51.049000
 30
0.0
 10
29.515700
 20
51.334700
 30
0.0
 10
29.801400
 20
51.620400
 30
0.0
 10
30.230000
 20
51.763300
 30
0.0
 10
30.515700
 20
51.763300
 30
0.0
 10
30.944300
 20
51.620400
 30
0.0
 10
31.087100
 20
51.477600
 30
0.0
  0
LWPOLYLINE
  5
18d
100
AcDbEntity
  8
0
 62
7
100
AcDbPolyline
 90
16
 70
1
 10
32.944300
 20
51.763300
 30
0.0
 10
33.515700
 20
51.763300
 30
0.0
 10
33.801400
 20
51.620400
 30
0.0
 10
34.087100
 20
51.334700
 30
0.0
 10
34.230000
 20
50.763300
 30
0.0
 10
34.230000
 20
49.763300
 30
0.0
 10
34.087100
 20
49.191900
 30
0.0
 10
33.801400
 20
48.906200
 30
0.0
 10
33.515700
 20
48.763300
 30
0.0
 10
32.944300
 20
48.763300
 30
0.0
 10
32.658600
 20
48.906200
 30
0.0
 10
32.372900
 20
49.191900
 30
0.0
 10
32.230000
 20
49.763300
 30
0.0
 10
32.230000
 20
50.763300
 30
0.0
 10
32.372900
 20
51.334700
 30
0.0
 10
32.658600
 20
51.620400
 30
0.0
  0
LWPOLYLINE
  5
18e
100
AcDbEntity
  8
0
 62
7
100
AcDbPolyline
 90
4
 70
0
 10
35.515700
 20
48.763300
 30
0.0
 10
35.515700
 20
51.763300
 30
0.0
 10
37.230000
 20
48.763300
 30
0.0
 10
37.230000
 20
51.763300
 30
0.0
  0
LWPOLYLINE
  5
18f
100
AcDbEntity
  8
0
 62
7
100
AcDbPolyline
 90
2
 70
0
 10
38.230000
 20
51.763300
 30
0.0
 10
39.944300
 20
51.763300
 30
0.0
  0
LWPOLYLINE
  5
190
100
AcDbEntity
  8
0
 62
7
100
AcDbPolyline
 90
2
 70
0
 10
39.087100
 20
48.763300
 30
0.0
 10
39.087100
 20
51.763300
 30
0.0
  0
LWPOLYLINE
  5
191
100
AcDbEntity
  8
0
 62
7
100
AcDbPolyline
 90
2
 70
0
 10
42.658600
 20
48.763300
 30
0.0
 10
41.658600
 20
50.191900
 30
0.0
  0
LWPOLYLINE
  5
192
100
AcDbEntity
  8
0
 62
7
100
AcDbPolyline
 90
11
 70
0
 10
40.944300
 20
48.763300
 30
0.0
 10
40.944300
 20
51.763300
 30
0.0
 10
42.087100
 20
51.763300
 30
0.0
 10
42.372900
 20
51.620400
 30
0.0
 10
42.515700
 20
51.477600
 30
0.0
 10
42.658600
 20
51.191900
 30
0.0
 10
42.658600
 20
50.763300
 30
0.0
 10
42.515700
 20
50.477600
 30
0.0
 10
42.372900
 20
50.334700
 30
0.0
 10
42.087100
 20
50.191900
 30
0.0
 10
40.944300
 20
50.191900
 30
0.0
  0
LWPOLYLINE
  5
193
100
AcDbEntity
  8
0
 62
7
100
AcDbPolyline
 90
16
 70
1
 10
44.515700
 20
51.763300
 30
0.0
 10
45.087100
 20
51.763300
 30
0.0
 10
45.372900
 20
51.620400
 30
0.0
 10
45.658600
 20
51.334700
 30
0.0
 10
45.801400
 20
50.763300
 30
0.0
 10
45.801400
 20
49.763300
 30
0.0
 10
45.658600
 20
49.191900
 30
0.0
 10
45.372900
 20
48.906200
 30
0.0
 10
45.087100
 20
48.763300
 30
0.0
 10
44.515700
 20
48.763300
 30
0.0
 10
44.230000
 20
48.906200
 30
0.0
 10
43.944300
 20
49.191900
 30
0.0
 10
43.801400
 20
49.763300
 30
0.0
 10
43.801400
 20
50.763300
 30
0.0
 10
43.944300
 20
51.334700
 30
0.0
 10
44.230000
 20
51.620400
 30
0.0
  0
LWPOLYLINE
  5
194
100
AcDbEntity
  8
0
 62
7
100
AcDbPolyline
 90
3
 70
0
 10
48.515700
 20
48.763300
 30
0.0
 10
47.087100
 20
48.763300
 30
0.0
 10
47.087100
 20
51.763300
 30
0.0
  0
LWPOLYLINE
  5
195
100
AcDbEntity
  8
0
 62
7
100
AcDbPolyline
 90
3
 70
0
 10
50.944300
 20
48.763300
 30
0.0
 10
49.515700
 20
48.763300
 30
0.0
 10
49.515700
 20
51.763300
 30
0.0
  0
LWPOLYLINE
  5
196
100
AcDbEntity
  8
0
 62
7
100
AcDbPolyline
 90
2
 70
0
 10
51.944300
 20
50.334700
 30
0.0
 10
52.944300
 20
50.334700
 30
0.0
  0
LWPOLYLINE
  5
197
100
AcDbEntity
  8
0
 62
7
100
AcDbPolyline
 90
4
 70
0
 10
53.372900
 20
48.763300
 30
0.0
 10
51.944300
 20
48.763300
 30
0.0
 10
51.944300
 20
51.763300
 30
0.0
 10
53.372900
 20
51.763300
 30
0.0
  0
LWPOLYLINE
  5
198
100
AcDbEntity
  8
0
 62
7
100
AcDbPolyline
 90
2
 70
0
 10
56.372900
 20
48.763300
 30
0.0
 10
55.372900
 20
50.191900
 30
0.0
  0
LWPOLYLINE
  5
199
100
AcDbEntity
  8
0
 62
7
100
AcDbPolyline
 90
11
 70
0
 10
54.658600
 20
48.763300
 30
0.0
 10
54.658600
 20
51.763300
 30
0.0
 10
55.801400
 20
51.763300
 30
0.0
 10
56.087100
 20
51.620400
 30
0.0
 10
56.230000
 20
51.477600
 30
0.0
 10
56.372900
 20
51.191900
 30
0.0
 10
56.372900
 20
50.763300
 30
0.0
 10
56.230000
 20
50.477600
 30
0.0
 10
56.087100
 20
50.334700
 30
0.0
 10
55.801400
 20
50.191900
 30
0.0
 10
54.658600
 20
50.191900
 30
0.0
  0
LWPOLYLINE
  5
19a
100
AcDbEntity
  8
0
 62
7
100
AcDbPolyline
 90
12
 70
1
 10
81.434500
 20
54.875600
 30
0.0
 10
81.434500
 20
56.375600
 30
0.0
 10
81.791700
 20
56.375600
 30
0.0
 10
82.005900
 20
56.304100
 30
0.0
 10
82.148800
 20
56.161300
 30
0.0
 10
82.220200
 20
56.018400
 30
0.0
 10
82.291700
 20
55.732700
 30
0.0
 10
82.291700
 20
55.518400
 30
0.0
 10
82.220200
 20
55.232700
 30
0.0
 10
82.148800
 20
55.089900
 30
0.0
 10
82.005900
 20
54.947000
 30
0.0
 10
81.791700
 20
54.875600
 30
0.0
  0
LWPOLYLINE
  5
19b
100
AcDbEntity
  8
0
 62
7
100
AcDbPolyline
 90
2
 70
0
 10
83.577400
 20
55.875600
 30
0.0
 10
83.577400
 20
54.875600
 30
0.0
  0
LWPOLYLINE
  5
19c
100
AcDbEntity
  8
0
 62
7
100
AcDbPolyline
 90
3
 70
0
 10
83.220200
 20
56.447000
 30
0.0
 10
82.863100
 20
55.375600
 30
0.0
 10
83.791700
 20
55.375600
 30
0.0
  0
LWPOLYLINE
  5
19d
100
AcDbEntity
  8
0
 62
7
100
AcDbPolyline
 90
2
 70
0
 10
84.363100
 20
55.447000
 30
0.0
 10
85.505900
 20
55.447000
 30
0.0
  0
LWPOLYLINE
  5
19e
100
AcDbEntity
  8
0
 62
7
100
AcDbPolyline
 90
12
 70
1
 10
86.220200
 20
54.875600
 30
0.0
 10
86.220200
 20
56.375600
 30
0.0
 10
86.577400
 20
56.375600
 30
0.0
 10
86.791700
 20
56.304100
 30
0.0
 10
86.934500
 20
56.161300
 30
0.0
 10
87.005900
 20
56.018400
 30
0.0
 10
87.077400
 20
55.732700
 30
0.0
 10
87.077400
 20
55.518400
 30
0.0
 10
87.005900
 20
55.232700
 30
0.0
 10
86.934500
 20
55.089900
 30
0.0
 10
86.791700
 20
54.947000
 30
0.0
 10
86.577400
 20
54.875600
 30
0.0
  0
LWPOLYLINE
  5
19f
100
AcDbEntity
  8
0
 62
7
100
AcDbPolyline
 90
3
 70
0
 10
87.577400
 20
56.375600
 30
0.0
 10
88.577400
 20
56.375600
 30
0.0
 10
87.934500
 20
54.875600
 30
0.0
  0
ENDSEC
  0
SECTION
  2
OBJECTS
  0
DICTIONARY
  5
C
330
0
100
AcDbDictionary
  3
ACAD_GROUP
350
D
  3
ACAD_MLINESTYLE
350
17
  0
DICTIONARY
  5
D
330
C
100
AcDbDictionary
  0
DICTIONARY
  5
1A
330
C
100
AcDbDictionary
  0
DICTIONARY
  5
17
330
C
100
AcDbDictionary
  3
STANDARD
350
18
  0
DICTIONARY
  5
19
330
C
100
AcDbDictionary
  0
ENDSEC
  0
EOF
