<?xml version="1.0" standalone="no"?>
 <!DOCTYPE svg PUBLIC "-//W3C//DTD SVG 1.1//EN" 
 "http://www.w3.org/Graphics/SVG/1.1/DTD/svg11.dtd"> 
<svg
  xmlns:svg="http://www.w3.org/2000/svg"
  xmlns="http://www.w3.org/2000/svg"
  xmlns:xlink="http://www.w3.org/1999/xlink"
  version="1.1"
  width="100.0760mm" height="60.0964mm" viewBox="0.0000 0.0000 100.0760 60.0964">
<title>SVG Image created as ethernet_led_controller_panel-F_Silkscreen.svg date 2024/08/07 19:53:33 </title>
  <desc>Image generated by PCBNEW </desc>
<g style="fill:#000000; fill-opacity:1.0000;stroke:#000000; stroke-opacity:1.0000;
stroke-linecap:round; stroke-linejoin:round;"
 transform="translate(0 0) scale(1 1)">
</g>
<g style="fill:#000000; fill-opacity:0.0; 
stroke:#000000; stroke-width:0.0000; stroke-opacity:1; 
stroke-linecap:round; stroke-linejoin:round;">
</g>
<g style="fill:#000000; fill-opacity:1.0000; 
stroke:#000000; stroke-width:0.0212; stroke-opacity:1; 
stroke-linecap:round; stroke-linejoin:round;">
<rect x="-5.000000" y="-5.000000" width="110.100000" height="70.100000" rx="0.000000" />
</g>
<g style="fill:#FFFFFF; fill-opacity:1.0000; 
stroke:#FFFFFF; stroke-width:0.0212; stroke-opacity:1; 
stroke-linecap:round; stroke-linejoin:round;">
</g>
<g style="fill:#FFFFFF; fill-opacity:1.0000; 
stroke:#FFFFFF; stroke-width:0.3000; stroke-opacity:1; 
stroke-linecap:round; stroke-linejoin:round;">
</g>
<g style="fill:#FFFFFF; fill-opacity:0.0; 
stroke:#FFFFFF; stroke-width:0.3000; stroke-opacity:1; 
stroke-linecap:round; stroke-linejoin:round;">
<text x="60.8800" y="5.4200"
textLength="8.3143" font-size="2.0000" lengthAdjust="spacingAndGlyphs"
text-anchor="start" opacity="0">D0-D3</text>
<g class="stroked-text"><desc>D0-D3</desc>
<path d="M61.4345 5.2208
L61.4345 3.7208
" />
<path d="M61.4345 3.7208
L61.7917 3.7208
" />
<path d="M61.7917 3.7208
L62.0059 3.7923
" />
<path d="M62.0059 3.7923
L62.1488 3.9351
" />
<path d="M62.1488 3.9351
L62.2202 4.0780
" />
<path d="M62.2202 4.0780
L62.2917 4.3637
" />
<path d="M62.2917 4.3637
L62.2917 4.5780
" />
<path d="M62.2917 4.5780
L62.2202 4.8637
" />
<path d="M62.2202 4.8637
L62.1488 5.0065
" />
<path d="M62.1488 5.0065
L62.0059 5.1494
" />
<path d="M62.0059 5.1494
L61.7917 5.2208
" />
<path d="M61.7917 5.2208
L61.4345 5.2208
" />
<path d="M63.2202 3.7208
L63.3631 3.7208
" />
<path d="M63.3631 3.7208
L63.5059 3.7923
" />
<path d="M63.5059 3.7923
L63.5774 3.8637
" />
<path d="M63.5774 3.8637
L63.6488 4.0065
" />
<path d="M63.6488 4.0065
L63.7202 4.2923
" />
<path d="M63.7202 4.2923
L63.7202 4.6494
" />
<path d="M63.7202 4.6494
L63.6488 4.9351
" />
<path d="M63.6488 4.9351
L63.5774 5.0780
" />
<path d="M63.5774 5.0780
L63.5059 5.1494
" />
<path d="M63.5059 5.1494
L63.3631 5.2208
" />
<path d="M63.3631 5.2208
L63.2202 5.2208
" />
<path d="M63.2202 5.2208
L63.0774 5.1494
" />
<path d="M63.0774 5.1494
L63.0059 5.0780
" />
<path d="M63.0059 5.0780
L62.9345 4.9351
" />
<path d="M62.9345 4.9351
L62.8631 4.6494
" />
<path d="M62.8631 4.6494
L62.8631 4.2923
" />
<path d="M62.8631 4.2923
L62.9345 4.0065
" />
<path d="M62.9345 4.0065
L63.0059 3.8637
" />
<path d="M63.0059 3.8637
L63.0774 3.7923
" />
<path d="M63.0774 3.7923
L63.2202 3.7208
" />
<path d="M64.3631 4.6494
L65.5059 4.6494
" />
<path d="M66.2202 5.2208
L66.2202 3.7208
" />
<path d="M66.2202 3.7208
L66.5774 3.7208
" />
<path d="M66.5774 3.7208
L66.7917 3.7923
" />
<path d="M66.7917 3.7923
L66.9345 3.9351
" />
<path d="M66.9345 3.9351
L67.0059 4.0780
" />
<path d="M67.0059 4.0780
L67.0774 4.3637
" />
<path d="M67.0774 4.3637
L67.0774 4.5780
" />
<path d="M67.0774 4.5780
L67.0059 4.8637
" />
<path d="M67.0059 4.8637
L66.9345 5.0065
" />
<path d="M66.9345 5.0065
L66.7917 5.1494
" />
<path d="M66.7917 5.1494
L66.5774 5.2208
" />
<path d="M66.5774 5.2208
L66.2202 5.2208
" />
<path d="M67.5774 3.7208
L68.5059 3.7208
" />
<path d="M68.5059 3.7208
L68.0059 4.2923
" />
<path d="M68.0059 4.2923
L68.2202 4.2923
" />
<path d="M68.2202 4.2923
L68.3631 4.3637
" />
<path d="M68.3631 4.3637
L68.4345 4.4351
" />
<path d="M68.4345 4.4351
L68.5059 4.5780
" />
<path d="M68.5059 4.5780
L68.5059 4.9351
" />
<path d="M68.5059 4.9351
L68.4345 5.0780
" />
<path d="M68.4345 5.0780
L68.3631 5.1494
" />
<path d="M68.3631 5.1494
L68.2202 5.2208
" />
<path d="M68.2202 5.2208
L67.7917 5.2208
" />
<path d="M67.7917 5.2208
L67.6488 5.1494
" />
<path d="M67.6488 5.1494
L67.5774 5.0780
" />
</g><text x="60.4800" y="48.4200"
textLength="3.5286" font-size="2.0000" lengthAdjust="spacingAndGlyphs"
text-anchor="start" opacity="0">D1</text>
<g class="stroked-text"><desc>D1</desc>
<path d="M61.0345 48.2208
L61.0345 46.7208
" />
<path d="M61.0345 46.7208
L61.3917 46.7208
" />
<path d="M61.3917 46.7208
L61.6059 46.7923
" />
<path d="M61.6059 46.7923
L61.7488 46.9351
" />
<path d="M61.7488 46.9351
L61.8202 47.0780
" />
<path d="M61.8202 47.0780
L61.8917 47.3637
" />
<path d="M61.8917 47.3637
L61.8917 47.5780
" />
<path d="M61.8917 47.5780
L61.8202 47.8637
" />
<path d="M61.8202 47.8637
L61.7488 48.0065
" />
<path d="M61.7488 48.0065
L61.6059 48.1494
" />
<path d="M61.6059 48.1494
L61.3917 48.2208
" />
<path d="M61.3917 48.2208
L61.0345 48.2208
" />
<path d="M63.3202 48.2208
L62.4631 48.2208
" />
<path d="M62.8917 48.2208
L62.8917 46.7208
" />
<path d="M62.8917 46.7208
L62.7488 46.9351
" />
<path d="M62.7488 46.9351
L62.6059 47.0780
" />
<path d="M62.6059 47.0780
L62.4631 47.1494
" />
</g><g transform="rotate(-90.000000 2.6800 47.5200)">
<text x="2.6800" y="47.5200"
textLength="14.8143" font-size="2.0000" lengthAdjust="spacingAndGlyphs"
text-anchor="start" opacity="0">BOOTLOADER</text>
</g>
<g class="stroked-text"><desc>BOOTLOADER</desc>
<path d="M1.6951 46.4655
L1.7665 46.2512
" />
<path d="M1.7665 46.2512
L1.8380 46.1798
" />
<path d="M1.8380 46.1798
L1.9808 46.1083
" />
<path d="M1.9808 46.1083
L2.1951 46.1083
" />
<path d="M2.1951 46.1083
L2.3380 46.1798
" />
<path d="M2.3380 46.1798
L2.4094 46.2512
" />
<path d="M2.4094 46.2512
L2.4808 46.3941
" />
<path d="M2.4808 46.3941
L2.4808 46.9655
" />
<path d="M2.4808 46.9655
L0.9808 46.9655
" />
<path d="M0.9808 46.9655
L0.9808 46.4655
" />
<path d="M0.9808 46.4655
L1.0523 46.3226
" />
<path d="M1.0523 46.3226
L1.1237 46.2512
" />
<path d="M1.1237 46.2512
L1.2665 46.1798
" />
<path d="M1.2665 46.1798
L1.4094 46.1798
" />
<path d="M1.4094 46.1798
L1.5523 46.2512
" />
<path d="M1.5523 46.2512
L1.6237 46.3226
" />
<path d="M1.6237 46.3226
L1.6951 46.4655
" />
<path d="M1.6951 46.4655
L1.6951 46.9655
" />
<path d="M0.9808 45.1798
L0.9808 44.8941
" />
<path d="M0.9808 44.8941
L1.0523 44.7512
" />
<path d="M1.0523 44.7512
L1.1951 44.6083
" />
<path d="M1.1951 44.6083
L1.4808 44.5369
" />
<path d="M1.4808 44.5369
L1.9808 44.5369
" />
<path d="M1.9808 44.5369
L2.2665 44.6083
" />
<path d="M2.2665 44.6083
L2.4094 44.7512
" />
<path d="M2.4094 44.7512
L2.4808 44.8941
" />
<path d="M2.4808 44.8941
L2.4808 45.1798
" />
<path d="M2.4808 45.1798
L2.4094 45.3226
" />
<path d="M2.4094 45.3226
L2.2665 45.4655
" />
<path d="M2.2665 45.4655
L1.9808 45.5369
" />
<path d="M1.9808 45.5369
L1.4808 45.5369
" />
<path d="M1.4808 45.5369
L1.1951 45.4655
" />
<path d="M1.1951 45.4655
L1.0523 45.3226
" />
<path d="M1.0523 45.3226
L0.9808 45.1798
" />
<path d="M0.9808 43.6083
L0.9808 43.3226
" />
<path d="M0.9808 43.3226
L1.0523 43.1798
" />
<path d="M1.0523 43.1798
L1.1951 43.0369
" />
<path d="M1.1951 43.0369
L1.4808 42.9655
" />
<path d="M1.4808 42.9655
L1.9808 42.9655
" />
<path d="M1.9808 42.9655
L2.2665 43.0369
" />
<path d="M2.2665 43.0369
L2.4094 43.1798
" />
<path d="M2.4094 43.1798
L2.4808 43.3226
" />
<path d="M2.4808 43.3226
L2.4808 43.6083
" />
<path d="M2.4808 43.6083
L2.4094 43.7512
" />
<path d="M2.4094 43.7512
L2.2665 43.8941
" />
<path d="M2.2665 43.8941
L1.9808 43.9655
" />
<path d="M1.9808 43.9655
L1.4808 43.9655
" />
<path d="M1.4808 43.9655
L1.1951 43.8941
" />
<path d="M1.1951 43.8941
L1.0523 43.7512
" />
<path d="M1.0523 43.7512
L0.9808 43.6083
" />
<path d="M0.9808 42.5369
L0.9808 41.6798
" />
<path d="M2.4808 42.1083
L0.9808 42.1083
" />
<path d="M2.4808 40.4655
L2.4808 41.1798
" />
<path d="M2.4808 41.1798
L0.9808 41.1798
" />
<path d="M0.9808 39.6798
L0.9808 39.3941
" />
<path d="M0.9808 39.3941
L1.0523 39.2512
" />
<path d="M1.0523 39.2512
L1.1951 39.1083
" />
<path d="M1.1951 39.1083
L1.4808 39.0369
" />
<path d="M1.4808 39.0369
L1.9808 39.0369
" />
<path d="M1.9808 39.0369
L2.2665 39.1083
" />
<path d="M2.2665 39.1083
L2.4094 39.2512
" />
<path d="M2.4094 39.2512
L2.4808 39.3941
" />
<path d="M2.4808 39.3941
L2.4808 39.6798
" />
<path d="M2.4808 39.6798
L2.4094 39.8226
" />
<path d="M2.4094 39.8226
L2.2665 39.9655
" />
<path d="M2.2665 39.9655
L1.9808 40.0369
" />
<path d="M1.9808 40.0369
L1.4808 40.0369
" />
<path d="M1.4808 40.0369
L1.1951 39.9655
" />
<path d="M1.1951 39.9655
L1.0523 39.8226
" />
<path d="M1.0523 39.8226
L0.9808 39.6798
" />
<path d="M2.0523 38.4655
L2.0523 37.7512
" />
<path d="M2.4808 38.6083
L0.9808 38.1083
" />
<path d="M0.9808 38.1083
L2.4808 37.6083
" />
<path d="M2.4808 37.1083
L0.9808 37.1083
" />
<path d="M0.9808 37.1083
L0.9808 36.7512
" />
<path d="M0.9808 36.7512
L1.0523 36.5369
" />
<path d="M1.0523 36.5369
L1.1951 36.3941
" />
<path d="M1.1951 36.3941
L1.3380 36.3226
" />
<path d="M1.3380 36.3226
L1.6237 36.2512
" />
<path d="M1.6237 36.2512
L1.8380 36.2512
" />
<path d="M1.8380 36.2512
L2.1237 36.3226
" />
<path d="M2.1237 36.3226
L2.2665 36.3941
" />
<path d="M2.2665 36.3941
L2.4094 36.5369
" />
<path d="M2.4094 36.5369
L2.4808 36.7512
" />
<path d="M2.4808 36.7512
L2.4808 37.1083
" />
<path d="M1.6951 35.6083
L1.6951 35.1083
" />
<path d="M2.4808 34.8941
L2.4808 35.6083
" />
<path d="M2.4808 35.6083
L0.9808 35.6083
" />
<path d="M0.9808 35.6083
L0.9808 34.8941
" />
<path d="M2.4808 33.3941
L1.7665 33.8941
" />
<path d="M2.4808 34.2512
L0.9808 34.2512
" />
<path d="M0.9808 34.2512
L0.9808 33.6798
" />
<path d="M0.9808 33.6798
L1.0523 33.5369
" />
<path d="M1.0523 33.5369
L1.1237 33.4655
" />
<path d="M1.1237 33.4655
L1.2665 33.3941
" />
<path d="M1.2665 33.3941
L1.4808 33.3941
" />
<path d="M1.4808 33.3941
L1.6237 33.4655
" />
<path d="M1.6237 33.4655
L1.6951 33.5369
" />
<path d="M1.6951 33.5369
L1.7665 33.6798
" />
<path d="M1.7665 33.6798
L1.7665 34.2512
" />
</g><text x="68.4800" y="48.4200"
textLength="3.5286" font-size="2.0000" lengthAdjust="spacingAndGlyphs"
text-anchor="start" opacity="0">D3</text>
<g class="stroked-text"><desc>D3</desc>
<path d="M69.0345 48.2208
L69.0345 46.7208
" />
<path d="M69.0345 46.7208
L69.3917 46.7208
" />
<path d="M69.3917 46.7208
L69.6059 46.7923
" />
<path d="M69.6059 46.7923
L69.7488 46.9351
" />
<path d="M69.7488 46.9351
L69.8202 47.0780
" />
<path d="M69.8202 47.0780
L69.8917 47.3637
" />
<path d="M69.8917 47.3637
L69.8917 47.5780
" />
<path d="M69.8917 47.5780
L69.8202 47.8637
" />
<path d="M69.8202 47.8637
L69.7488 48.0065
" />
<path d="M69.7488 48.0065
L69.6059 48.1494
" />
<path d="M69.6059 48.1494
L69.3917 48.2208
" />
<path d="M69.3917 48.2208
L69.0345 48.2208
" />
<path d="M70.3917 46.7208
L71.3202 46.7208
" />
<path d="M71.3202 46.7208
L70.8202 47.2923
" />
<path d="M70.8202 47.2923
L71.0345 47.2923
" />
<path d="M71.0345 47.2923
L71.1774 47.3637
" />
<path d="M71.1774 47.3637
L71.2488 47.4351
" />
<path d="M71.2488 47.4351
L71.3202 47.5780
" />
<path d="M71.3202 47.5780
L71.3202 47.9351
" />
<path d="M71.3202 47.9351
L71.2488 48.0780
" />
<path d="M71.2488 48.0780
L71.1774 48.1494
" />
<path d="M71.1774 48.1494
L71.0345 48.2208
" />
<path d="M71.0345 48.2208
L70.6059 48.2208
" />
<path d="M70.6059 48.2208
L70.4631 48.1494
" />
<path d="M70.4631 48.1494
L70.3917 48.0780
" />
</g></g>
<g style="fill:#FFFFFF; fill-opacity:0.0; 
stroke:#FFFFFF; stroke-width:0.1800; stroke-opacity:1; 
stroke-linecap:round; stroke-linejoin:round;">
<text x="0.8800" y="19.3270"
textLength="12.5371" font-size="1.7333" lengthAdjust="spacingAndGlyphs"
text-anchor="start" opacity="0">CONTROLLER</text>
<g class="stroked-text"><desc>CONTROLLER</desc>
<path d="M2.0508 19.0347
L1.9889 19.0966
" />
<path d="M1.9889 19.0966
L1.8032 19.1585
" />
<path d="M1.8032 19.1585
L1.6794 19.1585
" />
<path d="M1.6794 19.1585
L1.4937 19.0966
" />
<path d="M1.4937 19.0966
L1.3698 18.9728
" />
<path d="M1.3698 18.9728
L1.3079 18.8490
" />
<path d="M1.3079 18.8490
L1.2460 18.6014
" />
<path d="M1.2460 18.6014
L1.2460 18.4157
" />
<path d="M1.2460 18.4157
L1.3079 18.1681
" />
<path d="M1.3079 18.1681
L1.3698 18.0443
" />
<path d="M1.3698 18.0443
L1.4937 17.9204
" />
<path d="M1.4937 17.9204
L1.6794 17.8585
" />
<path d="M1.6794 17.8585
L1.8032 17.8585
" />
<path d="M1.8032 17.8585
L1.9889 17.9204
" />
<path d="M1.9889 17.9204
L2.0508 17.9824
" />
<path d="M2.8556 17.8585
L3.1032 17.8585
" />
<path d="M3.1032 17.8585
L3.2270 17.9204
" />
<path d="M3.2270 17.9204
L3.3508 18.0443
" />
<path d="M3.3508 18.0443
L3.4127 18.2919
" />
<path d="M3.4127 18.2919
L3.4127 18.7252
" />
<path d="M3.4127 18.7252
L3.3508 18.9728
" />
<path d="M3.3508 18.9728
L3.2270 19.0966
" />
<path d="M3.2270 19.0966
L3.1032 19.1585
" />
<path d="M3.1032 19.1585
L2.8556 19.1585
" />
<path d="M2.8556 19.1585
L2.7318 19.0966
" />
<path d="M2.7318 19.0966
L2.6079 18.9728
" />
<path d="M2.6079 18.9728
L2.5460 18.7252
" />
<path d="M2.5460 18.7252
L2.5460 18.2919
" />
<path d="M2.5460 18.2919
L2.6079 18.0443
" />
<path d="M2.6079 18.0443
L2.7318 17.9204
" />
<path d="M2.7318 17.9204
L2.8556 17.8585
" />
<path d="M3.9698 19.1585
L3.9698 17.8585
" />
<path d="M3.9698 17.8585
L4.7127 19.1585
" />
<path d="M4.7127 19.1585
L4.7127 17.8585
" />
<path d="M5.1460 17.8585
L5.8889 17.8585
" />
<path d="M5.5175 19.1585
L5.5175 17.8585
" />
<path d="M7.0651 19.1585
L6.6318 18.5395
" />
<path d="M6.3222 19.1585
L6.3222 17.8585
" />
<path d="M6.3222 17.8585
L6.8175 17.8585
" />
<path d="M6.8175 17.8585
L6.9413 17.9204
" />
<path d="M6.9413 17.9204
L7.0032 17.9824
" />
<path d="M7.0032 17.9824
L7.0651 18.1062
" />
<path d="M7.0651 18.1062
L7.0651 18.2919
" />
<path d="M7.0651 18.2919
L7.0032 18.4157
" />
<path d="M7.0032 18.4157
L6.9413 18.4776
" />
<path d="M6.9413 18.4776
L6.8175 18.5395
" />
<path d="M6.8175 18.5395
L6.3222 18.5395
" />
<path d="M7.8698 17.8585
L8.1175 17.8585
" />
<path d="M8.1175 17.8585
L8.2413 17.9204
" />
<path d="M8.2413 17.9204
L8.3651 18.0443
" />
<path d="M8.3651 18.0443
L8.4270 18.2919
" />
<path d="M8.4270 18.2919
L8.4270 18.7252
" />
<path d="M8.4270 18.7252
L8.3651 18.9728
" />
<path d="M8.3651 18.9728
L8.2413 19.0966
" />
<path d="M8.2413 19.0966
L8.1175 19.1585
" />
<path d="M8.1175 19.1585
L7.8698 19.1585
" />
<path d="M7.8698 19.1585
L7.7460 19.0966
" />
<path d="M7.7460 19.0966
L7.6222 18.9728
" />
<path d="M7.6222 18.9728
L7.5603 18.7252
" />
<path d="M7.5603 18.7252
L7.5603 18.2919
" />
<path d="M7.5603 18.2919
L7.6222 18.0443
" />
<path d="M7.6222 18.0443
L7.7460 17.9204
" />
<path d="M7.7460 17.9204
L7.8698 17.8585
" />
<path d="M9.6032 19.1585
L8.9841 19.1585
" />
<path d="M8.9841 19.1585
L8.9841 17.8585
" />
<path d="M10.6556 19.1585
L10.0365 19.1585
" />
<path d="M10.0365 19.1585
L10.0365 17.8585
" />
<path d="M11.0889 18.4776
L11.5222 18.4776
" />
<path d="M11.7079 19.1585
L11.0889 19.1585
" />
<path d="M11.0889 19.1585
L11.0889 17.8585
" />
<path d="M11.0889 17.8585
L11.7079 17.8585
" />
<path d="M13.0079 19.1585
L12.5746 18.5395
" />
<path d="M12.2651 19.1585
L12.2651 17.8585
" />
<path d="M12.2651 17.8585
L12.7603 17.8585
" />
<path d="M12.7603 17.8585
L12.8841 17.9204
" />
<path d="M12.8841 17.9204
L12.9460 17.9824
" />
<path d="M12.9460 17.9824
L13.0079 18.1062
" />
<path d="M13.0079 18.1062
L13.0079 18.2919
" />
<path d="M13.0079 18.2919
L12.9460 18.4157
" />
<path d="M12.9460 18.4157
L12.8841 18.4776
" />
<path d="M12.8841 18.4776
L12.7603 18.5395
" />
<path d="M12.7603 18.5395
L12.2651 18.5395
" />
</g><text x="0.8800" y="21.4200"
textLength="6.1610" font-size="1.7333" lengthAdjust="spacingAndGlyphs"
text-anchor="start" opacity="0">RESET</text>
<g class="stroked-text"><desc>RESET</desc>
<path d="M2.0508 21.2515
L1.6175 20.6325
" />
<path d="M1.3079 21.2515
L1.3079 19.9515
" />
<path d="M1.3079 19.9515
L1.8032 19.9515
" />
<path d="M1.8032 19.9515
L1.9270 20.0134
" />
<path d="M1.9270 20.0134
L1.9889 20.0754
" />
<path d="M1.9889 20.0754
L2.0508 20.1992
" />
<path d="M2.0508 20.1992
L2.0508 20.3849
" />
<path d="M2.0508 20.3849
L1.9889 20.5087
" />
<path d="M1.9889 20.5087
L1.9270 20.5706
" />
<path d="M1.9270 20.5706
L1.8032 20.6325
" />
<path d="M1.8032 20.6325
L1.3079 20.6325
" />
<path d="M2.6079 20.5706
L3.0413 20.5706
" />
<path d="M3.2270 21.2515
L2.6079 21.2515
" />
<path d="M2.6079 21.2515
L2.6079 19.9515
" />
<path d="M2.6079 19.9515
L3.2270 19.9515
" />
<path d="M3.7222 21.1896
L3.9079 21.2515
" />
<path d="M3.9079 21.2515
L4.2175 21.2515
" />
<path d="M4.2175 21.2515
L4.3413 21.1896
" />
<path d="M4.3413 21.1896
L4.4032 21.1277
" />
<path d="M4.4032 21.1277
L4.4651 21.0039
" />
<path d="M4.4651 21.0039
L4.4651 20.8801
" />
<path d="M4.4651 20.8801
L4.4032 20.7563
" />
<path d="M4.4032 20.7563
L4.3413 20.6944
" />
<path d="M4.3413 20.6944
L4.2175 20.6325
" />
<path d="M4.2175 20.6325
L3.9698 20.5706
" />
<path d="M3.9698 20.5706
L3.8460 20.5087
" />
<path d="M3.8460 20.5087
L3.7841 20.4468
" />
<path d="M3.7841 20.4468
L3.7222 20.3230
" />
<path d="M3.7222 20.3230
L3.7222 20.1992
" />
<path d="M3.7222 20.1992
L3.7841 20.0754
" />
<path d="M3.7841 20.0754
L3.8460 20.0134
" />
<path d="M3.8460 20.0134
L3.9698 19.9515
" />
<path d="M3.9698 19.9515
L4.2794 19.9515
" />
<path d="M4.2794 19.9515
L4.4651 20.0134
" />
<path d="M5.0222 20.5706
L5.4556 20.5706
" />
<path d="M5.6413 21.2515
L5.0222 21.2515
" />
<path d="M5.0222 21.2515
L5.0222 19.9515
" />
<path d="M5.0222 19.9515
L5.6413 19.9515
" />
<path d="M6.0127 19.9515
L6.7556 19.9515
" />
<path d="M6.3841 21.2515
L6.3841 19.9515
" />
</g></g>
<g style="fill:#FFFFFF; fill-opacity:0.0; 
stroke:#FFFFFF; stroke-width:0.3000; stroke-opacity:1; 
stroke-linecap:round; stroke-linejoin:round;">
<text x="56.4800" y="48.4200"
textLength="3.5286" font-size="2.0000" lengthAdjust="spacingAndGlyphs"
text-anchor="start" opacity="0">D0</text>
<g class="stroked-text"><desc>D0</desc>
<path d="M57.0345 48.2208
L57.0345 46.7208
" />
<path d="M57.0345 46.7208
L57.3917 46.7208
" />
<path d="M57.3917 46.7208
L57.6059 46.7923
" />
<path d="M57.6059 46.7923
L57.7488 46.9351
" />
<path d="M57.7488 46.9351
L57.8202 47.0780
" />
<path d="M57.8202 47.0780
L57.8917 47.3637
" />
<path d="M57.8917 47.3637
L57.8917 47.5780
" />
<path d="M57.8917 47.5780
L57.8202 47.8637
" />
<path d="M57.8202 47.8637
L57.7488 48.0065
" />
<path d="M57.7488 48.0065
L57.6059 48.1494
" />
<path d="M57.6059 48.1494
L57.3917 48.2208
" />
<path d="M57.3917 48.2208
L57.0345 48.2208
" />
<path d="M58.8202 46.7208
L58.9631 46.7208
" />
<path d="M58.9631 46.7208
L59.1059 46.7923
" />
<path d="M59.1059 46.7923
L59.1774 46.8637
" />
<path d="M59.1774 46.8637
L59.2488 47.0065
" />
<path d="M59.2488 47.0065
L59.3202 47.2923
" />
<path d="M59.3202 47.2923
L59.3202 47.6494
" />
<path d="M59.3202 47.6494
L59.2488 47.9351
" />
<path d="M59.2488 47.9351
L59.1774 48.0780
" />
<path d="M59.1774 48.0780
L59.1059 48.1494
" />
<path d="M59.1059 48.1494
L58.9631 48.2208
" />
<path d="M58.9631 48.2208
L58.8202 48.2208
" />
<path d="M58.8202 48.2208
L58.6774 48.1494
" />
<path d="M58.6774 48.1494
L58.6059 48.0780
" />
<path d="M58.6059 48.0780
L58.5345 47.9351
" />
<path d="M58.5345 47.9351
L58.4631 47.6494
" />
<path d="M58.4631 47.6494
L58.4631 47.2923
" />
<path d="M58.4631 47.2923
L58.5345 47.0065
" />
<path d="M58.5345 47.0065
L58.6059 46.8637
" />
<path d="M58.6059 46.8637
L58.6774 46.7923
" />
<path d="M58.6774 46.7923
L58.8202 46.7208
" />
</g><text x="75.2800" y="48.4200"
textLength="3.5286" font-size="2.0000" lengthAdjust="spacingAndGlyphs"
text-anchor="start" opacity="0">D4</text>
<g class="stroked-text"><desc>D4</desc>
<path d="M75.8345 48.2208
L75.8345 46.7208
" />
<path d="M75.8345 46.7208
L76.1917 46.7208
" />
<path d="M76.1917 46.7208
L76.4059 46.7923
" />
<path d="M76.4059 46.7923
L76.5488 46.9351
" />
<path d="M76.5488 46.9351
L76.6202 47.0780
" />
<path d="M76.6202 47.0780
L76.6917 47.3637
" />
<path d="M76.6917 47.3637
L76.6917 47.5780
" />
<path d="M76.6917 47.5780
L76.6202 47.8637
" />
<path d="M76.6202 47.8637
L76.5488 48.0065
" />
<path d="M76.5488 48.0065
L76.4059 48.1494
" />
<path d="M76.4059 48.1494
L76.1917 48.2208
" />
<path d="M76.1917 48.2208
L75.8345 48.2208
" />
<path d="M77.9774 47.2208
L77.9774 48.2208
" />
<path d="M77.6202 46.6494
L77.2631 47.7208
" />
<path d="M77.2631 47.7208
L78.1917 47.7208
" />
</g></g>
<g style="fill:#FFFFFF; fill-opacity:0.0; 
stroke:#FFFFFF; stroke-width:0.3500; stroke-opacity:1; 
stroke-linecap:round; stroke-linejoin:round;">
<text x="32.8800" y="55.2000"
textLength="16.8405" font-size="2.6667" lengthAdjust="spacingAndGlyphs"
text-anchor="start" opacity="0">ETHERNET </text>
<g class="stroked-text"><desc>ETHERNET </desc>
<path d="M33.5865 53.8894
L34.2531 53.8894
" />
<path d="M34.5388 54.9370
L33.5865 54.9370
" />
<path d="M33.5865 54.9370
L33.5865 52.9370
" />
<path d="M33.5865 52.9370
L34.5388 52.9370
" />
<path d="M35.1103 52.9370
L36.2531 52.9370
" />
<path d="M35.6817 54.9370
L35.6817 52.9370
" />
<path d="M36.9198 54.9370
L36.9198 52.9370
" />
<path d="M36.9198 53.8894
L38.0626 53.8894
" />
<path d="M38.0626 54.9370
L38.0626 52.9370
" />
<path d="M39.0150 53.8894
L39.6817 53.8894
" />
<path d="M39.9674 54.9370
L39.0150 54.9370
" />
<path d="M39.0150 54.9370
L39.0150 52.9370
" />
<path d="M39.0150 52.9370
L39.9674 52.9370
" />
<path d="M41.9674 54.9370
L41.3007 53.9847
" />
<path d="M40.8245 54.9370
L40.8245 52.9370
" />
<path d="M40.8245 52.9370
L41.5865 52.9370
" />
<path d="M41.5865 52.9370
L41.7769 53.0323
" />
<path d="M41.7769 53.0323
L41.8722 53.1275
" />
<path d="M41.8722 53.1275
L41.9674 53.3180
" />
<path d="M41.9674 53.3180
L41.9674 53.6037
" />
<path d="M41.9674 53.6037
L41.8722 53.7942
" />
<path d="M41.8722 53.7942
L41.7769 53.8894
" />
<path d="M41.7769 53.8894
L41.5865 53.9847
" />
<path d="M41.5865 53.9847
L40.8245 53.9847
" />
<path d="M42.8245 54.9370
L42.8245 52.9370
" />
<path d="M42.8245 52.9370
L43.9674 54.9370
" />
<path d="M43.9674 54.9370
L43.9674 52.9370
" />
<path d="M44.9198 53.8894
L45.5865 53.8894
" />
<path d="M45.8722 54.9370
L44.9198 54.9370
" />
<path d="M44.9198 54.9370
L44.9198 52.9370
" />
<path d="M44.9198 52.9370
L45.8722 52.9370
" />
<path d="M46.4436 52.9370
L47.5865 52.9370
" />
<path d="M47.0150 54.9370
L47.0150 52.9370
" />
</g><text x="32.8800" y="58.4200"
textLength="3.6976" font-size="2.6667" lengthAdjust="spacingAndGlyphs"
text-anchor="start" opacity="0">IN</text>
<g class="stroked-text"><desc>IN</desc>
<path d="M33.5865 58.1570
L33.5865 56.1570
" />
<path d="M34.5388 58.1570
L34.5388 56.1570
" />
<path d="M34.5388 56.1570
L35.6817 58.1570
" />
<path d="M35.6817 58.1570
L35.6817 56.1570
" />
</g></g>
<g style="fill:#FFFFFF; fill-opacity:0.0; 
stroke:#FFFFFF; stroke-width:0.3000; stroke-opacity:1; 
stroke-linecap:round; stroke-linejoin:round;">
<text x="87.2800" y="48.4200"
textLength="3.5286" font-size="2.0000" lengthAdjust="spacingAndGlyphs"
text-anchor="start" opacity="0">D7</text>
<g class="stroked-text"><desc>D7</desc>
<path d="M87.8345 48.2208
L87.8345 46.7208
" />
<path d="M87.8345 46.7208
L88.1917 46.7208
" />
<path d="M88.1917 46.7208
L88.4059 46.7923
" />
<path d="M88.4059 46.7923
L88.5488 46.9351
" />
<path d="M88.5488 46.9351
L88.6202 47.0780
" />
<path d="M88.6202 47.0780
L88.6917 47.3637
" />
<path d="M88.6917 47.3637
L88.6917 47.5780
" />
<path d="M88.6917 47.5780
L88.6202 47.8637
" />
<path d="M88.6202 47.8637
L88.5488 48.0065
" />
<path d="M88.5488 48.0065
L88.4059 48.1494
" />
<path d="M88.4059 48.1494
L88.1917 48.2208
" />
<path d="M88.1917 48.2208
L87.8345 48.2208
" />
<path d="M89.1917 46.7208
L90.1917 46.7208
" />
<path d="M90.1917 46.7208
L89.5488 48.2208
" />
</g><text x="64.4800" y="48.4200"
textLength="3.5286" font-size="2.0000" lengthAdjust="spacingAndGlyphs"
text-anchor="start" opacity="0">D2</text>
<g class="stroked-text"><desc>D2</desc>
<path d="M65.0345 48.2208
L65.0345 46.7208
" />
<path d="M65.0345 46.7208
L65.3917 46.7208
" />
<path d="M65.3917 46.7208
L65.6059 46.7923
" />
<path d="M65.6059 46.7923
L65.7488 46.9351
" />
<path d="M65.7488 46.9351
L65.8202 47.0780
" />
<path d="M65.8202 47.0780
L65.8917 47.3637
" />
<path d="M65.8917 47.3637
L65.8917 47.5780
" />
<path d="M65.8917 47.5780
L65.8202 47.8637
" />
<path d="M65.8202 47.8637
L65.7488 48.0065
" />
<path d="M65.7488 48.0065
L65.6059 48.1494
" />
<path d="M65.6059 48.1494
L65.3917 48.2208
" />
<path d="M65.3917 48.2208
L65.0345 48.2208
" />
<path d="M66.4631 46.8637
L66.5345 46.7923
" />
<path d="M66.5345 46.7923
L66.6774 46.7208
" />
<path d="M66.6774 46.7208
L67.0345 46.7208
" />
<path d="M67.0345 46.7208
L67.1774 46.7923
" />
<path d="M67.1774 46.7923
L67.2488 46.8637
" />
<path d="M67.2488 46.8637
L67.3202 47.0065
" />
<path d="M67.3202 47.0065
L67.3202 47.1494
" />
<path d="M67.3202 47.1494
L67.2488 47.3637
" />
<path d="M67.2488 47.3637
L66.3917 48.2208
" />
<path d="M66.3917 48.2208
L67.3202 48.2208
" />
</g><text x="83.2800" y="48.4200"
textLength="3.5286" font-size="2.0000" lengthAdjust="spacingAndGlyphs"
text-anchor="start" opacity="0">D6</text>
<g class="stroked-text"><desc>D6</desc>
<path d="M83.8345 48.2208
L83.8345 46.7208
" />
<path d="M83.8345 46.7208
L84.1917 46.7208
" />
<path d="M84.1917 46.7208
L84.4059 46.7923
" />
<path d="M84.4059 46.7923
L84.5488 46.9351
" />
<path d="M84.5488 46.9351
L84.6202 47.0780
" />
<path d="M84.6202 47.0780
L84.6917 47.3637
" />
<path d="M84.6917 47.3637
L84.6917 47.5780
" />
<path d="M84.6917 47.5780
L84.6202 47.8637
" />
<path d="M84.6202 47.8637
L84.5488 48.0065
" />
<path d="M84.5488 48.0065
L84.4059 48.1494
" />
<path d="M84.4059 48.1494
L84.1917 48.2208
" />
<path d="M84.1917 48.2208
L83.8345 48.2208
" />
<path d="M85.9774 46.7208
L85.6917 46.7208
" />
<path d="M85.6917 46.7208
L85.5488 46.7923
" />
<path d="M85.5488 46.7923
L85.4774 46.8637
" />
<path d="M85.4774 46.8637
L85.3345 47.0780
" />
<path d="M85.3345 47.0780
L85.2631 47.3637
" />
<path d="M85.2631 47.3637
L85.2631 47.9351
" />
<path d="M85.2631 47.9351
L85.3345 48.0780
" />
<path d="M85.3345 48.0780
L85.4059 48.1494
" />
<path d="M85.4059 48.1494
L85.5488 48.2208
" />
<path d="M85.5488 48.2208
L85.8345 48.2208
" />
<path d="M85.8345 48.2208
L85.9774 48.1494
" />
<path d="M85.9774 48.1494
L86.0488 48.0780
" />
<path d="M86.0488 48.0780
L86.1202 47.9351
" />
<path d="M86.1202 47.9351
L86.1202 47.5780
" />
<path d="M86.1202 47.5780
L86.0488 47.4351
" />
<path d="M86.0488 47.4351
L85.9774 47.3637
" />
<path d="M85.9774 47.3637
L85.8345 47.2923
" />
<path d="M85.8345 47.2923
L85.5488 47.2923
" />
<path d="M85.5488 47.2923
L85.4059 47.3637
" />
<path d="M85.4059 47.3637
L85.3345 47.4351
" />
<path d="M85.3345 47.4351
L85.2631 47.5780
" />
</g></g>
<g style="fill:#FFFFFF; fill-opacity:0.0; 
stroke:#FFFFFF; stroke-width:0.3500; stroke-opacity:1; 
stroke-linecap:round; stroke-linejoin:round;">
<text x="7.8800" y="55.2000"
textLength="12.3643" font-size="2.6667" lengthAdjust="spacingAndGlyphs"
text-anchor="start" opacity="0">POWER </text>
<g class="stroked-text"><desc>POWER </desc>
<path d="M8.5865 54.9370
L8.5865 52.9370
" />
<path d="M8.5865 52.9370
L9.3484 52.9370
" />
<path d="M9.3484 52.9370
L9.5388 53.0323
" />
<path d="M9.5388 53.0323
L9.6341 53.1275
" />
<path d="M9.6341 53.1275
L9.7293 53.3180
" />
<path d="M9.7293 53.3180
L9.7293 53.6037
" />
<path d="M9.7293 53.6037
L9.6341 53.7942
" />
<path d="M9.6341 53.7942
L9.5388 53.8894
" />
<path d="M9.5388 53.8894
L9.3484 53.9847
" />
<path d="M9.3484 53.9847
L8.5865 53.9847
" />
<path d="M10.9674 52.9370
L11.3484 52.9370
" />
<path d="M11.3484 52.9370
L11.5388 53.0323
" />
<path d="M11.5388 53.0323
L11.7293 53.2228
" />
<path d="M11.7293 53.2228
L11.8245 53.6037
" />
<path d="M11.8245 53.6037
L11.8245 54.2704
" />
<path d="M11.8245 54.2704
L11.7293 54.6513
" />
<path d="M11.7293 54.6513
L11.5388 54.8418
" />
<path d="M11.5388 54.8418
L11.3484 54.9370
" />
<path d="M11.3484 54.9370
L10.9674 54.9370
" />
<path d="M10.9674 54.9370
L10.7769 54.8418
" />
<path d="M10.7769 54.8418
L10.5865 54.6513
" />
<path d="M10.5865 54.6513
L10.4912 54.2704
" />
<path d="M10.4912 54.2704
L10.4912 53.6037
" />
<path d="M10.4912 53.6037
L10.5865 53.2228
" />
<path d="M10.5865 53.2228
L10.7769 53.0323
" />
<path d="M10.7769 53.0323
L10.9674 52.9370
" />
<path d="M12.4912 52.9370
L12.9674 54.9370
" />
<path d="M12.9674 54.9370
L13.3484 53.5085
" />
<path d="M13.3484 53.5085
L13.7293 54.9370
" />
<path d="M13.7293 54.9370
L14.2055 52.9370
" />
<path d="M14.9674 53.8894
L15.6341 53.8894
" />
<path d="M15.9198 54.9370
L14.9674 54.9370
" />
<path d="M14.9674 54.9370
L14.9674 52.9370
" />
<path d="M14.9674 52.9370
L15.9198 52.9370
" />
<path d="M17.9198 54.9370
L17.2531 53.9847
" />
<path d="M16.7769 54.9370
L16.7769 52.9370
" />
<path d="M16.7769 52.9370
L17.5388 52.9370
" />
<path d="M17.5388 52.9370
L17.7293 53.0323
" />
<path d="M17.7293 53.0323
L17.8245 53.1275
" />
<path d="M17.8245 53.1275
L17.9198 53.3180
" />
<path d="M17.9198 53.3180
L17.9198 53.6037
" />
<path d="M17.9198 53.6037
L17.8245 53.7942
" />
<path d="M17.8245 53.7942
L17.7293 53.8894
" />
<path d="M17.7293 53.8894
L17.5388 53.9847
" />
<path d="M17.5388 53.9847
L16.7769 53.9847
" />
</g><text x="7.8800" y="58.4200"
textLength="3.6976" font-size="2.6667" lengthAdjust="spacingAndGlyphs"
text-anchor="start" opacity="0">IN</text>
<g class="stroked-text"><desc>IN</desc>
<path d="M8.5865 58.1570
L8.5865 56.1570
" />
<path d="M9.5388 58.1570
L9.5388 56.1570
" />
<path d="M9.5388 56.1570
L10.6817 58.1570
" />
<path d="M10.6817 58.1570
L10.6817 56.1570
" />
</g></g>
<g style="fill:#FFFFFF; fill-opacity:0.0; 
stroke:#FFFFFF; stroke-width:0.1800; stroke-opacity:1; 
stroke-linecap:round; stroke-linejoin:round;">
<text x="0.8800" y="8.3270"
textLength="9.2562" font-size="1.7333" lengthAdjust="spacingAndGlyphs"
text-anchor="start" opacity="0">NETWORK</text>
<g class="stroked-text"><desc>NETWORK</desc>
<path d="M1.3079 8.1585
L1.3079 6.8585
" />
<path d="M1.3079 6.8585
L2.0508 8.1585
" />
<path d="M2.0508 8.1585
L2.0508 6.8585
" />
<path d="M2.6698 7.4776
L3.1032 7.4776
" />
<path d="M3.2889 8.1585
L2.6698 8.1585
" />
<path d="M2.6698 8.1585
L2.6698 6.8585
" />
<path d="M2.6698 6.8585
L3.2889 6.8585
" />
<path d="M3.6603 6.8585
L4.4032 6.8585
" />
<path d="M4.0318 8.1585
L4.0318 6.8585
" />
<path d="M4.7127 6.8585
L5.0222 8.1585
" />
<path d="M5.0222 8.1585
L5.2698 7.2300
" />
<path d="M5.2698 7.2300
L5.5175 8.1585
" />
<path d="M5.5175 8.1585
L5.8270 6.8585
" />
<path d="M6.5698 6.8585
L6.8175 6.8585
" />
<path d="M6.8175 6.8585
L6.9413 6.9204
" />
<path d="M6.9413 6.9204
L7.0651 7.0443
" />
<path d="M7.0651 7.0443
L7.1270 7.2919
" />
<path d="M7.1270 7.2919
L7.1270 7.7252
" />
<path d="M7.1270 7.7252
L7.0651 7.9728
" />
<path d="M7.0651 7.9728
L6.9413 8.0966
" />
<path d="M6.9413 8.0966
L6.8175 8.1585
" />
<path d="M6.8175 8.1585
L6.5698 8.1585
" />
<path d="M6.5698 8.1585
L6.4460 8.0966
" />
<path d="M6.4460 8.0966
L6.3222 7.9728
" />
<path d="M6.3222 7.9728
L6.2603 7.7252
" />
<path d="M6.2603 7.7252
L6.2603 7.2919
" />
<path d="M6.2603 7.2919
L6.3222 7.0443
" />
<path d="M6.3222 7.0443
L6.4460 6.9204
" />
<path d="M6.4460 6.9204
L6.5698 6.8585
" />
<path d="M8.4270 8.1585
L7.9937 7.5395
" />
<path d="M7.6841 8.1585
L7.6841 6.8585
" />
<path d="M7.6841 6.8585
L8.1794 6.8585
" />
<path d="M8.1794 6.8585
L8.3032 6.9204
" />
<path d="M8.3032 6.9204
L8.3651 6.9824
" />
<path d="M8.3651 6.9824
L8.4270 7.1062
" />
<path d="M8.4270 7.1062
L8.4270 7.2919
" />
<path d="M8.4270 7.2919
L8.3651 7.4157
" />
<path d="M8.3651 7.4157
L8.3032 7.4776
" />
<path d="M8.3032 7.4776
L8.1794 7.5395
" />
<path d="M8.1794 7.5395
L7.6841 7.5395
" />
<path d="M8.9841 8.1585
L8.9841 6.8585
" />
<path d="M9.7270 8.1585
L9.1698 7.4157
" />
<path d="M9.7270 6.8585
L8.9841 7.6014
" />
</g><text x="0.8800" y="10.4200"
textLength="11.6086" font-size="1.7333" lengthAdjust="spacingAndGlyphs"
text-anchor="start" opacity="0">CONNECTED</text>
<g class="stroked-text"><desc>CONNECTED</desc>
<path d="M2.0508 10.1277
L1.9889 10.1896
" />
<path d="M1.9889 10.1896
L1.8032 10.2515
" />
<path d="M1.8032 10.2515
L1.6794 10.2515
" />
<path d="M1.6794 10.2515
L1.4937 10.1896
" />
<path d="M1.4937 10.1896
L1.3698 10.0658
" />
<path d="M1.3698 10.0658
L1.3079 9.9420
" />
<path d="M1.3079 9.9420
L1.2460 9.6944
" />
<path d="M1.2460 9.6944
L1.2460 9.5087
" />
<path d="M1.2460 9.5087
L1.3079 9.2611
" />
<path d="M1.3079 9.2611
L1.3698 9.1373
" />
<path d="M1.3698 9.1373
L1.4937 9.0134
" />
<path d="M1.4937 9.0134
L1.6794 8.9515
" />
<path d="M1.6794 8.9515
L1.8032 8.9515
" />
<path d="M1.8032 8.9515
L1.9889 9.0134
" />
<path d="M1.9889 9.0134
L2.0508 9.0754
" />
<path d="M2.8556 8.9515
L3.1032 8.9515
" />
<path d="M3.1032 8.9515
L3.2270 9.0134
" />
<path d="M3.2270 9.0134
L3.3508 9.1373
" />
<path d="M3.3508 9.1373
L3.4127 9.3849
" />
<path d="M3.4127 9.3849
L3.4127 9.8182
" />
<path d="M3.4127 9.8182
L3.3508 10.0658
" />
<path d="M3.3508 10.0658
L3.2270 10.1896
" />
<path d="M3.2270 10.1896
L3.1032 10.2515
" />
<path d="M3.1032 10.2515
L2.8556 10.2515
" />
<path d="M2.8556 10.2515
L2.7318 10.1896
" />
<path d="M2.7318 10.1896
L2.6079 10.0658
" />
<path d="M2.6079 10.0658
L2.5460 9.8182
" />
<path d="M2.5460 9.8182
L2.5460 9.3849
" />
<path d="M2.5460 9.3849
L2.6079 9.1373
" />
<path d="M2.6079 9.1373
L2.7318 9.0134
" />
<path d="M2.7318 9.0134
L2.8556 8.9515
" />
<path d="M3.9698 10.2515
L3.9698 8.9515
" />
<path d="M3.9698 8.9515
L4.7127 10.2515
" />
<path d="M4.7127 10.2515
L4.7127 8.9515
" />
<path d="M5.3318 10.2515
L5.3318 8.9515
" />
<path d="M5.3318 8.9515
L6.0746 10.2515
" />
<path d="M6.0746 10.2515
L6.0746 8.9515
" />
<path d="M6.6937 9.5706
L7.1270 9.5706
" />
<path d="M7.3127 10.2515
L6.6937 10.2515
" />
<path d="M6.6937 10.2515
L6.6937 8.9515
" />
<path d="M6.6937 8.9515
L7.3127 8.9515
" />
<path d="M8.6127 10.1277
L8.5508 10.1896
" />
<path d="M8.5508 10.1896
L8.3651 10.2515
" />
<path d="M8.3651 10.2515
L8.2413 10.2515
" />
<path d="M8.2413 10.2515
L8.0556 10.1896
" />
<path d="M8.0556 10.1896
L7.9318 10.0658
" />
<path d="M7.9318 10.0658
L7.8698 9.9420
" />
<path d="M7.8698 9.9420
L7.8079 9.6944
" />
<path d="M7.8079 9.6944
L7.8079 9.5087
" />
<path d="M7.8079 9.5087
L7.8698 9.2611
" />
<path d="M7.8698 9.2611
L7.9318 9.1373
" />
<path d="M7.9318 9.1373
L8.0556 9.0134
" />
<path d="M8.0556 9.0134
L8.2413 8.9515
" />
<path d="M8.2413 8.9515
L8.3651 8.9515
" />
<path d="M8.3651 8.9515
L8.5508 9.0134
" />
<path d="M8.5508 9.0134
L8.6127 9.0754
" />
<path d="M8.9841 8.9515
L9.7270 8.9515
" />
<path d="M9.3556 10.2515
L9.3556 8.9515
" />
<path d="M10.1603 9.5706
L10.5937 9.5706
" />
<path d="M10.7794 10.2515
L10.1603 10.2515
" />
<path d="M10.1603 10.2515
L10.1603 8.9515
" />
<path d="M10.1603 8.9515
L10.7794 8.9515
" />
<path d="M11.3365 10.2515
L11.3365 8.9515
" />
<path d="M11.3365 8.9515
L11.6460 8.9515
" />
<path d="M11.6460 8.9515
L11.8318 9.0134
" />
<path d="M11.8318 9.0134
L11.9556 9.1373
" />
<path d="M11.9556 9.1373
L12.0175 9.2611
" />
<path d="M12.0175 9.2611
L12.0794 9.5087
" />
<path d="M12.0794 9.5087
L12.0794 9.6944
" />
<path d="M12.0794 9.6944
L12.0175 9.9420
" />
<path d="M12.0175 9.9420
L11.9556 10.0658
" />
<path d="M11.9556 10.0658
L11.8318 10.1896
" />
<path d="M11.8318 10.1896
L11.6460 10.2515
" />
<path d="M11.6460 10.2515
L11.3365 10.2515
" />
</g></g>
<g style="fill:#FFFFFF; fill-opacity:0.0; 
stroke:#FFFFFF; stroke-width:0.3500; stroke-opacity:1; 
stroke-linecap:round; stroke-linejoin:round;">
<text x="81.8800" y="41.4200"
textLength="14.8405" font-size="2.6667" lengthAdjust="spacingAndGlyphs"
text-anchor="end" opacity="0">DATA OUT</text>
<g class="stroked-text"><desc>DATA OUT</desc>
<path d="M67.9354 41.3270
L67.9354 39.3270
" />
<path d="M67.9354 39.3270
L68.4116 39.3270
" />
<path d="M68.4116 39.3270
L68.6974 39.4223
" />
<path d="M68.6974 39.4223
L68.8878 39.6128
" />
<path d="M68.8878 39.6128
L68.9831 39.8032
" />
<path d="M68.9831 39.8032
L69.0783 40.1842
" />
<path d="M69.0783 40.1842
L69.0783 40.4699
" />
<path d="M69.0783 40.4699
L68.9831 40.8508
" />
<path d="M68.9831 40.8508
L68.8878 41.0413
" />
<path d="M68.8878 41.0413
L68.6974 41.2318
" />
<path d="M68.6974 41.2318
L68.4116 41.3270
" />
<path d="M68.4116 41.3270
L67.9354 41.3270
" />
<path d="M69.8402 40.7556
L70.7926 40.7556
" />
<path d="M69.6497 41.3270
L70.3164 39.3270
" />
<path d="M70.3164 39.3270
L70.9831 41.3270
" />
<path d="M71.3640 39.3270
L72.5069 39.3270
" />
<path d="M71.9354 41.3270
L71.9354 39.3270
" />
<path d="M73.0783 40.7556
L74.0307 40.7556
" />
<path d="M72.8878 41.3270
L73.5545 39.3270
" />
<path d="M73.5545 39.3270
L74.2212 41.3270
" />
<path d="M76.7926 39.3270
L77.1735 39.3270
" />
<path d="M77.1735 39.3270
L77.3640 39.4223
" />
<path d="M77.3640 39.4223
L77.5545 39.6128
" />
<path d="M77.5545 39.6128
L77.6497 39.9937
" />
<path d="M77.6497 39.9937
L77.6497 40.6604
" />
<path d="M77.6497 40.6604
L77.5545 41.0413
" />
<path d="M77.5545 41.0413
L77.3640 41.2318
" />
<path d="M77.3640 41.2318
L77.1735 41.3270
" />
<path d="M77.1735 41.3270
L76.7926 41.3270
" />
<path d="M76.7926 41.3270
L76.6021 41.2318
" />
<path d="M76.6021 41.2318
L76.4116 41.0413
" />
<path d="M76.4116 41.0413
L76.3164 40.6604
" />
<path d="M76.3164 40.6604
L76.3164 39.9937
" />
<path d="M76.3164 39.9937
L76.4116 39.6128
" />
<path d="M76.4116 39.6128
L76.6021 39.4223
" />
<path d="M76.6021 39.4223
L76.7926 39.3270
" />
<path d="M78.5069 39.3270
L78.5069 40.9461
" />
<path d="M78.5069 40.9461
L78.6021 41.1366
" />
<path d="M78.6021 41.1366
L78.6974 41.2318
" />
<path d="M78.6974 41.2318
L78.8878 41.3270
" />
<path d="M78.8878 41.3270
L79.2688 41.3270
" />
<path d="M79.2688 41.3270
L79.4593 41.2318
" />
<path d="M79.4593 41.2318
L79.5545 41.1366
" />
<path d="M79.5545 41.1366
L79.6497 40.9461
" />
<path d="M79.6497 40.9461
L79.6497 39.3270
" />
<path d="M80.3164 39.3270
L81.4593 39.3270
" />
<path d="M80.8878 41.3270
L80.8878 39.3270
" />
</g></g>
<g style="fill:#FFFFFF; fill-opacity:0.0; 
stroke:#FFFFFF; stroke-width:0.3000; stroke-opacity:1; 
stroke-linecap:round; stroke-linejoin:round;">
<text x="79.2800" y="48.4200"
textLength="3.5286" font-size="2.0000" lengthAdjust="spacingAndGlyphs"
text-anchor="start" opacity="0">D5</text>
<g class="stroked-text"><desc>D5</desc>
<path d="M79.8345 48.2208
L79.8345 46.7208
" />
<path d="M79.8345 46.7208
L80.1917 46.7208
" />
<path d="M80.1917 46.7208
L80.4059 46.7923
" />
<path d="M80.4059 46.7923
L80.5488 46.9351
" />
<path d="M80.5488 46.9351
L80.6202 47.0780
" />
<path d="M80.6202 47.0780
L80.6917 47.3637
" />
<path d="M80.6917 47.3637
L80.6917 47.5780
" />
<path d="M80.6917 47.5780
L80.6202 47.8637
" />
<path d="M80.6202 47.8637
L80.5488 48.0065
" />
<path d="M80.5488 48.0065
L80.4059 48.1494
" />
<path d="M80.4059 48.1494
L80.1917 48.2208
" />
<path d="M80.1917 48.2208
L79.8345 48.2208
" />
<path d="M82.0488 46.7208
L81.3345 46.7208
" />
<path d="M81.3345 46.7208
L81.2631 47.4351
" />
<path d="M81.2631 47.4351
L81.3345 47.3637
" />
<path d="M81.3345 47.3637
L81.4774 47.2923
" />
<path d="M81.4774 47.2923
L81.8345 47.2923
" />
<path d="M81.8345 47.2923
L81.9774 47.3637
" />
<path d="M81.9774 47.3637
L82.0488 47.4351
" />
<path d="M82.0488 47.4351
L82.1202 47.5780
" />
<path d="M82.1202 47.5780
L82.1202 47.9351
" />
<path d="M82.1202 47.9351
L82.0488 48.0780
" />
<path d="M82.0488 48.0780
L81.9774 48.1494
" />
<path d="M81.9774 48.1494
L81.8345 48.2208
" />
<path d="M81.8345 48.2208
L81.4774 48.2208
" />
<path d="M81.4774 48.2208
L81.3345 48.1494
" />
<path d="M81.3345 48.1494
L81.2631 48.0780
" />
</g></g>
<g style="fill:#FFFFFF; fill-opacity:0.0; 
stroke:#FFFFFF; stroke-width:0.3800; stroke-opacity:1; 
stroke-linecap:round; stroke-linejoin:round;">
<text x="17.9800" y="6.8900"
textLength="18.5400" font-size="4.0000" lengthAdjust="spacingAndGlyphs"
text-anchor="start" opacity="0">LATERAL</text>
<g class="stroked-text"><desc>LATERAL</desc>
<path d="M20.3729 6.5031
L18.9443 6.5031
" />
<path d="M18.9443 6.5031
L18.9443 3.5031
" />
<path d="M21.2300 5.6460
L22.6586 5.6460
" />
<path d="M20.9443 6.5031
L21.9443 3.5031
" />
<path d="M21.9443 3.5031
L22.9443 6.5031
" />
<path d="M23.5157 3.5031
L25.2300 3.5031
" />
<path d="M24.3729 6.5031
L24.3729 3.5031
" />
<path d="M26.2300 4.9317
L27.2300 4.9317
" />
<path d="M27.6586 6.5031
L26.2300 6.5031
" />
<path d="M26.2300 6.5031
L26.2300 3.5031
" />
<path d="M26.2300 3.5031
L27.6586 3.5031
" />
<path d="M30.6586 6.5031
L29.6586 5.0745
" />
<path d="M28.9443 6.5031
L28.9443 3.5031
" />
<path d="M28.9443 3.5031
L30.0871 3.5031
" />
<path d="M30.0871 3.5031
L30.3729 3.6460
" />
<path d="M30.3729 3.6460
L30.5157 3.7888
" />
<path d="M30.5157 3.7888
L30.6586 4.0745
" />
<path d="M30.6586 4.0745
L30.6586 4.5031
" />
<path d="M30.6586 4.5031
L30.5157 4.7888
" />
<path d="M30.5157 4.7888
L30.3729 4.9317
" />
<path d="M30.3729 4.9317
L30.0871 5.0745
" />
<path d="M30.0871 5.0745
L28.9443 5.0745
" />
<path d="M31.8014 5.6460
L33.2300 5.6460
" />
<path d="M31.5157 6.5031
L32.5157 3.5031
" />
<path d="M32.5157 3.5031
L33.5157 6.5031
" />
<path d="M35.9443 6.5031
L34.5157 6.5031
" />
<path d="M34.5157 6.5031
L34.5157 3.5031
" />
</g><text x="17.9800" y="11.7200"
textLength="39.2543" font-size="4.0000" lengthAdjust="spacingAndGlyphs"
text-anchor="start" opacity="0">LED_CONTROLLER</text>
<g class="stroked-text"><desc>LED_CONTROLLER</desc>
<path d="M20.3729 11.3331
L18.9443 11.3331
" />
<path d="M18.9443 11.3331
L18.9443 8.3331
" />
<path d="M21.3729 9.7617
L22.3729 9.7617
" />
<path d="M22.8014 11.3331
L21.3729 11.3331
" />
<path d="M21.3729 11.3331
L21.3729 8.3331
" />
<path d="M21.3729 8.3331
L22.8014 8.3331
" />
<path d="M24.0871 11.3331
L24.0871 8.3331
" />
<path d="M24.0871 8.3331
L24.8014 8.3331
" />
<path d="M24.8014 8.3331
L25.2300 8.4760
" />
<path d="M25.2300 8.4760
L25.5157 8.7617
" />
<path d="M25.5157 8.7617
L25.6586 9.0474
" />
<path d="M25.6586 9.0474
L25.8014 9.6188
" />
<path d="M25.8014 9.6188
L25.8014 10.0474
" />
<path d="M25.8014 10.0474
L25.6586 10.6188
" />
<path d="M25.6586 10.6188
L25.5157 10.9045
" />
<path d="M25.5157 10.9045
L25.2300 11.1902
" />
<path d="M25.2300 11.1902
L24.8014 11.3331
" />
<path d="M24.8014 11.3331
L24.0871 11.3331
" />
<path d="M26.3729 11.6188
L28.6586 11.6188
" />
<path d="M31.0871 11.0474
L30.9443 11.1902
" />
<path d="M30.9443 11.1902
L30.5157 11.3331
" />
<path d="M30.5157 11.3331
L30.2300 11.3331
" />
<path d="M30.2300 11.3331
L29.8014 11.1902
" />
<path d="M29.8014 11.1902
L29.5157 10.9045
" />
<path d="M29.5157 10.9045
L29.3729 10.6188
" />
<path d="M29.3729 10.6188
L29.2300 10.0474
" />
<path d="M29.2300 10.0474
L29.2300 9.6188
" />
<path d="M29.2300 9.6188
L29.3729 9.0474
" />
<path d="M29.3729 9.0474
L29.5157 8.7617
" />
<path d="M29.5157 8.7617
L29.8014 8.4760
" />
<path d="M29.8014 8.4760
L30.2300 8.3331
" />
<path d="M30.2300 8.3331
L30.5157 8.3331
" />
<path d="M30.5157 8.3331
L30.9443 8.4760
" />
<path d="M30.9443 8.4760
L31.0871 8.6188
" />
<path d="M32.9443 8.3331
L33.5157 8.3331
" />
<path d="M33.5157 8.3331
L33.8014 8.4760
" />
<path d="M33.8014 8.4760
L34.0871 8.7617
" />
<path d="M34.0871 8.7617
L34.2300 9.3331
" />
<path d="M34.2300 9.3331
L34.2300 10.3331
" />
<path d="M34.2300 10.3331
L34.0871 10.9045
" />
<path d="M34.0871 10.9045
L33.8014 11.1902
" />
<path d="M33.8014 11.1902
L33.5157 11.3331
" />
<path d="M33.5157 11.3331
L32.9443 11.3331
" />
<path d="M32.9443 11.3331
L32.6586 11.1902
" />
<path d="M32.6586 11.1902
L32.3729 10.9045
" />
<path d="M32.3729 10.9045
L32.2300 10.3331
" />
<path d="M32.2300 10.3331
L32.2300 9.3331
" />
<path d="M32.2300 9.3331
L32.3729 8.7617
" />
<path d="M32.3729 8.7617
L32.6586 8.4760
" />
<path d="M32.6586 8.4760
L32.9443 8.3331
" />
<path d="M35.5157 11.3331
L35.5157 8.3331
" />
<path d="M35.5157 8.3331
L37.2300 11.3331
" />
<path d="M37.2300 11.3331
L37.2300 8.3331
" />
<path d="M38.2300 8.3331
L39.9443 8.3331
" />
<path d="M39.0871 11.3331
L39.0871 8.3331
" />
<path d="M42.6586 11.3331
L41.6586 9.9045
" />
<path d="M40.9443 11.3331
L40.9443 8.3331
" />
<path d="M40.9443 8.3331
L42.0871 8.3331
" />
<path d="M42.0871 8.3331
L42.3729 8.4760
" />
<path d="M42.3729 8.4760
L42.5157 8.6188
" />
<path d="M42.5157 8.6188
L42.6586 8.9045
" />
<path d="M42.6586 8.9045
L42.6586 9.3331
" />
<path d="M42.6586 9.3331
L42.5157 9.6188
" />
<path d="M42.5157 9.6188
L42.3729 9.7617
" />
<path d="M42.3729 9.7617
L42.0871 9.9045
" />
<path d="M42.0871 9.9045
L40.9443 9.9045
" />
<path d="M44.5157 8.3331
L45.0871 8.3331
" />
<path d="M45.0871 8.3331
L45.3729 8.4760
" />
<path d="M45.3729 8.4760
L45.6586 8.7617
" />
<path d="M45.6586 8.7617
L45.8014 9.3331
" />
<path d="M45.8014 9.3331
L45.8014 10.3331
" />
<path d="M45.8014 10.3331
L45.6586 10.9045
" />
<path d="M45.6586 10.9045
L45.3729 11.1902
" />
<path d="M45.3729 11.1902
L45.0871 11.3331
" />
<path d="M45.0871 11.3331
L44.5157 11.3331
" />
<path d="M44.5157 11.3331
L44.2300 11.1902
" />
<path d="M44.2300 11.1902
L43.9443 10.9045
" />
<path d="M43.9443 10.9045
L43.8014 10.3331
" />
<path d="M43.8014 10.3331
L43.8014 9.3331
" />
<path d="M43.8014 9.3331
L43.9443 8.7617
" />
<path d="M43.9443 8.7617
L44.2300 8.4760
" />
<path d="M44.2300 8.4760
L44.5157 8.3331
" />
<path d="M48.5157 11.3331
L47.0871 11.3331
" />
<path d="M47.0871 11.3331
L47.0871 8.3331
" />
<path d="M50.9443 11.3331
L49.5157 11.3331
" />
<path d="M49.5157 11.3331
L49.5157 8.3331
" />
<path d="M51.9443 9.7617
L52.9443 9.7617
" />
<path d="M53.3729 11.3331
L51.9443 11.3331
" />
<path d="M51.9443 11.3331
L51.9443 8.3331
" />
<path d="M51.9443 8.3331
L53.3729 8.3331
" />
<path d="M56.3729 11.3331
L55.3729 9.9045
" />
<path d="M54.6586 11.3331
L54.6586 8.3331
" />
<path d="M54.6586 8.3331
L55.8014 8.3331
" />
<path d="M55.8014 8.3331
L56.0871 8.4760
" />
<path d="M56.0871 8.4760
L56.2300 8.6188
" />
<path d="M56.2300 8.6188
L56.3729 8.9045
" />
<path d="M56.3729 8.9045
L56.3729 9.3331
" />
<path d="M56.3729 9.3331
L56.2300 9.6188
" />
<path d="M56.2300 9.6188
L56.0871 9.7617
" />
<path d="M56.0871 9.7617
L55.8014 9.9045
" />
<path d="M55.8014 9.9045
L54.6586 9.9045
" />
</g></g>
<g style="fill:#FFFFFF; fill-opacity:0.0; 
stroke:#FFFFFF; stroke-width:0.3000; stroke-opacity:1; 
stroke-linecap:round; stroke-linejoin:round;">
<text x="80.8800" y="5.4200"
textLength="8.3143" font-size="2.0000" lengthAdjust="spacingAndGlyphs"
text-anchor="start" opacity="0">D4-D7</text>
<g class="stroked-text"><desc>D4-D7</desc>
<path d="M81.4345 5.2208
L81.4345 3.7208
" />
<path d="M81.4345 3.7208
L81.7917 3.7208
" />
<path d="M81.7917 3.7208
L82.0059 3.7923
" />
<path d="M82.0059 3.7923
L82.1488 3.9351
" />
<path d="M82.1488 3.9351
L82.2202 4.0780
" />
<path d="M82.2202 4.0780
L82.2917 4.3637
" />
<path d="M82.2917 4.3637
L82.2917 4.5780
" />
<path d="M82.2917 4.5780
L82.2202 4.8637
" />
<path d="M82.2202 4.8637
L82.1488 5.0065
" />
<path d="M82.1488 5.0065
L82.0059 5.1494
" />
<path d="M82.0059 5.1494
L81.7917 5.2208
" />
<path d="M81.7917 5.2208
L81.4345 5.2208
" />
<path d="M83.5774 4.2208
L83.5774 5.2208
" />
<path d="M83.2202 3.6494
L82.8631 4.7208
" />
<path d="M82.8631 4.7208
L83.7917 4.7208
" />
<path d="M84.3631 4.6494
L85.5059 4.6494
" />
<path d="M86.2202 5.2208
L86.2202 3.7208
" />
<path d="M86.2202 3.7208
L86.5774 3.7208
" />
<path d="M86.5774 3.7208
L86.7917 3.7923
" />
<path d="M86.7917 3.7923
L86.9345 3.9351
" />
<path d="M86.9345 3.9351
L87.0059 4.0780
" />
<path d="M87.0059 4.0780
L87.0774 4.3637
" />
<path d="M87.0774 4.3637
L87.0774 4.5780
" />
<path d="M87.0774 4.5780
L87.0059 4.8637
" />
<path d="M87.0059 4.8637
L86.9345 5.0065
" />
<path d="M86.9345 5.0065
L86.7917 5.1494
" />
<path d="M86.7917 5.1494
L86.5774 5.2208
" />
<path d="M86.5774 5.2208
L86.2202 5.2208
" />
<path d="M87.5774 3.7208
L88.5774 3.7208
" />
<path d="M88.5774 3.7208
L87.9345 5.2208
" />
</g><g >
</g>
<g >
</g>
<g >
</g>
</g> 
</svg>
