<?xml version="1.0" encoding="UTF-8" standalone="no"?>
<svg
   version="1.1"
   width="100.0760mm"
   height="60.0964mm"
   viewBox="0.0000 0.0000 100.0760 60.0964"
   id="svg1926"
   sodipodi:docname="ethernet_led_controller_panel-F_Silkscreen_one_path.svg"
   inkscape:version="1.2.2 (b0a8486541, 2022-12-01)"
   xmlns:inkscape="http://www.inkscape.org/namespaces/inkscape"
   xmlns:sodipodi="http://sodipodi.sourceforge.net/DTD/sodipodi-0.dtd"
   xmlns="http://www.w3.org/2000/svg"
   xmlns:svg="http://www.w3.org/2000/svg"
   xmlns:rdf="http://www.w3.org/1999/02/22-rdf-syntax-ns#"
   xmlns:cc="http://creativecommons.org/ns#"
   xmlns:dc="http://purl.org/dc/elements/1.1/">
  <defs
     id="defs1930" />
  <sodipodi:namedview
     id="namedview1928"
     pagecolor="#ffffff"
     bordercolor="#000000"
     borderopacity="0.25"
     inkscape:showpageshadow="2"
     inkscape:pageopacity="0.0"
     inkscape:pagecheckerboard="0"
     inkscape:deskcolor="#d1d1d1"
     inkscape:document-units="mm"
     showgrid="false"
     inkscape:zoom="2.6331438"
     inkscape:cx="136.14904"
     inkscape:cy="127.22435"
     inkscape:window-width="1920"
     inkscape:window-height="935"
     inkscape:window-x="0"
     inkscape:window-y="32"
     inkscape:window-maximized="1"
     inkscape:current-layer="svg1926" />
  <title
     id="title2">SVG Image created as ethernet_led_controller_panel-F_Silkscreen.svg date 2024/08/07 11:52:26 </title>
  <desc
     id="desc4">Image generated by PCBNEW </desc>
  <g
     style="fill:#000000; fill-opacity:1.0000;stroke:#000000; stroke-opacity:1.0000; stroke-linecap:round; stroke-linejoin:round;"
     transform="translate(0 0) scale(1 1)"
     id="g6" />
  <g
     style="fill:#000000; fill-opacity:0.0;  stroke:#000000; stroke-width:0.0000; stroke-opacity:1;  stroke-linecap:round; stroke-linejoin:round;"
     id="g8" />
  <g
     style="fill:#FFFFFF; fill-opacity:1.0000;  stroke:#FFFFFF; stroke-width:0.0212; stroke-opacity:1;  stroke-linecap:round; stroke-linejoin:round;"
     id="g14" />
  <g
     style="fill:#FFFFFF; fill-opacity:1.0000;  stroke:#FFFFFF; stroke-width:0.3000; stroke-opacity:1;  stroke-linecap:round; stroke-linejoin:round;"
     id="g16" />
  <g
     class="stroked-text"
     id="g138"
     style="fill:#000000;fill-opacity:0;stroke:#000000;stroke-width:0.3;stroke-linecap:round;stroke-linejoin:round;stroke-opacity:1">
    <desc
       id="desc20">D0-D3</desc>
  </g>
  <g
     class="stroked-text"
     id="g178"
     style="fill:#000000;fill-opacity:0;stroke:#000000;stroke-width:0.3;stroke-linecap:round;stroke-linejoin:round;stroke-opacity:1">
    <desc
       id="desc142">D1</desc>
  </g>
  <g
     transform="rotate(-90,2.68,47.52)"
     id="g182"
     style="fill:#000000;fill-opacity:0;stroke:#000000;stroke-width:0.3;stroke-linecap:round;stroke-linejoin:round;stroke-opacity:1" />
  <g
     class="stroked-text"
     id="g386"
     style="fill:#000000;fill-opacity:0;stroke:#000000;stroke-width:0.3;stroke-linecap:round;stroke-linejoin:round;stroke-opacity:1">
    <desc
       id="desc184">BOOTLOADER</desc>
  </g>
  <g
     class="stroked-text"
     id="g442"
     style="fill:#000000;fill-opacity:0;stroke:#000000;stroke-width:0.3;stroke-linecap:round;stroke-linejoin:round;stroke-opacity:1">
    <desc
       id="desc390">D3</desc>
  </g>
  <g
     style="fill:#000000;fill-opacity:0;stroke:#000000;stroke-width:0.18;stroke-opacity:1;stroke-linecap:round;stroke-linejoin:round"
     id="g702">
    <g
       class="stroked-text"
       id="g614"
       style="fill:#000000;stroke:#000000;stroke-opacity:1">
      <desc
         id="desc448">CONTROLLER</desc>
    </g>
    <g
       class="stroked-text"
       id="g700"
       style="fill:#000000;stroke:#000000;stroke-opacity:1">
      <desc
         id="desc618">RESET</desc>
    </g>
  </g>
  <g
     style="fill:#000000;fill-opacity:0;stroke:#000000;stroke-width:0.3;stroke-opacity:1;stroke-linecap:round;stroke-linejoin:round"
     id="g810">
    <g
       class="stroked-text"
       id="g772"
       style="fill:#000000;stroke:#000000;stroke-opacity:1">
      <desc
         id="desc706">D0</desc>
    </g>
    <g
       class="stroked-text"
       id="g808"
       style="fill:#000000;stroke:#000000;stroke-opacity:1">
      <desc
         id="desc776">D4</desc>
    </g>
  </g>
  <g
     style="fill:#000000;fill-opacity:0;stroke:#000000;stroke-width:0.35;stroke-opacity:1;stroke-linecap:round;stroke-linejoin:round"
     id="g898">
    <g
       class="stroked-text"
       id="g882"
       style="fill:#000000;stroke:#000000;stroke-opacity:1">
      <desc
         id="desc814">ETHERNET </desc>
    </g>
    <g
       class="stroked-text"
       id="g896"
       style="fill:#000000;stroke:#000000;stroke-opacity:1">
      <desc
         id="desc886">IN</desc>
    </g>
  </g>
  <g
     style="fill:#000000;fill-opacity:0;stroke:#000000;stroke-width:0.3;stroke-opacity:1;stroke-linecap:round;stroke-linejoin:round"
     id="g1056">
    <g
       class="stroked-text"
       id="g932"
       style="fill:#000000;stroke:#000000;stroke-opacity:1">
      <desc
         id="desc902">D7</desc>
    </g>
    <g
       class="stroked-text"
       id="g982"
       style="fill:#000000;stroke:#000000;stroke-opacity:1">
      <desc
         id="desc936">D2</desc>
    </g>
    <g
       class="stroked-text"
       id="g1054"
       style="fill:#000000;stroke:#000000;stroke-opacity:1">
      <desc
         id="desc986">D6</desc>
    </g>
  </g>
  <g
     style="fill:#000000;fill-opacity:0;stroke:#000000;stroke-width:0.35;stroke-opacity:1;stroke-linecap:round;stroke-linejoin:round"
     id="g1168">
    <g
       class="stroked-text"
       id="g1152"
       style="fill:#000000;stroke:#000000;stroke-opacity:1">
      <desc
         id="desc1060">POWER </desc>
    </g>
    <g
       class="stroked-text"
       id="g1166"
       style="fill:#000000;stroke:#000000;stroke-opacity:1">
      <desc
         id="desc1156">IN</desc>
    </g>
  </g>
  <g
     style="fill:#000000;fill-opacity:0;stroke:#000000;stroke-width:0.18;stroke-linecap:round;stroke-linejoin:round;stroke-opacity:1"
     id="g1416"
     transform="translate(0.39094863,0.1592855)">
    <g
       class="stroked-text"
       id="g1260"
       style="fill:#000000;stroke:#000000;stroke-opacity:1">
      <desc
         id="desc1172">NETWORK</desc>
    </g>
    <g
       class="stroked-text"
       id="g1414"
       transform="translate(-0.44289035,0.64396983)"
       style="fill:#000000;stroke:#000000;stroke-opacity:1">
      <desc
         id="desc1264">CONNECTED</desc>
    </g>
  </g>
  <g
     class="stroked-text"
     id="g1516"
     style="fill:#000000;fill-opacity:0;stroke:#000000;stroke-width:0.35;stroke-linecap:round;stroke-linejoin:round;stroke-opacity:1"
     transform="translate(0,0.52916667)">
    <desc
       id="desc1420">DATA OUT</desc>
  </g>
  <g
     style="fill:#000000;fill-opacity:0;stroke:#000000;stroke-width:0.3;stroke-opacity:1;stroke-linecap:round;stroke-linejoin:round"
     id="g1580">
    <g
       class="stroked-text"
       id="g1578"
       style="fill:#000000;stroke:#000000;stroke-opacity:1">
      <desc
         id="desc1522">D5</desc>
    </g>
  </g>
  <g
     style="fill:#000000;fill-opacity:0;stroke:#000000;stroke-width:0.38;stroke-linecap:round;stroke-linejoin:round;stroke-opacity:1"
     id="g1850">
    <g
       class="stroked-text"
       id="g1640"
       style="fill:#000000;stroke:#000000;stroke-opacity:1">
      <desc
         id="desc1584">LATERAL</desc>
    </g>
    <g
       class="stroked-text"
       id="g1848"
       style="fill:#000000;stroke:#000000;stroke-opacity:1">
      <desc
         id="desc1644">LED_CONTROLLER</desc>
    </g>
  </g>
  <g
     style="fill:#000000;fill-opacity:0;stroke:#000000;stroke-width:0.3;stroke-linecap:round;stroke-linejoin:round;stroke-opacity:1"
     id="g1924"
     inkscape:highlight-color="#aaaaaa">
    <g
       class="stroked-text"
       id="g1916"
       style="fill:#000000;stroke:#000000;stroke-opacity:1">
      <desc
         id="desc1854">D4-D7</desc>
      <path
         id="path1914"
         style="fill:#000000;stroke:#000000;stroke-opacity:1"
         d="m 88.5774,3.7208 -0.6429,1.5 m -0.3571,-1.5 h 1 m -2,1.5 H 86.2202 M 86.7917,5.1494 86.5774,5.2208 M 86.9345,5.0065 86.7917,5.1494 M 87.0059,4.8637 86.9345,5.0065 M 87.0774,4.578 87.0059,4.8637 m 0.0715,-0.5 V 4.578 m -0.0715,-0.5 0.0715,0.2857 M 86.9345,3.9351 87.0059,4.078 M 86.7917,3.7923 86.9345,3.9351 M 86.5774,3.7208 86.7917,3.7923 M 86.2202,3.7208 h 0.3572 m -0.3572,1.5 v -1.5 m -1.8571,0.9286 h 1.1428 m -2.6428,0.0714 h 0.9286 M 83.2202,3.6494 82.8631,4.7208 m 0.7143,-0.5 v 1 m -1.7857,0 H 81.4345 M 82.0059,5.1494 81.7917,5.2208 M 82.1488,5.0065 82.0059,5.1494 M 82.2202,4.8637 82.1488,5.0065 M 82.2917,4.578 82.2202,4.8637 m 0.0715,-0.5 V 4.578 m -0.0715,-0.5 0.0715,0.2857 M 82.1488,3.9351 82.2202,4.078 M 82.0059,3.7923 82.1488,3.9351 M 81.7917,3.7208 82.0059,3.7923 M 81.4345,3.7208 h 0.3572 m -0.3572,1.5 v -1.5 M 55.8014,9.9045 H 54.6586 M 56.0871,9.7617 55.8014,9.9045 M 56.23,9.6188 56.0871,9.7617 M 56.3729,9.3331 56.23,9.6188 M 56.3729,8.9045 V 9.3331 M 56.23,8.6188 56.3729,8.9045 M 56.0871,8.476 56.23,8.6188 M 55.8014,8.3331 56.0871,8.476 M 54.6586,8.3331 h 1.1428 m -1.1428,3 v -3 m 1.7143,3 -1,-1.4286 M 51.9443,8.3331 h 1.4286 m -1.4286,3 v -3 m 1.4286,3 h -1.4286 m 0,-1.5714 h 1 m -3.4286,1.5714 v -3 m 1.4286,3 h -1.4286 m -2.4286,0 v -3 m 1.4286,3 H 47.0871 M 44.23,8.476 44.5157,8.3331 M 43.9443,8.7617 44.23,8.476 m -0.4286,0.8571 0.1429,-0.5714 m -0.1429,1.5714 v -1 m 0.1429,1.5714 -0.1429,-0.5714 m 0.4286,0.8571 -0.2857,-0.2857 m 0.5714,0.4286 -0.2857,-0.1429 m 0.8571,0.1429 h -0.5714 m 0.8572,-0.1429 -0.2858,0.1429 m 0.5715,-0.4286 -0.2857,0.2857 m 0.4285,-0.8571 -0.1428,0.5714 m 0.1428,-1.5714 v 1 M 45.6586,8.7617 45.8014,9.3331 M 45.3729,8.476 45.6586,8.7617 M 45.0871,8.3331 45.3729,8.476 M 44.5157,8.3331 h 0.5714 m -3,1.5714 H 40.9443 M 42.3729,9.7617 42.0871,9.9045 M 42.5157,9.6188 42.3729,9.7617 M 42.6586,9.3331 42.5157,9.6188 M 42.6586,8.9045 V 9.3331 M 42.5157,8.6188 42.6586,8.9045 M 42.3729,8.476 42.5157,8.6188 M 42.0871,8.3331 42.3729,8.476 M 40.9443,8.3331 h 1.1428 m -1.1428,3 v -3 m 1.7143,3 -1,-1.4286 m -2.5715,1.4286 v -3 m -0.8571,0 h 1.7143 m -2.7143,3 v -3 m -1.7143,0 1.7143,3 m -1.7143,0 v -3 M 32.6586,8.476 32.9443,8.3331 M 32.3729,8.7617 32.6586,8.476 M 32.23,9.3331 32.3729,8.7617 M 32.23,10.3331 v -1 m 0.1429,1.5714 -0.1429,-0.5714 m 0.4286,0.8571 -0.2857,-0.2857 m 0.5714,0.4286 -0.2857,-0.1429 m 0.8571,0.1429 h -0.5714 m 0.8571,-0.1429 -0.2857,0.1429 m 0.5714,-0.4286 -0.2857,0.2857 M 34.23,10.3331 34.0871,10.9045 M 34.23,9.3331 v 1 M 34.0871,8.7617 34.23,9.3331 M 33.8014,8.476 34.0871,8.7617 M 33.5157,8.3331 33.8014,8.476 M 32.9443,8.3331 h 0.5714 M 30.9443,8.476 31.0871,8.6188 M 30.5157,8.3331 30.9443,8.476 M 30.23,8.3331 h 0.2857 M 29.8014,8.476 30.23,8.3331 M 29.5157,8.7617 29.8014,8.476 M 29.3729,9.0474 29.5157,8.7617 M 29.23,9.6188 29.3729,9.0474 m -0.1429,1 V 9.6188 m 0.1429,1 -0.1429,-0.5714 m 0.2857,0.8571 -0.1428,-0.2857 m 0.4285,0.5714 -0.2857,-0.2857 m 0.7143,0.4286 -0.4286,-0.1429 m 0.7143,0.1429 H 30.23 m 0.7143,-0.1429 -0.4286,0.1429 m 0.5714,-0.2857 -0.1428,0.1428 m -4.5714,0.4286 h 2.2857 m -3.8572,-0.2857 h -0.7143 m 1.1429,-0.1429 -0.4286,0.1429 m 0.7143,-0.4286 -0.2857,0.2857 m 0.4286,-0.5714 -0.1429,0.2857 m 0.2857,-0.8571 -0.1428,0.5714 m 0.1428,-1 v 0.4286 m -0.1428,-1 0.1428,0.5714 M 25.5157,8.7617 25.6586,9.0474 M 25.23,8.476 25.5157,8.7617 M 24.8014,8.3331 25.23,8.476 M 24.0871,8.3331 h 0.7143 m -0.7143,3 v -3 m -2.7142,0 h 1.4285 m -1.4285,3 v -3 m 1.4285,3 h -1.4285 m 0,-1.5714 h 1 m -3.4286,1.5714 v -3 m 1.4286,3 h -1.4286 m 15.5714,-4.83 v -3 m 1.4286,3 h -1.4286 m -2,-3 1,3 m -2,0 1,-3 M 31.8014,5.646 H 33.23 M 30.0871,5.0745 H 28.9443 M 30.3729,4.9317 30.0871,5.0745 M 30.5157,4.7888 30.3729,4.9317 M 30.6586,4.5031 30.5157,4.7888 M 30.6586,4.0745 V 4.5031 M 30.5157,3.7888 30.6586,4.0745 M 30.3729,3.646 30.5157,3.7888 M 30.0871,3.5031 30.3729,3.646 M 28.9443,3.5031 h 1.1428 m -1.1428,3 v -3 m 1.7143,3 -1,-1.4286 M 26.23,3.5031 h 1.4286 m -1.4286,3 v -3 m 1.4286,3 H 26.23 m 0,-1.5714 h 1 m -2.8571,1.5714 v -3 m -0.8572,0 H 25.23 m -3.2857,0 1,3 m -2,0 1,-3 M 21.23,5.646 h 1.4286 m -3.7143,0.8571 v -3 m 1.4286,3 H 18.9443 M 81.3345,48.1494 81.2631,48.078 m 0.2143,0.1428 -0.1429,-0.0714 m 0.5,0.0714 h -0.3571 m 0.5,-0.0714 -0.1429,0.0714 m 0.2143,-0.1428 -0.0714,0.0714 m 0.1428,-0.2143 -0.0714,0.1429 m 0.0714,-0.5 v 0.3571 m -0.0714,-0.5 0.0714,0.1429 m -0.1428,-0.2143 0.0714,0.0714 m -0.2143,-0.1428 0.1429,0.0714 m -0.5,-0.0714 h 0.3571 m -0.5,0.0714 0.1429,-0.0714 m -0.2143,0.1428 0.0714,-0.0714 m 0,-0.6429 -0.0714,0.7143 m 0.7857,-0.7143 h -0.7143 m -1.1428,1.5 h -0.3572 m 0.5714,-0.0714 -0.2142,0.0714 m 0.3571,-0.2143 -0.1429,0.1429 m 0.2143,-0.2857 -0.0714,0.1428 m 0.1429,-0.4285 -0.0715,0.2857 m 0.0715,-0.5 v 0.2143 m -0.0715,-0.5 0.0715,0.2857 m -0.1429,-0.4286 0.0714,0.1429 m -0.2143,-0.2857 0.1429,0.1428 m -0.3571,-0.2143 0.2142,0.0715 m -0.5714,-0.0715 h 0.3572 m -0.3572,1.5 v -1.5 m 1.0533,-4.864633 v -2 m -0.5714,0 h 1.1429 m -1.8096,1.6191 v -1.6191 m -0.0952,1.8096 0.0952,-0.1905 m -0.1904,0.2857 0.0952,-0.0952 m -0.2857,0.1904 0.1905,-0.0952 m -0.5715,0.0952 h 0.381 m -0.5714,-0.0952 0.1904,0.0952 m -0.2857,-0.1904 0.0953,0.0952 m -0.1905,-0.2857 0.0952,0.1905 m -0.0952,-1.8096 v 1.6191 m -1.9048,-1.5238 0.1905,-0.0953 m -0.381,0.2858 0.1905,-0.1905 m -0.2857,0.5714 0.0952,-0.3809 m -0.0952,1.0476 v -0.6667 m 0.0952,1.0476 -0.0952,-0.3809 m 0.2857,0.5714 -0.1905,-0.1905 m 0.381,0.2857 -0.1905,-0.0952 m 0.5714,0.0952 h -0.3809 m 0.5714,-0.0952 -0.1905,0.0952 m 0.381,-0.2857 -0.1905,0.1905 m 0.2857,-0.5714 -0.0952,0.3809 m 0.0952,-1.0476 v 0.6667 m -0.0952,-1.0476 0.0952,0.3809 m -0.2857,-0.5714 0.1905,0.1905 m -0.381,-0.2858 0.1905,0.0953 m -0.5714,-0.0953 h 0.3809 m -3.619,0 0.6667,2 m -1.3334,0 0.6667,-2 m -0.4762,1.4286 h 0.9524 m -2.0953,0.5714 v -2 m -0.5714,0 h 1.1429 m -2.1905,0 0.6667,2 m -1.3334,0 0.6667,-2 m -0.4762,1.4286 h 0.9524 m -2.381,0.5714 h -0.4762 m 0.762,-0.0952 -0.2858,0.0952 m 0.4762,-0.2857 -0.1904,0.1905 m 0.2857,-0.381 -0.0953,0.1905 m 0.1905,-0.5714 -0.0952,0.3809 m 0.0952,-0.6666 v 0.2857 m -0.0952,-0.6667 0.0952,0.381 m -0.1905,-0.5714 0.0953,0.1904 m -0.2857,-0.3809 0.1904,0.1905 m -0.4762,-0.2858 0.2858,0.0953 m -0.762,-0.0953 h 0.4762 m -0.4762,2 v -2 M 11.594058,11.054755 h -0.3095 m 0.4953,-0.0619 -0.1858,0.0619 m 0.3096,-0.1857 -0.1238,0.1238 m 0.1857,-0.247599 -0.0619,0.123799 m 0.1238,-0.371399 -0.0619,0.2476 m 0.0619,-0.4333 v 0.1857 m -0.0619,-0.433301 0.0619,0.247601 m -0.1238,-0.3714007 0.0619,0.1237997 m -0.1857,-0.2476997 0.1238,0.1239 m -0.3096,-0.1858 0.1858,0.0619 m -0.4953,-0.0619 h 0.3095 m -0.3095,1.2999997 V 9.7547553 m -1.1762,0 h 0.6191 m -0.6191,1.2999997 V 9.7547553 m 0.6191,1.2999997 h -0.6191 m 0,-0.680899 h 0.4334 M 9.3036583,11.054755 V 9.7547553 m -0.3715,0 h 0.7429 m -1.1762,0.0619 0.0619,0.062 m -0.2476,-0.1239 0.1857,0.0619 m -0.3095,-0.0619 h 0.1238 m -0.3095,0.0619 0.1857,-0.0619 m -0.3095,0.1858 0.1238,-0.1239 m -0.1858,0.2476997 0.062,-0.1237997 m -0.1239,0.3714007 0.0619,-0.247601 m -0.0619,0.433301 v -0.1857 m 0.0619,0.4333 -0.0619,-0.2476 m 0.1239,0.371399 -0.062,-0.123799 m 0.1858,0.247599 -0.1238,-0.1238 m 0.3095,0.1857 -0.1857,-0.0619 m 0.3095,0.0619 h -0.1238 m 0.3095,-0.0619 -0.1857,0.0619 m 0.2476,-0.1238 -0.0619,0.0619 m -1.8571,-1.2380997 h 0.619 m -0.619,1.2999997 V 9.7547553 m 0.619,1.2999997 h -0.619 m 0,-0.680899 h 0.4333 m -1.0524,0.680899 V 9.7547553 m -0.7428,0 0.7428,1.2999997 m -0.7428,0 V 9.7547553 m -0.6191,1.2999997 V 9.7547553 m -0.7429,0 0.7429,1.2999997 m -0.7429,0 V 9.7547553 m -1.238,0.0619 0.1238,-0.0619 m -0.2477,0.1858 0.1239,-0.1239 m -0.1858,0.3714997 0.0619,-0.2475997 m -0.0619,0.6809007 v -0.433301 m 0.0619,0.6809 -0.0619,-0.247599 m 0.1858,0.371399 -0.1239,-0.1238 m 0.2477,0.1857 -0.1238,-0.0619 m 0.3714,0.0619 h -0.2476 m 0.3714,-0.0619 -0.1238,0.0619 m 0.2476,-0.1857 -0.1238,0.1238 m 0.1857,-0.371399 -0.0619,0.247599 m 0.0619,-0.6809 v 0.433301 m -0.0619,-0.6809007 0.0619,0.2475997 m -0.1857,-0.3714997 0.1238,0.1239 m -0.2476,-0.1858 0.1238,0.0619 m -0.3714,-0.0619 h 0.2476 m -1.1143,0.0619 0.0619,0.062 m -0.2476,-0.1239 0.1857,0.0619 m -0.3095,-0.0619 h 0.1238 m -0.3095,0.0619 0.1857,-0.0619 m -0.3096,0.1858 0.1239,-0.1239 m -0.1858,0.2476997 0.0619,-0.1237997 m -0.1238,0.3714007 0.0619,-0.247601 m -0.0619,0.433301 v -0.1857 m 0.0619,0.4333 -0.0619,-0.2476 m 0.1238,0.371399 -0.0619,-0.123799 m 0.1858,0.247599 -0.1239,-0.1238 m 0.3096,0.1857 -0.1857,-0.0619 m 0.3095,0.0619 h -0.1238 m 0.3095,-0.0619 -0.1857,0.0619 m 0.2476,-0.1238 -0.0619,0.0619 m 8.1809897,-3.9750695 -0.7428993,0.7429 m 0.7428993,0.5571 -0.5571993,-0.7428 m -0.1857,0.7428 v -1.3 m -0.8047,0.681 h -0.4953 m 0.6191,-0.0619 -0.1238,0.0619 m 0.1857,-0.1238 -0.0619,0.0619 m 0.1238,-0.1857 -0.0619,0.1238 m 0.0619,-0.3095 v 0.1857 m -0.0619,-0.3095 0.0619,0.1238 m -0.1238,-0.1858 0.0619,0.062 m -0.1857,-0.1239 0.1238,0.0619 m -0.6191,-0.0619 h 0.4953 m -0.4953,1.3 v -1.3 m 0.7429,1.3 -0.4333,-0.619 m -1.5477001,-0.6191 0.1238,-0.0619 m -0.2476,0.1858 0.1238,-0.1239 m -0.1857,0.3715 0.0619,-0.2476 m -0.0619,0.6809 v -0.4333 m 0.0619,0.6809 -0.0619,-0.2476 m 0.1857,0.3714 -0.1238,-0.1238 m 0.2476,0.1857 -0.1238,-0.0619 m 0.3715,0.0619 h -0.2477 m 0.3715,-0.0619 -0.1238,0.0619 m 0.2476,-0.1857 -0.1238,0.1238 m 0.1857,-0.3714 -0.0619,0.2476 m 0.0619,-0.6809 v 0.4333 m -0.0619,-0.6809 0.0619,0.2476 m -0.1857,-0.3715 0.1238,0.1239 m -0.2476,-0.1858 0.1238,0.0619 m -0.3715,-0.0619 h 0.2477 m -1.3,1.3 0.3095,-1.3 m -0.5572,0.3715 0.2477,0.9285 m -0.4953,0 0.2476,-0.9285 m -0.5571,-0.3715 0.3095,1.3 m -0.9904,0 v -1.3 m -0.3715,0 h 0.7429 m -1.7334,0 h 0.6191 m -0.6191,1.3 v -1.3 m 0.6191,1.3 h -0.6191 m 0,-0.6809 h 0.4334001 m -1.0524,0.6809 v -1.3 m -0.7429001,0 0.7429001,1.3 m -0.7429001,0 v -1.3 M 10.6817,58.157 v -2 m -1.1429,0 1.1429,2 m -1.1429,0 v -2 m -0.9523,2 v -2 m 8.9523,-2.1723 h -0.7619 m 0.9524,-0.0953 -0.1905,0.0953 m 0.2857,-0.1905 -0.0952,0.0952 m 0.1905,-0.2857 -0.0953,0.1905 m 0.0953,-0.4762 v 0.2857 m -0.0953,-0.4762 0.0953,0.1905 m -0.1905,-0.2857 0.0952,0.0952 m -0.2857,-0.1905 0.1905,0.0953 M 16.7769,52.937 h 0.7619 m -0.7619,2 v -2 m 1.1429,2 -0.6667,-0.9523 M 14.9674,52.937 h 0.9524 m -0.9524,2 v -2 m 0.9524,2 h -0.9524 m 0,-1.0476 h 0.6667 m -1.9048,1.0476 0.4762,-2 m -0.8571,0.5715 0.3809,1.4285 m -0.7619,0 0.381,-1.4285 m -0.8572,-0.5715 0.4762,2 m -2.1905,-1.9047 0.1905,-0.0953 m -0.3809,0.2858 0.1904,-0.1905 m -0.2857,0.5714 0.0953,-0.3809 m -0.0953,1.0476 v -0.6667 m 0.0953,1.0476 -0.0953,-0.3809 m 0.2857,0.5714 -0.1904,-0.1905 m 0.3809,0.2857 -0.1905,-0.0952 m 0.5715,0.0952 h -0.381 m 0.5714,-0.0952 -0.1904,0.0952 m 0.3809,-0.2857 -0.1905,0.1905 m 0.2857,-0.5714 -0.0952,0.3809 m 0.0952,-1.0476 v 0.6667 m -0.0952,-1.0476 0.0952,0.3809 m -0.2857,-0.5714 0.1905,0.1905 m -0.3809,-0.2858 0.1904,0.0953 M 10.9674,52.937 h 0.381 m -2,1.0477 H 8.5865 M 9.5388,53.8894 9.3484,53.9847 M 9.6341,53.7942 9.5388,53.8894 M 9.7293,53.6037 9.6341,53.7942 M 9.7293,53.318 v 0.2857 M 9.6341,53.1275 9.7293,53.318 M 9.5388,53.0323 9.6341,53.1275 M 9.3484,52.937 9.5388,53.0323 M 8.5865,52.937 h 0.7619 m -0.7619,2 v -2 m 76.748,-5.5019 -0.0714,0.1429 m 0.1428,-0.2143 -0.0714,0.0714 m 0.2143,-0.1428 -0.1429,0.0714 m 0.4286,-0.0714 h -0.2857 m 0.4286,0.0714 -0.1429,-0.0714 m 0.2143,0.1428 -0.0714,-0.0714 m 0.1428,0.2143 -0.0714,-0.1429 m 0.0714,0.5 V 47.578 m -0.0714,0.5 0.0714,-0.1429 m -0.1428,0.2143 0.0714,-0.0714 m -0.2143,0.1428 0.1429,-0.0714 m -0.4286,0.0714 h 0.2857 m -0.4286,-0.0714 0.1429,0.0714 m -0.2143,-0.1428 0.0714,0.0714 m -0.1428,-0.2143 0.0714,0.1429 m -0.0714,-0.7143 v 0.5714 m 0.0714,-0.8571 -0.0714,0.2857 m 0.2143,-0.5 -0.1429,0.2143 m 0.2143,-0.2857 -0.0714,0.0714 m 0.2143,-0.1429 -0.1429,0.0715 m 0.4286,-0.0715 h -0.2857 m -1.5,1.5 h -0.3572 m 0.5714,-0.0714 -0.2142,0.0714 m 0.3571,-0.2143 -0.1429,0.1429 m 0.2143,-0.2857 -0.0714,0.1428 m 0.1429,-0.4285 -0.0715,0.2857 m 0.0715,-0.5 v 0.2143 m -0.0715,-0.5 0.0715,0.2857 m -0.1429,-0.4286 0.0714,0.1429 m -0.2143,-0.2857 0.1429,0.1428 m -0.3571,-0.2143 0.2142,0.0715 m -0.5714,-0.0715 h 0.3572 m -0.3572,1.5 v -1.5 m -17.4428,1.5 h 0.9285 m -0.0714,-0.8571 -0.8571,0.8571 m 0.9285,-1.0714 -0.0714,0.2143 m 0.0714,-0.3572 v 0.1429 m -0.0714,-0.2857 0.0714,0.1428 m -0.1428,-0.2142 0.0714,0.0714 m -0.2143,-0.1429 0.1429,0.0715 m -0.5,-0.0715 h 0.3571 m -0.5,0.0715 0.1429,-0.0715 m -0.2143,0.1429 0.0714,-0.0714 m -1.1428,1.4285 h -0.3572 m 0.5714,-0.0714 -0.2142,0.0714 m 0.3571,-0.2143 -0.1429,0.1429 m 0.2143,-0.2857 -0.0714,0.1428 m 0.1429,-0.4285 -0.0715,0.2857 m 0.0715,-0.5 v 0.2143 m -0.0715,-0.5 0.0715,0.2857 m -0.1429,-0.4286 0.0714,0.1429 m -0.2143,-0.2857 0.1429,0.1428 m -0.3571,-0.2143 0.2142,0.0715 m -0.5714,-0.0715 h 0.3572 m -0.3572,1.5 v -1.5 m 25.1572,0 -0.6429,1.5 m -0.3571,-1.5 h 1 m -2,1.5 h -0.3572 m 0.5714,-0.0714 -0.2142,0.0714 m 0.3571,-0.2143 -0.1429,0.1429 m 0.2143,-0.2857 -0.0714,0.1428 m 0.1429,-0.4285 -0.0715,0.2857 m 0.0715,-0.5 v 0.2143 m -0.0715,-0.5 0.0715,0.2857 m -0.1429,-0.4286 0.0714,0.1429 m -0.2143,-0.2857 0.1429,0.1428 m -0.3571,-0.2143 0.2142,0.0715 m -0.5714,-0.0715 h 0.3572 m -0.3572,1.5 v -1.5 M 35.6817,58.157 v -2 m -1.1429,0 1.1429,2 m -1.1429,0 v -2 m -0.9523,2 v -2 m 13.4285,-1.22 v -2 m -0.5714,0 h 1.1429 m -2.6667,0 h 0.9524 m -0.9524,2 v -2 m 0.9524,2 h -0.9524 m 0,-1.0476 h 0.6667 m -1.6191,1.0476 v -2 m -1.1429,0 1.1429,2 m -1.1429,0 v -2 m -1.238,1.0477 h -0.762 m 0.9524,-0.0953 -0.1904,0.0953 m 0.2857,-0.1905 -0.0953,0.0952 m 0.1905,-0.2857 -0.0952,0.1905 m 0.0952,-0.4762 v 0.2857 m -0.0952,-0.4762 0.0952,0.1905 m -0.1905,-0.2857 0.0953,0.0952 m -0.2857,-0.1905 0.1904,0.0953 M 40.8245,52.937 h 0.762 m -0.762,2 v -2 m 1.1429,2 -0.6667,-0.9523 M 39.015,52.937 h 0.9524 m -0.9524,2 v -2 m 0.9524,2 H 39.015 m 0,-1.0476 h 0.6667 m -1.6191,1.0476 v -2 m -1.1428,0.9524 h 1.1428 m -1.1428,1.0476 v -2 m -1.2381,2 v -2 m -0.5714,0 h 1.1428 m -2.6666,0 h 0.9523 m -0.9523,2 v -2 m 0.9523,2 h -0.9523 m 0,-1.0476 h 0.6666 m 43.01,-6.1686 h 0.9286 m -0.5715,-1.0714 -0.3571,1.0714 m 0.7143,-0.5 v 1 m -1.7857,0 h -0.3572 m 0.5714,-0.0714 -0.2142,0.0714 m 0.3571,-0.2143 -0.1429,0.1429 m 0.2143,-0.2857 -0.0714,0.1428 m 0.1429,-0.4285 -0.0715,0.2857 m 0.0715,-0.5 v 0.2143 m -0.0715,-0.5 0.0715,0.2857 m -0.1429,-0.4286 0.0714,0.1429 m -0.2143,-0.2857 0.1429,0.1428 m -0.3571,-0.2143 0.2142,0.0715 m -0.5714,-0.0715 h 0.3572 m -0.3572,1.5 v -1.5 m -17.1571,0.0715 0.1428,-0.0715 m -0.2143,0.1429 0.0715,-0.0714 m -0.1429,0.2142 0.0714,-0.1428 m -0.1428,0.4286 0.0714,-0.2858 m -0.0714,0.6429 v -0.3571 m 0.0714,0.6428 -0.0714,-0.2857 m 0.1428,0.4286 -0.0714,-0.1429 m 0.1429,0.2143 -0.0715,-0.0714 m 0.2143,0.1428 -0.1428,-0.0714 m 0.2857,0.0714 h -0.1429 m 0.2857,-0.0714 -0.1428,0.0714 m 0.2143,-0.1428 -0.0715,0.0714 m 0.1429,-0.2143 -0.0714,0.1429 m 0.1428,-0.4286 -0.0714,0.2857 m 0.0714,-0.6428 v 0.3571 m -0.0714,-0.6429 0.0714,0.2858 m -0.1428,-0.4286 0.0714,0.1428 m -0.1429,-0.2142 0.0715,0.0714 m -0.2143,-0.1429 0.1428,0.0715 m -0.2857,-0.0715 h 0.1429 m -1.5714,1.5 h -0.3572 m 0.5714,-0.0714 -0.2142,0.0714 m 0.3571,-0.2143 -0.1429,0.1429 m 0.2143,-0.2857 -0.0714,0.1428 m 0.1429,-0.4285 -0.0715,0.2857 m 0.0715,-0.5 v 0.2143 m -0.0715,-0.5 0.0715,0.2857 m -0.1429,-0.4286 0.0714,0.1429 m -0.2143,-0.2857 0.1429,0.1428 m -0.3571,-0.2143 0.2142,0.0715 m -0.5714,-0.0715 h 0.3572 m -0.3572,1.5 v -1.5 M 6.3841,21.2515 v -1.3 m -0.3714,0 h 0.7429 m -1.7334,0 h 0.6191 m -0.6191,1.3 v -1.3 m 0.6191,1.3 H 5.0222 m 0,-0.6809 H 5.4556 M 4.2794,19.9515 4.4651,20.0134 M 3.9698,19.9515 H 4.2794 M 3.846,20.0134 3.9698,19.9515 M 3.7841,20.0754 3.846,20.0134 M 3.7222,20.1992 3.7841,20.0754 M 3.7222,20.323 V 20.1992 M 3.7841,20.4468 3.7222,20.323 M 3.846,20.5087 3.7841,20.4468 M 3.9698,20.5706 3.846,20.5087 m 0.3715,0.1238 -0.2477,-0.0619 m 0.3715,0.1238 -0.1238,-0.0619 m 0.1857,0.1238 -0.0619,-0.0619 m 0.1238,0.1857 -0.0619,-0.1238 m 0.0619,0.2476 v -0.1238 m -0.0619,0.2476 0.0619,-0.1238 m -0.1238,0.1857 0.0619,-0.0619 m -0.1857,0.1238 0.1238,-0.0619 m -0.4334,0.0619 h 0.3096 m -0.4953,-0.0619 0.1857,0.0619 m -1.3,-1.3 H 3.227 m -0.6191,1.3 v -1.3 m 0.6191,1.3 H 2.6079 m 0,-0.6809 H 3.0413 M 1.8032,20.6325 H 1.3079 M 1.927,20.5706 1.8032,20.6325 M 1.9889,20.5087 1.927,20.5706 m 0.1238,-0.1857 -0.0619,0.1238 m 0.0619,-0.3095 v 0.1857 M 1.9889,20.0754 2.0508,20.1992 M 1.927,20.0134 1.9889,20.0754 M 1.8032,19.9515 1.927,20.0134 M 1.3079,19.9515 h 0.4953 m -0.4953,1.3 v -1.3 m 0.7429,1.3 -0.4333,-0.619 m 11.1428,-2.093 h -0.4952 m 0.619,-0.0619 -0.1238,0.0619 m 0.1857,-0.1238 -0.0619,0.0619 m 0.1238,-0.1857 -0.0619,0.1238 m 0.0619,-0.3095 v 0.1857 m -0.0619,-0.3095 0.0619,0.1238 m -0.1238,-0.1858 0.0619,0.062 m -0.1857,-0.1239 0.1238,0.0619 m -0.619,-0.0619 h 0.4952 m -0.4952,1.3 v -1.3 m 0.7428,1.3 -0.4333,-0.619 m -1.4857,-0.681 h 0.619 m -0.619,1.3 v -1.3 m 0.619,1.3 h -0.619 m 0,-0.6809 h 0.4333 m -1.4857,0.6809 v -1.3 m 0.6191,1.3 h -0.6191 m -1.0524,0 v -1.3 m 0.6191,1.3 H 8.9841 M 7.746,17.9204 7.8698,17.8585 M 7.6222,18.0443 7.746,17.9204 M 7.5603,18.2919 7.6222,18.0443 M 7.5603,18.7252 V 18.2919 M 7.6222,18.9728 7.5603,18.7252 M 7.746,19.0966 7.6222,18.9728 M 7.8698,19.1585 7.746,19.0966 m 0.3715,0.0619 H 7.8698 M 8.2413,19.0966 8.1175,19.1585 M 8.3651,18.9728 8.2413,19.0966 M 8.427,18.7252 8.3651,18.9728 M 8.427,18.2919 v 0.4333 M 8.3651,18.0443 8.427,18.2919 M 8.2413,17.9204 8.3651,18.0443 M 8.1175,17.8585 8.2413,17.9204 M 7.8698,17.8585 h 0.2477 m -1.3,0.681 H 6.3222 m 0.6191,-0.0619 -0.1238,0.0619 m 0.1857,-0.1238 -0.0619,0.0619 m 0.1238,-0.1857 -0.0619,0.1238 m 0.0619,-0.3095 v 0.1857 m -0.0619,-0.3095 0.0619,0.1238 m -0.1238,-0.1858 0.0619,0.062 M 6.8175,17.8585 6.9413,17.9204 M 6.3222,17.8585 h 0.4953 m -0.4953,1.3 v -1.3 m 0.7429,1.3 -0.4333,-0.619 m -1.1143,0.619 v -1.3 m -0.3715,0 h 0.7429 m -1.1762,1.3 v -1.3 m -0.7429,0 0.7429,1.3 m -0.7429,0 v -1.3 m -1.238,0.0619 0.1238,-0.0619 M 2.6079,18.0443 2.7318,17.9204 M 2.546,18.2919 2.6079,18.0443 M 2.546,18.7252 V 18.2919 M 2.6079,18.9728 2.546,18.7252 m 0.1858,0.3714 -0.1239,-0.1238 m 0.2477,0.1857 -0.1238,-0.0619 m 0.3714,0.0619 H 2.8556 M 3.227,19.0966 3.1032,19.1585 M 3.3508,18.9728 3.227,19.0966 m 0.1857,-0.3714 -0.0619,0.2476 m 0.0619,-0.6809 v 0.4333 M 3.3508,18.0443 3.4127,18.2919 M 3.227,17.9204 3.3508,18.0443 M 3.1032,17.8585 3.227,17.9204 M 2.8556,17.8585 h 0.2476 m -1.1143,0.0619 0.0619,0.062 M 1.8032,17.8585 1.9889,17.9204 M 1.6794,17.8585 H 1.8032 M 1.4937,17.9204 1.6794,17.8585 M 1.3698,18.0443 1.4937,17.9204 M 1.3079,18.1681 1.3698,18.0443 M 1.246,18.4157 1.3079,18.1681 M 1.246,18.6014 V 18.4157 M 1.3079,18.849 1.246,18.6014 M 1.3698,18.9728 1.3079,18.849 m 0.1858,0.2476 -0.1239,-0.1238 m 0.3096,0.1857 -0.1857,-0.0619 m 0.3095,0.0619 H 1.6794 M 1.9889,19.0966 1.8032,19.1585 M 2.0508,19.0347 1.9889,19.0966 M 70.4631,48.1494 70.3917,48.078 m 0.2142,0.1428 -0.1428,-0.0714 m 0.5714,0.0714 h -0.4286 m 0.5715,-0.0714 -0.1429,0.0714 m 0.2143,-0.1428 -0.0714,0.0714 m 0.1428,-0.2143 -0.0714,0.1429 m 0.0714,-0.5 v 0.3571 m -0.0714,-0.5 0.0714,0.1429 m -0.1428,-0.2143 0.0714,0.0714 m -0.2143,-0.1428 0.1429,0.0714 m -0.3572,-0.0714 h 0.2143 m 0.2857,-0.5715 -0.5,0.5715 m -0.4285,-0.5715 h 0.9285 m -1.9285,1.5 h -0.3572 m 0.5714,-0.0714 -0.2142,0.0714 m 0.3571,-0.2143 -0.1429,0.1429 m 0.2143,-0.2857 -0.0714,0.1428 m 0.1429,-0.4285 -0.0715,0.2857 m 0.0715,-0.5 v 0.2143 m -0.0715,-0.5 0.0715,0.2857 m -0.1429,-0.4286 0.0714,0.1429 m -0.2143,-0.2857 0.1429,0.1428 m -0.3571,-0.2143 0.2142,0.0715 m -0.5714,-0.0715 h 0.3572 m -0.3572,1.5 v -1.5 M 1.7665,33.6798 v 0.5714 M 1.6951,33.5369 1.7665,33.6798 M 1.6237,33.4655 1.6951,33.5369 M 1.4808,33.3941 1.6237,33.4655 M 1.2665,33.3941 h 0.2143 m -0.3571,0.0714 0.1428,-0.0714 m -0.2142,0.1428 0.0714,-0.0714 m -0.1429,0.2143 0.0715,-0.1429 m -0.0715,0.7143 v -0.5714 m 1.5,0.5714 h -1.5 m 1.5,-0.8571 -0.7143,0.5 m -0.7857,1.7142 v -0.7142 m 1.5,0.7142 h -1.5 m 1.5,-0.7142 v 0.7142 m -0.7857,0 v -0.5 m 0.7857,1.6429 v 0.3571 M 2.4094,36.5369 2.4808,36.7512 M 2.2665,36.3941 2.4094,36.5369 M 2.1237,36.3226 2.2665,36.3941 M 1.838,36.2512 2.1237,36.3226 m -0.5,-0.0714 H 1.838 m -0.5,0.0714 0.2857,-0.0714 M 1.1951,36.3941 1.338,36.3226 m -0.2857,0.2143 0.1428,-0.1428 m -0.2143,0.3571 0.0715,-0.2143 m -0.0715,0.5714 v -0.3571 m 1.5,0.3571 h -1.5 m 0,1 1.5,-0.5 m 0,1 -1.5,-0.5 m 1.0715,0.3572 v -0.7143 m -1,2.0714 -0.0715,-0.1428 m 0.2143,0.2857 -0.1428,-0.1429 m 0.4285,0.2143 -0.2857,-0.0714 m 0.7857,0.0714 h -0.5 m 0.7857,-0.0714 -0.2857,0.0714 m 0.4286,-0.2143 -0.1429,0.1429 m 0.2143,-0.2857 -0.0714,0.1428 m 0.0714,-0.4285 v 0.2857 M 2.4094,39.2512 2.4808,39.3941 M 2.2665,39.1083 2.4094,39.2512 M 1.9808,39.0369 2.2665,39.1083 M 1.4808,39.0369 h 0.5 m -0.7857,0.0714 0.2857,-0.0714 m -0.4285,0.2143 0.1428,-0.1429 m -0.2143,0.2858 0.0715,-0.1429 m -0.0715,0.4286 v -0.2857 m 1.5,1.7857 h -1.5 m 1.5,-0.7143 v 0.7143 m 0,0.9285 h -1.5 m 0,0.4286 v -0.8571 m 0.0715,2.0714 -0.0715,-0.1429 m 0.2143,0.2858 -0.1428,-0.1429 m 0.4285,0.2143 -0.2857,-0.0714 m 0.7857,0.0714 h -0.5 m 0.7857,-0.0714 -0.2857,0.0714 m 0.4286,-0.2143 -0.1429,0.1429 m 0.2143,-0.2858 -0.0714,0.1429 m 0.0714,-0.4286 v 0.2857 M 2.4094,43.1798 2.4808,43.3226 M 2.2665,43.0369 2.4094,43.1798 M 1.9808,42.9655 2.2665,43.0369 M 1.4808,42.9655 h 0.5 m -0.7857,0.0714 0.2857,-0.0714 m -0.4285,0.2143 0.1428,-0.1429 m -0.2143,0.2857 0.0715,-0.1428 m -0.0715,0.4285 v -0.2857 m 0.0715,2 -0.0715,-0.1428 m 0.2143,0.2857 -0.1428,-0.1429 m 0.4285,0.2143 -0.2857,-0.0714 m 0.7857,0.0714 h -0.5 m 0.7857,-0.0714 -0.2857,0.0714 m 0.4286,-0.2143 -0.1429,0.1429 m 0.2143,-0.2857 -0.0714,0.1428 m 0.0714,-0.4285 v 0.2857 M 2.4094,44.7512 2.4808,44.8941 M 2.2665,44.6083 2.4094,44.7512 M 1.9808,44.5369 2.2665,44.6083 M 1.4808,44.5369 h 0.5 m -0.7857,0.0714 0.2857,-0.0714 m -0.4285,0.2143 0.1428,-0.1429 m -0.2143,0.2858 0.0715,-0.1429 m -0.0715,0.4286 v -0.2857 m 0.7143,1.5714 v 0.5 M 1.6237,46.3226 1.6951,46.4655 M 1.5523,46.2512 1.6237,46.3226 M 1.4094,46.1798 1.5523,46.2512 M 1.2665,46.1798 h 0.1429 m -0.2857,0.0714 0.1428,-0.0714 m -0.2142,0.1428 0.0714,-0.0714 m -0.1429,0.2143 0.0715,-0.1429 m -0.0715,0.6429 v -0.5 m 1.5,0.5 h -1.5 m 1.5,-0.5714 v 0.5714 M 2.4094,46.2512 2.4808,46.3941 M 2.338,46.1798 2.4094,46.2512 M 2.1951,46.1083 2.338,46.1798 M 1.9808,46.1083 H 2.1951 M 1.838,46.1798 1.9808,46.1083 M 1.7665,46.2512 1.838,46.1798 m -0.1429,0.2857 0.0714,-0.2143 m 60.8394,0.8268 -0.1428,0.0714 m 0.2857,-0.2143 -0.1429,0.1429 m 0.2858,-0.3572 -0.1429,0.2143 m 0.1429,1.2857 v -1.5 m 0.4285,1.5 h -0.8571 m -1.0714,0 h -0.3572 m 0.5714,-0.0714 -0.2142,0.0714 m 0.3571,-0.2143 -0.1429,0.1429 m 0.2143,-0.2857 -0.0714,0.1428 m 0.1429,-0.4285 -0.0715,0.2857 m 0.0715,-0.5 v 0.2143 m -0.0715,-0.5 0.0715,0.2857 m -0.1429,-0.4286 0.0714,0.1429 m -0.2143,-0.2857 0.1429,0.1428 m -0.3571,-0.2143 0.2142,0.0715 m -0.5714,-0.0715 h 0.3572 m -0.3572,1.5 v -1.5 M 67.6488,5.1494 67.5774,5.078 m 0.2143,0.1428 -0.1429,-0.0714 m 0.5714,0.0714 H 67.7917 M 68.3631,5.1494 68.2202,5.2208 M 68.4345,5.078 68.3631,5.1494 M 68.5059,4.9351 68.4345,5.078 m 0.0714,-0.5 v 0.3571 m -0.0714,-0.5 0.0714,0.1429 M 68.3631,4.3637 68.4345,4.4351 M 68.2202,4.2923 68.3631,4.3637 M 68.0059,4.2923 h 0.2143 m 0.2857,-0.5715 -0.5,0.5715 M 67.5774,3.7208 h 0.9285 m -1.9285,1.5 H 66.2202 M 66.7917,5.1494 66.5774,5.2208 M 66.9345,5.0065 66.7917,5.1494 M 67.0059,4.8637 66.9345,5.0065 M 67.0774,4.578 67.0059,4.8637 m 0.0715,-0.5 V 4.578 m -0.0715,-0.5 0.0715,0.2857 M 66.9345,3.9351 67.0059,4.078 M 66.7917,3.7923 66.9345,3.9351 M 66.5774,3.7208 66.7917,3.7923 M 66.2202,3.7208 h 0.3572 m -0.3572,1.5 v -1.5 m -1.8571,0.9286 h 1.1428 M 63.0774,3.7923 63.2202,3.7208 M 63.0059,3.8637 63.0774,3.7923 M 62.9345,4.0065 63.0059,3.8637 M 62.8631,4.2923 62.9345,4.0065 M 62.8631,4.6494 V 4.2923 M 62.9345,4.9351 62.8631,4.6494 M 63.0059,5.078 62.9345,4.9351 M 63.0774,5.1494 63.0059,5.078 m 0.2143,0.1428 -0.1428,-0.0714 m 0.2857,0.0714 H 63.2202 M 63.5059,5.1494 63.3631,5.2208 M 63.5774,5.078 63.5059,5.1494 M 63.6488,4.9351 63.5774,5.078 M 63.7202,4.6494 63.6488,4.9351 M 63.7202,4.2923 V 4.6494 M 63.6488,4.0065 63.7202,4.2923 M 63.5774,3.8637 63.6488,4.0065 M 63.5059,3.7923 63.5774,3.8637 M 63.3631,3.7208 63.5059,3.7923 M 63.2202,3.7208 h 0.1429 m -1.5714,1.5 H 61.4345 M 62.0059,5.1494 61.7917,5.2208 M 62.1488,5.0065 62.0059,5.1494 M 62.2202,4.8637 62.1488,5.0065 M 62.2917,4.578 62.2202,4.8637 m 0.0715,-0.5 V 4.578 m -0.0715,-0.5 0.0715,0.2857 M 62.1488,3.9351 62.2202,4.078 M 62.0059,3.7923 62.1488,3.9351 M 61.7917,3.7208 62.0059,3.7923 M 61.4345,3.7208 h 0.3572 m -0.3572,1.5 v -1.5" />
    </g>
    <g
       id="g1918"
       style="fill:#000000;stroke:#000000;stroke-opacity:1" />
    <g
       id="g1920"
       style="fill:#000000;stroke:#000000;stroke-opacity:1" />
    <g
       id="g1922"
       style="fill:#000000;stroke:#000000;stroke-opacity:1" />
  </g>
  <metadata
     id="metadata3502">
    <rdf:RDF>
      <cc:Work
         rdf:about="">
        <dc:title>SVG Image created as ethernet_led_controller_panel-F_Silkscreen.svg date 2024/08/07 11:52:26 </dc:title>
      </cc:Work>
    </rdf:RDF>
  </metadata>
</svg>
