%TF.GenerationSoftware,KiCad,Pcbnew,7.0.9*%
%TF.CreationDate,2024-01-22T18:23:32+13:00*%
%TF.ProjectId,rj45_breakout,726a3435-5f62-4726-9561-6b6f75742e6b,rev?*%
%TF.SameCoordinates,Original*%
%TF.FileFunction,Copper,L2,Bot*%
%TF.FilePolarity,Positive*%
%FSLAX46Y46*%
G04 Gerber Fmt 4.6, Leading zero omitted, Abs format (unit mm)*
G04 Created by KiCad (PCBNEW 7.0.9) date 2024-01-22 18:23:32*
%MOMM*%
%LPD*%
G01*
G04 APERTURE LIST*
%TA.AperFunction,ComponentPad*%
%ADD10R,1.500000X1.500000*%
%TD*%
%TA.AperFunction,ComponentPad*%
%ADD11C,1.500000*%
%TD*%
%TA.AperFunction,ComponentPad*%
%ADD12R,2.000000X2.000000*%
%TD*%
%TA.AperFunction,ComponentPad*%
%ADD13O,2.000000X2.000000*%
%TD*%
%TA.AperFunction,ComponentPad*%
%ADD14C,2.000000*%
%TD*%
G04 APERTURE END LIST*
D10*
%TO.P,J1,1*%
%TO.N,Net-(J2-Pin_1)*%
X53350000Y-37000000D03*
D11*
%TO.P,J1,2*%
%TO.N,GND*%
X52080000Y-39540000D03*
%TO.P,J1,3*%
%TO.N,Net-(J2-Pin_2)*%
X50810000Y-37000000D03*
%TO.P,J1,4*%
%TO.N,GND*%
X49540000Y-39540000D03*
%TO.P,J1,5*%
%TO.N,Net-(J2-Pin_3)*%
X48270000Y-37000000D03*
%TO.P,J1,6*%
%TO.N,GND*%
X47000000Y-39540000D03*
%TO.P,J1,7*%
%TO.N,Net-(J2-Pin_4)*%
X45730000Y-37000000D03*
%TO.P,J1,8*%
%TO.N,GND*%
X44460000Y-39540000D03*
%TD*%
D12*
%TO.P,J2,1,Pin_1*%
%TO.N,Net-(J2-Pin_1)*%
X43110000Y-44996200D03*
D13*
X43110000Y-50000000D03*
D14*
%TO.P,J2,2,Pin_2*%
%TO.N,Net-(J2-Pin_2)*%
X46920000Y-44996200D03*
X46920000Y-50000000D03*
%TO.P,J2,3,Pin_3*%
%TO.N,Net-(J2-Pin_3)*%
X50730000Y-44996200D03*
X50730000Y-50000000D03*
%TO.P,J2,4,Pin_4*%
%TO.N,Net-(J2-Pin_4)*%
X54540000Y-44996200D03*
X54540000Y-50000000D03*
%TD*%
%TA.AperFunction,Conductor*%
%TO.N,GND*%
G36*
X55526639Y-27000575D02*
G01*
X55595627Y-27003963D01*
X55677887Y-27008005D01*
X55871702Y-27018162D01*
X55877515Y-27018744D01*
X56047193Y-27043915D01*
X56222666Y-27071707D01*
X56228009Y-27072798D01*
X56397710Y-27115307D01*
X56566356Y-27160495D01*
X56571168Y-27161997D01*
X56737366Y-27221465D01*
X56780895Y-27238175D01*
X56899265Y-27283614D01*
X56903556Y-27285449D01*
X57063925Y-27361299D01*
X57217979Y-27439793D01*
X57221670Y-27441837D01*
X57374402Y-27533382D01*
X57519195Y-27627411D01*
X57522329Y-27629587D01*
X57665751Y-27735957D01*
X57799868Y-27844563D01*
X57802470Y-27846793D01*
X57933906Y-27965920D01*
X57936098Y-27968008D01*
X58057096Y-28089006D01*
X58059189Y-28091204D01*
X58109200Y-28146382D01*
X58178349Y-28222677D01*
X58180594Y-28225296D01*
X58289094Y-28359282D01*
X58395581Y-28502864D01*
X58397770Y-28506016D01*
X58483888Y-28638625D01*
X58491605Y-28650509D01*
X58583362Y-28803598D01*
X58585403Y-28807286D01*
X58663639Y-28960832D01*
X58739742Y-29121739D01*
X58741577Y-29126030D01*
X58803417Y-29287128D01*
X58863173Y-29454138D01*
X58864685Y-29458980D01*
X58909518Y-29626293D01*
X58952361Y-29797338D01*
X58953456Y-29802705D01*
X58980861Y-29975734D01*
X58998658Y-30095703D01*
X59000000Y-30113898D01*
X59000000Y-53597739D01*
X58998658Y-53615934D01*
X58979861Y-53742652D01*
X58949694Y-53933114D01*
X58948599Y-53938482D01*
X58904909Y-54112904D01*
X58856376Y-54294025D01*
X58854864Y-54298867D01*
X58793445Y-54470523D01*
X58727018Y-54643571D01*
X58725183Y-54647862D01*
X58646603Y-54814007D01*
X58562936Y-54978211D01*
X58560872Y-54981939D01*
X58465885Y-55140415D01*
X58365835Y-55294476D01*
X58363636Y-55297642D01*
X58253152Y-55446613D01*
X58137731Y-55589147D01*
X58135486Y-55591767D01*
X58011589Y-55728465D01*
X58009490Y-55730669D01*
X57880958Y-55859201D01*
X57878753Y-55861300D01*
X57741923Y-55985314D01*
X57739304Y-55987558D01*
X57597094Y-56102720D01*
X57447654Y-56213548D01*
X57444489Y-56215746D01*
X57291221Y-56315282D01*
X57131811Y-56410825D01*
X57128085Y-56412888D01*
X56965303Y-56495832D01*
X56797636Y-56575130D01*
X56793346Y-56576965D01*
X56622578Y-56642517D01*
X56448550Y-56704782D01*
X56443710Y-56706294D01*
X56266315Y-56753830D01*
X56088093Y-56798470D01*
X56082725Y-56799565D01*
X55899163Y-56828639D01*
X55719999Y-56855214D01*
X55714144Y-56855800D01*
X55516207Y-56866175D01*
X55350795Y-56874299D01*
X55347752Y-56874374D01*
X42676406Y-56874374D01*
X42673362Y-56874299D01*
X42519197Y-56866724D01*
X42374576Y-56859154D01*
X42310826Y-56855817D01*
X42304974Y-56855231D01*
X42127008Y-56828831D01*
X41942322Y-56799579D01*
X41936954Y-56798483D01*
X41759036Y-56753917D01*
X41581403Y-56706319D01*
X41576561Y-56704807D01*
X41576491Y-56704782D01*
X41518837Y-56684152D01*
X41402411Y-56642493D01*
X41231846Y-56577018D01*
X41227570Y-56575189D01*
X41059512Y-56495703D01*
X40897204Y-56413002D01*
X40893476Y-56410938D01*
X40733499Y-56315049D01*
X40580900Y-56215950D01*
X40577741Y-56213756D01*
X40427579Y-56102388D01*
X40286187Y-55987890D01*
X40283568Y-55985646D01*
X40145941Y-55860907D01*
X40143737Y-55858808D01*
X40016061Y-55731132D01*
X40013980Y-55728947D01*
X39889244Y-55591321D01*
X39887012Y-55588716D01*
X39772503Y-55447311D01*
X39661131Y-55297142D01*
X39658943Y-55293993D01*
X39559831Y-55141372D01*
X39463941Y-54981388D01*
X39461895Y-54977692D01*
X39379196Y-54815387D01*
X39299688Y-54647280D01*
X39297874Y-54643040D01*
X39232403Y-54472479D01*
X39220668Y-54439683D01*
X39170075Y-54298284D01*
X39168570Y-54293464D01*
X39120970Y-54115817D01*
X39076408Y-53937917D01*
X39075321Y-53932588D01*
X39046059Y-53747836D01*
X39019660Y-53569865D01*
X39019079Y-53564059D01*
X39008417Y-53360642D01*
X39003737Y-53265375D01*
X39000575Y-53200982D01*
X39000500Y-53197940D01*
X39000500Y-50000005D01*
X41604357Y-50000005D01*
X41624890Y-50247812D01*
X41624892Y-50247824D01*
X41685936Y-50488881D01*
X41785826Y-50716606D01*
X41921833Y-50924782D01*
X41921836Y-50924785D01*
X42090256Y-51107738D01*
X42286491Y-51260474D01*
X42505190Y-51378828D01*
X42740386Y-51459571D01*
X42985665Y-51500500D01*
X43234335Y-51500500D01*
X43479614Y-51459571D01*
X43714810Y-51378828D01*
X43933509Y-51260474D01*
X44129744Y-51107738D01*
X44298164Y-50924785D01*
X44434173Y-50716607D01*
X44534063Y-50488881D01*
X44595108Y-50247821D01*
X44615643Y-50000005D01*
X45414357Y-50000005D01*
X45434890Y-50247812D01*
X45434892Y-50247824D01*
X45495936Y-50488881D01*
X45595826Y-50716606D01*
X45731833Y-50924782D01*
X45731836Y-50924785D01*
X45900256Y-51107738D01*
X46096491Y-51260474D01*
X46315190Y-51378828D01*
X46550386Y-51459571D01*
X46795665Y-51500500D01*
X47044335Y-51500500D01*
X47289614Y-51459571D01*
X47524810Y-51378828D01*
X47743509Y-51260474D01*
X47939744Y-51107738D01*
X48108164Y-50924785D01*
X48244173Y-50716607D01*
X48344063Y-50488881D01*
X48405108Y-50247821D01*
X48425643Y-50000005D01*
X49224357Y-50000005D01*
X49244890Y-50247812D01*
X49244892Y-50247824D01*
X49305936Y-50488881D01*
X49405826Y-50716606D01*
X49541833Y-50924782D01*
X49541836Y-50924785D01*
X49710256Y-51107738D01*
X49906491Y-51260474D01*
X50125190Y-51378828D01*
X50360386Y-51459571D01*
X50605665Y-51500500D01*
X50854335Y-51500500D01*
X51099614Y-51459571D01*
X51334810Y-51378828D01*
X51553509Y-51260474D01*
X51749744Y-51107738D01*
X51918164Y-50924785D01*
X52054173Y-50716607D01*
X52154063Y-50488881D01*
X52215108Y-50247821D01*
X52235643Y-50000005D01*
X53034357Y-50000005D01*
X53054890Y-50247812D01*
X53054892Y-50247824D01*
X53115936Y-50488881D01*
X53215826Y-50716606D01*
X53351833Y-50924782D01*
X53351836Y-50924785D01*
X53520256Y-51107738D01*
X53716491Y-51260474D01*
X53935190Y-51378828D01*
X54170386Y-51459571D01*
X54415665Y-51500500D01*
X54664335Y-51500500D01*
X54909614Y-51459571D01*
X55144810Y-51378828D01*
X55363509Y-51260474D01*
X55559744Y-51107738D01*
X55728164Y-50924785D01*
X55864173Y-50716607D01*
X55964063Y-50488881D01*
X56025108Y-50247821D01*
X56045643Y-50000000D01*
X56025108Y-49752179D01*
X55964063Y-49511119D01*
X55864173Y-49283393D01*
X55728166Y-49075217D01*
X55706557Y-49051744D01*
X55559744Y-48892262D01*
X55363509Y-48739526D01*
X55363507Y-48739525D01*
X55363506Y-48739524D01*
X55144811Y-48621172D01*
X55144802Y-48621169D01*
X54909616Y-48540429D01*
X54664335Y-48499500D01*
X54415665Y-48499500D01*
X54170383Y-48540429D01*
X53935197Y-48621169D01*
X53935188Y-48621172D01*
X53716493Y-48739524D01*
X53520257Y-48892261D01*
X53351833Y-49075217D01*
X53215826Y-49283393D01*
X53115936Y-49511118D01*
X53054892Y-49752175D01*
X53054890Y-49752187D01*
X53034357Y-49999994D01*
X53034357Y-50000005D01*
X52235643Y-50000005D01*
X52235643Y-50000000D01*
X52215108Y-49752179D01*
X52154063Y-49511119D01*
X52054173Y-49283393D01*
X51918166Y-49075217D01*
X51896557Y-49051744D01*
X51749744Y-48892262D01*
X51553509Y-48739526D01*
X51553507Y-48739525D01*
X51553506Y-48739524D01*
X51334811Y-48621172D01*
X51334802Y-48621169D01*
X51099616Y-48540429D01*
X50854335Y-48499500D01*
X50605665Y-48499500D01*
X50360383Y-48540429D01*
X50125197Y-48621169D01*
X50125188Y-48621172D01*
X49906493Y-48739524D01*
X49710257Y-48892261D01*
X49541833Y-49075217D01*
X49405826Y-49283393D01*
X49305936Y-49511118D01*
X49244892Y-49752175D01*
X49244890Y-49752187D01*
X49224357Y-49999994D01*
X49224357Y-50000005D01*
X48425643Y-50000005D01*
X48425643Y-50000000D01*
X48405108Y-49752179D01*
X48344063Y-49511119D01*
X48244173Y-49283393D01*
X48108166Y-49075217D01*
X48086557Y-49051744D01*
X47939744Y-48892262D01*
X47743509Y-48739526D01*
X47743507Y-48739525D01*
X47743506Y-48739524D01*
X47524811Y-48621172D01*
X47524802Y-48621169D01*
X47289616Y-48540429D01*
X47044335Y-48499500D01*
X46795665Y-48499500D01*
X46550383Y-48540429D01*
X46315197Y-48621169D01*
X46315188Y-48621172D01*
X46096493Y-48739524D01*
X45900257Y-48892261D01*
X45731833Y-49075217D01*
X45595826Y-49283393D01*
X45495936Y-49511118D01*
X45434892Y-49752175D01*
X45434890Y-49752187D01*
X45414357Y-49999994D01*
X45414357Y-50000005D01*
X44615643Y-50000005D01*
X44615643Y-50000000D01*
X44595108Y-49752179D01*
X44534063Y-49511119D01*
X44434173Y-49283393D01*
X44298166Y-49075217D01*
X44276557Y-49051744D01*
X44129744Y-48892262D01*
X43933509Y-48739526D01*
X43933507Y-48739525D01*
X43933506Y-48739524D01*
X43714811Y-48621172D01*
X43714802Y-48621169D01*
X43479616Y-48540429D01*
X43234335Y-48499500D01*
X42985665Y-48499500D01*
X42740383Y-48540429D01*
X42505197Y-48621169D01*
X42505188Y-48621172D01*
X42286493Y-48739524D01*
X42090257Y-48892261D01*
X41921833Y-49075217D01*
X41785826Y-49283393D01*
X41685936Y-49511118D01*
X41624892Y-49752175D01*
X41624890Y-49752187D01*
X41604357Y-49999994D01*
X41604357Y-50000005D01*
X39000500Y-50000005D01*
X39000500Y-46044070D01*
X41609500Y-46044070D01*
X41609501Y-46044076D01*
X41615908Y-46103683D01*
X41666202Y-46238528D01*
X41666206Y-46238535D01*
X41752452Y-46353744D01*
X41752455Y-46353747D01*
X41867664Y-46439993D01*
X41867671Y-46439997D01*
X42002517Y-46490291D01*
X42002516Y-46490291D01*
X42009444Y-46491035D01*
X42062127Y-46496700D01*
X44157872Y-46496699D01*
X44217483Y-46490291D01*
X44352331Y-46439996D01*
X44467546Y-46353746D01*
X44553796Y-46238531D01*
X44604091Y-46103683D01*
X44610500Y-46044073D01*
X44610500Y-44996205D01*
X45414357Y-44996205D01*
X45434890Y-45244012D01*
X45434892Y-45244024D01*
X45495936Y-45485081D01*
X45595826Y-45712806D01*
X45731833Y-45920982D01*
X45731836Y-45920985D01*
X45900256Y-46103938D01*
X46096491Y-46256674D01*
X46315190Y-46375028D01*
X46550386Y-46455771D01*
X46795665Y-46496700D01*
X47044335Y-46496700D01*
X47289614Y-46455771D01*
X47524810Y-46375028D01*
X47743509Y-46256674D01*
X47939744Y-46103938D01*
X48108164Y-45920985D01*
X48244173Y-45712807D01*
X48344063Y-45485081D01*
X48405108Y-45244021D01*
X48425643Y-44996205D01*
X49224357Y-44996205D01*
X49244890Y-45244012D01*
X49244892Y-45244024D01*
X49305936Y-45485081D01*
X49405826Y-45712806D01*
X49541833Y-45920982D01*
X49541836Y-45920985D01*
X49710256Y-46103938D01*
X49906491Y-46256674D01*
X50125190Y-46375028D01*
X50360386Y-46455771D01*
X50605665Y-46496700D01*
X50854335Y-46496700D01*
X51099614Y-46455771D01*
X51334810Y-46375028D01*
X51553509Y-46256674D01*
X51749744Y-46103938D01*
X51918164Y-45920985D01*
X52054173Y-45712807D01*
X52154063Y-45485081D01*
X52215108Y-45244021D01*
X52235643Y-44996205D01*
X53034357Y-44996205D01*
X53054890Y-45244012D01*
X53054892Y-45244024D01*
X53115936Y-45485081D01*
X53215826Y-45712806D01*
X53351833Y-45920982D01*
X53351836Y-45920985D01*
X53520256Y-46103938D01*
X53716491Y-46256674D01*
X53935190Y-46375028D01*
X54170386Y-46455771D01*
X54415665Y-46496700D01*
X54664335Y-46496700D01*
X54909614Y-46455771D01*
X55144810Y-46375028D01*
X55363509Y-46256674D01*
X55559744Y-46103938D01*
X55728164Y-45920985D01*
X55864173Y-45712807D01*
X55964063Y-45485081D01*
X56025108Y-45244021D01*
X56045643Y-44996200D01*
X56025108Y-44748379D01*
X55964063Y-44507319D01*
X55864173Y-44279593D01*
X55728166Y-44071417D01*
X55706557Y-44047944D01*
X55559744Y-43888462D01*
X55363509Y-43735726D01*
X55363507Y-43735725D01*
X55363506Y-43735724D01*
X55144811Y-43617372D01*
X55144802Y-43617369D01*
X54909616Y-43536629D01*
X54664335Y-43495700D01*
X54415665Y-43495700D01*
X54170383Y-43536629D01*
X53935197Y-43617369D01*
X53935188Y-43617372D01*
X53716493Y-43735724D01*
X53520257Y-43888461D01*
X53351833Y-44071417D01*
X53215826Y-44279593D01*
X53115936Y-44507318D01*
X53054892Y-44748375D01*
X53054890Y-44748387D01*
X53034357Y-44996194D01*
X53034357Y-44996205D01*
X52235643Y-44996205D01*
X52235643Y-44996200D01*
X52215108Y-44748379D01*
X52154063Y-44507319D01*
X52054173Y-44279593D01*
X51918166Y-44071417D01*
X51896557Y-44047944D01*
X51749744Y-43888462D01*
X51553509Y-43735726D01*
X51553507Y-43735725D01*
X51553506Y-43735724D01*
X51334811Y-43617372D01*
X51334802Y-43617369D01*
X51099616Y-43536629D01*
X50854335Y-43495700D01*
X50605665Y-43495700D01*
X50360383Y-43536629D01*
X50125197Y-43617369D01*
X50125188Y-43617372D01*
X49906493Y-43735724D01*
X49710257Y-43888461D01*
X49541833Y-44071417D01*
X49405826Y-44279593D01*
X49305936Y-44507318D01*
X49244892Y-44748375D01*
X49244890Y-44748387D01*
X49224357Y-44996194D01*
X49224357Y-44996205D01*
X48425643Y-44996205D01*
X48425643Y-44996200D01*
X48405108Y-44748379D01*
X48344063Y-44507319D01*
X48244173Y-44279593D01*
X48108166Y-44071417D01*
X48086557Y-44047944D01*
X47939744Y-43888462D01*
X47743509Y-43735726D01*
X47743507Y-43735725D01*
X47743506Y-43735724D01*
X47524811Y-43617372D01*
X47524802Y-43617369D01*
X47289616Y-43536629D01*
X47044335Y-43495700D01*
X46795665Y-43495700D01*
X46550383Y-43536629D01*
X46315197Y-43617369D01*
X46315188Y-43617372D01*
X46096493Y-43735724D01*
X45900257Y-43888461D01*
X45731833Y-44071417D01*
X45595826Y-44279593D01*
X45495936Y-44507318D01*
X45434892Y-44748375D01*
X45434890Y-44748387D01*
X45414357Y-44996194D01*
X45414357Y-44996205D01*
X44610500Y-44996205D01*
X44610499Y-43948328D01*
X44604091Y-43888717D01*
X44553796Y-43753869D01*
X44553795Y-43753868D01*
X44553793Y-43753864D01*
X44467547Y-43638655D01*
X44467544Y-43638652D01*
X44352335Y-43552406D01*
X44352328Y-43552402D01*
X44217482Y-43502108D01*
X44217483Y-43502108D01*
X44157883Y-43495701D01*
X44157881Y-43495700D01*
X44157873Y-43495700D01*
X44157864Y-43495700D01*
X42062129Y-43495700D01*
X42062123Y-43495701D01*
X42002516Y-43502108D01*
X41867671Y-43552402D01*
X41867664Y-43552406D01*
X41752455Y-43638652D01*
X41752452Y-43638655D01*
X41666206Y-43753864D01*
X41666202Y-43753871D01*
X41615908Y-43888717D01*
X41609501Y-43948316D01*
X41609501Y-43948323D01*
X41609500Y-43948335D01*
X41609500Y-46044070D01*
X39000500Y-46044070D01*
X39000500Y-39540000D01*
X43205225Y-39540000D01*
X43224287Y-39757884D01*
X43224289Y-39757894D01*
X43280894Y-39969150D01*
X43280898Y-39969159D01*
X43373335Y-40167391D01*
X43416873Y-40229571D01*
X43416875Y-40229572D01*
X44076191Y-39570255D01*
X44076062Y-39571814D01*
X44107195Y-39694755D01*
X44176559Y-39800925D01*
X44276639Y-39878821D01*
X44396589Y-39920000D01*
X44433553Y-39920000D01*
X43770426Y-40583124D01*
X43832611Y-40626666D01*
X43832613Y-40626667D01*
X44030840Y-40719101D01*
X44030849Y-40719105D01*
X44242105Y-40775710D01*
X44242115Y-40775712D01*
X44459999Y-40794775D01*
X44460001Y-40794775D01*
X44677884Y-40775712D01*
X44677894Y-40775710D01*
X44889150Y-40719105D01*
X44889159Y-40719101D01*
X45087387Y-40626666D01*
X45149572Y-40583124D01*
X44486448Y-39920000D01*
X44491486Y-39920000D01*
X44585092Y-39904380D01*
X44696628Y-39844020D01*
X44782522Y-39750714D01*
X44833465Y-39634574D01*
X44839178Y-39565626D01*
X45503124Y-40229572D01*
X45546666Y-40167387D01*
X45617618Y-40015232D01*
X45663790Y-39962793D01*
X45730984Y-39943641D01*
X45797865Y-39963857D01*
X45842382Y-40015232D01*
X45913335Y-40167391D01*
X45956873Y-40229571D01*
X45956875Y-40229572D01*
X46616191Y-39570255D01*
X46616062Y-39571814D01*
X46647195Y-39694755D01*
X46716559Y-39800925D01*
X46816639Y-39878821D01*
X46936589Y-39920000D01*
X46973553Y-39920000D01*
X46310426Y-40583124D01*
X46372611Y-40626666D01*
X46372613Y-40626667D01*
X46570840Y-40719101D01*
X46570849Y-40719105D01*
X46782105Y-40775710D01*
X46782115Y-40775712D01*
X46999999Y-40794775D01*
X47000001Y-40794775D01*
X47217884Y-40775712D01*
X47217894Y-40775710D01*
X47429150Y-40719105D01*
X47429159Y-40719101D01*
X47627387Y-40626666D01*
X47689572Y-40583124D01*
X47026448Y-39920000D01*
X47031486Y-39920000D01*
X47125092Y-39904380D01*
X47236628Y-39844020D01*
X47322522Y-39750714D01*
X47373465Y-39634574D01*
X47379178Y-39565625D01*
X48043124Y-40229572D01*
X48086666Y-40167387D01*
X48157618Y-40015232D01*
X48203790Y-39962793D01*
X48270984Y-39943641D01*
X48337865Y-39963857D01*
X48382382Y-40015232D01*
X48453335Y-40167391D01*
X48496873Y-40229571D01*
X48496875Y-40229572D01*
X49156191Y-39570255D01*
X49156062Y-39571814D01*
X49187195Y-39694755D01*
X49256559Y-39800925D01*
X49356639Y-39878821D01*
X49476589Y-39920000D01*
X49513553Y-39920000D01*
X48850426Y-40583124D01*
X48912611Y-40626666D01*
X48912613Y-40626667D01*
X49110840Y-40719101D01*
X49110849Y-40719105D01*
X49322105Y-40775710D01*
X49322115Y-40775712D01*
X49539999Y-40794775D01*
X49540001Y-40794775D01*
X49757884Y-40775712D01*
X49757894Y-40775710D01*
X49969150Y-40719105D01*
X49969159Y-40719101D01*
X50167387Y-40626666D01*
X50229572Y-40583124D01*
X49566448Y-39920000D01*
X49571486Y-39920000D01*
X49665092Y-39904380D01*
X49776628Y-39844020D01*
X49862522Y-39750714D01*
X49913465Y-39634574D01*
X49919178Y-39565625D01*
X50583124Y-40229572D01*
X50626666Y-40167387D01*
X50697618Y-40015232D01*
X50743790Y-39962793D01*
X50810984Y-39943641D01*
X50877865Y-39963857D01*
X50922382Y-40015232D01*
X50993335Y-40167391D01*
X51036873Y-40229571D01*
X51036875Y-40229572D01*
X51696191Y-39570255D01*
X51696062Y-39571814D01*
X51727195Y-39694755D01*
X51796559Y-39800925D01*
X51896639Y-39878821D01*
X52016589Y-39920000D01*
X52053553Y-39920000D01*
X51390426Y-40583124D01*
X51452611Y-40626666D01*
X51452613Y-40626667D01*
X51650840Y-40719101D01*
X51650849Y-40719105D01*
X51862105Y-40775710D01*
X51862115Y-40775712D01*
X52079999Y-40794775D01*
X52080001Y-40794775D01*
X52297884Y-40775712D01*
X52297894Y-40775710D01*
X52509150Y-40719105D01*
X52509159Y-40719101D01*
X52707387Y-40626666D01*
X52769572Y-40583124D01*
X52106448Y-39920000D01*
X52111486Y-39920000D01*
X52205092Y-39904380D01*
X52316628Y-39844020D01*
X52402522Y-39750714D01*
X52453465Y-39634574D01*
X52459178Y-39565625D01*
X53123124Y-40229572D01*
X53166666Y-40167387D01*
X53259101Y-39969159D01*
X53259105Y-39969150D01*
X53315710Y-39757894D01*
X53315712Y-39757884D01*
X53334775Y-39540000D01*
X53334775Y-39539999D01*
X53315712Y-39322115D01*
X53315710Y-39322105D01*
X53259105Y-39110849D01*
X53259101Y-39110840D01*
X53166668Y-38912615D01*
X53123123Y-38850428D01*
X52463808Y-39509742D01*
X52463938Y-39508186D01*
X52432805Y-39385245D01*
X52363441Y-39279075D01*
X52263361Y-39201179D01*
X52143411Y-39160000D01*
X52106448Y-39160000D01*
X52769572Y-38496875D01*
X52769571Y-38496873D01*
X52739867Y-38476074D01*
X52696242Y-38421497D01*
X52689049Y-38351999D01*
X52720571Y-38289644D01*
X52780801Y-38254230D01*
X52810983Y-38250499D01*
X54147872Y-38250499D01*
X54207483Y-38244091D01*
X54342331Y-38193796D01*
X54457546Y-38107546D01*
X54543796Y-37992331D01*
X54594091Y-37857483D01*
X54600500Y-37797873D01*
X54600499Y-36202128D01*
X54594091Y-36142517D01*
X54543796Y-36007669D01*
X54543795Y-36007668D01*
X54543793Y-36007664D01*
X54457547Y-35892455D01*
X54457544Y-35892452D01*
X54342335Y-35806206D01*
X54342328Y-35806202D01*
X54207482Y-35755908D01*
X54207483Y-35755908D01*
X54147883Y-35749501D01*
X54147881Y-35749500D01*
X54147873Y-35749500D01*
X54147864Y-35749500D01*
X52552129Y-35749500D01*
X52552123Y-35749501D01*
X52492516Y-35755908D01*
X52357671Y-35806202D01*
X52357664Y-35806206D01*
X52242455Y-35892452D01*
X52242452Y-35892455D01*
X52156206Y-36007664D01*
X52156202Y-36007671D01*
X52105908Y-36142517D01*
X52100468Y-36193121D01*
X52099501Y-36202123D01*
X52099500Y-36202135D01*
X52099500Y-36268138D01*
X52079815Y-36335177D01*
X52027011Y-36380932D01*
X51957853Y-36390876D01*
X51894297Y-36361851D01*
X51873925Y-36339261D01*
X51771599Y-36193124D01*
X51720991Y-36142516D01*
X51616877Y-36038402D01*
X51437639Y-35912898D01*
X51437640Y-35912898D01*
X51437638Y-35912897D01*
X51338484Y-35866661D01*
X51239330Y-35820425D01*
X51239326Y-35820424D01*
X51239322Y-35820422D01*
X51027977Y-35763793D01*
X50810002Y-35744723D01*
X50809998Y-35744723D01*
X50682151Y-35755908D01*
X50592023Y-35763793D01*
X50592020Y-35763793D01*
X50380677Y-35820422D01*
X50380668Y-35820426D01*
X50182361Y-35912898D01*
X50182357Y-35912900D01*
X50003121Y-36038402D01*
X49848402Y-36193121D01*
X49722900Y-36372357D01*
X49722898Y-36372361D01*
X49652382Y-36523583D01*
X49606209Y-36576022D01*
X49539016Y-36595174D01*
X49472135Y-36574958D01*
X49427618Y-36523583D01*
X49361098Y-36380932D01*
X49357102Y-36372362D01*
X49357100Y-36372359D01*
X49357099Y-36372357D01*
X49231599Y-36193124D01*
X49180991Y-36142516D01*
X49076877Y-36038402D01*
X48897639Y-35912898D01*
X48897640Y-35912898D01*
X48897638Y-35912897D01*
X48798484Y-35866661D01*
X48699330Y-35820425D01*
X48699326Y-35820424D01*
X48699322Y-35820422D01*
X48487977Y-35763793D01*
X48270002Y-35744723D01*
X48269998Y-35744723D01*
X48142151Y-35755908D01*
X48052023Y-35763793D01*
X48052020Y-35763793D01*
X47840677Y-35820422D01*
X47840668Y-35820426D01*
X47642361Y-35912898D01*
X47642357Y-35912900D01*
X47463121Y-36038402D01*
X47308402Y-36193121D01*
X47182900Y-36372357D01*
X47182898Y-36372361D01*
X47112382Y-36523583D01*
X47066209Y-36576022D01*
X46999016Y-36595174D01*
X46932135Y-36574958D01*
X46887618Y-36523583D01*
X46821098Y-36380932D01*
X46817102Y-36372362D01*
X46817100Y-36372359D01*
X46817099Y-36372357D01*
X46691599Y-36193124D01*
X46640991Y-36142516D01*
X46536877Y-36038402D01*
X46357639Y-35912898D01*
X46357640Y-35912898D01*
X46357638Y-35912897D01*
X46258484Y-35866661D01*
X46159330Y-35820425D01*
X46159326Y-35820424D01*
X46159322Y-35820422D01*
X45947977Y-35763793D01*
X45730002Y-35744723D01*
X45729998Y-35744723D01*
X45602151Y-35755908D01*
X45512023Y-35763793D01*
X45512020Y-35763793D01*
X45300677Y-35820422D01*
X45300668Y-35820426D01*
X45102361Y-35912898D01*
X45102357Y-35912900D01*
X44923121Y-36038402D01*
X44768402Y-36193121D01*
X44642900Y-36372357D01*
X44642898Y-36372361D01*
X44550426Y-36570668D01*
X44550422Y-36570677D01*
X44493793Y-36782020D01*
X44493793Y-36782024D01*
X44474723Y-36999997D01*
X44474723Y-37000002D01*
X44493793Y-37217975D01*
X44493793Y-37217979D01*
X44550422Y-37429322D01*
X44550424Y-37429326D01*
X44550425Y-37429330D01*
X44572382Y-37476416D01*
X44642897Y-37627638D01*
X44667998Y-37663486D01*
X44768402Y-37806877D01*
X44923123Y-37961598D01*
X45102361Y-38087102D01*
X45300670Y-38179575D01*
X45512023Y-38236207D01*
X45694926Y-38252208D01*
X45729998Y-38255277D01*
X45730000Y-38255277D01*
X45730002Y-38255277D01*
X45758254Y-38252805D01*
X45947977Y-38236207D01*
X46159330Y-38179575D01*
X46357639Y-38087102D01*
X46536877Y-37961598D01*
X46691598Y-37806877D01*
X46817102Y-37627639D01*
X46887618Y-37476414D01*
X46933790Y-37423977D01*
X47000984Y-37404825D01*
X47067865Y-37425041D01*
X47112381Y-37476414D01*
X47182898Y-37627639D01*
X47308402Y-37806877D01*
X47463123Y-37961598D01*
X47642361Y-38087102D01*
X47840670Y-38179575D01*
X48052023Y-38236207D01*
X48234926Y-38252208D01*
X48269998Y-38255277D01*
X48270000Y-38255277D01*
X48270002Y-38255277D01*
X48298254Y-38252805D01*
X48487977Y-38236207D01*
X48699330Y-38179575D01*
X48897639Y-38087102D01*
X49076877Y-37961598D01*
X49231598Y-37806877D01*
X49357102Y-37627639D01*
X49427618Y-37476414D01*
X49473790Y-37423977D01*
X49540984Y-37404825D01*
X49607865Y-37425041D01*
X49652381Y-37476414D01*
X49722898Y-37627639D01*
X49848402Y-37806877D01*
X50003123Y-37961598D01*
X50182361Y-38087102D01*
X50380670Y-38179575D01*
X50592023Y-38236207D01*
X50774926Y-38252208D01*
X50809998Y-38255277D01*
X50810000Y-38255277D01*
X50810002Y-38255277D01*
X50838254Y-38252805D01*
X51027977Y-38236207D01*
X51239330Y-38179575D01*
X51437639Y-38087102D01*
X51616877Y-37961598D01*
X51771598Y-37806877D01*
X51873928Y-37660734D01*
X51928502Y-37617112D01*
X51998000Y-37609918D01*
X52060355Y-37641441D01*
X52095769Y-37701670D01*
X52099500Y-37731858D01*
X52099500Y-37797869D01*
X52099501Y-37797876D01*
X52105908Y-37857483D01*
X52156202Y-37992328D01*
X52156204Y-37992331D01*
X52229975Y-38090877D01*
X52254393Y-38156339D01*
X52239542Y-38224612D01*
X52190137Y-38274018D01*
X52121865Y-38288871D01*
X52119904Y-38288715D01*
X52080005Y-38285225D01*
X52079999Y-38285225D01*
X51862115Y-38304287D01*
X51862105Y-38304289D01*
X51650849Y-38360894D01*
X51650840Y-38360898D01*
X51452614Y-38453332D01*
X51452612Y-38453333D01*
X51390428Y-38496875D01*
X51390427Y-38496875D01*
X52053553Y-39160000D01*
X52048514Y-39160000D01*
X51954908Y-39175620D01*
X51843372Y-39235980D01*
X51757478Y-39329286D01*
X51706535Y-39445426D01*
X51700821Y-39514373D01*
X51036875Y-38850427D01*
X51036875Y-38850428D01*
X50993333Y-38912612D01*
X50993332Y-38912614D01*
X50922382Y-39064767D01*
X50876209Y-39117206D01*
X50809016Y-39136358D01*
X50742135Y-39116142D01*
X50697618Y-39064767D01*
X50626668Y-38912615D01*
X50583123Y-38850428D01*
X49923808Y-39509742D01*
X49923938Y-39508186D01*
X49892805Y-39385245D01*
X49823441Y-39279075D01*
X49723361Y-39201179D01*
X49603411Y-39160000D01*
X49566448Y-39160000D01*
X50229572Y-38496875D01*
X50229571Y-38496873D01*
X50167391Y-38453335D01*
X49969159Y-38360898D01*
X49969150Y-38360894D01*
X49757894Y-38304289D01*
X49757884Y-38304287D01*
X49540001Y-38285225D01*
X49539999Y-38285225D01*
X49322115Y-38304287D01*
X49322105Y-38304289D01*
X49110849Y-38360894D01*
X49110840Y-38360898D01*
X48912614Y-38453332D01*
X48912612Y-38453333D01*
X48850428Y-38496875D01*
X48850427Y-38496875D01*
X49513553Y-39160000D01*
X49508514Y-39160000D01*
X49414908Y-39175620D01*
X49303372Y-39235980D01*
X49217478Y-39329286D01*
X49166535Y-39445426D01*
X49160821Y-39514373D01*
X48496875Y-38850427D01*
X48496875Y-38850428D01*
X48453333Y-38912612D01*
X48453332Y-38912614D01*
X48382382Y-39064767D01*
X48336209Y-39117206D01*
X48269016Y-39136358D01*
X48202135Y-39116142D01*
X48157618Y-39064767D01*
X48086668Y-38912615D01*
X48043123Y-38850428D01*
X47383808Y-39509742D01*
X47383938Y-39508186D01*
X47352805Y-39385245D01*
X47283441Y-39279075D01*
X47183361Y-39201179D01*
X47063411Y-39160000D01*
X47026448Y-39160000D01*
X47689572Y-38496875D01*
X47689571Y-38496873D01*
X47627391Y-38453335D01*
X47429159Y-38360898D01*
X47429150Y-38360894D01*
X47217894Y-38304289D01*
X47217884Y-38304287D01*
X47000001Y-38285225D01*
X46999999Y-38285225D01*
X46782115Y-38304287D01*
X46782105Y-38304289D01*
X46570849Y-38360894D01*
X46570840Y-38360898D01*
X46372614Y-38453332D01*
X46372612Y-38453333D01*
X46310428Y-38496875D01*
X46310427Y-38496875D01*
X46973553Y-39160000D01*
X46968514Y-39160000D01*
X46874908Y-39175620D01*
X46763372Y-39235980D01*
X46677478Y-39329286D01*
X46626535Y-39445426D01*
X46620821Y-39514373D01*
X45956875Y-38850427D01*
X45956875Y-38850428D01*
X45913333Y-38912612D01*
X45913332Y-38912614D01*
X45842382Y-39064767D01*
X45796209Y-39117206D01*
X45729016Y-39136358D01*
X45662135Y-39116142D01*
X45617618Y-39064767D01*
X45546668Y-38912615D01*
X45503123Y-38850428D01*
X44843808Y-39509742D01*
X44843938Y-39508186D01*
X44812805Y-39385245D01*
X44743441Y-39279075D01*
X44643361Y-39201179D01*
X44523411Y-39160000D01*
X44486448Y-39160000D01*
X45149572Y-38496875D01*
X45149571Y-38496873D01*
X45087391Y-38453335D01*
X44889159Y-38360898D01*
X44889150Y-38360894D01*
X44677894Y-38304289D01*
X44677884Y-38304287D01*
X44460001Y-38285225D01*
X44459999Y-38285225D01*
X44242115Y-38304287D01*
X44242105Y-38304289D01*
X44030849Y-38360894D01*
X44030840Y-38360898D01*
X43832614Y-38453332D01*
X43832612Y-38453333D01*
X43770428Y-38496875D01*
X43770427Y-38496875D01*
X44433553Y-39160000D01*
X44428514Y-39160000D01*
X44334908Y-39175620D01*
X44223372Y-39235980D01*
X44137478Y-39329286D01*
X44086535Y-39445426D01*
X44080821Y-39514373D01*
X43416875Y-38850427D01*
X43416875Y-38850428D01*
X43373333Y-38912612D01*
X43373332Y-38912614D01*
X43280898Y-39110840D01*
X43280894Y-39110849D01*
X43224289Y-39322105D01*
X43224287Y-39322115D01*
X43205225Y-39539999D01*
X43205225Y-39540000D01*
X39000500Y-39540000D01*
X39000500Y-30717763D01*
X41335787Y-30717763D01*
X41365413Y-30987013D01*
X41365415Y-30987024D01*
X41433926Y-31249082D01*
X41433928Y-31249088D01*
X41539870Y-31498390D01*
X41611998Y-31616575D01*
X41680979Y-31729605D01*
X41680986Y-31729615D01*
X41854253Y-31937819D01*
X41854259Y-31937824D01*
X42055998Y-32118582D01*
X42281910Y-32268044D01*
X42527176Y-32383020D01*
X42527183Y-32383022D01*
X42527185Y-32383023D01*
X42786557Y-32461057D01*
X42786564Y-32461058D01*
X42786569Y-32461060D01*
X43054561Y-32500500D01*
X43054566Y-32500500D01*
X43257636Y-32500500D01*
X43309133Y-32496730D01*
X43460156Y-32485677D01*
X43572758Y-32460593D01*
X43724546Y-32426782D01*
X43724548Y-32426781D01*
X43724553Y-32426780D01*
X43977558Y-32330014D01*
X44213777Y-32197441D01*
X44428177Y-32031888D01*
X44616186Y-31836881D01*
X44773799Y-31616579D01*
X44847787Y-31472669D01*
X44897649Y-31375690D01*
X44897651Y-31375684D01*
X44897656Y-31375675D01*
X44985118Y-31119305D01*
X45034319Y-30852933D01*
X45039259Y-30717763D01*
X52765787Y-30717763D01*
X52795413Y-30987013D01*
X52795415Y-30987024D01*
X52863926Y-31249082D01*
X52863928Y-31249088D01*
X52969870Y-31498390D01*
X53041998Y-31616575D01*
X53110979Y-31729605D01*
X53110986Y-31729615D01*
X53284253Y-31937819D01*
X53284259Y-31937824D01*
X53485998Y-32118582D01*
X53711910Y-32268044D01*
X53957176Y-32383020D01*
X53957183Y-32383022D01*
X53957185Y-32383023D01*
X54216557Y-32461057D01*
X54216564Y-32461058D01*
X54216569Y-32461060D01*
X54484561Y-32500500D01*
X54484566Y-32500500D01*
X54687636Y-32500500D01*
X54739133Y-32496730D01*
X54890156Y-32485677D01*
X55002758Y-32460593D01*
X55154546Y-32426782D01*
X55154548Y-32426781D01*
X55154553Y-32426780D01*
X55407558Y-32330014D01*
X55643777Y-32197441D01*
X55858177Y-32031888D01*
X56046186Y-31836881D01*
X56203799Y-31616579D01*
X56277787Y-31472669D01*
X56327649Y-31375690D01*
X56327651Y-31375684D01*
X56327656Y-31375675D01*
X56415118Y-31119305D01*
X56464319Y-30852933D01*
X56474212Y-30582235D01*
X56444586Y-30312982D01*
X56376072Y-30050912D01*
X56270130Y-29801610D01*
X56129018Y-29570390D01*
X56127845Y-29568981D01*
X55955746Y-29362180D01*
X55955740Y-29362175D01*
X55754002Y-29181418D01*
X55528092Y-29031957D01*
X55463217Y-29001545D01*
X55282824Y-28916980D01*
X55282819Y-28916978D01*
X55282814Y-28916976D01*
X55023442Y-28838942D01*
X55023428Y-28838939D01*
X54907791Y-28821921D01*
X54755439Y-28799500D01*
X54552369Y-28799500D01*
X54552364Y-28799500D01*
X54349844Y-28814323D01*
X54349831Y-28814325D01*
X54085453Y-28873217D01*
X54085446Y-28873220D01*
X53832439Y-28969987D01*
X53596226Y-29102557D01*
X53381822Y-29268112D01*
X53193822Y-29463109D01*
X53193816Y-29463116D01*
X53036202Y-29683419D01*
X53036199Y-29683424D01*
X52912350Y-29924309D01*
X52912343Y-29924327D01*
X52824884Y-30180685D01*
X52824881Y-30180699D01*
X52775681Y-30447068D01*
X52775680Y-30447075D01*
X52765787Y-30717763D01*
X45039259Y-30717763D01*
X45044212Y-30582235D01*
X45014586Y-30312982D01*
X44946072Y-30050912D01*
X44840130Y-29801610D01*
X44699018Y-29570390D01*
X44697845Y-29568981D01*
X44525746Y-29362180D01*
X44525740Y-29362175D01*
X44324002Y-29181418D01*
X44098092Y-29031957D01*
X44033217Y-29001545D01*
X43852824Y-28916980D01*
X43852819Y-28916978D01*
X43852814Y-28916976D01*
X43593442Y-28838942D01*
X43593428Y-28838939D01*
X43477791Y-28821921D01*
X43325439Y-28799500D01*
X43122369Y-28799500D01*
X43122364Y-28799500D01*
X42919844Y-28814323D01*
X42919831Y-28814325D01*
X42655453Y-28873217D01*
X42655446Y-28873220D01*
X42402439Y-28969987D01*
X42166226Y-29102557D01*
X41951822Y-29268112D01*
X41763822Y-29463109D01*
X41763816Y-29463116D01*
X41606202Y-29683419D01*
X41606199Y-29683424D01*
X41482350Y-29924309D01*
X41482343Y-29924327D01*
X41394884Y-30180685D01*
X41394881Y-30180699D01*
X41345681Y-30447068D01*
X41345680Y-30447075D01*
X41335787Y-30717763D01*
X39000500Y-30717763D01*
X39000500Y-30501528D01*
X39000575Y-30498486D01*
X39003100Y-30447067D01*
X39007995Y-30347421D01*
X39018164Y-30153388D01*
X39018744Y-30147594D01*
X39043858Y-29978287D01*
X39071717Y-29802396D01*
X39072801Y-29797083D01*
X39115210Y-29627776D01*
X39160529Y-29458644D01*
X39162013Y-29453891D01*
X39221338Y-29288089D01*
X39283668Y-29125717D01*
X39285492Y-29121455D01*
X39294430Y-29102557D01*
X39361145Y-28961499D01*
X39439877Y-28806982D01*
X39441915Y-28803299D01*
X39533192Y-28651013D01*
X39627560Y-28505701D01*
X39629724Y-28502586D01*
X39735718Y-28359670D01*
X39736033Y-28359282D01*
X39844785Y-28224983D01*
X39846970Y-28222434D01*
X39965703Y-28091433D01*
X39967717Y-28089318D01*
X40089318Y-27967717D01*
X40091433Y-27965703D01*
X40222434Y-27846970D01*
X40224983Y-27844785D01*
X40359656Y-27735728D01*
X40502586Y-27629724D01*
X40505701Y-27627560D01*
X40651013Y-27533192D01*
X40803299Y-27441915D01*
X40806982Y-27439877D01*
X40961499Y-27361145D01*
X41121462Y-27285488D01*
X41125717Y-27283668D01*
X41288089Y-27221338D01*
X41453891Y-27162013D01*
X41458644Y-27160529D01*
X41627776Y-27115210D01*
X41797083Y-27072801D01*
X41802396Y-27071717D01*
X41978287Y-27043858D01*
X42147594Y-27018744D01*
X42153388Y-27018164D01*
X42347421Y-27007995D01*
X42445332Y-27003185D01*
X42498487Y-27000575D01*
X42501529Y-27000500D01*
X55523596Y-27000500D01*
X55526639Y-27000575D01*
G37*
%TD.AperFunction*%
%TD*%
M02*
