%TF.GenerationSoftware,KiCad,Pcbnew,7.0.9*%
%TF.CreationDate,2024-01-22T18:23:32+13:00*%
%TF.ProjectId,rj45_breakout,726a3435-5f62-4726-9561-6b6f75742e6b,rev?*%
%TF.SameCoordinates,Original*%
%TF.FileFunction,Legend,Bot*%
%TF.FilePolarity,Positive*%
%FSLAX46Y46*%
G04 Gerber Fmt 4.6, Leading zero omitted, Abs format (unit mm)*
G04 Created by KiCad (PCBNEW 7.0.9) date 2024-01-22 18:23:32*
%MOMM*%
%LPD*%
G01*
G04 APERTURE LIST*
%ADD10C,0.150000*%
%ADD11C,0.040000*%
G04 APERTURE END LIST*
D10*
X54136077Y-41280200D02*
X54212268Y-41318295D01*
X54212268Y-41318295D02*
X54364649Y-41318295D01*
X54364649Y-41318295D02*
X54440839Y-41280200D01*
X54440839Y-41280200D02*
X54478935Y-41204009D01*
X54478935Y-41204009D02*
X54478935Y-40899247D01*
X54478935Y-40899247D02*
X54440839Y-40823057D01*
X54440839Y-40823057D02*
X54364649Y-40784961D01*
X54364649Y-40784961D02*
X54212268Y-40784961D01*
X54212268Y-40784961D02*
X54136077Y-40823057D01*
X54136077Y-40823057D02*
X54097982Y-40899247D01*
X54097982Y-40899247D02*
X54097982Y-40975438D01*
X54097982Y-40975438D02*
X54478935Y-41051628D01*
X53869411Y-40784961D02*
X53564649Y-40784961D01*
X53755125Y-40518295D02*
X53755125Y-41204009D01*
X53755125Y-41204009D02*
X53717030Y-41280200D01*
X53717030Y-41280200D02*
X53640840Y-41318295D01*
X53640840Y-41318295D02*
X53564649Y-41318295D01*
X53297982Y-41318295D02*
X53297982Y-40518295D01*
X52955125Y-41318295D02*
X52955125Y-40899247D01*
X52955125Y-40899247D02*
X52993220Y-40823057D01*
X52993220Y-40823057D02*
X53069411Y-40784961D01*
X53069411Y-40784961D02*
X53183697Y-40784961D01*
X53183697Y-40784961D02*
X53259887Y-40823057D01*
X53259887Y-40823057D02*
X53297982Y-40861152D01*
X52269410Y-41280200D02*
X52345601Y-41318295D01*
X52345601Y-41318295D02*
X52497982Y-41318295D01*
X52497982Y-41318295D02*
X52574172Y-41280200D01*
X52574172Y-41280200D02*
X52612268Y-41204009D01*
X52612268Y-41204009D02*
X52612268Y-40899247D01*
X52612268Y-40899247D02*
X52574172Y-40823057D01*
X52574172Y-40823057D02*
X52497982Y-40784961D01*
X52497982Y-40784961D02*
X52345601Y-40784961D01*
X52345601Y-40784961D02*
X52269410Y-40823057D01*
X52269410Y-40823057D02*
X52231315Y-40899247D01*
X52231315Y-40899247D02*
X52231315Y-40975438D01*
X52231315Y-40975438D02*
X52612268Y-41051628D01*
X51888458Y-41318295D02*
X51888458Y-40784961D01*
X51888458Y-40937342D02*
X51850363Y-40861152D01*
X51850363Y-40861152D02*
X51812268Y-40823057D01*
X51812268Y-40823057D02*
X51736077Y-40784961D01*
X51736077Y-40784961D02*
X51659887Y-40784961D01*
X51393220Y-40784961D02*
X51393220Y-41318295D01*
X51393220Y-40861152D02*
X51355125Y-40823057D01*
X51355125Y-40823057D02*
X51278935Y-40784961D01*
X51278935Y-40784961D02*
X51164649Y-40784961D01*
X51164649Y-40784961D02*
X51088458Y-40823057D01*
X51088458Y-40823057D02*
X51050363Y-40899247D01*
X51050363Y-40899247D02*
X51050363Y-41318295D01*
X50364648Y-41280200D02*
X50440839Y-41318295D01*
X50440839Y-41318295D02*
X50593220Y-41318295D01*
X50593220Y-41318295D02*
X50669410Y-41280200D01*
X50669410Y-41280200D02*
X50707506Y-41204009D01*
X50707506Y-41204009D02*
X50707506Y-40899247D01*
X50707506Y-40899247D02*
X50669410Y-40823057D01*
X50669410Y-40823057D02*
X50593220Y-40784961D01*
X50593220Y-40784961D02*
X50440839Y-40784961D01*
X50440839Y-40784961D02*
X50364648Y-40823057D01*
X50364648Y-40823057D02*
X50326553Y-40899247D01*
X50326553Y-40899247D02*
X50326553Y-40975438D01*
X50326553Y-40975438D02*
X50707506Y-41051628D01*
X50097982Y-40784961D02*
X49793220Y-40784961D01*
X49983696Y-40518295D02*
X49983696Y-41204009D01*
X49983696Y-41204009D02*
X49945601Y-41280200D01*
X49945601Y-41280200D02*
X49869411Y-41318295D01*
X49869411Y-41318295D02*
X49793220Y-41318295D01*
X49717030Y-41394485D02*
X49107506Y-41394485D01*
X48802744Y-41318295D02*
X48878934Y-41280200D01*
X48878934Y-41280200D02*
X48917029Y-41204009D01*
X48917029Y-41204009D02*
X48917029Y-40518295D01*
X48193219Y-41280200D02*
X48269410Y-41318295D01*
X48269410Y-41318295D02*
X48421791Y-41318295D01*
X48421791Y-41318295D02*
X48497981Y-41280200D01*
X48497981Y-41280200D02*
X48536077Y-41204009D01*
X48536077Y-41204009D02*
X48536077Y-40899247D01*
X48536077Y-40899247D02*
X48497981Y-40823057D01*
X48497981Y-40823057D02*
X48421791Y-40784961D01*
X48421791Y-40784961D02*
X48269410Y-40784961D01*
X48269410Y-40784961D02*
X48193219Y-40823057D01*
X48193219Y-40823057D02*
X48155124Y-40899247D01*
X48155124Y-40899247D02*
X48155124Y-40975438D01*
X48155124Y-40975438D02*
X48536077Y-41051628D01*
X47469410Y-41318295D02*
X47469410Y-40518295D01*
X47469410Y-41280200D02*
X47545601Y-41318295D01*
X47545601Y-41318295D02*
X47697982Y-41318295D01*
X47697982Y-41318295D02*
X47774172Y-41280200D01*
X47774172Y-41280200D02*
X47812267Y-41242104D01*
X47812267Y-41242104D02*
X47850363Y-41165914D01*
X47850363Y-41165914D02*
X47850363Y-40937342D01*
X47850363Y-40937342D02*
X47812267Y-40861152D01*
X47812267Y-40861152D02*
X47774172Y-40823057D01*
X47774172Y-40823057D02*
X47697982Y-40784961D01*
X47697982Y-40784961D02*
X47545601Y-40784961D01*
X47545601Y-40784961D02*
X47469410Y-40823057D01*
X47278934Y-41394485D02*
X46669410Y-41394485D01*
X46136076Y-41318295D02*
X46136076Y-40899247D01*
X46136076Y-40899247D02*
X46174171Y-40823057D01*
X46174171Y-40823057D02*
X46250362Y-40784961D01*
X46250362Y-40784961D02*
X46402743Y-40784961D01*
X46402743Y-40784961D02*
X46478933Y-40823057D01*
X46136076Y-41280200D02*
X46212267Y-41318295D01*
X46212267Y-41318295D02*
X46402743Y-41318295D01*
X46402743Y-41318295D02*
X46478933Y-41280200D01*
X46478933Y-41280200D02*
X46517029Y-41204009D01*
X46517029Y-41204009D02*
X46517029Y-41127819D01*
X46517029Y-41127819D02*
X46478933Y-41051628D01*
X46478933Y-41051628D02*
X46402743Y-41013533D01*
X46402743Y-41013533D02*
X46212267Y-41013533D01*
X46212267Y-41013533D02*
X46136076Y-40975438D01*
X45412266Y-41318295D02*
X45412266Y-40518295D01*
X45412266Y-41280200D02*
X45488457Y-41318295D01*
X45488457Y-41318295D02*
X45640838Y-41318295D01*
X45640838Y-41318295D02*
X45717028Y-41280200D01*
X45717028Y-41280200D02*
X45755123Y-41242104D01*
X45755123Y-41242104D02*
X45793219Y-41165914D01*
X45793219Y-41165914D02*
X45793219Y-40937342D01*
X45793219Y-40937342D02*
X45755123Y-40861152D01*
X45755123Y-40861152D02*
X45717028Y-40823057D01*
X45717028Y-40823057D02*
X45640838Y-40784961D01*
X45640838Y-40784961D02*
X45488457Y-40784961D01*
X45488457Y-40784961D02*
X45412266Y-40823057D01*
X44688456Y-41318295D02*
X44688456Y-40899247D01*
X44688456Y-40899247D02*
X44726551Y-40823057D01*
X44726551Y-40823057D02*
X44802742Y-40784961D01*
X44802742Y-40784961D02*
X44955123Y-40784961D01*
X44955123Y-40784961D02*
X45031313Y-40823057D01*
X44688456Y-41280200D02*
X44764647Y-41318295D01*
X44764647Y-41318295D02*
X44955123Y-41318295D01*
X44955123Y-41318295D02*
X45031313Y-41280200D01*
X45031313Y-41280200D02*
X45069409Y-41204009D01*
X45069409Y-41204009D02*
X45069409Y-41127819D01*
X45069409Y-41127819D02*
X45031313Y-41051628D01*
X45031313Y-41051628D02*
X44955123Y-41013533D01*
X44955123Y-41013533D02*
X44764647Y-41013533D01*
X44764647Y-41013533D02*
X44688456Y-40975438D01*
X44307503Y-40784961D02*
X44307503Y-41584961D01*
X44307503Y-40823057D02*
X44231313Y-40784961D01*
X44231313Y-40784961D02*
X44078932Y-40784961D01*
X44078932Y-40784961D02*
X44002741Y-40823057D01*
X44002741Y-40823057D02*
X43964646Y-40861152D01*
X43964646Y-40861152D02*
X43926551Y-40937342D01*
X43926551Y-40937342D02*
X43926551Y-41165914D01*
X43926551Y-41165914D02*
X43964646Y-41242104D01*
X43964646Y-41242104D02*
X44002741Y-41280200D01*
X44002741Y-41280200D02*
X44078932Y-41318295D01*
X44078932Y-41318295D02*
X44231313Y-41318295D01*
X44231313Y-41318295D02*
X44307503Y-41280200D01*
X43697979Y-40784961D02*
X43393217Y-40784961D01*
X43583693Y-40518295D02*
X43583693Y-41204009D01*
X43583693Y-41204009D02*
X43545598Y-41280200D01*
X43545598Y-41280200D02*
X43469408Y-41318295D01*
X43469408Y-41318295D02*
X43393217Y-41318295D01*
X42821788Y-41280200D02*
X42897979Y-41318295D01*
X42897979Y-41318295D02*
X43050360Y-41318295D01*
X43050360Y-41318295D02*
X43126550Y-41280200D01*
X43126550Y-41280200D02*
X43164646Y-41204009D01*
X43164646Y-41204009D02*
X43164646Y-40899247D01*
X43164646Y-40899247D02*
X43126550Y-40823057D01*
X43126550Y-40823057D02*
X43050360Y-40784961D01*
X43050360Y-40784961D02*
X42897979Y-40784961D01*
X42897979Y-40784961D02*
X42821788Y-40823057D01*
X42821788Y-40823057D02*
X42783693Y-40899247D01*
X42783693Y-40899247D02*
X42783693Y-40975438D01*
X42783693Y-40975438D02*
X43164646Y-41051628D01*
X42440836Y-41318295D02*
X42440836Y-40784961D01*
X42440836Y-40937342D02*
X42402741Y-40861152D01*
X42402741Y-40861152D02*
X42364646Y-40823057D01*
X42364646Y-40823057D02*
X42288455Y-40784961D01*
X42288455Y-40784961D02*
X42212265Y-40784961D01*
X54440839Y-42606295D02*
X54440839Y-42072961D01*
X54440839Y-42225342D02*
X54402744Y-42149152D01*
X54402744Y-42149152D02*
X54364649Y-42111057D01*
X54364649Y-42111057D02*
X54288458Y-42072961D01*
X54288458Y-42072961D02*
X54212268Y-42072961D01*
X53945601Y-42072961D02*
X53945601Y-42758676D01*
X53945601Y-42758676D02*
X53983697Y-42834866D01*
X53983697Y-42834866D02*
X54059887Y-42872961D01*
X54059887Y-42872961D02*
X54097982Y-42872961D01*
X53945601Y-41806295D02*
X53983697Y-41844390D01*
X53983697Y-41844390D02*
X53945601Y-41882485D01*
X53945601Y-41882485D02*
X53907506Y-41844390D01*
X53907506Y-41844390D02*
X53945601Y-41806295D01*
X53945601Y-41806295D02*
X53945601Y-41882485D01*
X53221792Y-42072961D02*
X53221792Y-42606295D01*
X53412268Y-41768200D02*
X53602745Y-42339628D01*
X53602745Y-42339628D02*
X53107506Y-42339628D01*
X52421792Y-41806295D02*
X52802744Y-41806295D01*
X52802744Y-41806295D02*
X52840840Y-42187247D01*
X52840840Y-42187247D02*
X52802744Y-42149152D01*
X52802744Y-42149152D02*
X52726554Y-42111057D01*
X52726554Y-42111057D02*
X52536078Y-42111057D01*
X52536078Y-42111057D02*
X52459887Y-42149152D01*
X52459887Y-42149152D02*
X52421792Y-42187247D01*
X52421792Y-42187247D02*
X52383697Y-42263438D01*
X52383697Y-42263438D02*
X52383697Y-42453914D01*
X52383697Y-42453914D02*
X52421792Y-42530104D01*
X52421792Y-42530104D02*
X52459887Y-42568200D01*
X52459887Y-42568200D02*
X52536078Y-42606295D01*
X52536078Y-42606295D02*
X52726554Y-42606295D01*
X52726554Y-42606295D02*
X52802744Y-42568200D01*
X52802744Y-42568200D02*
X52840840Y-42530104D01*
X52231316Y-42682485D02*
X51621792Y-42682485D01*
X51431315Y-42606295D02*
X51431315Y-41806295D01*
X51431315Y-42111057D02*
X51355125Y-42072961D01*
X51355125Y-42072961D02*
X51202744Y-42072961D01*
X51202744Y-42072961D02*
X51126553Y-42111057D01*
X51126553Y-42111057D02*
X51088458Y-42149152D01*
X51088458Y-42149152D02*
X51050363Y-42225342D01*
X51050363Y-42225342D02*
X51050363Y-42453914D01*
X51050363Y-42453914D02*
X51088458Y-42530104D01*
X51088458Y-42530104D02*
X51126553Y-42568200D01*
X51126553Y-42568200D02*
X51202744Y-42606295D01*
X51202744Y-42606295D02*
X51355125Y-42606295D01*
X51355125Y-42606295D02*
X51431315Y-42568200D01*
X50707505Y-42606295D02*
X50707505Y-42072961D01*
X50707505Y-42225342D02*
X50669410Y-42149152D01*
X50669410Y-42149152D02*
X50631315Y-42111057D01*
X50631315Y-42111057D02*
X50555124Y-42072961D01*
X50555124Y-42072961D02*
X50478934Y-42072961D01*
X49907505Y-42568200D02*
X49983696Y-42606295D01*
X49983696Y-42606295D02*
X50136077Y-42606295D01*
X50136077Y-42606295D02*
X50212267Y-42568200D01*
X50212267Y-42568200D02*
X50250363Y-42492009D01*
X50250363Y-42492009D02*
X50250363Y-42187247D01*
X50250363Y-42187247D02*
X50212267Y-42111057D01*
X50212267Y-42111057D02*
X50136077Y-42072961D01*
X50136077Y-42072961D02*
X49983696Y-42072961D01*
X49983696Y-42072961D02*
X49907505Y-42111057D01*
X49907505Y-42111057D02*
X49869410Y-42187247D01*
X49869410Y-42187247D02*
X49869410Y-42263438D01*
X49869410Y-42263438D02*
X50250363Y-42339628D01*
X49183696Y-42606295D02*
X49183696Y-42187247D01*
X49183696Y-42187247D02*
X49221791Y-42111057D01*
X49221791Y-42111057D02*
X49297982Y-42072961D01*
X49297982Y-42072961D02*
X49450363Y-42072961D01*
X49450363Y-42072961D02*
X49526553Y-42111057D01*
X49183696Y-42568200D02*
X49259887Y-42606295D01*
X49259887Y-42606295D02*
X49450363Y-42606295D01*
X49450363Y-42606295D02*
X49526553Y-42568200D01*
X49526553Y-42568200D02*
X49564649Y-42492009D01*
X49564649Y-42492009D02*
X49564649Y-42415819D01*
X49564649Y-42415819D02*
X49526553Y-42339628D01*
X49526553Y-42339628D02*
X49450363Y-42301533D01*
X49450363Y-42301533D02*
X49259887Y-42301533D01*
X49259887Y-42301533D02*
X49183696Y-42263438D01*
X48802743Y-42606295D02*
X48802743Y-41806295D01*
X48726553Y-42301533D02*
X48497981Y-42606295D01*
X48497981Y-42072961D02*
X48802743Y-42377723D01*
X48040839Y-42606295D02*
X48117029Y-42568200D01*
X48117029Y-42568200D02*
X48155124Y-42530104D01*
X48155124Y-42530104D02*
X48193220Y-42453914D01*
X48193220Y-42453914D02*
X48193220Y-42225342D01*
X48193220Y-42225342D02*
X48155124Y-42149152D01*
X48155124Y-42149152D02*
X48117029Y-42111057D01*
X48117029Y-42111057D02*
X48040839Y-42072961D01*
X48040839Y-42072961D02*
X47926553Y-42072961D01*
X47926553Y-42072961D02*
X47850362Y-42111057D01*
X47850362Y-42111057D02*
X47812267Y-42149152D01*
X47812267Y-42149152D02*
X47774172Y-42225342D01*
X47774172Y-42225342D02*
X47774172Y-42453914D01*
X47774172Y-42453914D02*
X47812267Y-42530104D01*
X47812267Y-42530104D02*
X47850362Y-42568200D01*
X47850362Y-42568200D02*
X47926553Y-42606295D01*
X47926553Y-42606295D02*
X48040839Y-42606295D01*
X47088457Y-42072961D02*
X47088457Y-42606295D01*
X47431314Y-42072961D02*
X47431314Y-42492009D01*
X47431314Y-42492009D02*
X47393219Y-42568200D01*
X47393219Y-42568200D02*
X47317029Y-42606295D01*
X47317029Y-42606295D02*
X47202743Y-42606295D01*
X47202743Y-42606295D02*
X47126552Y-42568200D01*
X47126552Y-42568200D02*
X47088457Y-42530104D01*
X46821790Y-42072961D02*
X46517028Y-42072961D01*
X46707504Y-41806295D02*
X46707504Y-42492009D01*
X46707504Y-42492009D02*
X46669409Y-42568200D01*
X46669409Y-42568200D02*
X46593219Y-42606295D01*
X46593219Y-42606295D02*
X46517028Y-42606295D01*
X54517030Y-43360961D02*
X54326554Y-43894295D01*
X54326554Y-43894295D02*
X54136077Y-43360961D01*
X53412268Y-43894295D02*
X53869411Y-43894295D01*
X53640839Y-43894295D02*
X53640839Y-43094295D01*
X53640839Y-43094295D02*
X53717030Y-43208580D01*
X53717030Y-43208580D02*
X53793220Y-43284771D01*
X53793220Y-43284771D02*
X53869411Y-43322866D01*
X52459886Y-43589533D02*
X51850363Y-43589533D01*
X50517029Y-43856200D02*
X50593220Y-43894295D01*
X50593220Y-43894295D02*
X50745601Y-43894295D01*
X50745601Y-43894295D02*
X50821791Y-43856200D01*
X50821791Y-43856200D02*
X50859886Y-43818104D01*
X50859886Y-43818104D02*
X50897982Y-43741914D01*
X50897982Y-43741914D02*
X50897982Y-43513342D01*
X50897982Y-43513342D02*
X50859886Y-43437152D01*
X50859886Y-43437152D02*
X50821791Y-43399057D01*
X50821791Y-43399057D02*
X50745601Y-43360961D01*
X50745601Y-43360961D02*
X50593220Y-43360961D01*
X50593220Y-43360961D02*
X50517029Y-43399057D01*
X50250363Y-43360961D02*
X50059887Y-43894295D01*
X49869410Y-43360961D02*
X50059887Y-43894295D01*
X50059887Y-43894295D02*
X50136077Y-44084771D01*
X50136077Y-44084771D02*
X50174172Y-44122866D01*
X50174172Y-44122866D02*
X50250363Y-44160961D01*
X49564648Y-43894295D02*
X49564648Y-43094295D01*
X49564648Y-43399057D02*
X49488458Y-43360961D01*
X49488458Y-43360961D02*
X49336077Y-43360961D01*
X49336077Y-43360961D02*
X49259886Y-43399057D01*
X49259886Y-43399057D02*
X49221791Y-43437152D01*
X49221791Y-43437152D02*
X49183696Y-43513342D01*
X49183696Y-43513342D02*
X49183696Y-43741914D01*
X49183696Y-43741914D02*
X49221791Y-43818104D01*
X49221791Y-43818104D02*
X49259886Y-43856200D01*
X49259886Y-43856200D02*
X49336077Y-43894295D01*
X49336077Y-43894295D02*
X49488458Y-43894295D01*
X49488458Y-43894295D02*
X49564648Y-43856200D01*
X48536076Y-43856200D02*
X48612267Y-43894295D01*
X48612267Y-43894295D02*
X48764648Y-43894295D01*
X48764648Y-43894295D02*
X48840838Y-43856200D01*
X48840838Y-43856200D02*
X48878934Y-43780009D01*
X48878934Y-43780009D02*
X48878934Y-43475247D01*
X48878934Y-43475247D02*
X48840838Y-43399057D01*
X48840838Y-43399057D02*
X48764648Y-43360961D01*
X48764648Y-43360961D02*
X48612267Y-43360961D01*
X48612267Y-43360961D02*
X48536076Y-43399057D01*
X48536076Y-43399057D02*
X48497981Y-43475247D01*
X48497981Y-43475247D02*
X48497981Y-43551438D01*
X48497981Y-43551438D02*
X48878934Y-43627628D01*
X48155124Y-43894295D02*
X48155124Y-43360961D01*
X48155124Y-43513342D02*
X48117029Y-43437152D01*
X48117029Y-43437152D02*
X48078934Y-43399057D01*
X48078934Y-43399057D02*
X48002743Y-43360961D01*
X48002743Y-43360961D02*
X47926553Y-43360961D01*
X47659886Y-43894295D02*
X47659886Y-43094295D01*
X47659886Y-43399057D02*
X47583696Y-43360961D01*
X47583696Y-43360961D02*
X47431315Y-43360961D01*
X47431315Y-43360961D02*
X47355124Y-43399057D01*
X47355124Y-43399057D02*
X47317029Y-43437152D01*
X47317029Y-43437152D02*
X47278934Y-43513342D01*
X47278934Y-43513342D02*
X47278934Y-43741914D01*
X47278934Y-43741914D02*
X47317029Y-43818104D01*
X47317029Y-43818104D02*
X47355124Y-43856200D01*
X47355124Y-43856200D02*
X47431315Y-43894295D01*
X47431315Y-43894295D02*
X47583696Y-43894295D01*
X47583696Y-43894295D02*
X47659886Y-43856200D01*
X46821791Y-43894295D02*
X46897981Y-43856200D01*
X46897981Y-43856200D02*
X46936076Y-43818104D01*
X46936076Y-43818104D02*
X46974172Y-43741914D01*
X46974172Y-43741914D02*
X46974172Y-43513342D01*
X46974172Y-43513342D02*
X46936076Y-43437152D01*
X46936076Y-43437152D02*
X46897981Y-43399057D01*
X46897981Y-43399057D02*
X46821791Y-43360961D01*
X46821791Y-43360961D02*
X46707505Y-43360961D01*
X46707505Y-43360961D02*
X46631314Y-43399057D01*
X46631314Y-43399057D02*
X46593219Y-43437152D01*
X46593219Y-43437152D02*
X46555124Y-43513342D01*
X46555124Y-43513342D02*
X46555124Y-43741914D01*
X46555124Y-43741914D02*
X46593219Y-43818104D01*
X46593219Y-43818104D02*
X46631314Y-43856200D01*
X46631314Y-43856200D02*
X46707505Y-43894295D01*
X46707505Y-43894295D02*
X46821791Y-43894295D01*
X46288457Y-43360961D02*
X46097981Y-43894295D01*
X45907504Y-43360961D02*
X46097981Y-43894295D01*
X46097981Y-43894295D02*
X46174171Y-44084771D01*
X46174171Y-44084771D02*
X46212266Y-44122866D01*
X46212266Y-44122866D02*
X46288457Y-44160961D01*
X45259885Y-43094295D02*
X45412266Y-43094295D01*
X45412266Y-43094295D02*
X45488457Y-43132390D01*
X45488457Y-43132390D02*
X45526552Y-43170485D01*
X45526552Y-43170485D02*
X45602742Y-43284771D01*
X45602742Y-43284771D02*
X45640838Y-43437152D01*
X45640838Y-43437152D02*
X45640838Y-43741914D01*
X45640838Y-43741914D02*
X45602742Y-43818104D01*
X45602742Y-43818104D02*
X45564647Y-43856200D01*
X45564647Y-43856200D02*
X45488457Y-43894295D01*
X45488457Y-43894295D02*
X45336076Y-43894295D01*
X45336076Y-43894295D02*
X45259885Y-43856200D01*
X45259885Y-43856200D02*
X45221790Y-43818104D01*
X45221790Y-43818104D02*
X45183695Y-43741914D01*
X45183695Y-43741914D02*
X45183695Y-43551438D01*
X45183695Y-43551438D02*
X45221790Y-43475247D01*
X45221790Y-43475247D02*
X45259885Y-43437152D01*
X45259885Y-43437152D02*
X45336076Y-43399057D01*
X45336076Y-43399057D02*
X45488457Y-43399057D01*
X45488457Y-43399057D02*
X45564647Y-43437152D01*
X45564647Y-43437152D02*
X45602742Y-43475247D01*
X45602742Y-43475247D02*
X45640838Y-43551438D01*
X44497980Y-43094295D02*
X44650361Y-43094295D01*
X44650361Y-43094295D02*
X44726552Y-43132390D01*
X44726552Y-43132390D02*
X44764647Y-43170485D01*
X44764647Y-43170485D02*
X44840837Y-43284771D01*
X44840837Y-43284771D02*
X44878933Y-43437152D01*
X44878933Y-43437152D02*
X44878933Y-43741914D01*
X44878933Y-43741914D02*
X44840837Y-43818104D01*
X44840837Y-43818104D02*
X44802742Y-43856200D01*
X44802742Y-43856200D02*
X44726552Y-43894295D01*
X44726552Y-43894295D02*
X44574171Y-43894295D01*
X44574171Y-43894295D02*
X44497980Y-43856200D01*
X44497980Y-43856200D02*
X44459885Y-43818104D01*
X44459885Y-43818104D02*
X44421790Y-43741914D01*
X44421790Y-43741914D02*
X44421790Y-43551438D01*
X44421790Y-43551438D02*
X44459885Y-43475247D01*
X44459885Y-43475247D02*
X44497980Y-43437152D01*
X44497980Y-43437152D02*
X44574171Y-43399057D01*
X44574171Y-43399057D02*
X44726552Y-43399057D01*
X44726552Y-43399057D02*
X44802742Y-43437152D01*
X44802742Y-43437152D02*
X44840837Y-43475247D01*
X44840837Y-43475247D02*
X44878933Y-43551438D01*
X43736075Y-43094295D02*
X43888456Y-43094295D01*
X43888456Y-43094295D02*
X43964647Y-43132390D01*
X43964647Y-43132390D02*
X44002742Y-43170485D01*
X44002742Y-43170485D02*
X44078932Y-43284771D01*
X44078932Y-43284771D02*
X44117028Y-43437152D01*
X44117028Y-43437152D02*
X44117028Y-43741914D01*
X44117028Y-43741914D02*
X44078932Y-43818104D01*
X44078932Y-43818104D02*
X44040837Y-43856200D01*
X44040837Y-43856200D02*
X43964647Y-43894295D01*
X43964647Y-43894295D02*
X43812266Y-43894295D01*
X43812266Y-43894295D02*
X43736075Y-43856200D01*
X43736075Y-43856200D02*
X43697980Y-43818104D01*
X43697980Y-43818104D02*
X43659885Y-43741914D01*
X43659885Y-43741914D02*
X43659885Y-43551438D01*
X43659885Y-43551438D02*
X43697980Y-43475247D01*
X43697980Y-43475247D02*
X43736075Y-43437152D01*
X43736075Y-43437152D02*
X43812266Y-43399057D01*
X43812266Y-43399057D02*
X43964647Y-43399057D01*
X43964647Y-43399057D02*
X44040837Y-43437152D01*
X44040837Y-43437152D02*
X44078932Y-43475247D01*
X44078932Y-43475247D02*
X44117028Y-43551438D01*
D11*
X55241428Y-55562641D02*
X55241428Y-56141212D01*
X55241428Y-56141212D02*
X55279999Y-56256927D01*
X55279999Y-56256927D02*
X55357142Y-56334070D01*
X55357142Y-56334070D02*
X55472856Y-56372641D01*
X55472856Y-56372641D02*
X55549999Y-56372641D01*
X54469999Y-56372641D02*
X54855713Y-56372641D01*
X54855713Y-56372641D02*
X54855713Y-55562641D01*
X53737142Y-56295498D02*
X53775714Y-56334070D01*
X53775714Y-56334070D02*
X53891428Y-56372641D01*
X53891428Y-56372641D02*
X53968571Y-56372641D01*
X53968571Y-56372641D02*
X54084285Y-56334070D01*
X54084285Y-56334070D02*
X54161428Y-56256927D01*
X54161428Y-56256927D02*
X54199999Y-56179784D01*
X54199999Y-56179784D02*
X54238571Y-56025498D01*
X54238571Y-56025498D02*
X54238571Y-55909784D01*
X54238571Y-55909784D02*
X54199999Y-55755498D01*
X54199999Y-55755498D02*
X54161428Y-55678355D01*
X54161428Y-55678355D02*
X54084285Y-55601212D01*
X54084285Y-55601212D02*
X53968571Y-55562641D01*
X53968571Y-55562641D02*
X53891428Y-55562641D01*
X53891428Y-55562641D02*
X53775714Y-55601212D01*
X53775714Y-55601212D02*
X53737142Y-55639784D01*
X53158571Y-55562641D02*
X53158571Y-56141212D01*
X53158571Y-56141212D02*
X53197142Y-56256927D01*
X53197142Y-56256927D02*
X53274285Y-56334070D01*
X53274285Y-56334070D02*
X53389999Y-56372641D01*
X53389999Y-56372641D02*
X53467142Y-56372641D01*
X52387142Y-56372641D02*
X52772856Y-56372641D01*
X52772856Y-56372641D02*
X52772856Y-55562641D01*
X51654285Y-56295498D02*
X51692857Y-56334070D01*
X51692857Y-56334070D02*
X51808571Y-56372641D01*
X51808571Y-56372641D02*
X51885714Y-56372641D01*
X51885714Y-56372641D02*
X52001428Y-56334070D01*
X52001428Y-56334070D02*
X52078571Y-56256927D01*
X52078571Y-56256927D02*
X52117142Y-56179784D01*
X52117142Y-56179784D02*
X52155714Y-56025498D01*
X52155714Y-56025498D02*
X52155714Y-55909784D01*
X52155714Y-55909784D02*
X52117142Y-55755498D01*
X52117142Y-55755498D02*
X52078571Y-55678355D01*
X52078571Y-55678355D02*
X52001428Y-55601212D01*
X52001428Y-55601212D02*
X51885714Y-55562641D01*
X51885714Y-55562641D02*
X51808571Y-55562641D01*
X51808571Y-55562641D02*
X51692857Y-55601212D01*
X51692857Y-55601212D02*
X51654285Y-55639784D01*
X51075714Y-55562641D02*
X51075714Y-56141212D01*
X51075714Y-56141212D02*
X51114285Y-56256927D01*
X51114285Y-56256927D02*
X51191428Y-56334070D01*
X51191428Y-56334070D02*
X51307142Y-56372641D01*
X51307142Y-56372641D02*
X51384285Y-56372641D01*
X50304285Y-56372641D02*
X50689999Y-56372641D01*
X50689999Y-56372641D02*
X50689999Y-55562641D01*
X49571428Y-56295498D02*
X49610000Y-56334070D01*
X49610000Y-56334070D02*
X49725714Y-56372641D01*
X49725714Y-56372641D02*
X49802857Y-56372641D01*
X49802857Y-56372641D02*
X49918571Y-56334070D01*
X49918571Y-56334070D02*
X49995714Y-56256927D01*
X49995714Y-56256927D02*
X50034285Y-56179784D01*
X50034285Y-56179784D02*
X50072857Y-56025498D01*
X50072857Y-56025498D02*
X50072857Y-55909784D01*
X50072857Y-55909784D02*
X50034285Y-55755498D01*
X50034285Y-55755498D02*
X49995714Y-55678355D01*
X49995714Y-55678355D02*
X49918571Y-55601212D01*
X49918571Y-55601212D02*
X49802857Y-55562641D01*
X49802857Y-55562641D02*
X49725714Y-55562641D01*
X49725714Y-55562641D02*
X49610000Y-55601212D01*
X49610000Y-55601212D02*
X49571428Y-55639784D01*
X48992857Y-55562641D02*
X48992857Y-56141212D01*
X48992857Y-56141212D02*
X49031428Y-56256927D01*
X49031428Y-56256927D02*
X49108571Y-56334070D01*
X49108571Y-56334070D02*
X49224285Y-56372641D01*
X49224285Y-56372641D02*
X49301428Y-56372641D01*
X48221428Y-56372641D02*
X48607142Y-56372641D01*
X48607142Y-56372641D02*
X48607142Y-55562641D01*
X47488571Y-56295498D02*
X47527143Y-56334070D01*
X47527143Y-56334070D02*
X47642857Y-56372641D01*
X47642857Y-56372641D02*
X47720000Y-56372641D01*
X47720000Y-56372641D02*
X47835714Y-56334070D01*
X47835714Y-56334070D02*
X47912857Y-56256927D01*
X47912857Y-56256927D02*
X47951428Y-56179784D01*
X47951428Y-56179784D02*
X47990000Y-56025498D01*
X47990000Y-56025498D02*
X47990000Y-55909784D01*
X47990000Y-55909784D02*
X47951428Y-55755498D01*
X47951428Y-55755498D02*
X47912857Y-55678355D01*
X47912857Y-55678355D02*
X47835714Y-55601212D01*
X47835714Y-55601212D02*
X47720000Y-55562641D01*
X47720000Y-55562641D02*
X47642857Y-55562641D01*
X47642857Y-55562641D02*
X47527143Y-55601212D01*
X47527143Y-55601212D02*
X47488571Y-55639784D01*
M02*
