%TF.GenerationSoftware,KiCad,Pcbnew,7.0.9*%
%TF.CreationDate,2024-01-22T18:23:32+13:00*%
%TF.ProjectId,rj45_breakout,726a3435-5f62-4726-9561-6b6f75742e6b,rev?*%
%TF.SameCoordinates,Original*%
%TF.FileFunction,Legend,Top*%
%TF.FilePolarity,Positive*%
%FSLAX46Y46*%
G04 Gerber Fmt 4.6, Leading zero omitted, Abs format (unit mm)*
G04 Created by KiCad (PCBNEW 7.0.9) date 2024-01-22 18:23:32*
%MOMM*%
%LPD*%
G01*
G04 APERTURE LIST*
%ADD10C,0.150000*%
%ADD11C,0.120000*%
G04 APERTURE END LIST*
D10*
X43862017Y-54394295D02*
X43862017Y-53594295D01*
X43862017Y-54356200D02*
X43785826Y-54394295D01*
X43785826Y-54394295D02*
X43633445Y-54394295D01*
X43633445Y-54394295D02*
X43557255Y-54356200D01*
X43557255Y-54356200D02*
X43519160Y-54318104D01*
X43519160Y-54318104D02*
X43481064Y-54241914D01*
X43481064Y-54241914D02*
X43481064Y-54013342D01*
X43481064Y-54013342D02*
X43519160Y-53937152D01*
X43519160Y-53937152D02*
X43557255Y-53899057D01*
X43557255Y-53899057D02*
X43633445Y-53860961D01*
X43633445Y-53860961D02*
X43785826Y-53860961D01*
X43785826Y-53860961D02*
X43862017Y-53899057D01*
X44662017Y-54394295D02*
X44204874Y-54394295D01*
X44433446Y-54394295D02*
X44433446Y-53594295D01*
X44433446Y-53594295D02*
X44357255Y-53708580D01*
X44357255Y-53708580D02*
X44281065Y-53784771D01*
X44281065Y-53784771D02*
X44204874Y-53822866D01*
X47176304Y-54394295D02*
X47176304Y-53594295D01*
X47176304Y-54356200D02*
X47100113Y-54394295D01*
X47100113Y-54394295D02*
X46947732Y-54394295D01*
X46947732Y-54394295D02*
X46871542Y-54356200D01*
X46871542Y-54356200D02*
X46833447Y-54318104D01*
X46833447Y-54318104D02*
X46795351Y-54241914D01*
X46795351Y-54241914D02*
X46795351Y-54013342D01*
X46795351Y-54013342D02*
X46833447Y-53937152D01*
X46833447Y-53937152D02*
X46871542Y-53899057D01*
X46871542Y-53899057D02*
X46947732Y-53860961D01*
X46947732Y-53860961D02*
X47100113Y-53860961D01*
X47100113Y-53860961D02*
X47176304Y-53899057D01*
X47519161Y-53670485D02*
X47557257Y-53632390D01*
X47557257Y-53632390D02*
X47633447Y-53594295D01*
X47633447Y-53594295D02*
X47823923Y-53594295D01*
X47823923Y-53594295D02*
X47900114Y-53632390D01*
X47900114Y-53632390D02*
X47938209Y-53670485D01*
X47938209Y-53670485D02*
X47976304Y-53746676D01*
X47976304Y-53746676D02*
X47976304Y-53822866D01*
X47976304Y-53822866D02*
X47938209Y-53937152D01*
X47938209Y-53937152D02*
X47481066Y-54394295D01*
X47481066Y-54394295D02*
X47976304Y-54394295D01*
X50490591Y-54394295D02*
X50490591Y-53594295D01*
X50490591Y-54356200D02*
X50414400Y-54394295D01*
X50414400Y-54394295D02*
X50262019Y-54394295D01*
X50262019Y-54394295D02*
X50185829Y-54356200D01*
X50185829Y-54356200D02*
X50147734Y-54318104D01*
X50147734Y-54318104D02*
X50109638Y-54241914D01*
X50109638Y-54241914D02*
X50109638Y-54013342D01*
X50109638Y-54013342D02*
X50147734Y-53937152D01*
X50147734Y-53937152D02*
X50185829Y-53899057D01*
X50185829Y-53899057D02*
X50262019Y-53860961D01*
X50262019Y-53860961D02*
X50414400Y-53860961D01*
X50414400Y-53860961D02*
X50490591Y-53899057D01*
X50795353Y-53594295D02*
X51290591Y-53594295D01*
X51290591Y-53594295D02*
X51023925Y-53899057D01*
X51023925Y-53899057D02*
X51138210Y-53899057D01*
X51138210Y-53899057D02*
X51214401Y-53937152D01*
X51214401Y-53937152D02*
X51252496Y-53975247D01*
X51252496Y-53975247D02*
X51290591Y-54051438D01*
X51290591Y-54051438D02*
X51290591Y-54241914D01*
X51290591Y-54241914D02*
X51252496Y-54318104D01*
X51252496Y-54318104D02*
X51214401Y-54356200D01*
X51214401Y-54356200D02*
X51138210Y-54394295D01*
X51138210Y-54394295D02*
X50909639Y-54394295D01*
X50909639Y-54394295D02*
X50833448Y-54356200D01*
X50833448Y-54356200D02*
X50795353Y-54318104D01*
X53804878Y-54394295D02*
X53804878Y-53594295D01*
X53804878Y-54356200D02*
X53728687Y-54394295D01*
X53728687Y-54394295D02*
X53576306Y-54394295D01*
X53576306Y-54394295D02*
X53500116Y-54356200D01*
X53500116Y-54356200D02*
X53462021Y-54318104D01*
X53462021Y-54318104D02*
X53423925Y-54241914D01*
X53423925Y-54241914D02*
X53423925Y-54013342D01*
X53423925Y-54013342D02*
X53462021Y-53937152D01*
X53462021Y-53937152D02*
X53500116Y-53899057D01*
X53500116Y-53899057D02*
X53576306Y-53860961D01*
X53576306Y-53860961D02*
X53728687Y-53860961D01*
X53728687Y-53860961D02*
X53804878Y-53899057D01*
X54528688Y-53860961D02*
X54528688Y-54394295D01*
X54338212Y-53556200D02*
X54147735Y-54127628D01*
X54147735Y-54127628D02*
X54642974Y-54127628D01*
X48571666Y-41454819D02*
X48571666Y-42169104D01*
X48571666Y-42169104D02*
X48524047Y-42311961D01*
X48524047Y-42311961D02*
X48428809Y-42407200D01*
X48428809Y-42407200D02*
X48285952Y-42454819D01*
X48285952Y-42454819D02*
X48190714Y-42454819D01*
X49571666Y-42454819D02*
X49000238Y-42454819D01*
X49285952Y-42454819D02*
X49285952Y-41454819D01*
X49285952Y-41454819D02*
X49190714Y-41597676D01*
X49190714Y-41597676D02*
X49095476Y-41692914D01*
X49095476Y-41692914D02*
X49000238Y-41740533D01*
X48876666Y-40501019D02*
X48876666Y-41215304D01*
X48876666Y-41215304D02*
X48829047Y-41358161D01*
X48829047Y-41358161D02*
X48733809Y-41453400D01*
X48733809Y-41453400D02*
X48590952Y-41501019D01*
X48590952Y-41501019D02*
X48495714Y-41501019D01*
X49305238Y-40596257D02*
X49352857Y-40548638D01*
X49352857Y-40548638D02*
X49448095Y-40501019D01*
X49448095Y-40501019D02*
X49686190Y-40501019D01*
X49686190Y-40501019D02*
X49781428Y-40548638D01*
X49781428Y-40548638D02*
X49829047Y-40596257D01*
X49829047Y-40596257D02*
X49876666Y-40691495D01*
X49876666Y-40691495D02*
X49876666Y-40786733D01*
X49876666Y-40786733D02*
X49829047Y-40929590D01*
X49829047Y-40929590D02*
X49257619Y-41501019D01*
X49257619Y-41501019D02*
X49876666Y-41501019D01*
D11*
%TO.C,J1*%
X57350000Y-37500000D02*
X57350000Y-36500000D01*
X57350000Y-36500000D02*
X56850000Y-37000000D01*
X56850000Y-37000000D02*
X57350000Y-37500000D01*
X56665000Y-40880000D02*
X56665000Y-22920000D01*
X56665000Y-22920000D02*
X41145000Y-22920000D01*
X41145000Y-40880000D02*
X56665000Y-40880000D01*
X41145000Y-40880000D02*
X41145000Y-22920000D01*
%TO.C,J2*%
X40610000Y-41946200D02*
X57110000Y-41946200D01*
X57110000Y-41946200D02*
X57110000Y-52996200D01*
X57110000Y-52996200D02*
X40610000Y-52996200D01*
X40610000Y-52996200D02*
X40610000Y-41946200D01*
%TD*%
M02*
