%TF.GenerationSoftware,KiCad,Pcbnew,7.0.9*%
%TF.CreationDate,2024-07-05T12:55:42+10:00*%
%TF.ProjectId,ethernet_led_controller,65746865-726e-4657-945f-6c65645f636f,v1_1_0*%
%TF.SameCoordinates,Original*%
%TF.FileFunction,Legend,Top*%
%TF.FilePolarity,Positive*%
%FSLAX46Y46*%
G04 Gerber Fmt 4.6, Leading zero omitted, Abs format (unit mm)*
G04 Created by KiCad (PCBNEW 7.0.9) date 2024-07-05 12:55:42*
%MOMM*%
%LPD*%
G01*
G04 APERTURE LIST*
%ADD10C,0.100000*%
%ADD11C,0.150000*%
%ADD12C,0.300000*%
%ADD13C,0.120000*%
G04 APERTURE END LIST*
D10*
X186759000Y-120240000D02*
G75*
G03*
X186759000Y-120240000I-3500000J0D01*
G01*
X93759000Y-67240000D02*
G75*
G03*
X93759000Y-67240000I-3500000J0D01*
G01*
X93759000Y-120240000D02*
G75*
G03*
X93759000Y-120240000I-3500000J0D01*
G01*
X186759000Y-67240000D02*
G75*
G03*
X186759000Y-67240000I-3500000J0D01*
G01*
X87470550Y-89385990D02*
X87446741Y-89409800D01*
X87446741Y-89409800D02*
X87375312Y-89433609D01*
X87375312Y-89433609D02*
X87327693Y-89433609D01*
X87327693Y-89433609D02*
X87256265Y-89409800D01*
X87256265Y-89409800D02*
X87208646Y-89362180D01*
X87208646Y-89362180D02*
X87184836Y-89314561D01*
X87184836Y-89314561D02*
X87161027Y-89219323D01*
X87161027Y-89219323D02*
X87161027Y-89147895D01*
X87161027Y-89147895D02*
X87184836Y-89052657D01*
X87184836Y-89052657D02*
X87208646Y-89005038D01*
X87208646Y-89005038D02*
X87256265Y-88957419D01*
X87256265Y-88957419D02*
X87327693Y-88933609D01*
X87327693Y-88933609D02*
X87375312Y-88933609D01*
X87375312Y-88933609D02*
X87446741Y-88957419D01*
X87446741Y-88957419D02*
X87470550Y-88981228D01*
X87780074Y-88933609D02*
X87875312Y-88933609D01*
X87875312Y-88933609D02*
X87922931Y-88957419D01*
X87922931Y-88957419D02*
X87970550Y-89005038D01*
X87970550Y-89005038D02*
X87994360Y-89100276D01*
X87994360Y-89100276D02*
X87994360Y-89266942D01*
X87994360Y-89266942D02*
X87970550Y-89362180D01*
X87970550Y-89362180D02*
X87922931Y-89409800D01*
X87922931Y-89409800D02*
X87875312Y-89433609D01*
X87875312Y-89433609D02*
X87780074Y-89433609D01*
X87780074Y-89433609D02*
X87732455Y-89409800D01*
X87732455Y-89409800D02*
X87684836Y-89362180D01*
X87684836Y-89362180D02*
X87661027Y-89266942D01*
X87661027Y-89266942D02*
X87661027Y-89100276D01*
X87661027Y-89100276D02*
X87684836Y-89005038D01*
X87684836Y-89005038D02*
X87732455Y-88957419D01*
X87732455Y-88957419D02*
X87780074Y-88933609D01*
X88208646Y-89433609D02*
X88208646Y-88933609D01*
X88208646Y-88933609D02*
X88494360Y-89433609D01*
X88494360Y-89433609D02*
X88494360Y-88933609D01*
X88661028Y-88933609D02*
X88946742Y-88933609D01*
X88803885Y-89433609D02*
X88803885Y-88933609D01*
X89399122Y-89433609D02*
X89232456Y-89195514D01*
X89113408Y-89433609D02*
X89113408Y-88933609D01*
X89113408Y-88933609D02*
X89303884Y-88933609D01*
X89303884Y-88933609D02*
X89351503Y-88957419D01*
X89351503Y-88957419D02*
X89375313Y-88981228D01*
X89375313Y-88981228D02*
X89399122Y-89028847D01*
X89399122Y-89028847D02*
X89399122Y-89100276D01*
X89399122Y-89100276D02*
X89375313Y-89147895D01*
X89375313Y-89147895D02*
X89351503Y-89171704D01*
X89351503Y-89171704D02*
X89303884Y-89195514D01*
X89303884Y-89195514D02*
X89113408Y-89195514D01*
X89708646Y-88933609D02*
X89803884Y-88933609D01*
X89803884Y-88933609D02*
X89851503Y-88957419D01*
X89851503Y-88957419D02*
X89899122Y-89005038D01*
X89899122Y-89005038D02*
X89922932Y-89100276D01*
X89922932Y-89100276D02*
X89922932Y-89266942D01*
X89922932Y-89266942D02*
X89899122Y-89362180D01*
X89899122Y-89362180D02*
X89851503Y-89409800D01*
X89851503Y-89409800D02*
X89803884Y-89433609D01*
X89803884Y-89433609D02*
X89708646Y-89433609D01*
X89708646Y-89433609D02*
X89661027Y-89409800D01*
X89661027Y-89409800D02*
X89613408Y-89362180D01*
X89613408Y-89362180D02*
X89589599Y-89266942D01*
X89589599Y-89266942D02*
X89589599Y-89100276D01*
X89589599Y-89100276D02*
X89613408Y-89005038D01*
X89613408Y-89005038D02*
X89661027Y-88957419D01*
X89661027Y-88957419D02*
X89708646Y-88933609D01*
X90375313Y-89433609D02*
X90137218Y-89433609D01*
X90137218Y-89433609D02*
X90137218Y-88933609D01*
X90780075Y-89433609D02*
X90541980Y-89433609D01*
X90541980Y-89433609D02*
X90541980Y-88933609D01*
X90946742Y-89171704D02*
X91113409Y-89171704D01*
X91184837Y-89433609D02*
X90946742Y-89433609D01*
X90946742Y-89433609D02*
X90946742Y-88933609D01*
X90946742Y-88933609D02*
X91184837Y-88933609D01*
X91684837Y-89433609D02*
X91518171Y-89195514D01*
X91399123Y-89433609D02*
X91399123Y-88933609D01*
X91399123Y-88933609D02*
X91589599Y-88933609D01*
X91589599Y-88933609D02*
X91637218Y-88957419D01*
X91637218Y-88957419D02*
X91661028Y-88981228D01*
X91661028Y-88981228D02*
X91684837Y-89028847D01*
X91684837Y-89028847D02*
X91684837Y-89100276D01*
X91684837Y-89100276D02*
X91661028Y-89147895D01*
X91661028Y-89147895D02*
X91637218Y-89171704D01*
X91637218Y-89171704D02*
X91589599Y-89195514D01*
X91589599Y-89195514D02*
X91399123Y-89195514D01*
X92565789Y-89433609D02*
X92399123Y-89195514D01*
X92280075Y-89433609D02*
X92280075Y-88933609D01*
X92280075Y-88933609D02*
X92470551Y-88933609D01*
X92470551Y-88933609D02*
X92518170Y-88957419D01*
X92518170Y-88957419D02*
X92541980Y-88981228D01*
X92541980Y-88981228D02*
X92565789Y-89028847D01*
X92565789Y-89028847D02*
X92565789Y-89100276D01*
X92565789Y-89100276D02*
X92541980Y-89147895D01*
X92541980Y-89147895D02*
X92518170Y-89171704D01*
X92518170Y-89171704D02*
X92470551Y-89195514D01*
X92470551Y-89195514D02*
X92280075Y-89195514D01*
X92780075Y-89171704D02*
X92946742Y-89171704D01*
X93018170Y-89433609D02*
X92780075Y-89433609D01*
X92780075Y-89433609D02*
X92780075Y-88933609D01*
X92780075Y-88933609D02*
X93018170Y-88933609D01*
X93208647Y-89409800D02*
X93280075Y-89433609D01*
X93280075Y-89433609D02*
X93399123Y-89433609D01*
X93399123Y-89433609D02*
X93446742Y-89409800D01*
X93446742Y-89409800D02*
X93470551Y-89385990D01*
X93470551Y-89385990D02*
X93494361Y-89338371D01*
X93494361Y-89338371D02*
X93494361Y-89290752D01*
X93494361Y-89290752D02*
X93470551Y-89243133D01*
X93470551Y-89243133D02*
X93446742Y-89219323D01*
X93446742Y-89219323D02*
X93399123Y-89195514D01*
X93399123Y-89195514D02*
X93303885Y-89171704D01*
X93303885Y-89171704D02*
X93256266Y-89147895D01*
X93256266Y-89147895D02*
X93232456Y-89124085D01*
X93232456Y-89124085D02*
X93208647Y-89076466D01*
X93208647Y-89076466D02*
X93208647Y-89028847D01*
X93208647Y-89028847D02*
X93232456Y-88981228D01*
X93232456Y-88981228D02*
X93256266Y-88957419D01*
X93256266Y-88957419D02*
X93303885Y-88933609D01*
X93303885Y-88933609D02*
X93422932Y-88933609D01*
X93422932Y-88933609D02*
X93494361Y-88957419D01*
X93708646Y-89171704D02*
X93875313Y-89171704D01*
X93946741Y-89433609D02*
X93708646Y-89433609D01*
X93708646Y-89433609D02*
X93708646Y-88933609D01*
X93708646Y-88933609D02*
X93946741Y-88933609D01*
X94089599Y-88933609D02*
X94375313Y-88933609D01*
X94232456Y-89433609D02*
X94232456Y-88933609D01*
D11*
X163936779Y-114469819D02*
X163936779Y-113469819D01*
X163936779Y-113469819D02*
X164174874Y-113469819D01*
X164174874Y-113469819D02*
X164317731Y-113517438D01*
X164317731Y-113517438D02*
X164412969Y-113612676D01*
X164412969Y-113612676D02*
X164460588Y-113707914D01*
X164460588Y-113707914D02*
X164508207Y-113898390D01*
X164508207Y-113898390D02*
X164508207Y-114041247D01*
X164508207Y-114041247D02*
X164460588Y-114231723D01*
X164460588Y-114231723D02*
X164412969Y-114326961D01*
X164412969Y-114326961D02*
X164317731Y-114422200D01*
X164317731Y-114422200D02*
X164174874Y-114469819D01*
X164174874Y-114469819D02*
X163936779Y-114469819D01*
X165365350Y-113803152D02*
X165365350Y-114469819D01*
X165127255Y-113422200D02*
X164889160Y-114136485D01*
X164889160Y-114136485D02*
X165508207Y-114136485D01*
X167412970Y-114469819D02*
X167412970Y-113469819D01*
X167412970Y-113469819D02*
X167651065Y-113469819D01*
X167651065Y-113469819D02*
X167793922Y-113517438D01*
X167793922Y-113517438D02*
X167889160Y-113612676D01*
X167889160Y-113612676D02*
X167936779Y-113707914D01*
X167936779Y-113707914D02*
X167984398Y-113898390D01*
X167984398Y-113898390D02*
X167984398Y-114041247D01*
X167984398Y-114041247D02*
X167936779Y-114231723D01*
X167936779Y-114231723D02*
X167889160Y-114326961D01*
X167889160Y-114326961D02*
X167793922Y-114422200D01*
X167793922Y-114422200D02*
X167651065Y-114469819D01*
X167651065Y-114469819D02*
X167412970Y-114469819D01*
X168889160Y-113469819D02*
X168412970Y-113469819D01*
X168412970Y-113469819D02*
X168365351Y-113946009D01*
X168365351Y-113946009D02*
X168412970Y-113898390D01*
X168412970Y-113898390D02*
X168508208Y-113850771D01*
X168508208Y-113850771D02*
X168746303Y-113850771D01*
X168746303Y-113850771D02*
X168841541Y-113898390D01*
X168841541Y-113898390D02*
X168889160Y-113946009D01*
X168889160Y-113946009D02*
X168936779Y-114041247D01*
X168936779Y-114041247D02*
X168936779Y-114279342D01*
X168936779Y-114279342D02*
X168889160Y-114374580D01*
X168889160Y-114374580D02*
X168841541Y-114422200D01*
X168841541Y-114422200D02*
X168746303Y-114469819D01*
X168746303Y-114469819D02*
X168508208Y-114469819D01*
X168508208Y-114469819D02*
X168412970Y-114422200D01*
X168412970Y-114422200D02*
X168365351Y-114374580D01*
X170889161Y-114469819D02*
X170889161Y-113469819D01*
X170889161Y-113469819D02*
X171127256Y-113469819D01*
X171127256Y-113469819D02*
X171270113Y-113517438D01*
X171270113Y-113517438D02*
X171365351Y-113612676D01*
X171365351Y-113612676D02*
X171412970Y-113707914D01*
X171412970Y-113707914D02*
X171460589Y-113898390D01*
X171460589Y-113898390D02*
X171460589Y-114041247D01*
X171460589Y-114041247D02*
X171412970Y-114231723D01*
X171412970Y-114231723D02*
X171365351Y-114326961D01*
X171365351Y-114326961D02*
X171270113Y-114422200D01*
X171270113Y-114422200D02*
X171127256Y-114469819D01*
X171127256Y-114469819D02*
X170889161Y-114469819D01*
X172317732Y-113469819D02*
X172127256Y-113469819D01*
X172127256Y-113469819D02*
X172032018Y-113517438D01*
X172032018Y-113517438D02*
X171984399Y-113565057D01*
X171984399Y-113565057D02*
X171889161Y-113707914D01*
X171889161Y-113707914D02*
X171841542Y-113898390D01*
X171841542Y-113898390D02*
X171841542Y-114279342D01*
X171841542Y-114279342D02*
X171889161Y-114374580D01*
X171889161Y-114374580D02*
X171936780Y-114422200D01*
X171936780Y-114422200D02*
X172032018Y-114469819D01*
X172032018Y-114469819D02*
X172222494Y-114469819D01*
X172222494Y-114469819D02*
X172317732Y-114422200D01*
X172317732Y-114422200D02*
X172365351Y-114374580D01*
X172365351Y-114374580D02*
X172412970Y-114279342D01*
X172412970Y-114279342D02*
X172412970Y-114041247D01*
X172412970Y-114041247D02*
X172365351Y-113946009D01*
X172365351Y-113946009D02*
X172317732Y-113898390D01*
X172317732Y-113898390D02*
X172222494Y-113850771D01*
X172222494Y-113850771D02*
X172032018Y-113850771D01*
X172032018Y-113850771D02*
X171936780Y-113898390D01*
X171936780Y-113898390D02*
X171889161Y-113946009D01*
X171889161Y-113946009D02*
X171841542Y-114041247D01*
X174365352Y-114469819D02*
X174365352Y-113469819D01*
X174365352Y-113469819D02*
X174603447Y-113469819D01*
X174603447Y-113469819D02*
X174746304Y-113517438D01*
X174746304Y-113517438D02*
X174841542Y-113612676D01*
X174841542Y-113612676D02*
X174889161Y-113707914D01*
X174889161Y-113707914D02*
X174936780Y-113898390D01*
X174936780Y-113898390D02*
X174936780Y-114041247D01*
X174936780Y-114041247D02*
X174889161Y-114231723D01*
X174889161Y-114231723D02*
X174841542Y-114326961D01*
X174841542Y-114326961D02*
X174746304Y-114422200D01*
X174746304Y-114422200D02*
X174603447Y-114469819D01*
X174603447Y-114469819D02*
X174365352Y-114469819D01*
X175270114Y-113469819D02*
X175936780Y-113469819D01*
X175936780Y-113469819D02*
X175508209Y-114469819D01*
X181749819Y-113387030D02*
X181749819Y-113863220D01*
X181749819Y-113863220D02*
X180749819Y-113863220D01*
X181464104Y-113101315D02*
X181464104Y-112625125D01*
X181749819Y-113196553D02*
X180749819Y-112863220D01*
X180749819Y-112863220D02*
X181749819Y-112529887D01*
X180749819Y-112339410D02*
X180749819Y-111767982D01*
X181749819Y-112053696D02*
X180749819Y-112053696D01*
X181226009Y-111434648D02*
X181226009Y-111101315D01*
X181749819Y-110958458D02*
X181749819Y-111434648D01*
X181749819Y-111434648D02*
X180749819Y-111434648D01*
X180749819Y-111434648D02*
X180749819Y-110958458D01*
X181749819Y-109958458D02*
X181273628Y-110291791D01*
X181749819Y-110529886D02*
X180749819Y-110529886D01*
X180749819Y-110529886D02*
X180749819Y-110148934D01*
X180749819Y-110148934D02*
X180797438Y-110053696D01*
X180797438Y-110053696D02*
X180845057Y-110006077D01*
X180845057Y-110006077D02*
X180940295Y-109958458D01*
X180940295Y-109958458D02*
X181083152Y-109958458D01*
X181083152Y-109958458D02*
X181178390Y-110006077D01*
X181178390Y-110006077D02*
X181226009Y-110053696D01*
X181226009Y-110053696D02*
X181273628Y-110148934D01*
X181273628Y-110148934D02*
X181273628Y-110529886D01*
X181464104Y-109577505D02*
X181464104Y-109101315D01*
X181749819Y-109672743D02*
X180749819Y-109339410D01*
X180749819Y-109339410D02*
X181749819Y-109006077D01*
X181749819Y-108196553D02*
X181749819Y-108672743D01*
X181749819Y-108672743D02*
X180749819Y-108672743D01*
X181845057Y-108101315D02*
X181845057Y-107339410D01*
X181749819Y-106625124D02*
X181749819Y-107101314D01*
X181749819Y-107101314D02*
X180749819Y-107101314D01*
X181226009Y-106291790D02*
X181226009Y-105958457D01*
X181749819Y-105815600D02*
X181749819Y-106291790D01*
X181749819Y-106291790D02*
X180749819Y-106291790D01*
X180749819Y-106291790D02*
X180749819Y-105815600D01*
X181749819Y-105387028D02*
X180749819Y-105387028D01*
X180749819Y-105387028D02*
X180749819Y-105148933D01*
X180749819Y-105148933D02*
X180797438Y-105006076D01*
X180797438Y-105006076D02*
X180892676Y-104910838D01*
X180892676Y-104910838D02*
X180987914Y-104863219D01*
X180987914Y-104863219D02*
X181178390Y-104815600D01*
X181178390Y-104815600D02*
X181321247Y-104815600D01*
X181321247Y-104815600D02*
X181511723Y-104863219D01*
X181511723Y-104863219D02*
X181606961Y-104910838D01*
X181606961Y-104910838D02*
X181702200Y-105006076D01*
X181702200Y-105006076D02*
X181749819Y-105148933D01*
X181749819Y-105148933D02*
X181749819Y-105387028D01*
X181702200Y-104434647D02*
X181749819Y-104291790D01*
X181749819Y-104291790D02*
X181749819Y-104053695D01*
X181749819Y-104053695D02*
X181702200Y-103958457D01*
X181702200Y-103958457D02*
X181654580Y-103910838D01*
X181654580Y-103910838D02*
X181559342Y-103863219D01*
X181559342Y-103863219D02*
X181464104Y-103863219D01*
X181464104Y-103863219D02*
X181368866Y-103910838D01*
X181368866Y-103910838D02*
X181321247Y-103958457D01*
X181321247Y-103958457D02*
X181273628Y-104053695D01*
X181273628Y-104053695D02*
X181226009Y-104244171D01*
X181226009Y-104244171D02*
X181178390Y-104339409D01*
X181178390Y-104339409D02*
X181130771Y-104387028D01*
X181130771Y-104387028D02*
X181035533Y-104434647D01*
X181035533Y-104434647D02*
X180940295Y-104434647D01*
X180940295Y-104434647D02*
X180845057Y-104387028D01*
X180845057Y-104387028D02*
X180797438Y-104339409D01*
X180797438Y-104339409D02*
X180749819Y-104244171D01*
X180749819Y-104244171D02*
X180749819Y-104006076D01*
X180749819Y-104006076D02*
X180797438Y-103863219D01*
X181845057Y-103672743D02*
X181845057Y-102910838D01*
X181654580Y-102101314D02*
X181702200Y-102148933D01*
X181702200Y-102148933D02*
X181749819Y-102291790D01*
X181749819Y-102291790D02*
X181749819Y-102387028D01*
X181749819Y-102387028D02*
X181702200Y-102529885D01*
X181702200Y-102529885D02*
X181606961Y-102625123D01*
X181606961Y-102625123D02*
X181511723Y-102672742D01*
X181511723Y-102672742D02*
X181321247Y-102720361D01*
X181321247Y-102720361D02*
X181178390Y-102720361D01*
X181178390Y-102720361D02*
X180987914Y-102672742D01*
X180987914Y-102672742D02*
X180892676Y-102625123D01*
X180892676Y-102625123D02*
X180797438Y-102529885D01*
X180797438Y-102529885D02*
X180749819Y-102387028D01*
X180749819Y-102387028D02*
X180749819Y-102291790D01*
X180749819Y-102291790D02*
X180797438Y-102148933D01*
X180797438Y-102148933D02*
X180845057Y-102101314D01*
X180749819Y-101482266D02*
X180749819Y-101291790D01*
X180749819Y-101291790D02*
X180797438Y-101196552D01*
X180797438Y-101196552D02*
X180892676Y-101101314D01*
X180892676Y-101101314D02*
X181083152Y-101053695D01*
X181083152Y-101053695D02*
X181416485Y-101053695D01*
X181416485Y-101053695D02*
X181606961Y-101101314D01*
X181606961Y-101101314D02*
X181702200Y-101196552D01*
X181702200Y-101196552D02*
X181749819Y-101291790D01*
X181749819Y-101291790D02*
X181749819Y-101482266D01*
X181749819Y-101482266D02*
X181702200Y-101577504D01*
X181702200Y-101577504D02*
X181606961Y-101672742D01*
X181606961Y-101672742D02*
X181416485Y-101720361D01*
X181416485Y-101720361D02*
X181083152Y-101720361D01*
X181083152Y-101720361D02*
X180892676Y-101672742D01*
X180892676Y-101672742D02*
X180797438Y-101577504D01*
X180797438Y-101577504D02*
X180749819Y-101482266D01*
X181749819Y-100625123D02*
X180749819Y-100625123D01*
X180749819Y-100625123D02*
X181749819Y-100053695D01*
X181749819Y-100053695D02*
X180749819Y-100053695D01*
X180749819Y-99720361D02*
X180749819Y-99148933D01*
X181749819Y-99434647D02*
X180749819Y-99434647D01*
X181749819Y-98244171D02*
X181273628Y-98577504D01*
X181749819Y-98815599D02*
X180749819Y-98815599D01*
X180749819Y-98815599D02*
X180749819Y-98434647D01*
X180749819Y-98434647D02*
X180797438Y-98339409D01*
X180797438Y-98339409D02*
X180845057Y-98291790D01*
X180845057Y-98291790D02*
X180940295Y-98244171D01*
X180940295Y-98244171D02*
X181083152Y-98244171D01*
X181083152Y-98244171D02*
X181178390Y-98291790D01*
X181178390Y-98291790D02*
X181226009Y-98339409D01*
X181226009Y-98339409D02*
X181273628Y-98434647D01*
X181273628Y-98434647D02*
X181273628Y-98815599D01*
X180749819Y-97625123D02*
X180749819Y-97434647D01*
X180749819Y-97434647D02*
X180797438Y-97339409D01*
X180797438Y-97339409D02*
X180892676Y-97244171D01*
X180892676Y-97244171D02*
X181083152Y-97196552D01*
X181083152Y-97196552D02*
X181416485Y-97196552D01*
X181416485Y-97196552D02*
X181606961Y-97244171D01*
X181606961Y-97244171D02*
X181702200Y-97339409D01*
X181702200Y-97339409D02*
X181749819Y-97434647D01*
X181749819Y-97434647D02*
X181749819Y-97625123D01*
X181749819Y-97625123D02*
X181702200Y-97720361D01*
X181702200Y-97720361D02*
X181606961Y-97815599D01*
X181606961Y-97815599D02*
X181416485Y-97863218D01*
X181416485Y-97863218D02*
X181083152Y-97863218D01*
X181083152Y-97863218D02*
X180892676Y-97815599D01*
X180892676Y-97815599D02*
X180797438Y-97720361D01*
X180797438Y-97720361D02*
X180749819Y-97625123D01*
X181749819Y-96291790D02*
X181749819Y-96767980D01*
X181749819Y-96767980D02*
X180749819Y-96767980D01*
X181749819Y-95482266D02*
X181749819Y-95958456D01*
X181749819Y-95958456D02*
X180749819Y-95958456D01*
X181226009Y-95148932D02*
X181226009Y-94815599D01*
X181749819Y-94672742D02*
X181749819Y-95148932D01*
X181749819Y-95148932D02*
X180749819Y-95148932D01*
X180749819Y-95148932D02*
X180749819Y-94672742D01*
X181749819Y-93672742D02*
X181273628Y-94006075D01*
X181749819Y-94244170D02*
X180749819Y-94244170D01*
X180749819Y-94244170D02*
X180749819Y-93863218D01*
X180749819Y-93863218D02*
X180797438Y-93767980D01*
X180797438Y-93767980D02*
X180845057Y-93720361D01*
X180845057Y-93720361D02*
X180940295Y-93672742D01*
X180940295Y-93672742D02*
X181083152Y-93672742D01*
X181083152Y-93672742D02*
X181178390Y-93720361D01*
X181178390Y-93720361D02*
X181226009Y-93767980D01*
X181226009Y-93767980D02*
X181273628Y-93863218D01*
X181273628Y-93863218D02*
X181273628Y-94244170D01*
X182693152Y-113958458D02*
X183359819Y-113720363D01*
X183359819Y-113720363D02*
X182693152Y-113482268D01*
X183359819Y-112577506D02*
X183359819Y-113148934D01*
X183359819Y-112863220D02*
X182359819Y-112863220D01*
X182359819Y-112863220D02*
X182502676Y-112958458D01*
X182502676Y-112958458D02*
X182597914Y-113053696D01*
X182597914Y-113053696D02*
X182645533Y-113148934D01*
X183455057Y-112387030D02*
X183455057Y-111625125D01*
X183359819Y-110863220D02*
X183359819Y-111434648D01*
X183359819Y-111148934D02*
X182359819Y-111148934D01*
X182359819Y-111148934D02*
X182502676Y-111244172D01*
X182502676Y-111244172D02*
X182597914Y-111339410D01*
X182597914Y-111339410D02*
X182645533Y-111434648D01*
X183455057Y-110672744D02*
X183455057Y-109910839D01*
X182359819Y-109482267D02*
X182359819Y-109387029D01*
X182359819Y-109387029D02*
X182407438Y-109291791D01*
X182407438Y-109291791D02*
X182455057Y-109244172D01*
X182455057Y-109244172D02*
X182550295Y-109196553D01*
X182550295Y-109196553D02*
X182740771Y-109148934D01*
X182740771Y-109148934D02*
X182978866Y-109148934D01*
X182978866Y-109148934D02*
X183169342Y-109196553D01*
X183169342Y-109196553D02*
X183264580Y-109244172D01*
X183264580Y-109244172D02*
X183312200Y-109291791D01*
X183312200Y-109291791D02*
X183359819Y-109387029D01*
X183359819Y-109387029D02*
X183359819Y-109482267D01*
X183359819Y-109482267D02*
X183312200Y-109577505D01*
X183312200Y-109577505D02*
X183264580Y-109625124D01*
X183264580Y-109625124D02*
X183169342Y-109672743D01*
X183169342Y-109672743D02*
X182978866Y-109720362D01*
X182978866Y-109720362D02*
X182740771Y-109720362D01*
X182740771Y-109720362D02*
X182550295Y-109672743D01*
X182550295Y-109672743D02*
X182455057Y-109625124D01*
X182455057Y-109625124D02*
X182407438Y-109577505D01*
X182407438Y-109577505D02*
X182359819Y-109482267D01*
X184922200Y-113434649D02*
X184969819Y-113529887D01*
X184969819Y-113529887D02*
X184969819Y-113720363D01*
X184969819Y-113720363D02*
X184922200Y-113815601D01*
X184922200Y-113815601D02*
X184874580Y-113863220D01*
X184874580Y-113863220D02*
X184779342Y-113910839D01*
X184779342Y-113910839D02*
X184493628Y-113910839D01*
X184493628Y-113910839D02*
X184398390Y-113863220D01*
X184398390Y-113863220D02*
X184350771Y-113815601D01*
X184350771Y-113815601D02*
X184303152Y-113720363D01*
X184303152Y-113720363D02*
X184303152Y-113529887D01*
X184303152Y-113529887D02*
X184350771Y-113434649D01*
X184303152Y-113101315D02*
X184969819Y-112863220D01*
X184303152Y-112625125D02*
X184969819Y-112863220D01*
X184969819Y-112863220D02*
X185207914Y-112958458D01*
X185207914Y-112958458D02*
X185255533Y-113006077D01*
X185255533Y-113006077D02*
X185303152Y-113101315D01*
X184969819Y-112244172D02*
X183969819Y-112244172D01*
X184350771Y-112244172D02*
X184303152Y-112148934D01*
X184303152Y-112148934D02*
X184303152Y-111958458D01*
X184303152Y-111958458D02*
X184350771Y-111863220D01*
X184350771Y-111863220D02*
X184398390Y-111815601D01*
X184398390Y-111815601D02*
X184493628Y-111767982D01*
X184493628Y-111767982D02*
X184779342Y-111767982D01*
X184779342Y-111767982D02*
X184874580Y-111815601D01*
X184874580Y-111815601D02*
X184922200Y-111863220D01*
X184922200Y-111863220D02*
X184969819Y-111958458D01*
X184969819Y-111958458D02*
X184969819Y-112148934D01*
X184969819Y-112148934D02*
X184922200Y-112244172D01*
X184922200Y-110958458D02*
X184969819Y-111053696D01*
X184969819Y-111053696D02*
X184969819Y-111244172D01*
X184969819Y-111244172D02*
X184922200Y-111339410D01*
X184922200Y-111339410D02*
X184826961Y-111387029D01*
X184826961Y-111387029D02*
X184446009Y-111387029D01*
X184446009Y-111387029D02*
X184350771Y-111339410D01*
X184350771Y-111339410D02*
X184303152Y-111244172D01*
X184303152Y-111244172D02*
X184303152Y-111053696D01*
X184303152Y-111053696D02*
X184350771Y-110958458D01*
X184350771Y-110958458D02*
X184446009Y-110910839D01*
X184446009Y-110910839D02*
X184541247Y-110910839D01*
X184541247Y-110910839D02*
X184636485Y-111387029D01*
X184969819Y-110482267D02*
X184303152Y-110482267D01*
X184493628Y-110482267D02*
X184398390Y-110434648D01*
X184398390Y-110434648D02*
X184350771Y-110387029D01*
X184350771Y-110387029D02*
X184303152Y-110291791D01*
X184303152Y-110291791D02*
X184303152Y-110196553D01*
X184969819Y-109863219D02*
X183969819Y-109863219D01*
X184350771Y-109863219D02*
X184303152Y-109767981D01*
X184303152Y-109767981D02*
X184303152Y-109577505D01*
X184303152Y-109577505D02*
X184350771Y-109482267D01*
X184350771Y-109482267D02*
X184398390Y-109434648D01*
X184398390Y-109434648D02*
X184493628Y-109387029D01*
X184493628Y-109387029D02*
X184779342Y-109387029D01*
X184779342Y-109387029D02*
X184874580Y-109434648D01*
X184874580Y-109434648D02*
X184922200Y-109482267D01*
X184922200Y-109482267D02*
X184969819Y-109577505D01*
X184969819Y-109577505D02*
X184969819Y-109767981D01*
X184969819Y-109767981D02*
X184922200Y-109863219D01*
X184969819Y-108815600D02*
X184922200Y-108910838D01*
X184922200Y-108910838D02*
X184874580Y-108958457D01*
X184874580Y-108958457D02*
X184779342Y-109006076D01*
X184779342Y-109006076D02*
X184493628Y-109006076D01*
X184493628Y-109006076D02*
X184398390Y-108958457D01*
X184398390Y-108958457D02*
X184350771Y-108910838D01*
X184350771Y-108910838D02*
X184303152Y-108815600D01*
X184303152Y-108815600D02*
X184303152Y-108672743D01*
X184303152Y-108672743D02*
X184350771Y-108577505D01*
X184350771Y-108577505D02*
X184398390Y-108529886D01*
X184398390Y-108529886D02*
X184493628Y-108482267D01*
X184493628Y-108482267D02*
X184779342Y-108482267D01*
X184779342Y-108482267D02*
X184874580Y-108529886D01*
X184874580Y-108529886D02*
X184922200Y-108577505D01*
X184922200Y-108577505D02*
X184969819Y-108672743D01*
X184969819Y-108672743D02*
X184969819Y-108815600D01*
X184303152Y-108148933D02*
X184969819Y-107910838D01*
X184303152Y-107672743D02*
X184969819Y-107910838D01*
X184969819Y-107910838D02*
X185207914Y-108006076D01*
X185207914Y-108006076D02*
X185255533Y-108053695D01*
X185255533Y-108053695D02*
X185303152Y-108148933D01*
X183969819Y-106863219D02*
X183969819Y-107053695D01*
X183969819Y-107053695D02*
X184017438Y-107148933D01*
X184017438Y-107148933D02*
X184065057Y-107196552D01*
X184065057Y-107196552D02*
X184207914Y-107291790D01*
X184207914Y-107291790D02*
X184398390Y-107339409D01*
X184398390Y-107339409D02*
X184779342Y-107339409D01*
X184779342Y-107339409D02*
X184874580Y-107291790D01*
X184874580Y-107291790D02*
X184922200Y-107244171D01*
X184922200Y-107244171D02*
X184969819Y-107148933D01*
X184969819Y-107148933D02*
X184969819Y-106958457D01*
X184969819Y-106958457D02*
X184922200Y-106863219D01*
X184922200Y-106863219D02*
X184874580Y-106815600D01*
X184874580Y-106815600D02*
X184779342Y-106767981D01*
X184779342Y-106767981D02*
X184541247Y-106767981D01*
X184541247Y-106767981D02*
X184446009Y-106815600D01*
X184446009Y-106815600D02*
X184398390Y-106863219D01*
X184398390Y-106863219D02*
X184350771Y-106958457D01*
X184350771Y-106958457D02*
X184350771Y-107148933D01*
X184350771Y-107148933D02*
X184398390Y-107244171D01*
X184398390Y-107244171D02*
X184446009Y-107291790D01*
X184446009Y-107291790D02*
X184541247Y-107339409D01*
X183969819Y-105910838D02*
X183969819Y-106101314D01*
X183969819Y-106101314D02*
X184017438Y-106196552D01*
X184017438Y-106196552D02*
X184065057Y-106244171D01*
X184065057Y-106244171D02*
X184207914Y-106339409D01*
X184207914Y-106339409D02*
X184398390Y-106387028D01*
X184398390Y-106387028D02*
X184779342Y-106387028D01*
X184779342Y-106387028D02*
X184874580Y-106339409D01*
X184874580Y-106339409D02*
X184922200Y-106291790D01*
X184922200Y-106291790D02*
X184969819Y-106196552D01*
X184969819Y-106196552D02*
X184969819Y-106006076D01*
X184969819Y-106006076D02*
X184922200Y-105910838D01*
X184922200Y-105910838D02*
X184874580Y-105863219D01*
X184874580Y-105863219D02*
X184779342Y-105815600D01*
X184779342Y-105815600D02*
X184541247Y-105815600D01*
X184541247Y-105815600D02*
X184446009Y-105863219D01*
X184446009Y-105863219D02*
X184398390Y-105910838D01*
X184398390Y-105910838D02*
X184350771Y-106006076D01*
X184350771Y-106006076D02*
X184350771Y-106196552D01*
X184350771Y-106196552D02*
X184398390Y-106291790D01*
X184398390Y-106291790D02*
X184446009Y-106339409D01*
X184446009Y-106339409D02*
X184541247Y-106387028D01*
X183969819Y-104958457D02*
X183969819Y-105148933D01*
X183969819Y-105148933D02*
X184017438Y-105244171D01*
X184017438Y-105244171D02*
X184065057Y-105291790D01*
X184065057Y-105291790D02*
X184207914Y-105387028D01*
X184207914Y-105387028D02*
X184398390Y-105434647D01*
X184398390Y-105434647D02*
X184779342Y-105434647D01*
X184779342Y-105434647D02*
X184874580Y-105387028D01*
X184874580Y-105387028D02*
X184922200Y-105339409D01*
X184922200Y-105339409D02*
X184969819Y-105244171D01*
X184969819Y-105244171D02*
X184969819Y-105053695D01*
X184969819Y-105053695D02*
X184922200Y-104958457D01*
X184922200Y-104958457D02*
X184874580Y-104910838D01*
X184874580Y-104910838D02*
X184779342Y-104863219D01*
X184779342Y-104863219D02*
X184541247Y-104863219D01*
X184541247Y-104863219D02*
X184446009Y-104910838D01*
X184446009Y-104910838D02*
X184398390Y-104958457D01*
X184398390Y-104958457D02*
X184350771Y-105053695D01*
X184350771Y-105053695D02*
X184350771Y-105244171D01*
X184350771Y-105244171D02*
X184398390Y-105339409D01*
X184398390Y-105339409D02*
X184446009Y-105387028D01*
X184446009Y-105387028D02*
X184541247Y-105434647D01*
X184969819Y-102863218D02*
X184969819Y-102910838D01*
X184969819Y-102910838D02*
X184922200Y-103006076D01*
X184922200Y-103006076D02*
X184779342Y-103148933D01*
X184779342Y-103148933D02*
X184493628Y-103387028D01*
X184493628Y-103387028D02*
X184350771Y-103482266D01*
X184350771Y-103482266D02*
X184207914Y-103529885D01*
X184207914Y-103529885D02*
X184112676Y-103529885D01*
X184112676Y-103529885D02*
X184017438Y-103482266D01*
X184017438Y-103482266D02*
X183969819Y-103387028D01*
X183969819Y-103387028D02*
X183969819Y-103339409D01*
X183969819Y-103339409D02*
X184017438Y-103244171D01*
X184017438Y-103244171D02*
X184112676Y-103196552D01*
X184112676Y-103196552D02*
X184160295Y-103196552D01*
X184160295Y-103196552D02*
X184255533Y-103244171D01*
X184255533Y-103244171D02*
X184303152Y-103291790D01*
X184303152Y-103291790D02*
X184493628Y-103577504D01*
X184493628Y-103577504D02*
X184541247Y-103625123D01*
X184541247Y-103625123D02*
X184636485Y-103672742D01*
X184636485Y-103672742D02*
X184779342Y-103672742D01*
X184779342Y-103672742D02*
X184874580Y-103625123D01*
X184874580Y-103625123D02*
X184922200Y-103577504D01*
X184922200Y-103577504D02*
X184969819Y-103482266D01*
X184969819Y-103482266D02*
X184969819Y-103339409D01*
X184969819Y-103339409D02*
X184922200Y-103244171D01*
X184922200Y-103244171D02*
X184874580Y-103196552D01*
X184874580Y-103196552D02*
X184684104Y-103053695D01*
X184684104Y-103053695D02*
X184541247Y-103006076D01*
X184541247Y-103006076D02*
X184446009Y-103006076D01*
X184303152Y-101815599D02*
X184303152Y-101434647D01*
X183969819Y-101672742D02*
X184826961Y-101672742D01*
X184826961Y-101672742D02*
X184922200Y-101625123D01*
X184922200Y-101625123D02*
X184969819Y-101529885D01*
X184969819Y-101529885D02*
X184969819Y-101434647D01*
X184969819Y-100958456D02*
X184922200Y-101053694D01*
X184922200Y-101053694D02*
X184874580Y-101101313D01*
X184874580Y-101101313D02*
X184779342Y-101148932D01*
X184779342Y-101148932D02*
X184493628Y-101148932D01*
X184493628Y-101148932D02*
X184398390Y-101101313D01*
X184398390Y-101101313D02*
X184350771Y-101053694D01*
X184350771Y-101053694D02*
X184303152Y-100958456D01*
X184303152Y-100958456D02*
X184303152Y-100815599D01*
X184303152Y-100815599D02*
X184350771Y-100720361D01*
X184350771Y-100720361D02*
X184398390Y-100672742D01*
X184398390Y-100672742D02*
X184493628Y-100625123D01*
X184493628Y-100625123D02*
X184779342Y-100625123D01*
X184779342Y-100625123D02*
X184874580Y-100672742D01*
X184874580Y-100672742D02*
X184922200Y-100720361D01*
X184922200Y-100720361D02*
X184969819Y-100815599D01*
X184969819Y-100815599D02*
X184969819Y-100958456D01*
X184969819Y-100196551D02*
X184303152Y-100196551D01*
X184493628Y-100196551D02*
X184398390Y-100148932D01*
X184398390Y-100148932D02*
X184350771Y-100101313D01*
X184350771Y-100101313D02*
X184303152Y-100006075D01*
X184303152Y-100006075D02*
X184303152Y-99910837D01*
D12*
X147854510Y-84800828D02*
X147854510Y-83300828D01*
X147854510Y-83300828D02*
X148211653Y-83300828D01*
X148211653Y-83300828D02*
X148425939Y-83372257D01*
X148425939Y-83372257D02*
X148568796Y-83515114D01*
X148568796Y-83515114D02*
X148640225Y-83657971D01*
X148640225Y-83657971D02*
X148711653Y-83943685D01*
X148711653Y-83943685D02*
X148711653Y-84157971D01*
X148711653Y-84157971D02*
X148640225Y-84443685D01*
X148640225Y-84443685D02*
X148568796Y-84586542D01*
X148568796Y-84586542D02*
X148425939Y-84729400D01*
X148425939Y-84729400D02*
X148211653Y-84800828D01*
X148211653Y-84800828D02*
X147854510Y-84800828D01*
X149640225Y-83300828D02*
X149783082Y-83300828D01*
X149783082Y-83300828D02*
X149925939Y-83372257D01*
X149925939Y-83372257D02*
X149997368Y-83443685D01*
X149997368Y-83443685D02*
X150068796Y-83586542D01*
X150068796Y-83586542D02*
X150140225Y-83872257D01*
X150140225Y-83872257D02*
X150140225Y-84229400D01*
X150140225Y-84229400D02*
X150068796Y-84515114D01*
X150068796Y-84515114D02*
X149997368Y-84657971D01*
X149997368Y-84657971D02*
X149925939Y-84729400D01*
X149925939Y-84729400D02*
X149783082Y-84800828D01*
X149783082Y-84800828D02*
X149640225Y-84800828D01*
X149640225Y-84800828D02*
X149497368Y-84729400D01*
X149497368Y-84729400D02*
X149425939Y-84657971D01*
X149425939Y-84657971D02*
X149354510Y-84515114D01*
X149354510Y-84515114D02*
X149283082Y-84229400D01*
X149283082Y-84229400D02*
X149283082Y-83872257D01*
X149283082Y-83872257D02*
X149354510Y-83586542D01*
X149354510Y-83586542D02*
X149425939Y-83443685D01*
X149425939Y-83443685D02*
X149497368Y-83372257D01*
X149497368Y-83372257D02*
X149640225Y-83300828D01*
X150783081Y-84229400D02*
X151925939Y-84229400D01*
X152640224Y-84800828D02*
X152640224Y-83300828D01*
X152640224Y-83300828D02*
X152997367Y-83300828D01*
X152997367Y-83300828D02*
X153211653Y-83372257D01*
X153211653Y-83372257D02*
X153354510Y-83515114D01*
X153354510Y-83515114D02*
X153425939Y-83657971D01*
X153425939Y-83657971D02*
X153497367Y-83943685D01*
X153497367Y-83943685D02*
X153497367Y-84157971D01*
X153497367Y-84157971D02*
X153425939Y-84443685D01*
X153425939Y-84443685D02*
X153354510Y-84586542D01*
X153354510Y-84586542D02*
X153211653Y-84729400D01*
X153211653Y-84729400D02*
X152997367Y-84800828D01*
X152997367Y-84800828D02*
X152640224Y-84800828D01*
X153997367Y-83300828D02*
X154925939Y-83300828D01*
X154925939Y-83300828D02*
X154425939Y-83872257D01*
X154425939Y-83872257D02*
X154640224Y-83872257D01*
X154640224Y-83872257D02*
X154783082Y-83943685D01*
X154783082Y-83943685D02*
X154854510Y-84015114D01*
X154854510Y-84015114D02*
X154925939Y-84157971D01*
X154925939Y-84157971D02*
X154925939Y-84515114D01*
X154925939Y-84515114D02*
X154854510Y-84657971D01*
X154854510Y-84657971D02*
X154783082Y-84729400D01*
X154783082Y-84729400D02*
X154640224Y-84800828D01*
X154640224Y-84800828D02*
X154211653Y-84800828D01*
X154211653Y-84800828D02*
X154068796Y-84729400D01*
X154068796Y-84729400D02*
X153997367Y-84657971D01*
D11*
X95753295Y-110627030D02*
X96553295Y-110436554D01*
X96553295Y-110436554D02*
X95981866Y-110284173D01*
X95981866Y-110284173D02*
X96553295Y-110131792D01*
X96553295Y-110131792D02*
X95753295Y-109941316D01*
X96515200Y-109331791D02*
X96553295Y-109407982D01*
X96553295Y-109407982D02*
X96553295Y-109560363D01*
X96553295Y-109560363D02*
X96515200Y-109636553D01*
X96515200Y-109636553D02*
X96439009Y-109674649D01*
X96439009Y-109674649D02*
X96134247Y-109674649D01*
X96134247Y-109674649D02*
X96058057Y-109636553D01*
X96058057Y-109636553D02*
X96019961Y-109560363D01*
X96019961Y-109560363D02*
X96019961Y-109407982D01*
X96019961Y-109407982D02*
X96058057Y-109331791D01*
X96058057Y-109331791D02*
X96134247Y-109293696D01*
X96134247Y-109293696D02*
X96210438Y-109293696D01*
X96210438Y-109293696D02*
X96286628Y-109674649D01*
X96553295Y-108950839D02*
X95753295Y-108950839D01*
X95753295Y-108950839D02*
X96324723Y-108684173D01*
X96324723Y-108684173D02*
X95753295Y-108417506D01*
X95753295Y-108417506D02*
X96553295Y-108417506D01*
X96553295Y-107922268D02*
X96515200Y-107998458D01*
X96515200Y-107998458D02*
X96477104Y-108036553D01*
X96477104Y-108036553D02*
X96400914Y-108074649D01*
X96400914Y-108074649D02*
X96172342Y-108074649D01*
X96172342Y-108074649D02*
X96096152Y-108036553D01*
X96096152Y-108036553D02*
X96058057Y-107998458D01*
X96058057Y-107998458D02*
X96019961Y-107922268D01*
X96019961Y-107922268D02*
X96019961Y-107807982D01*
X96019961Y-107807982D02*
X96058057Y-107731791D01*
X96058057Y-107731791D02*
X96096152Y-107693696D01*
X96096152Y-107693696D02*
X96172342Y-107655601D01*
X96172342Y-107655601D02*
X96400914Y-107655601D01*
X96400914Y-107655601D02*
X96477104Y-107693696D01*
X96477104Y-107693696D02*
X96515200Y-107731791D01*
X96515200Y-107731791D02*
X96553295Y-107807982D01*
X96553295Y-107807982D02*
X96553295Y-107922268D01*
X96515200Y-107350839D02*
X96553295Y-107274648D01*
X96553295Y-107274648D02*
X96553295Y-107122267D01*
X96553295Y-107122267D02*
X96515200Y-107046077D01*
X96515200Y-107046077D02*
X96439009Y-107007981D01*
X96439009Y-107007981D02*
X96400914Y-107007981D01*
X96400914Y-107007981D02*
X96324723Y-107046077D01*
X96324723Y-107046077D02*
X96286628Y-107122267D01*
X96286628Y-107122267D02*
X96286628Y-107236553D01*
X96286628Y-107236553D02*
X96248533Y-107312743D01*
X96248533Y-107312743D02*
X96172342Y-107350839D01*
X96172342Y-107350839D02*
X96134247Y-107350839D01*
X96134247Y-107350839D02*
X96058057Y-107312743D01*
X96058057Y-107312743D02*
X96019961Y-107236553D01*
X96019961Y-107236553D02*
X96019961Y-107122267D01*
X96019961Y-107122267D02*
X96058057Y-107046077D01*
X96629485Y-106855601D02*
X96629485Y-106246077D01*
X95753295Y-106055600D02*
X96400914Y-106055600D01*
X96400914Y-106055600D02*
X96477104Y-106017505D01*
X96477104Y-106017505D02*
X96515200Y-105979410D01*
X96515200Y-105979410D02*
X96553295Y-105903219D01*
X96553295Y-105903219D02*
X96553295Y-105750838D01*
X96553295Y-105750838D02*
X96515200Y-105674648D01*
X96515200Y-105674648D02*
X96477104Y-105636553D01*
X96477104Y-105636553D02*
X96400914Y-105598457D01*
X96400914Y-105598457D02*
X95753295Y-105598457D01*
X96515200Y-105255601D02*
X96553295Y-105141315D01*
X96553295Y-105141315D02*
X96553295Y-104950839D01*
X96553295Y-104950839D02*
X96515200Y-104874648D01*
X96515200Y-104874648D02*
X96477104Y-104836553D01*
X96477104Y-104836553D02*
X96400914Y-104798458D01*
X96400914Y-104798458D02*
X96324723Y-104798458D01*
X96324723Y-104798458D02*
X96248533Y-104836553D01*
X96248533Y-104836553D02*
X96210438Y-104874648D01*
X96210438Y-104874648D02*
X96172342Y-104950839D01*
X96172342Y-104950839D02*
X96134247Y-105103220D01*
X96134247Y-105103220D02*
X96096152Y-105179410D01*
X96096152Y-105179410D02*
X96058057Y-105217505D01*
X96058057Y-105217505D02*
X95981866Y-105255601D01*
X95981866Y-105255601D02*
X95905676Y-105255601D01*
X95905676Y-105255601D02*
X95829485Y-105217505D01*
X95829485Y-105217505D02*
X95791390Y-105179410D01*
X95791390Y-105179410D02*
X95753295Y-105103220D01*
X95753295Y-105103220D02*
X95753295Y-104912743D01*
X95753295Y-104912743D02*
X95791390Y-104798458D01*
X96134247Y-104188934D02*
X96172342Y-104074648D01*
X96172342Y-104074648D02*
X96210438Y-104036553D01*
X96210438Y-104036553D02*
X96286628Y-103998457D01*
X96286628Y-103998457D02*
X96400914Y-103998457D01*
X96400914Y-103998457D02*
X96477104Y-104036553D01*
X96477104Y-104036553D02*
X96515200Y-104074648D01*
X96515200Y-104074648D02*
X96553295Y-104150838D01*
X96553295Y-104150838D02*
X96553295Y-104455600D01*
X96553295Y-104455600D02*
X95753295Y-104455600D01*
X95753295Y-104455600D02*
X95753295Y-104188934D01*
X95753295Y-104188934D02*
X95791390Y-104112743D01*
X95791390Y-104112743D02*
X95829485Y-104074648D01*
X95829485Y-104074648D02*
X95905676Y-104036553D01*
X95905676Y-104036553D02*
X95981866Y-104036553D01*
X95981866Y-104036553D02*
X96058057Y-104074648D01*
X96058057Y-104074648D02*
X96096152Y-104112743D01*
X96096152Y-104112743D02*
X96134247Y-104188934D01*
X96134247Y-104188934D02*
X96134247Y-104455600D01*
X96629485Y-103846077D02*
X96629485Y-103236553D01*
X96019961Y-103160362D02*
X96019961Y-102855600D01*
X95753295Y-103046076D02*
X96439009Y-103046076D01*
X96439009Y-103046076D02*
X96515200Y-103007981D01*
X96515200Y-103007981D02*
X96553295Y-102931791D01*
X96553295Y-102931791D02*
X96553295Y-102855600D01*
X96553295Y-102474648D02*
X96515200Y-102550838D01*
X96515200Y-102550838D02*
X96477104Y-102588933D01*
X96477104Y-102588933D02*
X96400914Y-102627029D01*
X96400914Y-102627029D02*
X96172342Y-102627029D01*
X96172342Y-102627029D02*
X96096152Y-102588933D01*
X96096152Y-102588933D02*
X96058057Y-102550838D01*
X96058057Y-102550838D02*
X96019961Y-102474648D01*
X96019961Y-102474648D02*
X96019961Y-102360362D01*
X96019961Y-102360362D02*
X96058057Y-102284171D01*
X96058057Y-102284171D02*
X96096152Y-102246076D01*
X96096152Y-102246076D02*
X96172342Y-102207981D01*
X96172342Y-102207981D02*
X96400914Y-102207981D01*
X96400914Y-102207981D02*
X96477104Y-102246076D01*
X96477104Y-102246076D02*
X96515200Y-102284171D01*
X96515200Y-102284171D02*
X96553295Y-102360362D01*
X96553295Y-102360362D02*
X96553295Y-102474648D01*
X96629485Y-102055600D02*
X96629485Y-101446076D01*
X96515200Y-101293695D02*
X96553295Y-101179409D01*
X96553295Y-101179409D02*
X96553295Y-100988933D01*
X96553295Y-100988933D02*
X96515200Y-100912742D01*
X96515200Y-100912742D02*
X96477104Y-100874647D01*
X96477104Y-100874647D02*
X96400914Y-100836552D01*
X96400914Y-100836552D02*
X96324723Y-100836552D01*
X96324723Y-100836552D02*
X96248533Y-100874647D01*
X96248533Y-100874647D02*
X96210438Y-100912742D01*
X96210438Y-100912742D02*
X96172342Y-100988933D01*
X96172342Y-100988933D02*
X96134247Y-101141314D01*
X96134247Y-101141314D02*
X96096152Y-101217504D01*
X96096152Y-101217504D02*
X96058057Y-101255599D01*
X96058057Y-101255599D02*
X95981866Y-101293695D01*
X95981866Y-101293695D02*
X95905676Y-101293695D01*
X95905676Y-101293695D02*
X95829485Y-101255599D01*
X95829485Y-101255599D02*
X95791390Y-101217504D01*
X95791390Y-101217504D02*
X95753295Y-101141314D01*
X95753295Y-101141314D02*
X95753295Y-100950837D01*
X95753295Y-100950837D02*
X95791390Y-100836552D01*
X96134247Y-100493694D02*
X96134247Y-100227028D01*
X96553295Y-100112742D02*
X96553295Y-100493694D01*
X96553295Y-100493694D02*
X95753295Y-100493694D01*
X95753295Y-100493694D02*
X95753295Y-100112742D01*
X96553295Y-99312741D02*
X96172342Y-99579408D01*
X96553295Y-99769884D02*
X95753295Y-99769884D01*
X95753295Y-99769884D02*
X95753295Y-99465122D01*
X95753295Y-99465122D02*
X95791390Y-99388932D01*
X95791390Y-99388932D02*
X95829485Y-99350837D01*
X95829485Y-99350837D02*
X95905676Y-99312741D01*
X95905676Y-99312741D02*
X96019961Y-99312741D01*
X96019961Y-99312741D02*
X96096152Y-99350837D01*
X96096152Y-99350837D02*
X96134247Y-99388932D01*
X96134247Y-99388932D02*
X96172342Y-99465122D01*
X96172342Y-99465122D02*
X96172342Y-99769884D01*
X96553295Y-98969884D02*
X95753295Y-98969884D01*
X96324723Y-98627028D02*
X96324723Y-98246075D01*
X96553295Y-98703218D02*
X95753295Y-98436551D01*
X95753295Y-98436551D02*
X96553295Y-98169885D01*
X96553295Y-97522266D02*
X96553295Y-97903218D01*
X96553295Y-97903218D02*
X95753295Y-97903218D01*
D13*
X109200426Y-111127719D02*
X109167093Y-111194386D01*
X109167093Y-111194386D02*
X109167093Y-111294386D01*
X109167093Y-111294386D02*
X109200426Y-111394386D01*
X109200426Y-111394386D02*
X109267093Y-111461053D01*
X109267093Y-111461053D02*
X109333760Y-111494386D01*
X109333760Y-111494386D02*
X109467093Y-111527719D01*
X109467093Y-111527719D02*
X109567093Y-111527719D01*
X109567093Y-111527719D02*
X109700426Y-111494386D01*
X109700426Y-111494386D02*
X109767093Y-111461053D01*
X109767093Y-111461053D02*
X109833760Y-111394386D01*
X109833760Y-111394386D02*
X109867093Y-111294386D01*
X109867093Y-111294386D02*
X109867093Y-111227719D01*
X109867093Y-111227719D02*
X109833760Y-111127719D01*
X109833760Y-111127719D02*
X109800426Y-111094386D01*
X109800426Y-111094386D02*
X109567093Y-111094386D01*
X109567093Y-111094386D02*
X109567093Y-111227719D01*
X109867093Y-110794386D02*
X109167093Y-110794386D01*
X109167093Y-110794386D02*
X109867093Y-110394386D01*
X109867093Y-110394386D02*
X109167093Y-110394386D01*
X109867093Y-110061053D02*
X109167093Y-110061053D01*
X109167093Y-110061053D02*
X109167093Y-109894386D01*
X109167093Y-109894386D02*
X109200426Y-109794386D01*
X109200426Y-109794386D02*
X109267093Y-109727720D01*
X109267093Y-109727720D02*
X109333760Y-109694386D01*
X109333760Y-109694386D02*
X109467093Y-109661053D01*
X109467093Y-109661053D02*
X109567093Y-109661053D01*
X109567093Y-109661053D02*
X109700426Y-109694386D01*
X109700426Y-109694386D02*
X109767093Y-109727720D01*
X109767093Y-109727720D02*
X109833760Y-109794386D01*
X109833760Y-109794386D02*
X109867093Y-109894386D01*
X109867093Y-109894386D02*
X109867093Y-110061053D01*
X109833760Y-109327720D02*
X109867093Y-109327720D01*
X109867093Y-109327720D02*
X109933760Y-109361053D01*
X109933760Y-109361053D02*
X109967093Y-109394386D01*
X109867093Y-108094387D02*
X109533760Y-108327720D01*
X109867093Y-108494387D02*
X109167093Y-108494387D01*
X109167093Y-108494387D02*
X109167093Y-108227720D01*
X109167093Y-108227720D02*
X109200426Y-108161054D01*
X109200426Y-108161054D02*
X109233760Y-108127720D01*
X109233760Y-108127720D02*
X109300426Y-108094387D01*
X109300426Y-108094387D02*
X109400426Y-108094387D01*
X109400426Y-108094387D02*
X109467093Y-108127720D01*
X109467093Y-108127720D02*
X109500426Y-108161054D01*
X109500426Y-108161054D02*
X109533760Y-108227720D01*
X109533760Y-108227720D02*
X109533760Y-108494387D01*
X109167093Y-107894387D02*
X109167093Y-107494387D01*
X109867093Y-107694387D02*
X109167093Y-107694387D01*
X109833760Y-107294387D02*
X109867093Y-107194387D01*
X109867093Y-107194387D02*
X109867093Y-107027721D01*
X109867093Y-107027721D02*
X109833760Y-106961054D01*
X109833760Y-106961054D02*
X109800426Y-106927721D01*
X109800426Y-106927721D02*
X109733760Y-106894387D01*
X109733760Y-106894387D02*
X109667093Y-106894387D01*
X109667093Y-106894387D02*
X109600426Y-106927721D01*
X109600426Y-106927721D02*
X109567093Y-106961054D01*
X109567093Y-106961054D02*
X109533760Y-107027721D01*
X109533760Y-107027721D02*
X109500426Y-107161054D01*
X109500426Y-107161054D02*
X109467093Y-107227721D01*
X109467093Y-107227721D02*
X109433760Y-107261054D01*
X109433760Y-107261054D02*
X109367093Y-107294387D01*
X109367093Y-107294387D02*
X109300426Y-107294387D01*
X109300426Y-107294387D02*
X109233760Y-107261054D01*
X109233760Y-107261054D02*
X109200426Y-107227721D01*
X109200426Y-107227721D02*
X109167093Y-107161054D01*
X109167093Y-107161054D02*
X109167093Y-106994387D01*
X109167093Y-106994387D02*
X109200426Y-106894387D01*
X109833760Y-106561054D02*
X109867093Y-106561054D01*
X109867093Y-106561054D02*
X109933760Y-106594387D01*
X109933760Y-106594387D02*
X109967093Y-106627720D01*
X109167093Y-105394388D02*
X109167093Y-105727721D01*
X109167093Y-105727721D02*
X109500426Y-105761054D01*
X109500426Y-105761054D02*
X109467093Y-105727721D01*
X109467093Y-105727721D02*
X109433760Y-105661054D01*
X109433760Y-105661054D02*
X109433760Y-105494388D01*
X109433760Y-105494388D02*
X109467093Y-105427721D01*
X109467093Y-105427721D02*
X109500426Y-105394388D01*
X109500426Y-105394388D02*
X109567093Y-105361054D01*
X109567093Y-105361054D02*
X109733760Y-105361054D01*
X109733760Y-105361054D02*
X109800426Y-105394388D01*
X109800426Y-105394388D02*
X109833760Y-105427721D01*
X109833760Y-105427721D02*
X109867093Y-105494388D01*
X109867093Y-105494388D02*
X109867093Y-105661054D01*
X109867093Y-105661054D02*
X109833760Y-105727721D01*
X109833760Y-105727721D02*
X109800426Y-105761054D01*
X109167093Y-105161054D02*
X109867093Y-104927721D01*
X109867093Y-104927721D02*
X109167093Y-104694387D01*
X109833760Y-104427721D02*
X109867093Y-104427721D01*
X109867093Y-104427721D02*
X109933760Y-104461054D01*
X109933760Y-104461054D02*
X109967093Y-104494387D01*
X109167093Y-103694388D02*
X109167093Y-103294388D01*
X109867093Y-103494388D02*
X109167093Y-103494388D01*
X109167093Y-103127722D02*
X109867093Y-102661055D01*
X109167093Y-102661055D02*
X109867093Y-103127722D01*
X109833760Y-102361055D02*
X109867093Y-102361055D01*
X109867093Y-102361055D02*
X109933760Y-102394388D01*
X109933760Y-102394388D02*
X109967093Y-102427721D01*
X109867093Y-101127722D02*
X109533760Y-101361055D01*
X109867093Y-101527722D02*
X109167093Y-101527722D01*
X109167093Y-101527722D02*
X109167093Y-101261055D01*
X109167093Y-101261055D02*
X109200426Y-101194389D01*
X109200426Y-101194389D02*
X109233760Y-101161055D01*
X109233760Y-101161055D02*
X109300426Y-101127722D01*
X109300426Y-101127722D02*
X109400426Y-101127722D01*
X109400426Y-101127722D02*
X109467093Y-101161055D01*
X109467093Y-101161055D02*
X109500426Y-101194389D01*
X109500426Y-101194389D02*
X109533760Y-101261055D01*
X109533760Y-101261055D02*
X109533760Y-101527722D01*
X109167093Y-100894389D02*
X109867093Y-100427722D01*
X109167093Y-100427722D02*
X109867093Y-100894389D01*
X109833760Y-100127722D02*
X109867093Y-100127722D01*
X109867093Y-100127722D02*
X109933760Y-100161055D01*
X109933760Y-100161055D02*
X109967093Y-100194388D01*
X109867093Y-99294389D02*
X109167093Y-99294389D01*
X109167093Y-99294389D02*
X109167093Y-99127722D01*
X109167093Y-99127722D02*
X109200426Y-99027722D01*
X109200426Y-99027722D02*
X109267093Y-98961056D01*
X109267093Y-98961056D02*
X109333760Y-98927722D01*
X109333760Y-98927722D02*
X109467093Y-98894389D01*
X109467093Y-98894389D02*
X109567093Y-98894389D01*
X109567093Y-98894389D02*
X109700426Y-98927722D01*
X109700426Y-98927722D02*
X109767093Y-98961056D01*
X109767093Y-98961056D02*
X109833760Y-99027722D01*
X109833760Y-99027722D02*
X109867093Y-99127722D01*
X109867093Y-99127722D02*
X109867093Y-99294389D01*
X109167093Y-98694389D02*
X109167093Y-98294389D01*
X109867093Y-98494389D02*
X109167093Y-98494389D01*
X109867093Y-97661056D02*
X109533760Y-97894389D01*
X109867093Y-98061056D02*
X109167093Y-98061056D01*
X109167093Y-98061056D02*
X109167093Y-97794389D01*
X109167093Y-97794389D02*
X109200426Y-97727723D01*
X109200426Y-97727723D02*
X109233760Y-97694389D01*
X109233760Y-97694389D02*
X109300426Y-97661056D01*
X109300426Y-97661056D02*
X109400426Y-97661056D01*
X109400426Y-97661056D02*
X109467093Y-97694389D01*
X109467093Y-97694389D02*
X109500426Y-97727723D01*
X109500426Y-97727723D02*
X109533760Y-97794389D01*
X109533760Y-97794389D02*
X109533760Y-98061056D01*
D10*
X87084836Y-78633609D02*
X87084836Y-78133609D01*
X87084836Y-78133609D02*
X87370550Y-78633609D01*
X87370550Y-78633609D02*
X87370550Y-78133609D01*
X87608646Y-78371704D02*
X87775313Y-78371704D01*
X87846741Y-78633609D02*
X87608646Y-78633609D01*
X87608646Y-78633609D02*
X87608646Y-78133609D01*
X87608646Y-78133609D02*
X87846741Y-78133609D01*
X87989599Y-78133609D02*
X88275313Y-78133609D01*
X88132456Y-78633609D02*
X88132456Y-78133609D01*
X88394360Y-78133609D02*
X88513408Y-78633609D01*
X88513408Y-78633609D02*
X88608646Y-78276466D01*
X88608646Y-78276466D02*
X88703884Y-78633609D01*
X88703884Y-78633609D02*
X88822932Y-78133609D01*
X89108646Y-78133609D02*
X89203884Y-78133609D01*
X89203884Y-78133609D02*
X89251503Y-78157419D01*
X89251503Y-78157419D02*
X89299122Y-78205038D01*
X89299122Y-78205038D02*
X89322932Y-78300276D01*
X89322932Y-78300276D02*
X89322932Y-78466942D01*
X89322932Y-78466942D02*
X89299122Y-78562180D01*
X89299122Y-78562180D02*
X89251503Y-78609800D01*
X89251503Y-78609800D02*
X89203884Y-78633609D01*
X89203884Y-78633609D02*
X89108646Y-78633609D01*
X89108646Y-78633609D02*
X89061027Y-78609800D01*
X89061027Y-78609800D02*
X89013408Y-78562180D01*
X89013408Y-78562180D02*
X88989599Y-78466942D01*
X88989599Y-78466942D02*
X88989599Y-78300276D01*
X88989599Y-78300276D02*
X89013408Y-78205038D01*
X89013408Y-78205038D02*
X89061027Y-78157419D01*
X89061027Y-78157419D02*
X89108646Y-78133609D01*
X89822932Y-78633609D02*
X89656266Y-78395514D01*
X89537218Y-78633609D02*
X89537218Y-78133609D01*
X89537218Y-78133609D02*
X89727694Y-78133609D01*
X89727694Y-78133609D02*
X89775313Y-78157419D01*
X89775313Y-78157419D02*
X89799123Y-78181228D01*
X89799123Y-78181228D02*
X89822932Y-78228847D01*
X89822932Y-78228847D02*
X89822932Y-78300276D01*
X89822932Y-78300276D02*
X89799123Y-78347895D01*
X89799123Y-78347895D02*
X89775313Y-78371704D01*
X89775313Y-78371704D02*
X89727694Y-78395514D01*
X89727694Y-78395514D02*
X89537218Y-78395514D01*
X90037218Y-78633609D02*
X90037218Y-78133609D01*
X90322932Y-78633609D02*
X90108647Y-78347895D01*
X90322932Y-78133609D02*
X90037218Y-78419323D01*
X91203884Y-78585990D02*
X91180075Y-78609800D01*
X91180075Y-78609800D02*
X91108646Y-78633609D01*
X91108646Y-78633609D02*
X91061027Y-78633609D01*
X91061027Y-78633609D02*
X90989599Y-78609800D01*
X90989599Y-78609800D02*
X90941980Y-78562180D01*
X90941980Y-78562180D02*
X90918170Y-78514561D01*
X90918170Y-78514561D02*
X90894361Y-78419323D01*
X90894361Y-78419323D02*
X90894361Y-78347895D01*
X90894361Y-78347895D02*
X90918170Y-78252657D01*
X90918170Y-78252657D02*
X90941980Y-78205038D01*
X90941980Y-78205038D02*
X90989599Y-78157419D01*
X90989599Y-78157419D02*
X91061027Y-78133609D01*
X91061027Y-78133609D02*
X91108646Y-78133609D01*
X91108646Y-78133609D02*
X91180075Y-78157419D01*
X91180075Y-78157419D02*
X91203884Y-78181228D01*
X91513408Y-78133609D02*
X91608646Y-78133609D01*
X91608646Y-78133609D02*
X91656265Y-78157419D01*
X91656265Y-78157419D02*
X91703884Y-78205038D01*
X91703884Y-78205038D02*
X91727694Y-78300276D01*
X91727694Y-78300276D02*
X91727694Y-78466942D01*
X91727694Y-78466942D02*
X91703884Y-78562180D01*
X91703884Y-78562180D02*
X91656265Y-78609800D01*
X91656265Y-78609800D02*
X91608646Y-78633609D01*
X91608646Y-78633609D02*
X91513408Y-78633609D01*
X91513408Y-78633609D02*
X91465789Y-78609800D01*
X91465789Y-78609800D02*
X91418170Y-78562180D01*
X91418170Y-78562180D02*
X91394361Y-78466942D01*
X91394361Y-78466942D02*
X91394361Y-78300276D01*
X91394361Y-78300276D02*
X91418170Y-78205038D01*
X91418170Y-78205038D02*
X91465789Y-78157419D01*
X91465789Y-78157419D02*
X91513408Y-78133609D01*
X91941980Y-78633609D02*
X91941980Y-78133609D01*
X91941980Y-78133609D02*
X92227694Y-78633609D01*
X92227694Y-78633609D02*
X92227694Y-78133609D01*
X92465790Y-78633609D02*
X92465790Y-78133609D01*
X92465790Y-78133609D02*
X92751504Y-78633609D01*
X92751504Y-78633609D02*
X92751504Y-78133609D01*
X92989600Y-78371704D02*
X93156267Y-78371704D01*
X93227695Y-78633609D02*
X92989600Y-78633609D01*
X92989600Y-78633609D02*
X92989600Y-78133609D01*
X92989600Y-78133609D02*
X93227695Y-78133609D01*
X93727695Y-78585990D02*
X93703886Y-78609800D01*
X93703886Y-78609800D02*
X93632457Y-78633609D01*
X93632457Y-78633609D02*
X93584838Y-78633609D01*
X93584838Y-78633609D02*
X93513410Y-78609800D01*
X93513410Y-78609800D02*
X93465791Y-78562180D01*
X93465791Y-78562180D02*
X93441981Y-78514561D01*
X93441981Y-78514561D02*
X93418172Y-78419323D01*
X93418172Y-78419323D02*
X93418172Y-78347895D01*
X93418172Y-78347895D02*
X93441981Y-78252657D01*
X93441981Y-78252657D02*
X93465791Y-78205038D01*
X93465791Y-78205038D02*
X93513410Y-78157419D01*
X93513410Y-78157419D02*
X93584838Y-78133609D01*
X93584838Y-78133609D02*
X93632457Y-78133609D01*
X93632457Y-78133609D02*
X93703886Y-78157419D01*
X93703886Y-78157419D02*
X93727695Y-78181228D01*
X93870553Y-78133609D02*
X94156267Y-78133609D01*
X94013410Y-78633609D02*
X94013410Y-78133609D01*
X94322933Y-78371704D02*
X94489600Y-78371704D01*
X94561028Y-78633609D02*
X94322933Y-78633609D01*
X94322933Y-78633609D02*
X94322933Y-78133609D01*
X94322933Y-78133609D02*
X94561028Y-78133609D01*
X94775314Y-78633609D02*
X94775314Y-78133609D01*
X94775314Y-78133609D02*
X94894362Y-78133609D01*
X94894362Y-78133609D02*
X94965790Y-78157419D01*
X94965790Y-78157419D02*
X95013409Y-78205038D01*
X95013409Y-78205038D02*
X95037219Y-78252657D01*
X95037219Y-78252657D02*
X95061028Y-78347895D01*
X95061028Y-78347895D02*
X95061028Y-78419323D01*
X95061028Y-78419323D02*
X95037219Y-78514561D01*
X95037219Y-78514561D02*
X95013409Y-78562180D01*
X95013409Y-78562180D02*
X94965790Y-78609800D01*
X94965790Y-78609800D02*
X94894362Y-78633609D01*
X94894362Y-78633609D02*
X94775314Y-78633609D01*
D12*
X167554510Y-84700828D02*
X167554510Y-83200828D01*
X167554510Y-83200828D02*
X167911653Y-83200828D01*
X167911653Y-83200828D02*
X168125939Y-83272257D01*
X168125939Y-83272257D02*
X168268796Y-83415114D01*
X168268796Y-83415114D02*
X168340225Y-83557971D01*
X168340225Y-83557971D02*
X168411653Y-83843685D01*
X168411653Y-83843685D02*
X168411653Y-84057971D01*
X168411653Y-84057971D02*
X168340225Y-84343685D01*
X168340225Y-84343685D02*
X168268796Y-84486542D01*
X168268796Y-84486542D02*
X168125939Y-84629400D01*
X168125939Y-84629400D02*
X167911653Y-84700828D01*
X167911653Y-84700828D02*
X167554510Y-84700828D01*
X169697368Y-83700828D02*
X169697368Y-84700828D01*
X169340225Y-83129400D02*
X168983082Y-84200828D01*
X168983082Y-84200828D02*
X169911653Y-84200828D01*
X170483081Y-84129400D02*
X171625939Y-84129400D01*
X172340224Y-84700828D02*
X172340224Y-83200828D01*
X172340224Y-83200828D02*
X172697367Y-83200828D01*
X172697367Y-83200828D02*
X172911653Y-83272257D01*
X172911653Y-83272257D02*
X173054510Y-83415114D01*
X173054510Y-83415114D02*
X173125939Y-83557971D01*
X173125939Y-83557971D02*
X173197367Y-83843685D01*
X173197367Y-83843685D02*
X173197367Y-84057971D01*
X173197367Y-84057971D02*
X173125939Y-84343685D01*
X173125939Y-84343685D02*
X173054510Y-84486542D01*
X173054510Y-84486542D02*
X172911653Y-84629400D01*
X172911653Y-84629400D02*
X172697367Y-84700828D01*
X172697367Y-84700828D02*
X172340224Y-84700828D01*
X173697367Y-83200828D02*
X174697367Y-83200828D01*
X174697367Y-83200828D02*
X174054510Y-84700828D01*
D11*
X145136779Y-114469819D02*
X145136779Y-113469819D01*
X145136779Y-113469819D02*
X145374874Y-113469819D01*
X145374874Y-113469819D02*
X145517731Y-113517438D01*
X145517731Y-113517438D02*
X145612969Y-113612676D01*
X145612969Y-113612676D02*
X145660588Y-113707914D01*
X145660588Y-113707914D02*
X145708207Y-113898390D01*
X145708207Y-113898390D02*
X145708207Y-114041247D01*
X145708207Y-114041247D02*
X145660588Y-114231723D01*
X145660588Y-114231723D02*
X145612969Y-114326961D01*
X145612969Y-114326961D02*
X145517731Y-114422200D01*
X145517731Y-114422200D02*
X145374874Y-114469819D01*
X145374874Y-114469819D02*
X145136779Y-114469819D01*
X146327255Y-113469819D02*
X146422493Y-113469819D01*
X146422493Y-113469819D02*
X146517731Y-113517438D01*
X146517731Y-113517438D02*
X146565350Y-113565057D01*
X146565350Y-113565057D02*
X146612969Y-113660295D01*
X146612969Y-113660295D02*
X146660588Y-113850771D01*
X146660588Y-113850771D02*
X146660588Y-114088866D01*
X146660588Y-114088866D02*
X146612969Y-114279342D01*
X146612969Y-114279342D02*
X146565350Y-114374580D01*
X146565350Y-114374580D02*
X146517731Y-114422200D01*
X146517731Y-114422200D02*
X146422493Y-114469819D01*
X146422493Y-114469819D02*
X146327255Y-114469819D01*
X146327255Y-114469819D02*
X146232017Y-114422200D01*
X146232017Y-114422200D02*
X146184398Y-114374580D01*
X146184398Y-114374580D02*
X146136779Y-114279342D01*
X146136779Y-114279342D02*
X146089160Y-114088866D01*
X146089160Y-114088866D02*
X146089160Y-113850771D01*
X146089160Y-113850771D02*
X146136779Y-113660295D01*
X146136779Y-113660295D02*
X146184398Y-113565057D01*
X146184398Y-113565057D02*
X146232017Y-113517438D01*
X146232017Y-113517438D02*
X146327255Y-113469819D01*
X148612970Y-114469819D02*
X148612970Y-113469819D01*
X148612970Y-113469819D02*
X148851065Y-113469819D01*
X148851065Y-113469819D02*
X148993922Y-113517438D01*
X148993922Y-113517438D02*
X149089160Y-113612676D01*
X149089160Y-113612676D02*
X149136779Y-113707914D01*
X149136779Y-113707914D02*
X149184398Y-113898390D01*
X149184398Y-113898390D02*
X149184398Y-114041247D01*
X149184398Y-114041247D02*
X149136779Y-114231723D01*
X149136779Y-114231723D02*
X149089160Y-114326961D01*
X149089160Y-114326961D02*
X148993922Y-114422200D01*
X148993922Y-114422200D02*
X148851065Y-114469819D01*
X148851065Y-114469819D02*
X148612970Y-114469819D01*
X150136779Y-114469819D02*
X149565351Y-114469819D01*
X149851065Y-114469819D02*
X149851065Y-113469819D01*
X149851065Y-113469819D02*
X149755827Y-113612676D01*
X149755827Y-113612676D02*
X149660589Y-113707914D01*
X149660589Y-113707914D02*
X149565351Y-113755533D01*
X152089161Y-114469819D02*
X152089161Y-113469819D01*
X152089161Y-113469819D02*
X152327256Y-113469819D01*
X152327256Y-113469819D02*
X152470113Y-113517438D01*
X152470113Y-113517438D02*
X152565351Y-113612676D01*
X152565351Y-113612676D02*
X152612970Y-113707914D01*
X152612970Y-113707914D02*
X152660589Y-113898390D01*
X152660589Y-113898390D02*
X152660589Y-114041247D01*
X152660589Y-114041247D02*
X152612970Y-114231723D01*
X152612970Y-114231723D02*
X152565351Y-114326961D01*
X152565351Y-114326961D02*
X152470113Y-114422200D01*
X152470113Y-114422200D02*
X152327256Y-114469819D01*
X152327256Y-114469819D02*
X152089161Y-114469819D01*
X153041542Y-113565057D02*
X153089161Y-113517438D01*
X153089161Y-113517438D02*
X153184399Y-113469819D01*
X153184399Y-113469819D02*
X153422494Y-113469819D01*
X153422494Y-113469819D02*
X153517732Y-113517438D01*
X153517732Y-113517438D02*
X153565351Y-113565057D01*
X153565351Y-113565057D02*
X153612970Y-113660295D01*
X153612970Y-113660295D02*
X153612970Y-113755533D01*
X153612970Y-113755533D02*
X153565351Y-113898390D01*
X153565351Y-113898390D02*
X152993923Y-114469819D01*
X152993923Y-114469819D02*
X153612970Y-114469819D01*
X155565352Y-114469819D02*
X155565352Y-113469819D01*
X155565352Y-113469819D02*
X155803447Y-113469819D01*
X155803447Y-113469819D02*
X155946304Y-113517438D01*
X155946304Y-113517438D02*
X156041542Y-113612676D01*
X156041542Y-113612676D02*
X156089161Y-113707914D01*
X156089161Y-113707914D02*
X156136780Y-113898390D01*
X156136780Y-113898390D02*
X156136780Y-114041247D01*
X156136780Y-114041247D02*
X156089161Y-114231723D01*
X156089161Y-114231723D02*
X156041542Y-114326961D01*
X156041542Y-114326961D02*
X155946304Y-114422200D01*
X155946304Y-114422200D02*
X155803447Y-114469819D01*
X155803447Y-114469819D02*
X155565352Y-114469819D01*
X156470114Y-113469819D02*
X157089161Y-113469819D01*
X157089161Y-113469819D02*
X156755828Y-113850771D01*
X156755828Y-113850771D02*
X156898685Y-113850771D01*
X156898685Y-113850771D02*
X156993923Y-113898390D01*
X156993923Y-113898390D02*
X157041542Y-113946009D01*
X157041542Y-113946009D02*
X157089161Y-114041247D01*
X157089161Y-114041247D02*
X157089161Y-114279342D01*
X157089161Y-114279342D02*
X157041542Y-114374580D01*
X157041542Y-114374580D02*
X156993923Y-114422200D01*
X156993923Y-114422200D02*
X156898685Y-114469819D01*
X156898685Y-114469819D02*
X156612971Y-114469819D01*
X156612971Y-114469819D02*
X156517733Y-114422200D01*
X156517733Y-114422200D02*
X156470114Y-114374580D01*
X141466666Y-64154819D02*
X141466666Y-64869104D01*
X141466666Y-64869104D02*
X141419047Y-65011961D01*
X141419047Y-65011961D02*
X141323809Y-65107200D01*
X141323809Y-65107200D02*
X141180952Y-65154819D01*
X141180952Y-65154819D02*
X141085714Y-65154819D01*
X141895238Y-64250057D02*
X141942857Y-64202438D01*
X141942857Y-64202438D02*
X142038095Y-64154819D01*
X142038095Y-64154819D02*
X142276190Y-64154819D01*
X142276190Y-64154819D02*
X142371428Y-64202438D01*
X142371428Y-64202438D02*
X142419047Y-64250057D01*
X142419047Y-64250057D02*
X142466666Y-64345295D01*
X142466666Y-64345295D02*
X142466666Y-64440533D01*
X142466666Y-64440533D02*
X142419047Y-64583390D01*
X142419047Y-64583390D02*
X141847619Y-65154819D01*
X141847619Y-65154819D02*
X142466666Y-65154819D01*
X94725666Y-122294819D02*
X94725666Y-123009104D01*
X94725666Y-123009104D02*
X94678047Y-123151961D01*
X94678047Y-123151961D02*
X94582809Y-123247200D01*
X94582809Y-123247200D02*
X94439952Y-123294819D01*
X94439952Y-123294819D02*
X94344714Y-123294819D01*
X95630428Y-122294819D02*
X95439952Y-122294819D01*
X95439952Y-122294819D02*
X95344714Y-122342438D01*
X95344714Y-122342438D02*
X95297095Y-122390057D01*
X95297095Y-122390057D02*
X95201857Y-122532914D01*
X95201857Y-122532914D02*
X95154238Y-122723390D01*
X95154238Y-122723390D02*
X95154238Y-123104342D01*
X95154238Y-123104342D02*
X95201857Y-123199580D01*
X95201857Y-123199580D02*
X95249476Y-123247200D01*
X95249476Y-123247200D02*
X95344714Y-123294819D01*
X95344714Y-123294819D02*
X95535190Y-123294819D01*
X95535190Y-123294819D02*
X95630428Y-123247200D01*
X95630428Y-123247200D02*
X95678047Y-123199580D01*
X95678047Y-123199580D02*
X95725666Y-123104342D01*
X95725666Y-123104342D02*
X95725666Y-122866247D01*
X95725666Y-122866247D02*
X95678047Y-122771009D01*
X95678047Y-122771009D02*
X95630428Y-122723390D01*
X95630428Y-122723390D02*
X95535190Y-122675771D01*
X95535190Y-122675771D02*
X95344714Y-122675771D01*
X95344714Y-122675771D02*
X95249476Y-122723390D01*
X95249476Y-122723390D02*
X95201857Y-122771009D01*
X95201857Y-122771009D02*
X95154238Y-122866247D01*
X111613819Y-99966666D02*
X111137628Y-100299999D01*
X111613819Y-100538094D02*
X110613819Y-100538094D01*
X110613819Y-100538094D02*
X110613819Y-100157142D01*
X110613819Y-100157142D02*
X110661438Y-100061904D01*
X110661438Y-100061904D02*
X110709057Y-100014285D01*
X110709057Y-100014285D02*
X110804295Y-99966666D01*
X110804295Y-99966666D02*
X110947152Y-99966666D01*
X110947152Y-99966666D02*
X111042390Y-100014285D01*
X111042390Y-100014285D02*
X111090009Y-100061904D01*
X111090009Y-100061904D02*
X111137628Y-100157142D01*
X111137628Y-100157142D02*
X111137628Y-100538094D01*
X111613819Y-99014285D02*
X111613819Y-99585713D01*
X111613819Y-99299999D02*
X110613819Y-99299999D01*
X110613819Y-99299999D02*
X110756676Y-99395237D01*
X110756676Y-99395237D02*
X110851914Y-99490475D01*
X110851914Y-99490475D02*
X110899533Y-99585713D01*
D10*
X126646419Y-67001904D02*
X127455942Y-67001904D01*
X127455942Y-67001904D02*
X127551180Y-66954285D01*
X127551180Y-66954285D02*
X127598800Y-66906666D01*
X127598800Y-66906666D02*
X127646419Y-66811428D01*
X127646419Y-66811428D02*
X127646419Y-66620952D01*
X127646419Y-66620952D02*
X127598800Y-66525714D01*
X127598800Y-66525714D02*
X127551180Y-66478095D01*
X127551180Y-66478095D02*
X127455942Y-66430476D01*
X127455942Y-66430476D02*
X126646419Y-66430476D01*
X127646419Y-65430476D02*
X127646419Y-66001904D01*
X127646419Y-65716190D02*
X126646419Y-65716190D01*
X126646419Y-65716190D02*
X126789276Y-65811428D01*
X126789276Y-65811428D02*
X126884514Y-65906666D01*
X126884514Y-65906666D02*
X126932133Y-66001904D01*
D11*
X117306255Y-84326307D02*
X117556255Y-84326307D01*
X117663398Y-84719164D02*
X117306255Y-84719164D01*
X117306255Y-84719164D02*
X117306255Y-83969164D01*
X117306255Y-83969164D02*
X117663398Y-83969164D01*
X117984826Y-84719164D02*
X117984826Y-83969164D01*
X117984826Y-83969164D02*
X118413397Y-84719164D01*
X118413397Y-84719164D02*
X118413397Y-83969164D01*
D10*
X124117570Y-115317419D02*
X123784237Y-114841228D01*
X123546142Y-115317419D02*
X123546142Y-114317419D01*
X123546142Y-114317419D02*
X123927094Y-114317419D01*
X123927094Y-114317419D02*
X124022332Y-114365038D01*
X124022332Y-114365038D02*
X124069951Y-114412657D01*
X124069951Y-114412657D02*
X124117570Y-114507895D01*
X124117570Y-114507895D02*
X124117570Y-114650752D01*
X124117570Y-114650752D02*
X124069951Y-114745990D01*
X124069951Y-114745990D02*
X124022332Y-114793609D01*
X124022332Y-114793609D02*
X123927094Y-114841228D01*
X123927094Y-114841228D02*
X123546142Y-114841228D01*
X124831856Y-114317419D02*
X124831856Y-115031704D01*
X124831856Y-115031704D02*
X124784237Y-115174561D01*
X124784237Y-115174561D02*
X124688999Y-115269800D01*
X124688999Y-115269800D02*
X124546142Y-115317419D01*
X124546142Y-115317419D02*
X124450904Y-115317419D01*
X125736618Y-114650752D02*
X125736618Y-115317419D01*
X125498523Y-114269800D02*
X125260428Y-114984085D01*
X125260428Y-114984085D02*
X125879475Y-114984085D01*
X126736618Y-114317419D02*
X126260428Y-114317419D01*
X126260428Y-114317419D02*
X126212809Y-114793609D01*
X126212809Y-114793609D02*
X126260428Y-114745990D01*
X126260428Y-114745990D02*
X126355666Y-114698371D01*
X126355666Y-114698371D02*
X126593761Y-114698371D01*
X126593761Y-114698371D02*
X126688999Y-114745990D01*
X126688999Y-114745990D02*
X126736618Y-114793609D01*
X126736618Y-114793609D02*
X126784237Y-114888847D01*
X126784237Y-114888847D02*
X126784237Y-115126942D01*
X126784237Y-115126942D02*
X126736618Y-115222180D01*
X126736618Y-115222180D02*
X126688999Y-115269800D01*
X126688999Y-115269800D02*
X126593761Y-115317419D01*
X126593761Y-115317419D02*
X126355666Y-115317419D01*
X126355666Y-115317419D02*
X126260428Y-115269800D01*
X126260428Y-115269800D02*
X126212809Y-115222180D01*
X128260428Y-114317419D02*
X128260428Y-115031704D01*
X128260428Y-115031704D02*
X128212809Y-115174561D01*
X128212809Y-115174561D02*
X128117571Y-115269800D01*
X128117571Y-115269800D02*
X127974714Y-115317419D01*
X127974714Y-115317419D02*
X127879476Y-115317419D01*
X129165190Y-115317419D02*
X129165190Y-114793609D01*
X129165190Y-114793609D02*
X129117571Y-114698371D01*
X129117571Y-114698371D02*
X129022333Y-114650752D01*
X129022333Y-114650752D02*
X128831857Y-114650752D01*
X128831857Y-114650752D02*
X128736619Y-114698371D01*
X129165190Y-115269800D02*
X129069952Y-115317419D01*
X129069952Y-115317419D02*
X128831857Y-115317419D01*
X128831857Y-115317419D02*
X128736619Y-115269800D01*
X128736619Y-115269800D02*
X128689000Y-115174561D01*
X128689000Y-115174561D02*
X128689000Y-115079323D01*
X128689000Y-115079323D02*
X128736619Y-114984085D01*
X128736619Y-114984085D02*
X128831857Y-114936466D01*
X128831857Y-114936466D02*
X129069952Y-114936466D01*
X129069952Y-114936466D02*
X129165190Y-114888847D01*
X130069952Y-115269800D02*
X129974714Y-115317419D01*
X129974714Y-115317419D02*
X129784238Y-115317419D01*
X129784238Y-115317419D02*
X129689000Y-115269800D01*
X129689000Y-115269800D02*
X129641381Y-115222180D01*
X129641381Y-115222180D02*
X129593762Y-115126942D01*
X129593762Y-115126942D02*
X129593762Y-114841228D01*
X129593762Y-114841228D02*
X129641381Y-114745990D01*
X129641381Y-114745990D02*
X129689000Y-114698371D01*
X129689000Y-114698371D02*
X129784238Y-114650752D01*
X129784238Y-114650752D02*
X129974714Y-114650752D01*
X129974714Y-114650752D02*
X130069952Y-114698371D01*
X130498524Y-115317419D02*
X130498524Y-114317419D01*
X130593762Y-114936466D02*
X130879476Y-115317419D01*
X130879476Y-114650752D02*
X130498524Y-115031704D01*
D11*
X134857458Y-97419164D02*
X134857458Y-96669164D01*
X135357458Y-96669164D02*
X135500315Y-96669164D01*
X135500315Y-96669164D02*
X135571744Y-96704878D01*
X135571744Y-96704878D02*
X135643172Y-96776307D01*
X135643172Y-96776307D02*
X135678887Y-96919164D01*
X135678887Y-96919164D02*
X135678887Y-97169164D01*
X135678887Y-97169164D02*
X135643172Y-97312021D01*
X135643172Y-97312021D02*
X135571744Y-97383450D01*
X135571744Y-97383450D02*
X135500315Y-97419164D01*
X135500315Y-97419164D02*
X135357458Y-97419164D01*
X135357458Y-97419164D02*
X135286030Y-97383450D01*
X135286030Y-97383450D02*
X135214601Y-97312021D01*
X135214601Y-97312021D02*
X135178887Y-97169164D01*
X135178887Y-97169164D02*
X135178887Y-96919164D01*
X135178887Y-96919164D02*
X135214601Y-96776307D01*
X135214601Y-96776307D02*
X135286030Y-96704878D01*
X135286030Y-96704878D02*
X135357458Y-96669164D01*
X136393172Y-97419164D02*
X135964601Y-97419164D01*
X136178886Y-97419164D02*
X136178886Y-96669164D01*
X136178886Y-96669164D02*
X136107458Y-96776307D01*
X136107458Y-96776307D02*
X136036029Y-96847735D01*
X136036029Y-96847735D02*
X135964601Y-96883450D01*
X136678887Y-96740592D02*
X136714601Y-96704878D01*
X136714601Y-96704878D02*
X136786030Y-96669164D01*
X136786030Y-96669164D02*
X136964601Y-96669164D01*
X136964601Y-96669164D02*
X137036030Y-96704878D01*
X137036030Y-96704878D02*
X137071744Y-96740592D01*
X137071744Y-96740592D02*
X137107458Y-96812021D01*
X137107458Y-96812021D02*
X137107458Y-96883450D01*
X137107458Y-96883450D02*
X137071744Y-96990592D01*
X137071744Y-96990592D02*
X136643172Y-97419164D01*
X136643172Y-97419164D02*
X137107458Y-97419164D01*
X135643172Y-79639164D02*
X135393172Y-79282021D01*
X135214601Y-79639164D02*
X135214601Y-78889164D01*
X135214601Y-78889164D02*
X135500315Y-78889164D01*
X135500315Y-78889164D02*
X135571744Y-78924878D01*
X135571744Y-78924878D02*
X135607458Y-78960592D01*
X135607458Y-78960592D02*
X135643172Y-79032021D01*
X135643172Y-79032021D02*
X135643172Y-79139164D01*
X135643172Y-79139164D02*
X135607458Y-79210592D01*
X135607458Y-79210592D02*
X135571744Y-79246307D01*
X135571744Y-79246307D02*
X135500315Y-79282021D01*
X135500315Y-79282021D02*
X135214601Y-79282021D01*
X135893172Y-78889164D02*
X136393172Y-79639164D01*
X136393172Y-78889164D02*
X135893172Y-79639164D01*
X136678887Y-79639164D02*
X136678887Y-78889164D01*
X136678887Y-78889164D02*
X136857458Y-78889164D01*
X136857458Y-78889164D02*
X136964601Y-78924878D01*
X136964601Y-78924878D02*
X137036030Y-78996307D01*
X137036030Y-78996307D02*
X137071744Y-79067735D01*
X137071744Y-79067735D02*
X137107458Y-79210592D01*
X137107458Y-79210592D02*
X137107458Y-79317735D01*
X137107458Y-79317735D02*
X137071744Y-79460592D01*
X137071744Y-79460592D02*
X137036030Y-79532021D01*
X137036030Y-79532021D02*
X136964601Y-79603450D01*
X136964601Y-79603450D02*
X136857458Y-79639164D01*
X136857458Y-79639164D02*
X136678887Y-79639164D01*
X135536030Y-106864878D02*
X135464602Y-106829164D01*
X135464602Y-106829164D02*
X135357459Y-106829164D01*
X135357459Y-106829164D02*
X135250316Y-106864878D01*
X135250316Y-106864878D02*
X135178887Y-106936307D01*
X135178887Y-106936307D02*
X135143173Y-107007735D01*
X135143173Y-107007735D02*
X135107459Y-107150592D01*
X135107459Y-107150592D02*
X135107459Y-107257735D01*
X135107459Y-107257735D02*
X135143173Y-107400592D01*
X135143173Y-107400592D02*
X135178887Y-107472021D01*
X135178887Y-107472021D02*
X135250316Y-107543450D01*
X135250316Y-107543450D02*
X135357459Y-107579164D01*
X135357459Y-107579164D02*
X135428887Y-107579164D01*
X135428887Y-107579164D02*
X135536030Y-107543450D01*
X135536030Y-107543450D02*
X135571744Y-107507735D01*
X135571744Y-107507735D02*
X135571744Y-107257735D01*
X135571744Y-107257735D02*
X135428887Y-107257735D01*
X135893173Y-107579164D02*
X135893173Y-106829164D01*
X135893173Y-106829164D02*
X136321744Y-107579164D01*
X136321744Y-107579164D02*
X136321744Y-106829164D01*
X136678887Y-107579164D02*
X136678887Y-106829164D01*
X136678887Y-106829164D02*
X136857458Y-106829164D01*
X136857458Y-106829164D02*
X136964601Y-106864878D01*
X136964601Y-106864878D02*
X137036030Y-106936307D01*
X137036030Y-106936307D02*
X137071744Y-107007735D01*
X137071744Y-107007735D02*
X137107458Y-107150592D01*
X137107458Y-107150592D02*
X137107458Y-107257735D01*
X137107458Y-107257735D02*
X137071744Y-107400592D01*
X137071744Y-107400592D02*
X137036030Y-107472021D01*
X137036030Y-107472021D02*
X136964601Y-107543450D01*
X136964601Y-107543450D02*
X136857458Y-107579164D01*
X136857458Y-107579164D02*
X136678887Y-107579164D01*
X135536030Y-84004878D02*
X135464602Y-83969164D01*
X135464602Y-83969164D02*
X135357459Y-83969164D01*
X135357459Y-83969164D02*
X135250316Y-84004878D01*
X135250316Y-84004878D02*
X135178887Y-84076307D01*
X135178887Y-84076307D02*
X135143173Y-84147735D01*
X135143173Y-84147735D02*
X135107459Y-84290592D01*
X135107459Y-84290592D02*
X135107459Y-84397735D01*
X135107459Y-84397735D02*
X135143173Y-84540592D01*
X135143173Y-84540592D02*
X135178887Y-84612021D01*
X135178887Y-84612021D02*
X135250316Y-84683450D01*
X135250316Y-84683450D02*
X135357459Y-84719164D01*
X135357459Y-84719164D02*
X135428887Y-84719164D01*
X135428887Y-84719164D02*
X135536030Y-84683450D01*
X135536030Y-84683450D02*
X135571744Y-84647735D01*
X135571744Y-84647735D02*
X135571744Y-84397735D01*
X135571744Y-84397735D02*
X135428887Y-84397735D01*
X135893173Y-84719164D02*
X135893173Y-83969164D01*
X135893173Y-83969164D02*
X136321744Y-84719164D01*
X136321744Y-84719164D02*
X136321744Y-83969164D01*
X136678887Y-84719164D02*
X136678887Y-83969164D01*
X136678887Y-83969164D02*
X136857458Y-83969164D01*
X136857458Y-83969164D02*
X136964601Y-84004878D01*
X136964601Y-84004878D02*
X137036030Y-84076307D01*
X137036030Y-84076307D02*
X137071744Y-84147735D01*
X137071744Y-84147735D02*
X137107458Y-84290592D01*
X137107458Y-84290592D02*
X137107458Y-84397735D01*
X137107458Y-84397735D02*
X137071744Y-84540592D01*
X137071744Y-84540592D02*
X137036030Y-84612021D01*
X137036030Y-84612021D02*
X136964601Y-84683450D01*
X136964601Y-84683450D02*
X136857458Y-84719164D01*
X136857458Y-84719164D02*
X136678887Y-84719164D01*
X117306255Y-76706307D02*
X117556255Y-76706307D01*
X117663398Y-77099164D02*
X117306255Y-77099164D01*
X117306255Y-77099164D02*
X117306255Y-76349164D01*
X117306255Y-76349164D02*
X117663398Y-76349164D01*
X117984826Y-77099164D02*
X117984826Y-76349164D01*
X117984826Y-76349164D02*
X118413397Y-77099164D01*
X118413397Y-77099164D02*
X118413397Y-76349164D01*
X135571744Y-82179164D02*
X135571744Y-81429164D01*
X136071744Y-81429164D02*
X136214601Y-81429164D01*
X136214601Y-81429164D02*
X136286030Y-81464878D01*
X136286030Y-81464878D02*
X136357458Y-81536307D01*
X136357458Y-81536307D02*
X136393173Y-81679164D01*
X136393173Y-81679164D02*
X136393173Y-81929164D01*
X136393173Y-81929164D02*
X136357458Y-82072021D01*
X136357458Y-82072021D02*
X136286030Y-82143450D01*
X136286030Y-82143450D02*
X136214601Y-82179164D01*
X136214601Y-82179164D02*
X136071744Y-82179164D01*
X136071744Y-82179164D02*
X136000316Y-82143450D01*
X136000316Y-82143450D02*
X135928887Y-82072021D01*
X135928887Y-82072021D02*
X135893173Y-81929164D01*
X135893173Y-81929164D02*
X135893173Y-81679164D01*
X135893173Y-81679164D02*
X135928887Y-81536307D01*
X135928887Y-81536307D02*
X136000316Y-81464878D01*
X136000316Y-81464878D02*
X136071744Y-81429164D01*
X136857458Y-81429164D02*
X136928887Y-81429164D01*
X136928887Y-81429164D02*
X137000315Y-81464878D01*
X137000315Y-81464878D02*
X137036030Y-81500592D01*
X137036030Y-81500592D02*
X137071744Y-81572021D01*
X137071744Y-81572021D02*
X137107458Y-81714878D01*
X137107458Y-81714878D02*
X137107458Y-81893450D01*
X137107458Y-81893450D02*
X137071744Y-82036307D01*
X137071744Y-82036307D02*
X137036030Y-82107735D01*
X137036030Y-82107735D02*
X137000315Y-82143450D01*
X137000315Y-82143450D02*
X136928887Y-82179164D01*
X136928887Y-82179164D02*
X136857458Y-82179164D01*
X136857458Y-82179164D02*
X136786030Y-82143450D01*
X136786030Y-82143450D02*
X136750315Y-82107735D01*
X136750315Y-82107735D02*
X136714601Y-82036307D01*
X136714601Y-82036307D02*
X136678887Y-81893450D01*
X136678887Y-81893450D02*
X136678887Y-81714878D01*
X136678887Y-81714878D02*
X136714601Y-81572021D01*
X136714601Y-81572021D02*
X136750315Y-81500592D01*
X136750315Y-81500592D02*
X136786030Y-81464878D01*
X136786030Y-81464878D02*
X136857458Y-81429164D01*
X117234826Y-81429164D02*
X117699112Y-81429164D01*
X117699112Y-81429164D02*
X117449112Y-81714878D01*
X117449112Y-81714878D02*
X117556255Y-81714878D01*
X117556255Y-81714878D02*
X117627684Y-81750592D01*
X117627684Y-81750592D02*
X117663398Y-81786307D01*
X117663398Y-81786307D02*
X117699112Y-81857735D01*
X117699112Y-81857735D02*
X117699112Y-82036307D01*
X117699112Y-82036307D02*
X117663398Y-82107735D01*
X117663398Y-82107735D02*
X117627684Y-82143450D01*
X117627684Y-82143450D02*
X117556255Y-82179164D01*
X117556255Y-82179164D02*
X117341969Y-82179164D01*
X117341969Y-82179164D02*
X117270541Y-82143450D01*
X117270541Y-82143450D02*
X117234826Y-82107735D01*
X117913398Y-81429164D02*
X118163398Y-82179164D01*
X118163398Y-82179164D02*
X118413398Y-81429164D01*
X118591969Y-81429164D02*
X119056255Y-81429164D01*
X119056255Y-81429164D02*
X118806255Y-81714878D01*
X118806255Y-81714878D02*
X118913398Y-81714878D01*
X118913398Y-81714878D02*
X118984827Y-81750592D01*
X118984827Y-81750592D02*
X119020541Y-81786307D01*
X119020541Y-81786307D02*
X119056255Y-81857735D01*
X119056255Y-81857735D02*
X119056255Y-82036307D01*
X119056255Y-82036307D02*
X119020541Y-82107735D01*
X119020541Y-82107735D02*
X118984827Y-82143450D01*
X118984827Y-82143450D02*
X118913398Y-82179164D01*
X118913398Y-82179164D02*
X118699112Y-82179164D01*
X118699112Y-82179164D02*
X118627684Y-82143450D01*
X118627684Y-82143450D02*
X118591969Y-82107735D01*
X134857458Y-99959164D02*
X134857458Y-99209164D01*
X135357458Y-99209164D02*
X135500315Y-99209164D01*
X135500315Y-99209164D02*
X135571744Y-99244878D01*
X135571744Y-99244878D02*
X135643172Y-99316307D01*
X135643172Y-99316307D02*
X135678887Y-99459164D01*
X135678887Y-99459164D02*
X135678887Y-99709164D01*
X135678887Y-99709164D02*
X135643172Y-99852021D01*
X135643172Y-99852021D02*
X135571744Y-99923450D01*
X135571744Y-99923450D02*
X135500315Y-99959164D01*
X135500315Y-99959164D02*
X135357458Y-99959164D01*
X135357458Y-99959164D02*
X135286030Y-99923450D01*
X135286030Y-99923450D02*
X135214601Y-99852021D01*
X135214601Y-99852021D02*
X135178887Y-99709164D01*
X135178887Y-99709164D02*
X135178887Y-99459164D01*
X135178887Y-99459164D02*
X135214601Y-99316307D01*
X135214601Y-99316307D02*
X135286030Y-99244878D01*
X135286030Y-99244878D02*
X135357458Y-99209164D01*
X135928886Y-99209164D02*
X136393172Y-99209164D01*
X136393172Y-99209164D02*
X136143172Y-99494878D01*
X136143172Y-99494878D02*
X136250315Y-99494878D01*
X136250315Y-99494878D02*
X136321744Y-99530592D01*
X136321744Y-99530592D02*
X136357458Y-99566307D01*
X136357458Y-99566307D02*
X136393172Y-99637735D01*
X136393172Y-99637735D02*
X136393172Y-99816307D01*
X136393172Y-99816307D02*
X136357458Y-99887735D01*
X136357458Y-99887735D02*
X136321744Y-99923450D01*
X136321744Y-99923450D02*
X136250315Y-99959164D01*
X136250315Y-99959164D02*
X136036029Y-99959164D01*
X136036029Y-99959164D02*
X135964601Y-99923450D01*
X135964601Y-99923450D02*
X135928886Y-99887735D01*
X137071744Y-99209164D02*
X136714601Y-99209164D01*
X136714601Y-99209164D02*
X136678887Y-99566307D01*
X136678887Y-99566307D02*
X136714601Y-99530592D01*
X136714601Y-99530592D02*
X136786030Y-99494878D01*
X136786030Y-99494878D02*
X136964601Y-99494878D01*
X136964601Y-99494878D02*
X137036030Y-99530592D01*
X137036030Y-99530592D02*
X137071744Y-99566307D01*
X137071744Y-99566307D02*
X137107458Y-99637735D01*
X137107458Y-99637735D02*
X137107458Y-99816307D01*
X137107458Y-99816307D02*
X137071744Y-99887735D01*
X137071744Y-99887735D02*
X137036030Y-99923450D01*
X137036030Y-99923450D02*
X136964601Y-99959164D01*
X136964601Y-99959164D02*
X136786030Y-99959164D01*
X136786030Y-99959164D02*
X136714601Y-99923450D01*
X136714601Y-99923450D02*
X136678887Y-99887735D01*
X117306255Y-92339164D02*
X117306255Y-91589164D01*
X117806255Y-91589164D02*
X117949112Y-91589164D01*
X117949112Y-91589164D02*
X118020541Y-91624878D01*
X118020541Y-91624878D02*
X118091969Y-91696307D01*
X118091969Y-91696307D02*
X118127684Y-91839164D01*
X118127684Y-91839164D02*
X118127684Y-92089164D01*
X118127684Y-92089164D02*
X118091969Y-92232021D01*
X118091969Y-92232021D02*
X118020541Y-92303450D01*
X118020541Y-92303450D02*
X117949112Y-92339164D01*
X117949112Y-92339164D02*
X117806255Y-92339164D01*
X117806255Y-92339164D02*
X117734827Y-92303450D01*
X117734827Y-92303450D02*
X117663398Y-92232021D01*
X117663398Y-92232021D02*
X117627684Y-92089164D01*
X117627684Y-92089164D02*
X117627684Y-91839164D01*
X117627684Y-91839164D02*
X117663398Y-91696307D01*
X117663398Y-91696307D02*
X117734827Y-91624878D01*
X117734827Y-91624878D02*
X117806255Y-91589164D01*
X118806255Y-91589164D02*
X118449112Y-91589164D01*
X118449112Y-91589164D02*
X118413398Y-91946307D01*
X118413398Y-91946307D02*
X118449112Y-91910592D01*
X118449112Y-91910592D02*
X118520541Y-91874878D01*
X118520541Y-91874878D02*
X118699112Y-91874878D01*
X118699112Y-91874878D02*
X118770541Y-91910592D01*
X118770541Y-91910592D02*
X118806255Y-91946307D01*
X118806255Y-91946307D02*
X118841969Y-92017735D01*
X118841969Y-92017735D02*
X118841969Y-92196307D01*
X118841969Y-92196307D02*
X118806255Y-92267735D01*
X118806255Y-92267735D02*
X118770541Y-92303450D01*
X118770541Y-92303450D02*
X118699112Y-92339164D01*
X118699112Y-92339164D02*
X118520541Y-92339164D01*
X118520541Y-92339164D02*
X118449112Y-92303450D01*
X118449112Y-92303450D02*
X118413398Y-92267735D01*
X134857458Y-87259164D02*
X134857458Y-86509164D01*
X135357458Y-86509164D02*
X135500315Y-86509164D01*
X135500315Y-86509164D02*
X135571744Y-86544878D01*
X135571744Y-86544878D02*
X135643172Y-86616307D01*
X135643172Y-86616307D02*
X135678887Y-86759164D01*
X135678887Y-86759164D02*
X135678887Y-87009164D01*
X135678887Y-87009164D02*
X135643172Y-87152021D01*
X135643172Y-87152021D02*
X135571744Y-87223450D01*
X135571744Y-87223450D02*
X135500315Y-87259164D01*
X135500315Y-87259164D02*
X135357458Y-87259164D01*
X135357458Y-87259164D02*
X135286030Y-87223450D01*
X135286030Y-87223450D02*
X135214601Y-87152021D01*
X135214601Y-87152021D02*
X135178887Y-87009164D01*
X135178887Y-87009164D02*
X135178887Y-86759164D01*
X135178887Y-86759164D02*
X135214601Y-86616307D01*
X135214601Y-86616307D02*
X135286030Y-86544878D01*
X135286030Y-86544878D02*
X135357458Y-86509164D01*
X135928886Y-86509164D02*
X136393172Y-86509164D01*
X136393172Y-86509164D02*
X136143172Y-86794878D01*
X136143172Y-86794878D02*
X136250315Y-86794878D01*
X136250315Y-86794878D02*
X136321744Y-86830592D01*
X136321744Y-86830592D02*
X136357458Y-86866307D01*
X136357458Y-86866307D02*
X136393172Y-86937735D01*
X136393172Y-86937735D02*
X136393172Y-87116307D01*
X136393172Y-87116307D02*
X136357458Y-87187735D01*
X136357458Y-87187735D02*
X136321744Y-87223450D01*
X136321744Y-87223450D02*
X136250315Y-87259164D01*
X136250315Y-87259164D02*
X136036029Y-87259164D01*
X136036029Y-87259164D02*
X135964601Y-87223450D01*
X135964601Y-87223450D02*
X135928886Y-87187735D01*
X136750315Y-87259164D02*
X136893172Y-87259164D01*
X136893172Y-87259164D02*
X136964601Y-87223450D01*
X136964601Y-87223450D02*
X137000315Y-87187735D01*
X137000315Y-87187735D02*
X137071744Y-87080592D01*
X137071744Y-87080592D02*
X137107458Y-86937735D01*
X137107458Y-86937735D02*
X137107458Y-86652021D01*
X137107458Y-86652021D02*
X137071744Y-86580592D01*
X137071744Y-86580592D02*
X137036030Y-86544878D01*
X137036030Y-86544878D02*
X136964601Y-86509164D01*
X136964601Y-86509164D02*
X136821744Y-86509164D01*
X136821744Y-86509164D02*
X136750315Y-86544878D01*
X136750315Y-86544878D02*
X136714601Y-86580592D01*
X136714601Y-86580592D02*
X136678887Y-86652021D01*
X136678887Y-86652021D02*
X136678887Y-86830592D01*
X136678887Y-86830592D02*
X136714601Y-86902021D01*
X136714601Y-86902021D02*
X136750315Y-86937735D01*
X136750315Y-86937735D02*
X136821744Y-86973450D01*
X136821744Y-86973450D02*
X136964601Y-86973450D01*
X136964601Y-86973450D02*
X137036030Y-86937735D01*
X137036030Y-86937735D02*
X137071744Y-86902021D01*
X137071744Y-86902021D02*
X137107458Y-86830592D01*
X134857458Y-94879164D02*
X134857458Y-94129164D01*
X135357458Y-94129164D02*
X135500315Y-94129164D01*
X135500315Y-94129164D02*
X135571744Y-94164878D01*
X135571744Y-94164878D02*
X135643172Y-94236307D01*
X135643172Y-94236307D02*
X135678887Y-94379164D01*
X135678887Y-94379164D02*
X135678887Y-94629164D01*
X135678887Y-94629164D02*
X135643172Y-94772021D01*
X135643172Y-94772021D02*
X135571744Y-94843450D01*
X135571744Y-94843450D02*
X135500315Y-94879164D01*
X135500315Y-94879164D02*
X135357458Y-94879164D01*
X135357458Y-94879164D02*
X135286030Y-94843450D01*
X135286030Y-94843450D02*
X135214601Y-94772021D01*
X135214601Y-94772021D02*
X135178887Y-94629164D01*
X135178887Y-94629164D02*
X135178887Y-94379164D01*
X135178887Y-94379164D02*
X135214601Y-94236307D01*
X135214601Y-94236307D02*
X135286030Y-94164878D01*
X135286030Y-94164878D02*
X135357458Y-94129164D01*
X136393172Y-94879164D02*
X135964601Y-94879164D01*
X136178886Y-94879164D02*
X136178886Y-94129164D01*
X136178886Y-94129164D02*
X136107458Y-94236307D01*
X136107458Y-94236307D02*
X136036029Y-94307735D01*
X136036029Y-94307735D02*
X135964601Y-94343450D01*
X137036030Y-94379164D02*
X137036030Y-94879164D01*
X136857458Y-94093450D02*
X136678887Y-94629164D01*
X136678887Y-94629164D02*
X137143172Y-94629164D01*
X135286029Y-76349164D02*
X135714601Y-76349164D01*
X135500315Y-77099164D02*
X135500315Y-76349164D01*
X135893172Y-76349164D02*
X136393172Y-77099164D01*
X136393172Y-76349164D02*
X135893172Y-77099164D01*
X136678887Y-77099164D02*
X136678887Y-76349164D01*
X136678887Y-76349164D02*
X136857458Y-76349164D01*
X136857458Y-76349164D02*
X136964601Y-76384878D01*
X136964601Y-76384878D02*
X137036030Y-76456307D01*
X137036030Y-76456307D02*
X137071744Y-76527735D01*
X137071744Y-76527735D02*
X137107458Y-76670592D01*
X137107458Y-76670592D02*
X137107458Y-76777735D01*
X137107458Y-76777735D02*
X137071744Y-76920592D01*
X137071744Y-76920592D02*
X137036030Y-76992021D01*
X137036030Y-76992021D02*
X136964601Y-77063450D01*
X136964601Y-77063450D02*
X136857458Y-77099164D01*
X136857458Y-77099164D02*
X136678887Y-77099164D01*
X117234826Y-99209164D02*
X117699112Y-99209164D01*
X117699112Y-99209164D02*
X117449112Y-99494878D01*
X117449112Y-99494878D02*
X117556255Y-99494878D01*
X117556255Y-99494878D02*
X117627684Y-99530592D01*
X117627684Y-99530592D02*
X117663398Y-99566307D01*
X117663398Y-99566307D02*
X117699112Y-99637735D01*
X117699112Y-99637735D02*
X117699112Y-99816307D01*
X117699112Y-99816307D02*
X117663398Y-99887735D01*
X117663398Y-99887735D02*
X117627684Y-99923450D01*
X117627684Y-99923450D02*
X117556255Y-99959164D01*
X117556255Y-99959164D02*
X117341969Y-99959164D01*
X117341969Y-99959164D02*
X117270541Y-99923450D01*
X117270541Y-99923450D02*
X117234826Y-99887735D01*
X117913398Y-99209164D02*
X118163398Y-99959164D01*
X118163398Y-99959164D02*
X118413398Y-99209164D01*
X118591969Y-99209164D02*
X119056255Y-99209164D01*
X119056255Y-99209164D02*
X118806255Y-99494878D01*
X118806255Y-99494878D02*
X118913398Y-99494878D01*
X118913398Y-99494878D02*
X118984827Y-99530592D01*
X118984827Y-99530592D02*
X119020541Y-99566307D01*
X119020541Y-99566307D02*
X119056255Y-99637735D01*
X119056255Y-99637735D02*
X119056255Y-99816307D01*
X119056255Y-99816307D02*
X119020541Y-99887735D01*
X119020541Y-99887735D02*
X118984827Y-99923450D01*
X118984827Y-99923450D02*
X118913398Y-99959164D01*
X118913398Y-99959164D02*
X118699112Y-99959164D01*
X118699112Y-99959164D02*
X118627684Y-99923450D01*
X118627684Y-99923450D02*
X118591969Y-99887735D01*
X134857458Y-89799164D02*
X134857458Y-89049164D01*
X135357458Y-89049164D02*
X135500315Y-89049164D01*
X135500315Y-89049164D02*
X135571744Y-89084878D01*
X135571744Y-89084878D02*
X135643172Y-89156307D01*
X135643172Y-89156307D02*
X135678887Y-89299164D01*
X135678887Y-89299164D02*
X135678887Y-89549164D01*
X135678887Y-89549164D02*
X135643172Y-89692021D01*
X135643172Y-89692021D02*
X135571744Y-89763450D01*
X135571744Y-89763450D02*
X135500315Y-89799164D01*
X135500315Y-89799164D02*
X135357458Y-89799164D01*
X135357458Y-89799164D02*
X135286030Y-89763450D01*
X135286030Y-89763450D02*
X135214601Y-89692021D01*
X135214601Y-89692021D02*
X135178887Y-89549164D01*
X135178887Y-89549164D02*
X135178887Y-89299164D01*
X135178887Y-89299164D02*
X135214601Y-89156307D01*
X135214601Y-89156307D02*
X135286030Y-89084878D01*
X135286030Y-89084878D02*
X135357458Y-89049164D01*
X135928886Y-89049164D02*
X136393172Y-89049164D01*
X136393172Y-89049164D02*
X136143172Y-89334878D01*
X136143172Y-89334878D02*
X136250315Y-89334878D01*
X136250315Y-89334878D02*
X136321744Y-89370592D01*
X136321744Y-89370592D02*
X136357458Y-89406307D01*
X136357458Y-89406307D02*
X136393172Y-89477735D01*
X136393172Y-89477735D02*
X136393172Y-89656307D01*
X136393172Y-89656307D02*
X136357458Y-89727735D01*
X136357458Y-89727735D02*
X136321744Y-89763450D01*
X136321744Y-89763450D02*
X136250315Y-89799164D01*
X136250315Y-89799164D02*
X136036029Y-89799164D01*
X136036029Y-89799164D02*
X135964601Y-89763450D01*
X135964601Y-89763450D02*
X135928886Y-89727735D01*
X137036030Y-89049164D02*
X136893172Y-89049164D01*
X136893172Y-89049164D02*
X136821744Y-89084878D01*
X136821744Y-89084878D02*
X136786030Y-89120592D01*
X136786030Y-89120592D02*
X136714601Y-89227735D01*
X136714601Y-89227735D02*
X136678887Y-89370592D01*
X136678887Y-89370592D02*
X136678887Y-89656307D01*
X136678887Y-89656307D02*
X136714601Y-89727735D01*
X136714601Y-89727735D02*
X136750315Y-89763450D01*
X136750315Y-89763450D02*
X136821744Y-89799164D01*
X136821744Y-89799164D02*
X136964601Y-89799164D01*
X136964601Y-89799164D02*
X137036030Y-89763450D01*
X137036030Y-89763450D02*
X137071744Y-89727735D01*
X137071744Y-89727735D02*
X137107458Y-89656307D01*
X137107458Y-89656307D02*
X137107458Y-89477735D01*
X137107458Y-89477735D02*
X137071744Y-89406307D01*
X137071744Y-89406307D02*
X137036030Y-89370592D01*
X137036030Y-89370592D02*
X136964601Y-89334878D01*
X136964601Y-89334878D02*
X136821744Y-89334878D01*
X136821744Y-89334878D02*
X136750315Y-89370592D01*
X136750315Y-89370592D02*
X136714601Y-89406307D01*
X136714601Y-89406307D02*
X136678887Y-89477735D01*
X134857458Y-92339164D02*
X134857458Y-91589164D01*
X135357458Y-91589164D02*
X135500315Y-91589164D01*
X135500315Y-91589164D02*
X135571744Y-91624878D01*
X135571744Y-91624878D02*
X135643172Y-91696307D01*
X135643172Y-91696307D02*
X135678887Y-91839164D01*
X135678887Y-91839164D02*
X135678887Y-92089164D01*
X135678887Y-92089164D02*
X135643172Y-92232021D01*
X135643172Y-92232021D02*
X135571744Y-92303450D01*
X135571744Y-92303450D02*
X135500315Y-92339164D01*
X135500315Y-92339164D02*
X135357458Y-92339164D01*
X135357458Y-92339164D02*
X135286030Y-92303450D01*
X135286030Y-92303450D02*
X135214601Y-92232021D01*
X135214601Y-92232021D02*
X135178887Y-92089164D01*
X135178887Y-92089164D02*
X135178887Y-91839164D01*
X135178887Y-91839164D02*
X135214601Y-91696307D01*
X135214601Y-91696307D02*
X135286030Y-91624878D01*
X135286030Y-91624878D02*
X135357458Y-91589164D01*
X136393172Y-92339164D02*
X135964601Y-92339164D01*
X136178886Y-92339164D02*
X136178886Y-91589164D01*
X136178886Y-91589164D02*
X136107458Y-91696307D01*
X136107458Y-91696307D02*
X136036029Y-91767735D01*
X136036029Y-91767735D02*
X135964601Y-91803450D01*
X137071744Y-91589164D02*
X136714601Y-91589164D01*
X136714601Y-91589164D02*
X136678887Y-91946307D01*
X136678887Y-91946307D02*
X136714601Y-91910592D01*
X136714601Y-91910592D02*
X136786030Y-91874878D01*
X136786030Y-91874878D02*
X136964601Y-91874878D01*
X136964601Y-91874878D02*
X137036030Y-91910592D01*
X137036030Y-91910592D02*
X137071744Y-91946307D01*
X137071744Y-91946307D02*
X137107458Y-92017735D01*
X137107458Y-92017735D02*
X137107458Y-92196307D01*
X137107458Y-92196307D02*
X137071744Y-92267735D01*
X137071744Y-92267735D02*
X137036030Y-92303450D01*
X137036030Y-92303450D02*
X136964601Y-92339164D01*
X136964601Y-92339164D02*
X136786030Y-92339164D01*
X136786030Y-92339164D02*
X136714601Y-92303450D01*
X136714601Y-92303450D02*
X136678887Y-92267735D01*
X117306255Y-94879164D02*
X117306255Y-94129164D01*
X117806255Y-94129164D02*
X117949112Y-94129164D01*
X117949112Y-94129164D02*
X118020541Y-94164878D01*
X118020541Y-94164878D02*
X118091969Y-94236307D01*
X118091969Y-94236307D02*
X118127684Y-94379164D01*
X118127684Y-94379164D02*
X118127684Y-94629164D01*
X118127684Y-94629164D02*
X118091969Y-94772021D01*
X118091969Y-94772021D02*
X118020541Y-94843450D01*
X118020541Y-94843450D02*
X117949112Y-94879164D01*
X117949112Y-94879164D02*
X117806255Y-94879164D01*
X117806255Y-94879164D02*
X117734827Y-94843450D01*
X117734827Y-94843450D02*
X117663398Y-94772021D01*
X117663398Y-94772021D02*
X117627684Y-94629164D01*
X117627684Y-94629164D02*
X117627684Y-94379164D01*
X117627684Y-94379164D02*
X117663398Y-94236307D01*
X117663398Y-94236307D02*
X117734827Y-94164878D01*
X117734827Y-94164878D02*
X117806255Y-94129164D01*
X118841969Y-94879164D02*
X118413398Y-94879164D01*
X118627683Y-94879164D02*
X118627683Y-94129164D01*
X118627683Y-94129164D02*
X118556255Y-94236307D01*
X118556255Y-94236307D02*
X118484826Y-94307735D01*
X118484826Y-94307735D02*
X118413398Y-94343450D01*
X119091969Y-94129164D02*
X119591969Y-94129164D01*
X119591969Y-94129164D02*
X119270541Y-94879164D01*
D10*
X125046143Y-80503609D02*
X125379476Y-80503609D01*
X125522333Y-81027419D02*
X125046143Y-81027419D01*
X125046143Y-81027419D02*
X125046143Y-80027419D01*
X125046143Y-80027419D02*
X125522333Y-80027419D01*
X125903286Y-80979800D02*
X126046143Y-81027419D01*
X126046143Y-81027419D02*
X126284238Y-81027419D01*
X126284238Y-81027419D02*
X126379476Y-80979800D01*
X126379476Y-80979800D02*
X126427095Y-80932180D01*
X126427095Y-80932180D02*
X126474714Y-80836942D01*
X126474714Y-80836942D02*
X126474714Y-80741704D01*
X126474714Y-80741704D02*
X126427095Y-80646466D01*
X126427095Y-80646466D02*
X126379476Y-80598847D01*
X126379476Y-80598847D02*
X126284238Y-80551228D01*
X126284238Y-80551228D02*
X126093762Y-80503609D01*
X126093762Y-80503609D02*
X125998524Y-80455990D01*
X125998524Y-80455990D02*
X125950905Y-80408371D01*
X125950905Y-80408371D02*
X125903286Y-80313133D01*
X125903286Y-80313133D02*
X125903286Y-80217895D01*
X125903286Y-80217895D02*
X125950905Y-80122657D01*
X125950905Y-80122657D02*
X125998524Y-80075038D01*
X125998524Y-80075038D02*
X126093762Y-80027419D01*
X126093762Y-80027419D02*
X126331857Y-80027419D01*
X126331857Y-80027419D02*
X126474714Y-80075038D01*
X126903286Y-81027419D02*
X126903286Y-80027419D01*
X126903286Y-80027419D02*
X127284238Y-80027419D01*
X127284238Y-80027419D02*
X127379476Y-80075038D01*
X127379476Y-80075038D02*
X127427095Y-80122657D01*
X127427095Y-80122657D02*
X127474714Y-80217895D01*
X127474714Y-80217895D02*
X127474714Y-80360752D01*
X127474714Y-80360752D02*
X127427095Y-80455990D01*
X127427095Y-80455990D02*
X127379476Y-80503609D01*
X127379476Y-80503609D02*
X127284238Y-80551228D01*
X127284238Y-80551228D02*
X126903286Y-80551228D01*
X127808048Y-80027419D02*
X128427095Y-80027419D01*
X128427095Y-80027419D02*
X128093762Y-80408371D01*
X128093762Y-80408371D02*
X128236619Y-80408371D01*
X128236619Y-80408371D02*
X128331857Y-80455990D01*
X128331857Y-80455990D02*
X128379476Y-80503609D01*
X128379476Y-80503609D02*
X128427095Y-80598847D01*
X128427095Y-80598847D02*
X128427095Y-80836942D01*
X128427095Y-80836942D02*
X128379476Y-80932180D01*
X128379476Y-80932180D02*
X128331857Y-80979800D01*
X128331857Y-80979800D02*
X128236619Y-81027419D01*
X128236619Y-81027419D02*
X127950905Y-81027419D01*
X127950905Y-81027419D02*
X127855667Y-80979800D01*
X127855667Y-80979800D02*
X127808048Y-80932180D01*
X128808048Y-80122657D02*
X128855667Y-80075038D01*
X128855667Y-80075038D02*
X128950905Y-80027419D01*
X128950905Y-80027419D02*
X129189000Y-80027419D01*
X129189000Y-80027419D02*
X129284238Y-80075038D01*
X129284238Y-80075038D02*
X129331857Y-80122657D01*
X129331857Y-80122657D02*
X129379476Y-80217895D01*
X129379476Y-80217895D02*
X129379476Y-80313133D01*
X129379476Y-80313133D02*
X129331857Y-80455990D01*
X129331857Y-80455990D02*
X128760429Y-81027419D01*
X128760429Y-81027419D02*
X129379476Y-81027419D01*
D11*
X117663398Y-107579164D02*
X117306255Y-107579164D01*
X117306255Y-107579164D02*
X117306255Y-106829164D01*
X117913398Y-107579164D02*
X117913398Y-106829164D01*
X118270541Y-107579164D02*
X118270541Y-106829164D01*
X118270541Y-106829164D02*
X118699112Y-107579164D01*
X118699112Y-107579164D02*
X118699112Y-106829164D01*
X119056255Y-107579164D02*
X119056255Y-106829164D01*
X119484826Y-107579164D02*
X119163398Y-107150592D01*
X119484826Y-106829164D02*
X119056255Y-107257735D01*
X117306255Y-87259164D02*
X117306255Y-86509164D01*
X117806255Y-86509164D02*
X117949112Y-86509164D01*
X117949112Y-86509164D02*
X118020541Y-86544878D01*
X118020541Y-86544878D02*
X118091969Y-86616307D01*
X118091969Y-86616307D02*
X118127684Y-86759164D01*
X118127684Y-86759164D02*
X118127684Y-87009164D01*
X118127684Y-87009164D02*
X118091969Y-87152021D01*
X118091969Y-87152021D02*
X118020541Y-87223450D01*
X118020541Y-87223450D02*
X117949112Y-87259164D01*
X117949112Y-87259164D02*
X117806255Y-87259164D01*
X117806255Y-87259164D02*
X117734827Y-87223450D01*
X117734827Y-87223450D02*
X117663398Y-87152021D01*
X117663398Y-87152021D02*
X117627684Y-87009164D01*
X117627684Y-87009164D02*
X117627684Y-86759164D01*
X117627684Y-86759164D02*
X117663398Y-86616307D01*
X117663398Y-86616307D02*
X117734827Y-86544878D01*
X117734827Y-86544878D02*
X117806255Y-86509164D01*
X118377683Y-86509164D02*
X118841969Y-86509164D01*
X118841969Y-86509164D02*
X118591969Y-86794878D01*
X118591969Y-86794878D02*
X118699112Y-86794878D01*
X118699112Y-86794878D02*
X118770541Y-86830592D01*
X118770541Y-86830592D02*
X118806255Y-86866307D01*
X118806255Y-86866307D02*
X118841969Y-86937735D01*
X118841969Y-86937735D02*
X118841969Y-87116307D01*
X118841969Y-87116307D02*
X118806255Y-87187735D01*
X118806255Y-87187735D02*
X118770541Y-87223450D01*
X118770541Y-87223450D02*
X118699112Y-87259164D01*
X118699112Y-87259164D02*
X118484826Y-87259164D01*
X118484826Y-87259164D02*
X118413398Y-87223450D01*
X118413398Y-87223450D02*
X118377683Y-87187735D01*
X119127684Y-86580592D02*
X119163398Y-86544878D01*
X119163398Y-86544878D02*
X119234827Y-86509164D01*
X119234827Y-86509164D02*
X119413398Y-86509164D01*
X119413398Y-86509164D02*
X119484827Y-86544878D01*
X119484827Y-86544878D02*
X119520541Y-86580592D01*
X119520541Y-86580592D02*
X119556255Y-86652021D01*
X119556255Y-86652021D02*
X119556255Y-86723450D01*
X119556255Y-86723450D02*
X119520541Y-86830592D01*
X119520541Y-86830592D02*
X119091969Y-87259164D01*
X119091969Y-87259164D02*
X119556255Y-87259164D01*
X117699112Y-78924878D02*
X117627684Y-78889164D01*
X117627684Y-78889164D02*
X117520541Y-78889164D01*
X117520541Y-78889164D02*
X117413398Y-78924878D01*
X117413398Y-78924878D02*
X117341969Y-78996307D01*
X117341969Y-78996307D02*
X117306255Y-79067735D01*
X117306255Y-79067735D02*
X117270541Y-79210592D01*
X117270541Y-79210592D02*
X117270541Y-79317735D01*
X117270541Y-79317735D02*
X117306255Y-79460592D01*
X117306255Y-79460592D02*
X117341969Y-79532021D01*
X117341969Y-79532021D02*
X117413398Y-79603450D01*
X117413398Y-79603450D02*
X117520541Y-79639164D01*
X117520541Y-79639164D02*
X117591969Y-79639164D01*
X117591969Y-79639164D02*
X117699112Y-79603450D01*
X117699112Y-79603450D02*
X117734826Y-79567735D01*
X117734826Y-79567735D02*
X117734826Y-79317735D01*
X117734826Y-79317735D02*
X117591969Y-79317735D01*
X118056255Y-79639164D02*
X118056255Y-78889164D01*
X118056255Y-78889164D02*
X118484826Y-79639164D01*
X118484826Y-79639164D02*
X118484826Y-78889164D01*
X118841969Y-79639164D02*
X118841969Y-78889164D01*
X118841969Y-78889164D02*
X119020540Y-78889164D01*
X119020540Y-78889164D02*
X119127683Y-78924878D01*
X119127683Y-78924878D02*
X119199112Y-78996307D01*
X119199112Y-78996307D02*
X119234826Y-79067735D01*
X119234826Y-79067735D02*
X119270540Y-79210592D01*
X119270540Y-79210592D02*
X119270540Y-79317735D01*
X119270540Y-79317735D02*
X119234826Y-79460592D01*
X119234826Y-79460592D02*
X119199112Y-79532021D01*
X119199112Y-79532021D02*
X119127683Y-79603450D01*
X119127683Y-79603450D02*
X119020540Y-79639164D01*
X119020540Y-79639164D02*
X118841969Y-79639164D01*
X135571744Y-105039164D02*
X135571744Y-104289164D01*
X136071744Y-104289164D02*
X136214601Y-104289164D01*
X136214601Y-104289164D02*
X136286030Y-104324878D01*
X136286030Y-104324878D02*
X136357458Y-104396307D01*
X136357458Y-104396307D02*
X136393173Y-104539164D01*
X136393173Y-104539164D02*
X136393173Y-104789164D01*
X136393173Y-104789164D02*
X136357458Y-104932021D01*
X136357458Y-104932021D02*
X136286030Y-105003450D01*
X136286030Y-105003450D02*
X136214601Y-105039164D01*
X136214601Y-105039164D02*
X136071744Y-105039164D01*
X136071744Y-105039164D02*
X136000316Y-105003450D01*
X136000316Y-105003450D02*
X135928887Y-104932021D01*
X135928887Y-104932021D02*
X135893173Y-104789164D01*
X135893173Y-104789164D02*
X135893173Y-104539164D01*
X135893173Y-104539164D02*
X135928887Y-104396307D01*
X135928887Y-104396307D02*
X136000316Y-104324878D01*
X136000316Y-104324878D02*
X136071744Y-104289164D01*
X136678887Y-104360592D02*
X136714601Y-104324878D01*
X136714601Y-104324878D02*
X136786030Y-104289164D01*
X136786030Y-104289164D02*
X136964601Y-104289164D01*
X136964601Y-104289164D02*
X137036030Y-104324878D01*
X137036030Y-104324878D02*
X137071744Y-104360592D01*
X137071744Y-104360592D02*
X137107458Y-104432021D01*
X137107458Y-104432021D02*
X137107458Y-104503450D01*
X137107458Y-104503450D02*
X137071744Y-104610592D01*
X137071744Y-104610592D02*
X136643172Y-105039164D01*
X136643172Y-105039164D02*
X137107458Y-105039164D01*
X117306255Y-89799164D02*
X117306255Y-89049164D01*
X117806255Y-89049164D02*
X117949112Y-89049164D01*
X117949112Y-89049164D02*
X118020541Y-89084878D01*
X118020541Y-89084878D02*
X118091969Y-89156307D01*
X118091969Y-89156307D02*
X118127684Y-89299164D01*
X118127684Y-89299164D02*
X118127684Y-89549164D01*
X118127684Y-89549164D02*
X118091969Y-89692021D01*
X118091969Y-89692021D02*
X118020541Y-89763450D01*
X118020541Y-89763450D02*
X117949112Y-89799164D01*
X117949112Y-89799164D02*
X117806255Y-89799164D01*
X117806255Y-89799164D02*
X117734827Y-89763450D01*
X117734827Y-89763450D02*
X117663398Y-89692021D01*
X117663398Y-89692021D02*
X117627684Y-89549164D01*
X117627684Y-89549164D02*
X117627684Y-89299164D01*
X117627684Y-89299164D02*
X117663398Y-89156307D01*
X117663398Y-89156307D02*
X117734827Y-89084878D01*
X117734827Y-89084878D02*
X117806255Y-89049164D01*
X118377683Y-89049164D02*
X118841969Y-89049164D01*
X118841969Y-89049164D02*
X118591969Y-89334878D01*
X118591969Y-89334878D02*
X118699112Y-89334878D01*
X118699112Y-89334878D02*
X118770541Y-89370592D01*
X118770541Y-89370592D02*
X118806255Y-89406307D01*
X118806255Y-89406307D02*
X118841969Y-89477735D01*
X118841969Y-89477735D02*
X118841969Y-89656307D01*
X118841969Y-89656307D02*
X118806255Y-89727735D01*
X118806255Y-89727735D02*
X118770541Y-89763450D01*
X118770541Y-89763450D02*
X118699112Y-89799164D01*
X118699112Y-89799164D02*
X118484826Y-89799164D01*
X118484826Y-89799164D02*
X118413398Y-89763450D01*
X118413398Y-89763450D02*
X118377683Y-89727735D01*
X119091969Y-89049164D02*
X119556255Y-89049164D01*
X119556255Y-89049164D02*
X119306255Y-89334878D01*
X119306255Y-89334878D02*
X119413398Y-89334878D01*
X119413398Y-89334878D02*
X119484827Y-89370592D01*
X119484827Y-89370592D02*
X119520541Y-89406307D01*
X119520541Y-89406307D02*
X119556255Y-89477735D01*
X119556255Y-89477735D02*
X119556255Y-89656307D01*
X119556255Y-89656307D02*
X119520541Y-89727735D01*
X119520541Y-89727735D02*
X119484827Y-89763450D01*
X119484827Y-89763450D02*
X119413398Y-89799164D01*
X119413398Y-89799164D02*
X119199112Y-89799164D01*
X119199112Y-89799164D02*
X119127684Y-89763450D01*
X119127684Y-89763450D02*
X119091969Y-89727735D01*
X117663398Y-104289164D02*
X117306255Y-104289164D01*
X117306255Y-104289164D02*
X117270541Y-104646307D01*
X117270541Y-104646307D02*
X117306255Y-104610592D01*
X117306255Y-104610592D02*
X117377684Y-104574878D01*
X117377684Y-104574878D02*
X117556255Y-104574878D01*
X117556255Y-104574878D02*
X117627684Y-104610592D01*
X117627684Y-104610592D02*
X117663398Y-104646307D01*
X117663398Y-104646307D02*
X117699112Y-104717735D01*
X117699112Y-104717735D02*
X117699112Y-104896307D01*
X117699112Y-104896307D02*
X117663398Y-104967735D01*
X117663398Y-104967735D02*
X117627684Y-105003450D01*
X117627684Y-105003450D02*
X117556255Y-105039164D01*
X117556255Y-105039164D02*
X117377684Y-105039164D01*
X117377684Y-105039164D02*
X117306255Y-105003450D01*
X117306255Y-105003450D02*
X117270541Y-104967735D01*
X117913398Y-104289164D02*
X118163398Y-105039164D01*
X118163398Y-105039164D02*
X118413398Y-104289164D01*
X135571744Y-102499164D02*
X135571744Y-101749164D01*
X136071744Y-101749164D02*
X136214601Y-101749164D01*
X136214601Y-101749164D02*
X136286030Y-101784878D01*
X136286030Y-101784878D02*
X136357458Y-101856307D01*
X136357458Y-101856307D02*
X136393173Y-101999164D01*
X136393173Y-101999164D02*
X136393173Y-102249164D01*
X136393173Y-102249164D02*
X136357458Y-102392021D01*
X136357458Y-102392021D02*
X136286030Y-102463450D01*
X136286030Y-102463450D02*
X136214601Y-102499164D01*
X136214601Y-102499164D02*
X136071744Y-102499164D01*
X136071744Y-102499164D02*
X136000316Y-102463450D01*
X136000316Y-102463450D02*
X135928887Y-102392021D01*
X135928887Y-102392021D02*
X135893173Y-102249164D01*
X135893173Y-102249164D02*
X135893173Y-101999164D01*
X135893173Y-101999164D02*
X135928887Y-101856307D01*
X135928887Y-101856307D02*
X136000316Y-101784878D01*
X136000316Y-101784878D02*
X136071744Y-101749164D01*
X137036030Y-101999164D02*
X137036030Y-102499164D01*
X136857458Y-101713450D02*
X136678887Y-102249164D01*
X136678887Y-102249164D02*
X137143172Y-102249164D01*
X117699112Y-101784878D02*
X117627684Y-101749164D01*
X117627684Y-101749164D02*
X117520541Y-101749164D01*
X117520541Y-101749164D02*
X117413398Y-101784878D01*
X117413398Y-101784878D02*
X117341969Y-101856307D01*
X117341969Y-101856307D02*
X117306255Y-101927735D01*
X117306255Y-101927735D02*
X117270541Y-102070592D01*
X117270541Y-102070592D02*
X117270541Y-102177735D01*
X117270541Y-102177735D02*
X117306255Y-102320592D01*
X117306255Y-102320592D02*
X117341969Y-102392021D01*
X117341969Y-102392021D02*
X117413398Y-102463450D01*
X117413398Y-102463450D02*
X117520541Y-102499164D01*
X117520541Y-102499164D02*
X117591969Y-102499164D01*
X117591969Y-102499164D02*
X117699112Y-102463450D01*
X117699112Y-102463450D02*
X117734826Y-102427735D01*
X117734826Y-102427735D02*
X117734826Y-102177735D01*
X117734826Y-102177735D02*
X117591969Y-102177735D01*
X118056255Y-102499164D02*
X118056255Y-101749164D01*
X118056255Y-101749164D02*
X118484826Y-102499164D01*
X118484826Y-102499164D02*
X118484826Y-101749164D01*
X118841969Y-102499164D02*
X118841969Y-101749164D01*
X118841969Y-101749164D02*
X119020540Y-101749164D01*
X119020540Y-101749164D02*
X119127683Y-101784878D01*
X119127683Y-101784878D02*
X119199112Y-101856307D01*
X119199112Y-101856307D02*
X119234826Y-101927735D01*
X119234826Y-101927735D02*
X119270540Y-102070592D01*
X119270540Y-102070592D02*
X119270540Y-102177735D01*
X119270540Y-102177735D02*
X119234826Y-102320592D01*
X119234826Y-102320592D02*
X119199112Y-102392021D01*
X119199112Y-102392021D02*
X119127683Y-102463450D01*
X119127683Y-102463450D02*
X119020540Y-102499164D01*
X119020540Y-102499164D02*
X118841969Y-102499164D01*
X117699112Y-96704878D02*
X117627684Y-96669164D01*
X117627684Y-96669164D02*
X117520541Y-96669164D01*
X117520541Y-96669164D02*
X117413398Y-96704878D01*
X117413398Y-96704878D02*
X117341969Y-96776307D01*
X117341969Y-96776307D02*
X117306255Y-96847735D01*
X117306255Y-96847735D02*
X117270541Y-96990592D01*
X117270541Y-96990592D02*
X117270541Y-97097735D01*
X117270541Y-97097735D02*
X117306255Y-97240592D01*
X117306255Y-97240592D02*
X117341969Y-97312021D01*
X117341969Y-97312021D02*
X117413398Y-97383450D01*
X117413398Y-97383450D02*
X117520541Y-97419164D01*
X117520541Y-97419164D02*
X117591969Y-97419164D01*
X117591969Y-97419164D02*
X117699112Y-97383450D01*
X117699112Y-97383450D02*
X117734826Y-97347735D01*
X117734826Y-97347735D02*
X117734826Y-97097735D01*
X117734826Y-97097735D02*
X117591969Y-97097735D01*
X118056255Y-97419164D02*
X118056255Y-96669164D01*
X118056255Y-96669164D02*
X118484826Y-97419164D01*
X118484826Y-97419164D02*
X118484826Y-96669164D01*
X118841969Y-97419164D02*
X118841969Y-96669164D01*
X118841969Y-96669164D02*
X119020540Y-96669164D01*
X119020540Y-96669164D02*
X119127683Y-96704878D01*
X119127683Y-96704878D02*
X119199112Y-96776307D01*
X119199112Y-96776307D02*
X119234826Y-96847735D01*
X119234826Y-96847735D02*
X119270540Y-96990592D01*
X119270540Y-96990592D02*
X119270540Y-97097735D01*
X119270540Y-97097735D02*
X119234826Y-97240592D01*
X119234826Y-97240592D02*
X119199112Y-97312021D01*
X119199112Y-97312021D02*
X119127683Y-97383450D01*
X119127683Y-97383450D02*
X119020540Y-97419164D01*
X119020540Y-97419164D02*
X118841969Y-97419164D01*
X101904761Y-96550057D02*
X101809523Y-96502438D01*
X101809523Y-96502438D02*
X101714285Y-96407200D01*
X101714285Y-96407200D02*
X101571428Y-96264342D01*
X101571428Y-96264342D02*
X101476190Y-96216723D01*
X101476190Y-96216723D02*
X101380952Y-96216723D01*
X101428571Y-96454819D02*
X101333333Y-96407200D01*
X101333333Y-96407200D02*
X101238095Y-96311961D01*
X101238095Y-96311961D02*
X101190476Y-96121485D01*
X101190476Y-96121485D02*
X101190476Y-95788152D01*
X101190476Y-95788152D02*
X101238095Y-95597676D01*
X101238095Y-95597676D02*
X101333333Y-95502438D01*
X101333333Y-95502438D02*
X101428571Y-95454819D01*
X101428571Y-95454819D02*
X101619047Y-95454819D01*
X101619047Y-95454819D02*
X101714285Y-95502438D01*
X101714285Y-95502438D02*
X101809523Y-95597676D01*
X101809523Y-95597676D02*
X101857142Y-95788152D01*
X101857142Y-95788152D02*
X101857142Y-96121485D01*
X101857142Y-96121485D02*
X101809523Y-96311961D01*
X101809523Y-96311961D02*
X101714285Y-96407200D01*
X101714285Y-96407200D02*
X101619047Y-96454819D01*
X101619047Y-96454819D02*
X101428571Y-96454819D01*
X102238095Y-95550057D02*
X102285714Y-95502438D01*
X102285714Y-95502438D02*
X102380952Y-95454819D01*
X102380952Y-95454819D02*
X102619047Y-95454819D01*
X102619047Y-95454819D02*
X102714285Y-95502438D01*
X102714285Y-95502438D02*
X102761904Y-95550057D01*
X102761904Y-95550057D02*
X102809523Y-95645295D01*
X102809523Y-95645295D02*
X102809523Y-95740533D01*
X102809523Y-95740533D02*
X102761904Y-95883390D01*
X102761904Y-95883390D02*
X102190476Y-96454819D01*
X102190476Y-96454819D02*
X102809523Y-96454819D01*
X161258819Y-92241666D02*
X160782628Y-92574999D01*
X161258819Y-92813094D02*
X160258819Y-92813094D01*
X160258819Y-92813094D02*
X160258819Y-92432142D01*
X160258819Y-92432142D02*
X160306438Y-92336904D01*
X160306438Y-92336904D02*
X160354057Y-92289285D01*
X160354057Y-92289285D02*
X160449295Y-92241666D01*
X160449295Y-92241666D02*
X160592152Y-92241666D01*
X160592152Y-92241666D02*
X160687390Y-92289285D01*
X160687390Y-92289285D02*
X160735009Y-92336904D01*
X160735009Y-92336904D02*
X160782628Y-92432142D01*
X160782628Y-92432142D02*
X160782628Y-92813094D01*
X160258819Y-91336904D02*
X160258819Y-91813094D01*
X160258819Y-91813094D02*
X160735009Y-91860713D01*
X160735009Y-91860713D02*
X160687390Y-91813094D01*
X160687390Y-91813094D02*
X160639771Y-91717856D01*
X160639771Y-91717856D02*
X160639771Y-91479761D01*
X160639771Y-91479761D02*
X160687390Y-91384523D01*
X160687390Y-91384523D02*
X160735009Y-91336904D01*
X160735009Y-91336904D02*
X160830247Y-91289285D01*
X160830247Y-91289285D02*
X161068342Y-91289285D01*
X161068342Y-91289285D02*
X161163580Y-91336904D01*
X161163580Y-91336904D02*
X161211200Y-91384523D01*
X161211200Y-91384523D02*
X161258819Y-91479761D01*
X161258819Y-91479761D02*
X161258819Y-91717856D01*
X161258819Y-91717856D02*
X161211200Y-91813094D01*
X161211200Y-91813094D02*
X161163580Y-91860713D01*
X107525666Y-112694819D02*
X107525666Y-113409104D01*
X107525666Y-113409104D02*
X107478047Y-113551961D01*
X107478047Y-113551961D02*
X107382809Y-113647200D01*
X107382809Y-113647200D02*
X107239952Y-113694819D01*
X107239952Y-113694819D02*
X107144714Y-113694819D01*
X108525666Y-113694819D02*
X107954238Y-113694819D01*
X108239952Y-113694819D02*
X108239952Y-112694819D01*
X108239952Y-112694819D02*
X108144714Y-112837676D01*
X108144714Y-112837676D02*
X108049476Y-112932914D01*
X108049476Y-112932914D02*
X107954238Y-112980533D01*
X161566666Y-64154819D02*
X161566666Y-64869104D01*
X161566666Y-64869104D02*
X161519047Y-65011961D01*
X161519047Y-65011961D02*
X161423809Y-65107200D01*
X161423809Y-65107200D02*
X161280952Y-65154819D01*
X161280952Y-65154819D02*
X161185714Y-65154819D01*
X161947619Y-64154819D02*
X162566666Y-64154819D01*
X162566666Y-64154819D02*
X162233333Y-64535771D01*
X162233333Y-64535771D02*
X162376190Y-64535771D01*
X162376190Y-64535771D02*
X162471428Y-64583390D01*
X162471428Y-64583390D02*
X162519047Y-64631009D01*
X162519047Y-64631009D02*
X162566666Y-64726247D01*
X162566666Y-64726247D02*
X162566666Y-64964342D01*
X162566666Y-64964342D02*
X162519047Y-65059580D01*
X162519047Y-65059580D02*
X162471428Y-65107200D01*
X162471428Y-65107200D02*
X162376190Y-65154819D01*
X162376190Y-65154819D02*
X162090476Y-65154819D01*
X162090476Y-65154819D02*
X161995238Y-65107200D01*
X161995238Y-65107200D02*
X161947619Y-65059580D01*
X161066666Y-122254819D02*
X161066666Y-122969104D01*
X161066666Y-122969104D02*
X161019047Y-123111961D01*
X161019047Y-123111961D02*
X160923809Y-123207200D01*
X160923809Y-123207200D02*
X160780952Y-123254819D01*
X160780952Y-123254819D02*
X160685714Y-123254819D01*
X161971428Y-122588152D02*
X161971428Y-123254819D01*
X161733333Y-122207200D02*
X161495238Y-122921485D01*
X161495238Y-122921485D02*
X162114285Y-122921485D01*
X110833333Y-89999580D02*
X110785714Y-90047200D01*
X110785714Y-90047200D02*
X110642857Y-90094819D01*
X110642857Y-90094819D02*
X110547619Y-90094819D01*
X110547619Y-90094819D02*
X110404762Y-90047200D01*
X110404762Y-90047200D02*
X110309524Y-89951961D01*
X110309524Y-89951961D02*
X110261905Y-89856723D01*
X110261905Y-89856723D02*
X110214286Y-89666247D01*
X110214286Y-89666247D02*
X110214286Y-89523390D01*
X110214286Y-89523390D02*
X110261905Y-89332914D01*
X110261905Y-89332914D02*
X110309524Y-89237676D01*
X110309524Y-89237676D02*
X110404762Y-89142438D01*
X110404762Y-89142438D02*
X110547619Y-89094819D01*
X110547619Y-89094819D02*
X110642857Y-89094819D01*
X110642857Y-89094819D02*
X110785714Y-89142438D01*
X110785714Y-89142438D02*
X110833333Y-89190057D01*
X111785714Y-90094819D02*
X111214286Y-90094819D01*
X111500000Y-90094819D02*
X111500000Y-89094819D01*
X111500000Y-89094819D02*
X111404762Y-89237676D01*
X111404762Y-89237676D02*
X111309524Y-89332914D01*
X111309524Y-89332914D02*
X111214286Y-89380533D01*
X90925666Y-114771009D02*
X90592333Y-114771009D01*
X90592333Y-115294819D02*
X90592333Y-114294819D01*
X90592333Y-114294819D02*
X91068523Y-114294819D01*
X91973285Y-115294819D02*
X91401857Y-115294819D01*
X91687571Y-115294819D02*
X91687571Y-114294819D01*
X91687571Y-114294819D02*
X91592333Y-114437676D01*
X91592333Y-114437676D02*
X91497095Y-114532914D01*
X91497095Y-114532914D02*
X91401857Y-114580533D01*
X89876142Y-91494819D02*
X89542809Y-91018628D01*
X89304714Y-91494819D02*
X89304714Y-90494819D01*
X89304714Y-90494819D02*
X89685666Y-90494819D01*
X89685666Y-90494819D02*
X89780904Y-90542438D01*
X89780904Y-90542438D02*
X89828523Y-90590057D01*
X89828523Y-90590057D02*
X89876142Y-90685295D01*
X89876142Y-90685295D02*
X89876142Y-90828152D01*
X89876142Y-90828152D02*
X89828523Y-90923390D01*
X89828523Y-90923390D02*
X89780904Y-90971009D01*
X89780904Y-90971009D02*
X89685666Y-91018628D01*
X89685666Y-91018628D02*
X89304714Y-91018628D01*
X90828523Y-91494819D02*
X90257095Y-91494819D01*
X90542809Y-91494819D02*
X90542809Y-90494819D01*
X90542809Y-90494819D02*
X90447571Y-90637676D01*
X90447571Y-90637676D02*
X90352333Y-90732914D01*
X90352333Y-90732914D02*
X90257095Y-90780533D01*
X91780904Y-91494819D02*
X91209476Y-91494819D01*
X91495190Y-91494819D02*
X91495190Y-90494819D01*
X91495190Y-90494819D02*
X91399952Y-90637676D01*
X91399952Y-90637676D02*
X91304714Y-90732914D01*
X91304714Y-90732914D02*
X91209476Y-90780533D01*
X110492333Y-121954692D02*
X110444714Y-122002312D01*
X110444714Y-122002312D02*
X110301857Y-122049931D01*
X110301857Y-122049931D02*
X110206619Y-122049931D01*
X110206619Y-122049931D02*
X110063762Y-122002312D01*
X110063762Y-122002312D02*
X109968524Y-121907073D01*
X109968524Y-121907073D02*
X109920905Y-121811835D01*
X109920905Y-121811835D02*
X109873286Y-121621359D01*
X109873286Y-121621359D02*
X109873286Y-121478502D01*
X109873286Y-121478502D02*
X109920905Y-121288026D01*
X109920905Y-121288026D02*
X109968524Y-121192788D01*
X109968524Y-121192788D02*
X110063762Y-121097550D01*
X110063762Y-121097550D02*
X110206619Y-121049931D01*
X110206619Y-121049931D02*
X110301857Y-121049931D01*
X110301857Y-121049931D02*
X110444714Y-121097550D01*
X110444714Y-121097550D02*
X110492333Y-121145169D01*
X110873286Y-121145169D02*
X110920905Y-121097550D01*
X110920905Y-121097550D02*
X111016143Y-121049931D01*
X111016143Y-121049931D02*
X111254238Y-121049931D01*
X111254238Y-121049931D02*
X111349476Y-121097550D01*
X111349476Y-121097550D02*
X111397095Y-121145169D01*
X111397095Y-121145169D02*
X111444714Y-121240407D01*
X111444714Y-121240407D02*
X111444714Y-121335645D01*
X111444714Y-121335645D02*
X111397095Y-121478502D01*
X111397095Y-121478502D02*
X110825667Y-122049931D01*
X110825667Y-122049931D02*
X111444714Y-122049931D01*
X170498819Y-92341666D02*
X170022628Y-92674999D01*
X170498819Y-92913094D02*
X169498819Y-92913094D01*
X169498819Y-92913094D02*
X169498819Y-92532142D01*
X169498819Y-92532142D02*
X169546438Y-92436904D01*
X169546438Y-92436904D02*
X169594057Y-92389285D01*
X169594057Y-92389285D02*
X169689295Y-92341666D01*
X169689295Y-92341666D02*
X169832152Y-92341666D01*
X169832152Y-92341666D02*
X169927390Y-92389285D01*
X169927390Y-92389285D02*
X169975009Y-92436904D01*
X169975009Y-92436904D02*
X170022628Y-92532142D01*
X170022628Y-92532142D02*
X170022628Y-92913094D01*
X169927390Y-91770237D02*
X169879771Y-91865475D01*
X169879771Y-91865475D02*
X169832152Y-91913094D01*
X169832152Y-91913094D02*
X169736914Y-91960713D01*
X169736914Y-91960713D02*
X169689295Y-91960713D01*
X169689295Y-91960713D02*
X169594057Y-91913094D01*
X169594057Y-91913094D02*
X169546438Y-91865475D01*
X169546438Y-91865475D02*
X169498819Y-91770237D01*
X169498819Y-91770237D02*
X169498819Y-91579761D01*
X169498819Y-91579761D02*
X169546438Y-91484523D01*
X169546438Y-91484523D02*
X169594057Y-91436904D01*
X169594057Y-91436904D02*
X169689295Y-91389285D01*
X169689295Y-91389285D02*
X169736914Y-91389285D01*
X169736914Y-91389285D02*
X169832152Y-91436904D01*
X169832152Y-91436904D02*
X169879771Y-91484523D01*
X169879771Y-91484523D02*
X169927390Y-91579761D01*
X169927390Y-91579761D02*
X169927390Y-91770237D01*
X169927390Y-91770237D02*
X169975009Y-91865475D01*
X169975009Y-91865475D02*
X170022628Y-91913094D01*
X170022628Y-91913094D02*
X170117866Y-91960713D01*
X170117866Y-91960713D02*
X170308342Y-91960713D01*
X170308342Y-91960713D02*
X170403580Y-91913094D01*
X170403580Y-91913094D02*
X170451200Y-91865475D01*
X170451200Y-91865475D02*
X170498819Y-91770237D01*
X170498819Y-91770237D02*
X170498819Y-91579761D01*
X170498819Y-91579761D02*
X170451200Y-91484523D01*
X170451200Y-91484523D02*
X170403580Y-91436904D01*
X170403580Y-91436904D02*
X170308342Y-91389285D01*
X170308342Y-91389285D02*
X170117866Y-91389285D01*
X170117866Y-91389285D02*
X170022628Y-91436904D01*
X170022628Y-91436904D02*
X169975009Y-91484523D01*
X169975009Y-91484523D02*
X169927390Y-91579761D01*
X89916142Y-94294819D02*
X89582809Y-93818628D01*
X89344714Y-94294819D02*
X89344714Y-93294819D01*
X89344714Y-93294819D02*
X89725666Y-93294819D01*
X89725666Y-93294819D02*
X89820904Y-93342438D01*
X89820904Y-93342438D02*
X89868523Y-93390057D01*
X89868523Y-93390057D02*
X89916142Y-93485295D01*
X89916142Y-93485295D02*
X89916142Y-93628152D01*
X89916142Y-93628152D02*
X89868523Y-93723390D01*
X89868523Y-93723390D02*
X89820904Y-93771009D01*
X89820904Y-93771009D02*
X89725666Y-93818628D01*
X89725666Y-93818628D02*
X89344714Y-93818628D01*
X90868523Y-94294819D02*
X90297095Y-94294819D01*
X90582809Y-94294819D02*
X90582809Y-93294819D01*
X90582809Y-93294819D02*
X90487571Y-93437676D01*
X90487571Y-93437676D02*
X90392333Y-93532914D01*
X90392333Y-93532914D02*
X90297095Y-93580533D01*
X91249476Y-93390057D02*
X91297095Y-93342438D01*
X91297095Y-93342438D02*
X91392333Y-93294819D01*
X91392333Y-93294819D02*
X91630428Y-93294819D01*
X91630428Y-93294819D02*
X91725666Y-93342438D01*
X91725666Y-93342438D02*
X91773285Y-93390057D01*
X91773285Y-93390057D02*
X91820904Y-93485295D01*
X91820904Y-93485295D02*
X91820904Y-93580533D01*
X91820904Y-93580533D02*
X91773285Y-93723390D01*
X91773285Y-93723390D02*
X91201857Y-94294819D01*
X91201857Y-94294819D02*
X91820904Y-94294819D01*
X177358819Y-92882857D02*
X176882628Y-93216190D01*
X177358819Y-93454285D02*
X176358819Y-93454285D01*
X176358819Y-93454285D02*
X176358819Y-93073333D01*
X176358819Y-93073333D02*
X176406438Y-92978095D01*
X176406438Y-92978095D02*
X176454057Y-92930476D01*
X176454057Y-92930476D02*
X176549295Y-92882857D01*
X176549295Y-92882857D02*
X176692152Y-92882857D01*
X176692152Y-92882857D02*
X176787390Y-92930476D01*
X176787390Y-92930476D02*
X176835009Y-92978095D01*
X176835009Y-92978095D02*
X176882628Y-93073333D01*
X176882628Y-93073333D02*
X176882628Y-93454285D01*
X177358819Y-91930476D02*
X177358819Y-92501904D01*
X177358819Y-92216190D02*
X176358819Y-92216190D01*
X176358819Y-92216190D02*
X176501676Y-92311428D01*
X176501676Y-92311428D02*
X176596914Y-92406666D01*
X176596914Y-92406666D02*
X176644533Y-92501904D01*
X176358819Y-91311428D02*
X176358819Y-91216190D01*
X176358819Y-91216190D02*
X176406438Y-91120952D01*
X176406438Y-91120952D02*
X176454057Y-91073333D01*
X176454057Y-91073333D02*
X176549295Y-91025714D01*
X176549295Y-91025714D02*
X176739771Y-90978095D01*
X176739771Y-90978095D02*
X176977866Y-90978095D01*
X176977866Y-90978095D02*
X177168342Y-91025714D01*
X177168342Y-91025714D02*
X177263580Y-91073333D01*
X177263580Y-91073333D02*
X177311200Y-91120952D01*
X177311200Y-91120952D02*
X177358819Y-91216190D01*
X177358819Y-91216190D02*
X177358819Y-91311428D01*
X177358819Y-91311428D02*
X177311200Y-91406666D01*
X177311200Y-91406666D02*
X177263580Y-91454285D01*
X177263580Y-91454285D02*
X177168342Y-91501904D01*
X177168342Y-91501904D02*
X176977866Y-91549523D01*
X176977866Y-91549523D02*
X176739771Y-91549523D01*
X176739771Y-91549523D02*
X176549295Y-91501904D01*
X176549295Y-91501904D02*
X176454057Y-91454285D01*
X176454057Y-91454285D02*
X176406438Y-91406666D01*
X176406438Y-91406666D02*
X176358819Y-91311428D01*
X90566667Y-84007200D02*
X90709524Y-84054819D01*
X90709524Y-84054819D02*
X90947619Y-84054819D01*
X90947619Y-84054819D02*
X91042857Y-84007200D01*
X91042857Y-84007200D02*
X91090476Y-83959580D01*
X91090476Y-83959580D02*
X91138095Y-83864342D01*
X91138095Y-83864342D02*
X91138095Y-83769104D01*
X91138095Y-83769104D02*
X91090476Y-83673866D01*
X91090476Y-83673866D02*
X91042857Y-83626247D01*
X91042857Y-83626247D02*
X90947619Y-83578628D01*
X90947619Y-83578628D02*
X90757143Y-83531009D01*
X90757143Y-83531009D02*
X90661905Y-83483390D01*
X90661905Y-83483390D02*
X90614286Y-83435771D01*
X90614286Y-83435771D02*
X90566667Y-83340533D01*
X90566667Y-83340533D02*
X90566667Y-83245295D01*
X90566667Y-83245295D02*
X90614286Y-83150057D01*
X90614286Y-83150057D02*
X90661905Y-83102438D01*
X90661905Y-83102438D02*
X90757143Y-83054819D01*
X90757143Y-83054819D02*
X90995238Y-83054819D01*
X90995238Y-83054819D02*
X91138095Y-83102438D01*
X91471429Y-83054819D02*
X91709524Y-84054819D01*
X91709524Y-84054819D02*
X91900000Y-83340533D01*
X91900000Y-83340533D02*
X92090476Y-84054819D01*
X92090476Y-84054819D02*
X92328572Y-83054819D01*
X93233333Y-84054819D02*
X92661905Y-84054819D01*
X92947619Y-84054819D02*
X92947619Y-83054819D01*
X92947619Y-83054819D02*
X92852381Y-83197676D01*
X92852381Y-83197676D02*
X92757143Y-83292914D01*
X92757143Y-83292914D02*
X92661905Y-83340533D01*
X157858819Y-92241666D02*
X157382628Y-92574999D01*
X157858819Y-92813094D02*
X156858819Y-92813094D01*
X156858819Y-92813094D02*
X156858819Y-92432142D01*
X156858819Y-92432142D02*
X156906438Y-92336904D01*
X156906438Y-92336904D02*
X156954057Y-92289285D01*
X156954057Y-92289285D02*
X157049295Y-92241666D01*
X157049295Y-92241666D02*
X157192152Y-92241666D01*
X157192152Y-92241666D02*
X157287390Y-92289285D01*
X157287390Y-92289285D02*
X157335009Y-92336904D01*
X157335009Y-92336904D02*
X157382628Y-92432142D01*
X157382628Y-92432142D02*
X157382628Y-92813094D01*
X157192152Y-91384523D02*
X157858819Y-91384523D01*
X156811200Y-91622618D02*
X157525485Y-91860713D01*
X157525485Y-91860713D02*
X157525485Y-91241666D01*
X174058819Y-92341666D02*
X173582628Y-92674999D01*
X174058819Y-92913094D02*
X173058819Y-92913094D01*
X173058819Y-92913094D02*
X173058819Y-92532142D01*
X173058819Y-92532142D02*
X173106438Y-92436904D01*
X173106438Y-92436904D02*
X173154057Y-92389285D01*
X173154057Y-92389285D02*
X173249295Y-92341666D01*
X173249295Y-92341666D02*
X173392152Y-92341666D01*
X173392152Y-92341666D02*
X173487390Y-92389285D01*
X173487390Y-92389285D02*
X173535009Y-92436904D01*
X173535009Y-92436904D02*
X173582628Y-92532142D01*
X173582628Y-92532142D02*
X173582628Y-92913094D01*
X174058819Y-91865475D02*
X174058819Y-91674999D01*
X174058819Y-91674999D02*
X174011200Y-91579761D01*
X174011200Y-91579761D02*
X173963580Y-91532142D01*
X173963580Y-91532142D02*
X173820723Y-91436904D01*
X173820723Y-91436904D02*
X173630247Y-91389285D01*
X173630247Y-91389285D02*
X173249295Y-91389285D01*
X173249295Y-91389285D02*
X173154057Y-91436904D01*
X173154057Y-91436904D02*
X173106438Y-91484523D01*
X173106438Y-91484523D02*
X173058819Y-91579761D01*
X173058819Y-91579761D02*
X173058819Y-91770237D01*
X173058819Y-91770237D02*
X173106438Y-91865475D01*
X173106438Y-91865475D02*
X173154057Y-91913094D01*
X173154057Y-91913094D02*
X173249295Y-91960713D01*
X173249295Y-91960713D02*
X173487390Y-91960713D01*
X173487390Y-91960713D02*
X173582628Y-91913094D01*
X173582628Y-91913094D02*
X173630247Y-91865475D01*
X173630247Y-91865475D02*
X173677866Y-91770237D01*
X173677866Y-91770237D02*
X173677866Y-91579761D01*
X173677866Y-91579761D02*
X173630247Y-91484523D01*
X173630247Y-91484523D02*
X173582628Y-91436904D01*
X173582628Y-91436904D02*
X173487390Y-91389285D01*
X111513819Y-108566666D02*
X111037628Y-108899999D01*
X111513819Y-109138094D02*
X110513819Y-109138094D01*
X110513819Y-109138094D02*
X110513819Y-108757142D01*
X110513819Y-108757142D02*
X110561438Y-108661904D01*
X110561438Y-108661904D02*
X110609057Y-108614285D01*
X110609057Y-108614285D02*
X110704295Y-108566666D01*
X110704295Y-108566666D02*
X110847152Y-108566666D01*
X110847152Y-108566666D02*
X110942390Y-108614285D01*
X110942390Y-108614285D02*
X110990009Y-108661904D01*
X110990009Y-108661904D02*
X111037628Y-108757142D01*
X111037628Y-108757142D02*
X111037628Y-109138094D01*
X110609057Y-108185713D02*
X110561438Y-108138094D01*
X110561438Y-108138094D02*
X110513819Y-108042856D01*
X110513819Y-108042856D02*
X110513819Y-107804761D01*
X110513819Y-107804761D02*
X110561438Y-107709523D01*
X110561438Y-107709523D02*
X110609057Y-107661904D01*
X110609057Y-107661904D02*
X110704295Y-107614285D01*
X110704295Y-107614285D02*
X110799533Y-107614285D01*
X110799533Y-107614285D02*
X110942390Y-107661904D01*
X110942390Y-107661904D02*
X111513819Y-108233332D01*
X111513819Y-108233332D02*
X111513819Y-107614285D01*
X147818580Y-106106666D02*
X147866200Y-106154285D01*
X147866200Y-106154285D02*
X147913819Y-106297142D01*
X147913819Y-106297142D02*
X147913819Y-106392380D01*
X147913819Y-106392380D02*
X147866200Y-106535237D01*
X147866200Y-106535237D02*
X147770961Y-106630475D01*
X147770961Y-106630475D02*
X147675723Y-106678094D01*
X147675723Y-106678094D02*
X147485247Y-106725713D01*
X147485247Y-106725713D02*
X147342390Y-106725713D01*
X147342390Y-106725713D02*
X147151914Y-106678094D01*
X147151914Y-106678094D02*
X147056676Y-106630475D01*
X147056676Y-106630475D02*
X146961438Y-106535237D01*
X146961438Y-106535237D02*
X146913819Y-106392380D01*
X146913819Y-106392380D02*
X146913819Y-106297142D01*
X146913819Y-106297142D02*
X146961438Y-106154285D01*
X146961438Y-106154285D02*
X147009057Y-106106666D01*
X146913819Y-105773332D02*
X146913819Y-105154285D01*
X146913819Y-105154285D02*
X147294771Y-105487618D01*
X147294771Y-105487618D02*
X147294771Y-105344761D01*
X147294771Y-105344761D02*
X147342390Y-105249523D01*
X147342390Y-105249523D02*
X147390009Y-105201904D01*
X147390009Y-105201904D02*
X147485247Y-105154285D01*
X147485247Y-105154285D02*
X147723342Y-105154285D01*
X147723342Y-105154285D02*
X147818580Y-105201904D01*
X147818580Y-105201904D02*
X147866200Y-105249523D01*
X147866200Y-105249523D02*
X147913819Y-105344761D01*
X147913819Y-105344761D02*
X147913819Y-105630475D01*
X147913819Y-105630475D02*
X147866200Y-105725713D01*
X147866200Y-105725713D02*
X147818580Y-105773332D01*
X87161905Y-71854819D02*
X87161905Y-70854819D01*
X87161905Y-70854819D02*
X87400000Y-70854819D01*
X87400000Y-70854819D02*
X87542857Y-70902438D01*
X87542857Y-70902438D02*
X87638095Y-70997676D01*
X87638095Y-70997676D02*
X87685714Y-71092914D01*
X87685714Y-71092914D02*
X87733333Y-71283390D01*
X87733333Y-71283390D02*
X87733333Y-71426247D01*
X87733333Y-71426247D02*
X87685714Y-71616723D01*
X87685714Y-71616723D02*
X87638095Y-71711961D01*
X87638095Y-71711961D02*
X87542857Y-71807200D01*
X87542857Y-71807200D02*
X87400000Y-71854819D01*
X87400000Y-71854819D02*
X87161905Y-71854819D01*
X88685714Y-71854819D02*
X88114286Y-71854819D01*
X88400000Y-71854819D02*
X88400000Y-70854819D01*
X88400000Y-70854819D02*
X88304762Y-70997676D01*
X88304762Y-70997676D02*
X88209524Y-71092914D01*
X88209524Y-71092914D02*
X88114286Y-71140533D01*
X95904761Y-96550057D02*
X95809523Y-96502438D01*
X95809523Y-96502438D02*
X95714285Y-96407200D01*
X95714285Y-96407200D02*
X95571428Y-96264342D01*
X95571428Y-96264342D02*
X95476190Y-96216723D01*
X95476190Y-96216723D02*
X95380952Y-96216723D01*
X95428571Y-96454819D02*
X95333333Y-96407200D01*
X95333333Y-96407200D02*
X95238095Y-96311961D01*
X95238095Y-96311961D02*
X95190476Y-96121485D01*
X95190476Y-96121485D02*
X95190476Y-95788152D01*
X95190476Y-95788152D02*
X95238095Y-95597676D01*
X95238095Y-95597676D02*
X95333333Y-95502438D01*
X95333333Y-95502438D02*
X95428571Y-95454819D01*
X95428571Y-95454819D02*
X95619047Y-95454819D01*
X95619047Y-95454819D02*
X95714285Y-95502438D01*
X95714285Y-95502438D02*
X95809523Y-95597676D01*
X95809523Y-95597676D02*
X95857142Y-95788152D01*
X95857142Y-95788152D02*
X95857142Y-96121485D01*
X95857142Y-96121485D02*
X95809523Y-96311961D01*
X95809523Y-96311961D02*
X95714285Y-96407200D01*
X95714285Y-96407200D02*
X95619047Y-96454819D01*
X95619047Y-96454819D02*
X95428571Y-96454819D01*
X96809523Y-96454819D02*
X96238095Y-96454819D01*
X96523809Y-96454819D02*
X96523809Y-95454819D01*
X96523809Y-95454819D02*
X96428571Y-95597676D01*
X96428571Y-95597676D02*
X96333333Y-95692914D01*
X96333333Y-95692914D02*
X96238095Y-95740533D01*
X154558819Y-92306666D02*
X154082628Y-92639999D01*
X154558819Y-92878094D02*
X153558819Y-92878094D01*
X153558819Y-92878094D02*
X153558819Y-92497142D01*
X153558819Y-92497142D02*
X153606438Y-92401904D01*
X153606438Y-92401904D02*
X153654057Y-92354285D01*
X153654057Y-92354285D02*
X153749295Y-92306666D01*
X153749295Y-92306666D02*
X153892152Y-92306666D01*
X153892152Y-92306666D02*
X153987390Y-92354285D01*
X153987390Y-92354285D02*
X154035009Y-92401904D01*
X154035009Y-92401904D02*
X154082628Y-92497142D01*
X154082628Y-92497142D02*
X154082628Y-92878094D01*
X153558819Y-91973332D02*
X153558819Y-91354285D01*
X153558819Y-91354285D02*
X153939771Y-91687618D01*
X153939771Y-91687618D02*
X153939771Y-91544761D01*
X153939771Y-91544761D02*
X153987390Y-91449523D01*
X153987390Y-91449523D02*
X154035009Y-91401904D01*
X154035009Y-91401904D02*
X154130247Y-91354285D01*
X154130247Y-91354285D02*
X154368342Y-91354285D01*
X154368342Y-91354285D02*
X154463580Y-91401904D01*
X154463580Y-91401904D02*
X154511200Y-91449523D01*
X154511200Y-91449523D02*
X154558819Y-91544761D01*
X154558819Y-91544761D02*
X154558819Y-91830475D01*
X154558819Y-91830475D02*
X154511200Y-91925713D01*
X154511200Y-91925713D02*
X154463580Y-91973332D01*
X141666666Y-122054819D02*
X141666666Y-122769104D01*
X141666666Y-122769104D02*
X141619047Y-122911961D01*
X141619047Y-122911961D02*
X141523809Y-123007200D01*
X141523809Y-123007200D02*
X141380952Y-123054819D01*
X141380952Y-123054819D02*
X141285714Y-123054819D01*
X142619047Y-122054819D02*
X142142857Y-122054819D01*
X142142857Y-122054819D02*
X142095238Y-122531009D01*
X142095238Y-122531009D02*
X142142857Y-122483390D01*
X142142857Y-122483390D02*
X142238095Y-122435771D01*
X142238095Y-122435771D02*
X142476190Y-122435771D01*
X142476190Y-122435771D02*
X142571428Y-122483390D01*
X142571428Y-122483390D02*
X142619047Y-122531009D01*
X142619047Y-122531009D02*
X142666666Y-122626247D01*
X142666666Y-122626247D02*
X142666666Y-122864342D01*
X142666666Y-122864342D02*
X142619047Y-122959580D01*
X142619047Y-122959580D02*
X142571428Y-123007200D01*
X142571428Y-123007200D02*
X142476190Y-123054819D01*
X142476190Y-123054819D02*
X142238095Y-123054819D01*
X142238095Y-123054819D02*
X142142857Y-123007200D01*
X142142857Y-123007200D02*
X142095238Y-122959580D01*
X93525666Y-64094819D02*
X93525666Y-64809104D01*
X93525666Y-64809104D02*
X93478047Y-64951961D01*
X93478047Y-64951961D02*
X93382809Y-65047200D01*
X93382809Y-65047200D02*
X93239952Y-65094819D01*
X93239952Y-65094819D02*
X93144714Y-65094819D01*
X94144714Y-64523390D02*
X94049476Y-64475771D01*
X94049476Y-64475771D02*
X94001857Y-64428152D01*
X94001857Y-64428152D02*
X93954238Y-64332914D01*
X93954238Y-64332914D02*
X93954238Y-64285295D01*
X93954238Y-64285295D02*
X94001857Y-64190057D01*
X94001857Y-64190057D02*
X94049476Y-64142438D01*
X94049476Y-64142438D02*
X94144714Y-64094819D01*
X94144714Y-64094819D02*
X94335190Y-64094819D01*
X94335190Y-64094819D02*
X94430428Y-64142438D01*
X94430428Y-64142438D02*
X94478047Y-64190057D01*
X94478047Y-64190057D02*
X94525666Y-64285295D01*
X94525666Y-64285295D02*
X94525666Y-64332914D01*
X94525666Y-64332914D02*
X94478047Y-64428152D01*
X94478047Y-64428152D02*
X94430428Y-64475771D01*
X94430428Y-64475771D02*
X94335190Y-64523390D01*
X94335190Y-64523390D02*
X94144714Y-64523390D01*
X94144714Y-64523390D02*
X94049476Y-64571009D01*
X94049476Y-64571009D02*
X94001857Y-64618628D01*
X94001857Y-64618628D02*
X93954238Y-64713866D01*
X93954238Y-64713866D02*
X93954238Y-64904342D01*
X93954238Y-64904342D02*
X94001857Y-64999580D01*
X94001857Y-64999580D02*
X94049476Y-65047200D01*
X94049476Y-65047200D02*
X94144714Y-65094819D01*
X94144714Y-65094819D02*
X94335190Y-65094819D01*
X94335190Y-65094819D02*
X94430428Y-65047200D01*
X94430428Y-65047200D02*
X94478047Y-64999580D01*
X94478047Y-64999580D02*
X94525666Y-64904342D01*
X94525666Y-64904342D02*
X94525666Y-64713866D01*
X94525666Y-64713866D02*
X94478047Y-64618628D01*
X94478047Y-64618628D02*
X94430428Y-64571009D01*
X94430428Y-64571009D02*
X94335190Y-64523390D01*
X110599666Y-69854820D02*
X110599666Y-69092916D01*
X95715266Y-69626220D02*
X95715266Y-68864316D01*
X96096219Y-69245268D02*
X95334314Y-69245268D01*
X95766066Y-83672420D02*
X95766066Y-82910516D01*
X96147019Y-83291468D02*
X95385114Y-83291468D01*
X102674819Y-69270620D02*
X102008152Y-69270620D01*
X101674819Y-69270620D02*
X101722438Y-69318239D01*
X101722438Y-69318239D02*
X101770057Y-69270620D01*
X101770057Y-69270620D02*
X101722438Y-69223001D01*
X101722438Y-69223001D02*
X101674819Y-69270620D01*
X101674819Y-69270620D02*
X101770057Y-69270620D01*
X102008152Y-68794430D02*
X102674819Y-68794430D01*
X102103390Y-68794430D02*
X102055771Y-68746811D01*
X102055771Y-68746811D02*
X102008152Y-68651573D01*
X102008152Y-68651573D02*
X102008152Y-68508716D01*
X102008152Y-68508716D02*
X102055771Y-68413478D01*
X102055771Y-68413478D02*
X102151009Y-68365859D01*
X102151009Y-68365859D02*
X102674819Y-68365859D01*
X102008152Y-67889668D02*
X103008152Y-67889668D01*
X102055771Y-67889668D02*
X102008152Y-67794430D01*
X102008152Y-67794430D02*
X102008152Y-67603954D01*
X102008152Y-67603954D02*
X102055771Y-67508716D01*
X102055771Y-67508716D02*
X102103390Y-67461097D01*
X102103390Y-67461097D02*
X102198628Y-67413478D01*
X102198628Y-67413478D02*
X102484342Y-67413478D01*
X102484342Y-67413478D02*
X102579580Y-67461097D01*
X102579580Y-67461097D02*
X102627200Y-67508716D01*
X102627200Y-67508716D02*
X102674819Y-67603954D01*
X102674819Y-67603954D02*
X102674819Y-67794430D01*
X102674819Y-67794430D02*
X102627200Y-67889668D01*
X102008152Y-66556335D02*
X102674819Y-66556335D01*
X102008152Y-66984906D02*
X102531961Y-66984906D01*
X102531961Y-66984906D02*
X102627200Y-66937287D01*
X102627200Y-66937287D02*
X102674819Y-66842049D01*
X102674819Y-66842049D02*
X102674819Y-66699192D01*
X102674819Y-66699192D02*
X102627200Y-66603954D01*
X102627200Y-66603954D02*
X102579580Y-66556335D01*
X102008152Y-66223001D02*
X102008152Y-65842049D01*
X101674819Y-66080144D02*
X102531961Y-66080144D01*
X102531961Y-66080144D02*
X102627200Y-66032525D01*
X102627200Y-66032525D02*
X102674819Y-65937287D01*
X102674819Y-65937287D02*
X102674819Y-65842049D01*
X110650466Y-83901020D02*
X110650466Y-83139116D01*
X102522419Y-86653763D02*
X102474800Y-86749001D01*
X102474800Y-86749001D02*
X102427180Y-86796620D01*
X102427180Y-86796620D02*
X102331942Y-86844239D01*
X102331942Y-86844239D02*
X102046228Y-86844239D01*
X102046228Y-86844239D02*
X101950990Y-86796620D01*
X101950990Y-86796620D02*
X101903371Y-86749001D01*
X101903371Y-86749001D02*
X101855752Y-86653763D01*
X101855752Y-86653763D02*
X101855752Y-86510906D01*
X101855752Y-86510906D02*
X101903371Y-86415668D01*
X101903371Y-86415668D02*
X101950990Y-86368049D01*
X101950990Y-86368049D02*
X102046228Y-86320430D01*
X102046228Y-86320430D02*
X102331942Y-86320430D01*
X102331942Y-86320430D02*
X102427180Y-86368049D01*
X102427180Y-86368049D02*
X102474800Y-86415668D01*
X102474800Y-86415668D02*
X102522419Y-86510906D01*
X102522419Y-86510906D02*
X102522419Y-86653763D01*
X101855752Y-85463287D02*
X102522419Y-85463287D01*
X101855752Y-85891858D02*
X102379561Y-85891858D01*
X102379561Y-85891858D02*
X102474800Y-85844239D01*
X102474800Y-85844239D02*
X102522419Y-85749001D01*
X102522419Y-85749001D02*
X102522419Y-85606144D01*
X102522419Y-85606144D02*
X102474800Y-85510906D01*
X102474800Y-85510906D02*
X102427180Y-85463287D01*
X101855752Y-85129953D02*
X101855752Y-84749001D01*
X101522419Y-84987096D02*
X102379561Y-84987096D01*
X102379561Y-84987096D02*
X102474800Y-84939477D01*
X102474800Y-84939477D02*
X102522419Y-84844239D01*
X102522419Y-84844239D02*
X102522419Y-84749001D01*
X101855752Y-84415667D02*
X102855752Y-84415667D01*
X101903371Y-84415667D02*
X101855752Y-84320429D01*
X101855752Y-84320429D02*
X101855752Y-84129953D01*
X101855752Y-84129953D02*
X101903371Y-84034715D01*
X101903371Y-84034715D02*
X101950990Y-83987096D01*
X101950990Y-83987096D02*
X102046228Y-83939477D01*
X102046228Y-83939477D02*
X102331942Y-83939477D01*
X102331942Y-83939477D02*
X102427180Y-83987096D01*
X102427180Y-83987096D02*
X102474800Y-84034715D01*
X102474800Y-84034715D02*
X102522419Y-84129953D01*
X102522419Y-84129953D02*
X102522419Y-84320429D01*
X102522419Y-84320429D02*
X102474800Y-84415667D01*
X101855752Y-83082334D02*
X102522419Y-83082334D01*
X101855752Y-83510905D02*
X102379561Y-83510905D01*
X102379561Y-83510905D02*
X102474800Y-83463286D01*
X102474800Y-83463286D02*
X102522419Y-83368048D01*
X102522419Y-83368048D02*
X102522419Y-83225191D01*
X102522419Y-83225191D02*
X102474800Y-83129953D01*
X102474800Y-83129953D02*
X102427180Y-83082334D01*
X101855752Y-82749000D02*
X101855752Y-82368048D01*
X101522419Y-82606143D02*
X102379561Y-82606143D01*
X102379561Y-82606143D02*
X102474800Y-82558524D01*
X102474800Y-82558524D02*
X102522419Y-82463286D01*
X102522419Y-82463286D02*
X102522419Y-82368048D01*
X164358819Y-92341666D02*
X163882628Y-92674999D01*
X164358819Y-92913094D02*
X163358819Y-92913094D01*
X163358819Y-92913094D02*
X163358819Y-92532142D01*
X163358819Y-92532142D02*
X163406438Y-92436904D01*
X163406438Y-92436904D02*
X163454057Y-92389285D01*
X163454057Y-92389285D02*
X163549295Y-92341666D01*
X163549295Y-92341666D02*
X163692152Y-92341666D01*
X163692152Y-92341666D02*
X163787390Y-92389285D01*
X163787390Y-92389285D02*
X163835009Y-92436904D01*
X163835009Y-92436904D02*
X163882628Y-92532142D01*
X163882628Y-92532142D02*
X163882628Y-92913094D01*
X163358819Y-91484523D02*
X163358819Y-91674999D01*
X163358819Y-91674999D02*
X163406438Y-91770237D01*
X163406438Y-91770237D02*
X163454057Y-91817856D01*
X163454057Y-91817856D02*
X163596914Y-91913094D01*
X163596914Y-91913094D02*
X163787390Y-91960713D01*
X163787390Y-91960713D02*
X164168342Y-91960713D01*
X164168342Y-91960713D02*
X164263580Y-91913094D01*
X164263580Y-91913094D02*
X164311200Y-91865475D01*
X164311200Y-91865475D02*
X164358819Y-91770237D01*
X164358819Y-91770237D02*
X164358819Y-91579761D01*
X164358819Y-91579761D02*
X164311200Y-91484523D01*
X164311200Y-91484523D02*
X164263580Y-91436904D01*
X164263580Y-91436904D02*
X164168342Y-91389285D01*
X164168342Y-91389285D02*
X163930247Y-91389285D01*
X163930247Y-91389285D02*
X163835009Y-91436904D01*
X163835009Y-91436904D02*
X163787390Y-91484523D01*
X163787390Y-91484523D02*
X163739771Y-91579761D01*
X163739771Y-91579761D02*
X163739771Y-91770237D01*
X163739771Y-91770237D02*
X163787390Y-91865475D01*
X163787390Y-91865475D02*
X163835009Y-91913094D01*
X163835009Y-91913094D02*
X163930247Y-91960713D01*
X147938095Y-98954819D02*
X147938095Y-99764342D01*
X147938095Y-99764342D02*
X147985714Y-99859580D01*
X147985714Y-99859580D02*
X148033333Y-99907200D01*
X148033333Y-99907200D02*
X148128571Y-99954819D01*
X148128571Y-99954819D02*
X148319047Y-99954819D01*
X148319047Y-99954819D02*
X148414285Y-99907200D01*
X148414285Y-99907200D02*
X148461904Y-99859580D01*
X148461904Y-99859580D02*
X148509523Y-99764342D01*
X148509523Y-99764342D02*
X148509523Y-98954819D01*
X148938095Y-99050057D02*
X148985714Y-99002438D01*
X148985714Y-99002438D02*
X149080952Y-98954819D01*
X149080952Y-98954819D02*
X149319047Y-98954819D01*
X149319047Y-98954819D02*
X149414285Y-99002438D01*
X149414285Y-99002438D02*
X149461904Y-99050057D01*
X149461904Y-99050057D02*
X149509523Y-99145295D01*
X149509523Y-99145295D02*
X149509523Y-99240533D01*
X149509523Y-99240533D02*
X149461904Y-99383390D01*
X149461904Y-99383390D02*
X148890476Y-99954819D01*
X148890476Y-99954819D02*
X149509523Y-99954819D01*
X167458819Y-92241666D02*
X166982628Y-92574999D01*
X167458819Y-92813094D02*
X166458819Y-92813094D01*
X166458819Y-92813094D02*
X166458819Y-92432142D01*
X166458819Y-92432142D02*
X166506438Y-92336904D01*
X166506438Y-92336904D02*
X166554057Y-92289285D01*
X166554057Y-92289285D02*
X166649295Y-92241666D01*
X166649295Y-92241666D02*
X166792152Y-92241666D01*
X166792152Y-92241666D02*
X166887390Y-92289285D01*
X166887390Y-92289285D02*
X166935009Y-92336904D01*
X166935009Y-92336904D02*
X166982628Y-92432142D01*
X166982628Y-92432142D02*
X166982628Y-92813094D01*
X166458819Y-91908332D02*
X166458819Y-91241666D01*
X166458819Y-91241666D02*
X167458819Y-91670237D01*
D13*
%TO.C,J2*%
X159489000Y-78590000D02*
X159489000Y-77590000D01*
X159489000Y-77590000D02*
X158989000Y-78090000D01*
X158989000Y-78090000D02*
X159489000Y-78590000D01*
X158804000Y-81970000D02*
X158804000Y-64010000D01*
X158804000Y-64010000D02*
X143284000Y-64010000D01*
X143284000Y-81970000D02*
X158804000Y-81970000D01*
X143284000Y-81970000D02*
X143284000Y-64010000D01*
%TO.C,J6*%
X96159000Y-129540000D02*
X96159000Y-114840000D01*
X105359000Y-129540000D02*
X96159000Y-129540000D01*
X105359000Y-120740000D02*
X105359000Y-129540000D01*
X95959000Y-115690000D02*
X95959000Y-114640000D01*
X96159000Y-114840000D02*
X98759000Y-114840000D01*
X102659000Y-114840000D02*
X105359000Y-114840000D01*
X105359000Y-114840000D02*
X105359000Y-116740000D01*
X97009000Y-114640000D02*
X95959000Y-114640000D01*
%TO.C,R1*%
X110239000Y-101720000D02*
X110239000Y-97880000D01*
X112079000Y-101720000D02*
X112079000Y-97880000D01*
D10*
%TO.C,U1*%
X114189000Y-68310000D02*
X140189000Y-68310000D01*
X140189000Y-68310000D02*
X140189000Y-123310000D01*
X140189000Y-123310000D02*
X114189000Y-123310000D01*
X114189000Y-123310000D02*
X114189000Y-68310000D01*
X118299000Y-108510000D02*
X136079000Y-108510000D01*
X136079000Y-108510000D02*
X136079000Y-131370000D01*
X136079000Y-131370000D02*
X118299000Y-131370000D01*
X118299000Y-131370000D02*
X118299000Y-108510000D01*
X119569000Y-74220000D02*
X134809000Y-74220000D01*
X134809000Y-74220000D02*
X134809000Y-90730000D01*
X134809000Y-90730000D02*
X119569000Y-90730000D01*
X119569000Y-90730000D02*
X119569000Y-74220000D01*
D13*
%TO.C,Q2*%
X104779000Y-94140000D02*
X104779000Y-90540000D01*
X100479001Y-93160000D02*
G75*
G03*
X104770740Y-94151874I2449999J820000D01*
G01*
X104756684Y-90531555D02*
G75*
G03*
X100479000Y-91560000I-1827684J-1808445D01*
G01*
%TO.C,R5*%
X159839000Y-94060000D02*
X159839000Y-90220000D01*
X161679000Y-94060000D02*
X161679000Y-90220000D01*
%TO.C,J1*%
X109029000Y-112010000D02*
X107759000Y-112010000D01*
X109029000Y-110740000D02*
X109029000Y-112010000D01*
X106716071Y-108580000D02*
X106319000Y-108580000D01*
X106716071Y-107820000D02*
X106319000Y-107820000D01*
X106716071Y-106040000D02*
X106319000Y-106040000D01*
X106716071Y-105280000D02*
X106319000Y-105280000D01*
X106716071Y-103500000D02*
X106319000Y-103500000D01*
X106716071Y-102740000D02*
X106319000Y-102740000D01*
X106716071Y-100960000D02*
X106319000Y-100960000D01*
X106716071Y-100200000D02*
X106319000Y-100200000D01*
X106716071Y-98420000D02*
X106319000Y-98420000D01*
X106716071Y-97660000D02*
X106319000Y-97660000D01*
X106649000Y-111120000D02*
X106319000Y-111120000D01*
X106649000Y-110360000D02*
X106319000Y-110360000D01*
X106319000Y-112070000D02*
X106319000Y-96710000D01*
X106319000Y-109470000D02*
X103659000Y-109470000D01*
X106319000Y-106930000D02*
X103659000Y-106930000D01*
X106319000Y-104390000D02*
X103659000Y-104390000D01*
X106319000Y-101850000D02*
X103659000Y-101850000D01*
X106319000Y-99310000D02*
X103659000Y-99310000D01*
X106319000Y-96710000D02*
X103659000Y-96710000D01*
X103659000Y-112070000D02*
X106319000Y-112070000D01*
X103659000Y-111120000D02*
X97659000Y-111120000D01*
X103659000Y-111060000D02*
X97659000Y-111060000D01*
X103659000Y-110940000D02*
X97659000Y-110940000D01*
X103659000Y-110820000D02*
X97659000Y-110820000D01*
X103659000Y-110700000D02*
X97659000Y-110700000D01*
X103659000Y-110580000D02*
X97659000Y-110580000D01*
X103659000Y-110460000D02*
X97659000Y-110460000D01*
X103659000Y-108580000D02*
X97659000Y-108580000D01*
X103659000Y-106040000D02*
X97659000Y-106040000D01*
X103659000Y-103500000D02*
X97659000Y-103500000D01*
X103659000Y-100960000D02*
X97659000Y-100960000D01*
X103659000Y-98420000D02*
X97659000Y-98420000D01*
X103659000Y-96710000D02*
X103659000Y-112070000D01*
X97659000Y-111120000D02*
X97659000Y-110360000D01*
X97659000Y-110360000D02*
X103659000Y-110360000D01*
X97659000Y-108580000D02*
X97659000Y-107820000D01*
X97659000Y-107820000D02*
X103659000Y-107820000D01*
X97659000Y-106040000D02*
X97659000Y-105280000D01*
X97659000Y-105280000D02*
X103659000Y-105280000D01*
X97659000Y-103500000D02*
X97659000Y-102740000D01*
X97659000Y-102740000D02*
X103659000Y-102740000D01*
X97659000Y-100960000D02*
X97659000Y-100200000D01*
X97659000Y-100200000D02*
X103659000Y-100200000D01*
X97659000Y-98420000D02*
X97659000Y-97660000D01*
X97659000Y-97660000D02*
X103659000Y-97660000D01*
%TO.C,J3*%
X179041500Y-78590000D02*
X179041500Y-77590000D01*
X179041500Y-77590000D02*
X178541500Y-78090000D01*
X178541500Y-78090000D02*
X179041500Y-78590000D01*
X178356500Y-81970000D02*
X178356500Y-64010000D01*
X178356500Y-64010000D02*
X162836500Y-64010000D01*
X162836500Y-81970000D02*
X178356500Y-81970000D01*
X162836500Y-81970000D02*
X162836500Y-64010000D01*
%TO.C,J4*%
X162650000Y-122760000D02*
X162650000Y-123400000D01*
X162650000Y-123400000D02*
X163050000Y-123400000D01*
X162890000Y-115440000D02*
X162890000Y-123160000D01*
X162890000Y-115440000D02*
X177010000Y-115440000D01*
X162890000Y-121600000D02*
X177010000Y-121600000D01*
X162890000Y-122700000D02*
X177010000Y-122700000D01*
X162890000Y-123160000D02*
X177010000Y-123160000D01*
X167055000Y-119541000D02*
X166926000Y-119669000D01*
X167225000Y-119781000D02*
X167131000Y-119874000D01*
X169270000Y-117325000D02*
X169176000Y-117419000D01*
X169475000Y-117531000D02*
X169346000Y-117659000D01*
X170555000Y-119541000D02*
X170426000Y-119669000D01*
X170725000Y-119781000D02*
X170631000Y-119874000D01*
X172770000Y-117325000D02*
X172676000Y-117419000D01*
X172975000Y-117531000D02*
X172846000Y-117659000D01*
X174055000Y-119541000D02*
X173926000Y-119669000D01*
X174225000Y-119781000D02*
X174131000Y-119874000D01*
X176270000Y-117325000D02*
X176176000Y-117419000D01*
X176475000Y-117531000D02*
X176346000Y-117659000D01*
X177010000Y-115440000D02*
X177010000Y-123160000D01*
X163260000Y-117734000D02*
G75*
G03*
X163274642Y-119489894I1439998J-866000D01*
G01*
X165566000Y-117160000D02*
G75*
G03*
X163810106Y-117174642I-866000J-1439998D01*
G01*
X163834000Y-120040000D02*
G75*
G03*
X164728674Y-120280098I866003J1440014D01*
G01*
X164700000Y-120279999D02*
G75*
G03*
X165590264Y-120024720I3J1679989D01*
G01*
X166124999Y-119490999D02*
G75*
G03*
X166125503Y-117709808I-1425002J890999D01*
G01*
X169880000Y-118600000D02*
G75*
G03*
X169880000Y-118600000I-1680000J0D01*
G01*
X173380000Y-118600000D02*
G75*
G03*
X173380000Y-118600000I-1680000J0D01*
G01*
X176880000Y-118600000D02*
G75*
G03*
X176880000Y-118600000I-1680000J0D01*
G01*
%TO.C,C1*%
X107184000Y-95199887D02*
X107184000Y-94699887D01*
X106934000Y-94949887D02*
X107434000Y-94949887D01*
X106079000Y-92395112D02*
X107619000Y-92395112D01*
X109699000Y-92395112D02*
X111239000Y-92395112D01*
X106079000Y-92355112D02*
X107619000Y-92355112D01*
X109699000Y-92355112D02*
X111239000Y-92355112D01*
X106080000Y-92315112D02*
X107619000Y-92315112D01*
X109699000Y-92315112D02*
X111238000Y-92315112D01*
X106081000Y-92275112D02*
X107619000Y-92275112D01*
X109699000Y-92275112D02*
X111237000Y-92275112D01*
X106083000Y-92235112D02*
X107619000Y-92235112D01*
X109699000Y-92235112D02*
X111235000Y-92235112D01*
X106086000Y-92195112D02*
X107619000Y-92195112D01*
X109699000Y-92195112D02*
X111232000Y-92195112D01*
X106090000Y-92155112D02*
X107619000Y-92155112D01*
X109699000Y-92155112D02*
X111228000Y-92155112D01*
X106094000Y-92115112D02*
X107619000Y-92115112D01*
X109699000Y-92115112D02*
X111224000Y-92115112D01*
X106098000Y-92075112D02*
X107619000Y-92075112D01*
X109699000Y-92075112D02*
X111220000Y-92075112D01*
X106103000Y-92035112D02*
X107619000Y-92035112D01*
X109699000Y-92035112D02*
X111215000Y-92035112D01*
X106109000Y-91995112D02*
X107619000Y-91995112D01*
X109699000Y-91995112D02*
X111209000Y-91995112D01*
X106116000Y-91955112D02*
X107619000Y-91955112D01*
X109699000Y-91955112D02*
X111202000Y-91955112D01*
X106123000Y-91915112D02*
X107619000Y-91915112D01*
X109699000Y-91915112D02*
X111195000Y-91915112D01*
X106131000Y-91875112D02*
X107619000Y-91875112D01*
X109699000Y-91875112D02*
X111187000Y-91875112D01*
X106139000Y-91835112D02*
X107619000Y-91835112D01*
X109699000Y-91835112D02*
X111179000Y-91835112D01*
X106148000Y-91795112D02*
X107619000Y-91795112D01*
X109699000Y-91795112D02*
X111170000Y-91795112D01*
X106158000Y-91755112D02*
X107619000Y-91755112D01*
X109699000Y-91755112D02*
X111160000Y-91755112D01*
X106168000Y-91715112D02*
X107619000Y-91715112D01*
X109699000Y-91715112D02*
X111150000Y-91715112D01*
X106179000Y-91674112D02*
X107619000Y-91674112D01*
X109699000Y-91674112D02*
X111139000Y-91674112D01*
X106191000Y-91634112D02*
X107619000Y-91634112D01*
X109699000Y-91634112D02*
X111127000Y-91634112D01*
X106204000Y-91594112D02*
X107619000Y-91594112D01*
X109699000Y-91594112D02*
X111114000Y-91594112D01*
X106217000Y-91554112D02*
X107619000Y-91554112D01*
X109699000Y-91554112D02*
X111101000Y-91554112D01*
X106231000Y-91514112D02*
X107619000Y-91514112D01*
X109699000Y-91514112D02*
X111087000Y-91514112D01*
X106245000Y-91474112D02*
X107619000Y-91474112D01*
X109699000Y-91474112D02*
X111073000Y-91474112D01*
X106261000Y-91434112D02*
X107619000Y-91434112D01*
X109699000Y-91434112D02*
X111057000Y-91434112D01*
X106277000Y-91394112D02*
X107619000Y-91394112D01*
X109699000Y-91394112D02*
X111041000Y-91394112D01*
X106294000Y-91354112D02*
X107619000Y-91354112D01*
X109699000Y-91354112D02*
X111024000Y-91354112D01*
X106311000Y-91314112D02*
X107619000Y-91314112D01*
X109699000Y-91314112D02*
X111007000Y-91314112D01*
X106330000Y-91274112D02*
X107619000Y-91274112D01*
X109699000Y-91274112D02*
X110988000Y-91274112D01*
X106349000Y-91234112D02*
X107619000Y-91234112D01*
X109699000Y-91234112D02*
X110969000Y-91234112D01*
X106369000Y-91194112D02*
X107619000Y-91194112D01*
X109699000Y-91194112D02*
X110949000Y-91194112D01*
X106391000Y-91154112D02*
X107619000Y-91154112D01*
X109699000Y-91154112D02*
X110927000Y-91154112D01*
X106412000Y-91114112D02*
X107619000Y-91114112D01*
X109699000Y-91114112D02*
X110906000Y-91114112D01*
X106435000Y-91074112D02*
X107619000Y-91074112D01*
X109699000Y-91074112D02*
X110883000Y-91074112D01*
X106459000Y-91034112D02*
X107619000Y-91034112D01*
X109699000Y-91034112D02*
X110859000Y-91034112D01*
X106484000Y-90994112D02*
X107619000Y-90994112D01*
X109699000Y-90994112D02*
X110834000Y-90994112D01*
X106510000Y-90954112D02*
X107619000Y-90954112D01*
X109699000Y-90954112D02*
X110808000Y-90954112D01*
X106537000Y-90914112D02*
X107619000Y-90914112D01*
X109699000Y-90914112D02*
X110781000Y-90914112D01*
X106564000Y-90874112D02*
X107619000Y-90874112D01*
X109699000Y-90874112D02*
X110754000Y-90874112D01*
X106594000Y-90834112D02*
X107619000Y-90834112D01*
X109699000Y-90834112D02*
X110724000Y-90834112D01*
X106624000Y-90794112D02*
X107619000Y-90794112D01*
X109699000Y-90794112D02*
X110694000Y-90794112D01*
X106655000Y-90754112D02*
X107619000Y-90754112D01*
X109699000Y-90754112D02*
X110663000Y-90754112D01*
X106688000Y-90714112D02*
X107619000Y-90714112D01*
X109699000Y-90714112D02*
X110630000Y-90714112D01*
X106722000Y-90674112D02*
X107619000Y-90674112D01*
X109699000Y-90674112D02*
X110596000Y-90674112D01*
X106758000Y-90634112D02*
X107619000Y-90634112D01*
X109699000Y-90634112D02*
X110560000Y-90634112D01*
X106795000Y-90594112D02*
X107619000Y-90594112D01*
X109699000Y-90594112D02*
X110523000Y-90594112D01*
X106833000Y-90554112D02*
X107619000Y-90554112D01*
X109699000Y-90554112D02*
X110485000Y-90554112D01*
X106874000Y-90514112D02*
X107619000Y-90514112D01*
X109699000Y-90514112D02*
X110444000Y-90514112D01*
X106916000Y-90474112D02*
X107619000Y-90474112D01*
X109699000Y-90474112D02*
X110402000Y-90474112D01*
X106960000Y-90434112D02*
X107619000Y-90434112D01*
X109699000Y-90434112D02*
X110358000Y-90434112D01*
X107006000Y-90394112D02*
X107619000Y-90394112D01*
X109699000Y-90394112D02*
X110312000Y-90394112D01*
X107054000Y-90354112D02*
X110264000Y-90354112D01*
X107105000Y-90314112D02*
X110213000Y-90314112D01*
X107159000Y-90274112D02*
X110159000Y-90274112D01*
X107216000Y-90234112D02*
X110102000Y-90234112D01*
X107276000Y-90194112D02*
X110042000Y-90194112D01*
X107340000Y-90154112D02*
X109978000Y-90154112D01*
X107408000Y-90114112D02*
X109910000Y-90114112D01*
X107481000Y-90074112D02*
X109837000Y-90074112D01*
X107561000Y-90034112D02*
X109757000Y-90034112D01*
X107648000Y-89994112D02*
X109670000Y-89994112D01*
X107744000Y-89954112D02*
X109574000Y-89954112D01*
X107854000Y-89914112D02*
X109464000Y-89914112D01*
X107982000Y-89874112D02*
X109336000Y-89874112D01*
X108141000Y-89834112D02*
X109177000Y-89834112D01*
X108375000Y-89794112D02*
X108943000Y-89794112D01*
X111279000Y-92395112D02*
G75*
G03*
X111279000Y-92395112I-2620000J0D01*
G01*
%TO.C,F1*%
X94809000Y-116540000D02*
X94809000Y-116290000D01*
X94809000Y-116540000D02*
X94588000Y-116540000D01*
X94809000Y-114790000D02*
X94809000Y-113340000D01*
X94809000Y-113340000D02*
X89487000Y-113340000D01*
X92830000Y-116540000D02*
X87509000Y-116540000D01*
X87730000Y-113340000D02*
X87509000Y-113340000D01*
X87509000Y-116540000D02*
X87509000Y-115089000D01*
X87509000Y-113590000D02*
X87509000Y-113340000D01*
%TO.C,R11*%
X88599000Y-90120000D02*
X92439000Y-90120000D01*
X88599000Y-91960000D02*
X92439000Y-91960000D01*
%TO.C,C2*%
X109184000Y-120399887D02*
X109184000Y-119899887D01*
X108934000Y-120149887D02*
X109434000Y-120149887D01*
X108079000Y-117595112D02*
X109619000Y-117595112D01*
X111699000Y-117595112D02*
X113239000Y-117595112D01*
X108079000Y-117555112D02*
X109619000Y-117555112D01*
X111699000Y-117555112D02*
X113239000Y-117555112D01*
X108080000Y-117515112D02*
X109619000Y-117515112D01*
X111699000Y-117515112D02*
X113238000Y-117515112D01*
X108081000Y-117475112D02*
X109619000Y-117475112D01*
X111699000Y-117475112D02*
X113237000Y-117475112D01*
X108083000Y-117435112D02*
X109619000Y-117435112D01*
X111699000Y-117435112D02*
X113235000Y-117435112D01*
X108086000Y-117395112D02*
X109619000Y-117395112D01*
X111699000Y-117395112D02*
X113232000Y-117395112D01*
X108090000Y-117355112D02*
X109619000Y-117355112D01*
X111699000Y-117355112D02*
X113228000Y-117355112D01*
X108094000Y-117315112D02*
X109619000Y-117315112D01*
X111699000Y-117315112D02*
X113224000Y-117315112D01*
X108098000Y-117275112D02*
X109619000Y-117275112D01*
X111699000Y-117275112D02*
X113220000Y-117275112D01*
X108103000Y-117235112D02*
X109619000Y-117235112D01*
X111699000Y-117235112D02*
X113215000Y-117235112D01*
X108109000Y-117195112D02*
X109619000Y-117195112D01*
X111699000Y-117195112D02*
X113209000Y-117195112D01*
X108116000Y-117155112D02*
X109619000Y-117155112D01*
X111699000Y-117155112D02*
X113202000Y-117155112D01*
X108123000Y-117115112D02*
X109619000Y-117115112D01*
X111699000Y-117115112D02*
X113195000Y-117115112D01*
X108131000Y-117075112D02*
X109619000Y-117075112D01*
X111699000Y-117075112D02*
X113187000Y-117075112D01*
X108139000Y-117035112D02*
X109619000Y-117035112D01*
X111699000Y-117035112D02*
X113179000Y-117035112D01*
X108148000Y-116995112D02*
X109619000Y-116995112D01*
X111699000Y-116995112D02*
X113170000Y-116995112D01*
X108158000Y-116955112D02*
X109619000Y-116955112D01*
X111699000Y-116955112D02*
X113160000Y-116955112D01*
X108168000Y-116915112D02*
X109619000Y-116915112D01*
X111699000Y-116915112D02*
X113150000Y-116915112D01*
X108179000Y-116874112D02*
X109619000Y-116874112D01*
X111699000Y-116874112D02*
X113139000Y-116874112D01*
X108191000Y-116834112D02*
X109619000Y-116834112D01*
X111699000Y-116834112D02*
X113127000Y-116834112D01*
X108204000Y-116794112D02*
X109619000Y-116794112D01*
X111699000Y-116794112D02*
X113114000Y-116794112D01*
X108217000Y-116754112D02*
X109619000Y-116754112D01*
X111699000Y-116754112D02*
X113101000Y-116754112D01*
X108231000Y-116714112D02*
X109619000Y-116714112D01*
X111699000Y-116714112D02*
X113087000Y-116714112D01*
X108245000Y-116674112D02*
X109619000Y-116674112D01*
X111699000Y-116674112D02*
X113073000Y-116674112D01*
X108261000Y-116634112D02*
X109619000Y-116634112D01*
X111699000Y-116634112D02*
X113057000Y-116634112D01*
X108277000Y-116594112D02*
X109619000Y-116594112D01*
X111699000Y-116594112D02*
X113041000Y-116594112D01*
X108294000Y-116554112D02*
X109619000Y-116554112D01*
X111699000Y-116554112D02*
X113024000Y-116554112D01*
X108311000Y-116514112D02*
X109619000Y-116514112D01*
X111699000Y-116514112D02*
X113007000Y-116514112D01*
X108330000Y-116474112D02*
X109619000Y-116474112D01*
X111699000Y-116474112D02*
X112988000Y-116474112D01*
X108349000Y-116434112D02*
X109619000Y-116434112D01*
X111699000Y-116434112D02*
X112969000Y-116434112D01*
X108369000Y-116394112D02*
X109619000Y-116394112D01*
X111699000Y-116394112D02*
X112949000Y-116394112D01*
X108391000Y-116354112D02*
X109619000Y-116354112D01*
X111699000Y-116354112D02*
X112927000Y-116354112D01*
X108412000Y-116314112D02*
X109619000Y-116314112D01*
X111699000Y-116314112D02*
X112906000Y-116314112D01*
X108435000Y-116274112D02*
X109619000Y-116274112D01*
X111699000Y-116274112D02*
X112883000Y-116274112D01*
X108459000Y-116234112D02*
X109619000Y-116234112D01*
X111699000Y-116234112D02*
X112859000Y-116234112D01*
X108484000Y-116194112D02*
X109619000Y-116194112D01*
X111699000Y-116194112D02*
X112834000Y-116194112D01*
X108510000Y-116154112D02*
X109619000Y-116154112D01*
X111699000Y-116154112D02*
X112808000Y-116154112D01*
X108537000Y-116114112D02*
X109619000Y-116114112D01*
X111699000Y-116114112D02*
X112781000Y-116114112D01*
X108564000Y-116074112D02*
X109619000Y-116074112D01*
X111699000Y-116074112D02*
X112754000Y-116074112D01*
X108594000Y-116034112D02*
X109619000Y-116034112D01*
X111699000Y-116034112D02*
X112724000Y-116034112D01*
X108624000Y-115994112D02*
X109619000Y-115994112D01*
X111699000Y-115994112D02*
X112694000Y-115994112D01*
X108655000Y-115954112D02*
X109619000Y-115954112D01*
X111699000Y-115954112D02*
X112663000Y-115954112D01*
X108688000Y-115914112D02*
X109619000Y-115914112D01*
X111699000Y-115914112D02*
X112630000Y-115914112D01*
X108722000Y-115874112D02*
X109619000Y-115874112D01*
X111699000Y-115874112D02*
X112596000Y-115874112D01*
X108758000Y-115834112D02*
X109619000Y-115834112D01*
X111699000Y-115834112D02*
X112560000Y-115834112D01*
X108795000Y-115794112D02*
X109619000Y-115794112D01*
X111699000Y-115794112D02*
X112523000Y-115794112D01*
X108833000Y-115754112D02*
X109619000Y-115754112D01*
X111699000Y-115754112D02*
X112485000Y-115754112D01*
X108874000Y-115714112D02*
X109619000Y-115714112D01*
X111699000Y-115714112D02*
X112444000Y-115714112D01*
X108916000Y-115674112D02*
X109619000Y-115674112D01*
X111699000Y-115674112D02*
X112402000Y-115674112D01*
X108960000Y-115634112D02*
X109619000Y-115634112D01*
X111699000Y-115634112D02*
X112358000Y-115634112D01*
X109006000Y-115594112D02*
X109619000Y-115594112D01*
X111699000Y-115594112D02*
X112312000Y-115594112D01*
X109054000Y-115554112D02*
X112264000Y-115554112D01*
X109105000Y-115514112D02*
X112213000Y-115514112D01*
X109159000Y-115474112D02*
X112159000Y-115474112D01*
X109216000Y-115434112D02*
X112102000Y-115434112D01*
X109276000Y-115394112D02*
X112042000Y-115394112D01*
X109340000Y-115354112D02*
X111978000Y-115354112D01*
X109408000Y-115314112D02*
X111910000Y-115314112D01*
X109481000Y-115274112D02*
X111837000Y-115274112D01*
X109561000Y-115234112D02*
X111757000Y-115234112D01*
X109648000Y-115194112D02*
X111670000Y-115194112D01*
X109744000Y-115154112D02*
X111574000Y-115154112D01*
X109854000Y-115114112D02*
X111464000Y-115114112D01*
X109982000Y-115074112D02*
X111336000Y-115074112D01*
X110141000Y-115034112D02*
X111177000Y-115034112D01*
X110375000Y-114994112D02*
X110943000Y-114994112D01*
X113279000Y-117595112D02*
G75*
G03*
X113279000Y-117595112I-2620000J0D01*
G01*
%TO.C,R8*%
X169179000Y-94060000D02*
X169179000Y-90220000D01*
X171019000Y-94060000D02*
X171019000Y-90220000D01*
%TO.C,R12*%
X88599000Y-92920000D02*
X92439000Y-92920000D01*
X88599000Y-94760000D02*
X92439000Y-94760000D01*
%TO.C,R10*%
X175939000Y-94160000D02*
X175939000Y-90320000D01*
X177779000Y-94160000D02*
X177779000Y-90320000D01*
%TO.C,SW1*%
X85889000Y-87560000D02*
X89739000Y-87560000D01*
X92379000Y-87560000D02*
X92679000Y-87560000D01*
X92679000Y-86670000D02*
X92679000Y-87560000D01*
X92679000Y-86670000D02*
X92329000Y-86670000D01*
X90129000Y-86180000D02*
X90129000Y-81200000D01*
X92679000Y-80710000D02*
X92329000Y-80710000D01*
X85889000Y-79820000D02*
X85889000Y-87560000D01*
X89739000Y-79820000D02*
X85889000Y-79820000D01*
X92379000Y-79820000D02*
X92679000Y-79820000D01*
X92679000Y-79820000D02*
X92679000Y-80710000D01*
%TO.C,R4*%
X156539000Y-94060000D02*
X156539000Y-90220000D01*
X158379000Y-94060000D02*
X158379000Y-90220000D01*
%TO.C,R9*%
X172639000Y-94120000D02*
X172639000Y-90280000D01*
X174479000Y-94120000D02*
X174479000Y-90280000D01*
%TO.C,R2*%
X110139000Y-110360000D02*
X110139000Y-106520000D01*
X111979000Y-110360000D02*
X111979000Y-106520000D01*
%TO.C,C3*%
X146089000Y-109060000D02*
X146534000Y-109060000D01*
X146089000Y-109060000D02*
X146089000Y-102820000D01*
X148384000Y-109060000D02*
X148829000Y-109060000D01*
X148829000Y-109060000D02*
X148829000Y-102820000D01*
X146089000Y-102820000D02*
X146534000Y-102820000D01*
X148384000Y-102820000D02*
X148829000Y-102820000D01*
%TO.C,D1*%
X87569000Y-73095000D02*
X87569000Y-76185000D01*
X93118999Y-74640462D02*
G75*
G03*
X87569001Y-73095170I-2989999J462D01*
G01*
X87569000Y-76184830D02*
G75*
G03*
X93119000Y-74639538I2560000J1544830D01*
G01*
X92629000Y-74640000D02*
G75*
G03*
X92629000Y-74640000I-2500000J0D01*
G01*
%TO.C,Q1*%
X99179000Y-94140000D02*
X99179000Y-90540000D01*
X94879001Y-93160000D02*
G75*
G03*
X99170740Y-94151874I2449999J820000D01*
G01*
X99156684Y-90531555D02*
G75*
G03*
X94879000Y-91560000I-1827684J-1808445D01*
G01*
%TO.C,R3*%
X153239000Y-94060000D02*
X153239000Y-90220000D01*
X155079000Y-94060000D02*
X155079000Y-90220000D01*
%TO.C,J5*%
X143450000Y-122760000D02*
X143450000Y-123400000D01*
X143450000Y-123400000D02*
X143850000Y-123400000D01*
X143690000Y-115440000D02*
X143690000Y-123160000D01*
X143690000Y-115440000D02*
X157810000Y-115440000D01*
X143690000Y-121600000D02*
X157810000Y-121600000D01*
X143690000Y-122700000D02*
X157810000Y-122700000D01*
X143690000Y-123160000D02*
X157810000Y-123160000D01*
X147855000Y-119541000D02*
X147726000Y-119669000D01*
X148025000Y-119781000D02*
X147931000Y-119874000D01*
X150070000Y-117325000D02*
X149976000Y-117419000D01*
X150275000Y-117531000D02*
X150146000Y-117659000D01*
X151355000Y-119541000D02*
X151226000Y-119669000D01*
X151525000Y-119781000D02*
X151431000Y-119874000D01*
X153570000Y-117325000D02*
X153476000Y-117419000D01*
X153775000Y-117531000D02*
X153646000Y-117659000D01*
X154855000Y-119541000D02*
X154726000Y-119669000D01*
X155025000Y-119781000D02*
X154931000Y-119874000D01*
X157070000Y-117325000D02*
X156976000Y-117419000D01*
X157275000Y-117531000D02*
X157146000Y-117659000D01*
X157810000Y-115440000D02*
X157810000Y-123160000D01*
X144060000Y-117734000D02*
G75*
G03*
X144074642Y-119489894I1439998J-866000D01*
G01*
X146366000Y-117160000D02*
G75*
G03*
X144610106Y-117174642I-866000J-1439998D01*
G01*
X144634000Y-120040000D02*
G75*
G03*
X145528674Y-120280098I866003J1440014D01*
G01*
X145500000Y-120279999D02*
G75*
G03*
X146390264Y-120024720I3J1679989D01*
G01*
X146924999Y-119490999D02*
G75*
G03*
X146925503Y-117709808I-1425002J890999D01*
G01*
X150680000Y-118600000D02*
G75*
G03*
X150680000Y-118600000I-1680000J0D01*
G01*
X154180000Y-118600000D02*
G75*
G03*
X154180000Y-118600000I-1680000J0D01*
G01*
X157680000Y-118600000D02*
G75*
G03*
X157680000Y-118600000I-1680000J0D01*
G01*
%TO.C,J8*%
X103135200Y-81367600D02*
X102093800Y-79691200D01*
X103135200Y-81367600D02*
X104176600Y-79691200D01*
X103059000Y-71791800D02*
X103135200Y-81367600D01*
X94626200Y-87590000D02*
X111626200Y-87590000D01*
X111626200Y-87590000D02*
X111626200Y-65290000D01*
X111626200Y-65290000D02*
X94626200Y-65290000D01*
X94626200Y-65290000D02*
X94626200Y-87590000D01*
%TO.C,R6*%
X163039000Y-94020000D02*
X163039000Y-90180000D01*
X164879000Y-94020000D02*
X164879000Y-90180000D01*
%TO.C,U2*%
X150009000Y-106400000D02*
X175529000Y-106400000D01*
X175529000Y-106400000D02*
X175529000Y-101900000D01*
X150009000Y-105150000D02*
X150009000Y-106400000D01*
X150009000Y-101900000D02*
X150009000Y-103150000D01*
X175529000Y-101900000D02*
X150009000Y-101900000D01*
X150009000Y-105150000D02*
G75*
G03*
X150009000Y-103150000I0J1000000D01*
G01*
%TO.C,R7*%
X166139000Y-94060000D02*
X166139000Y-90220000D01*
X167979000Y-94060000D02*
X167979000Y-90220000D01*
%TD*%
M02*
