M48
; DRILL file {KiCad 7.0.9} date Fri 05 Jul 2024 12:55:46
; FORMAT={-:-/ absolute / metric / decimal}
; #@! TF.CreationDate,2024-07-05T12:55:46+10:00
; #@! TF.GenerationSoftware,Kicad,Pcbnew,7.0.9
; #@! TF.FileFunction,Plated,1,2,PTH
FMAT,2
METRIC
; #@! TA.AperFunction,Plated,PTH,ViaDrill
T1C0.400
; #@! TA.AperFunction,Plated,PTH,ComponentDrill
T2C0.700
; #@! TA.AperFunction,Plated,PTH,ComponentDrill
T3C0.750
; #@! TA.AperFunction,Plated,PTH,ComponentDrill
T4C0.760
; #@! TA.AperFunction,Plated,PTH,ComponentDrill
T5C0.800
; #@! TA.AperFunction,Plated,PTH,ComponentDrill
T6C0.900
; #@! TA.AperFunction,Plated,PTH,ComponentDrill
T7C1.000
; #@! TA.AperFunction,Plated,PTH,ComponentDrill
T8C1.010
; #@! TA.AperFunction,Plated,PTH,ComponentDrill
T9C1.200
; #@! TA.AperFunction,Plated,PTH,ComponentDrill
T10C1.300
%
G90
G05
T1
X105.159Y-96.84
X130.259Y-95.64
X131.259Y-93.54
X132.259Y-91.04
X143.085Y-80.34
X143.81Y-81.468
X144.534Y-82.24
X145.259Y-83.04
X145.359Y-107.84
X147.259Y-106.04
X161.885Y-78.64
X162.61Y-80.471
X163.334Y-81.44
X164.059Y-82.44
T2
X87.979Y-91.04
X87.979Y-93.84
X93.059Y-91.04
X93.059Y-93.84
X111.059Y-105.9
X111.059Y-110.98
X111.159Y-97.26
X111.159Y-102.34
X154.159Y-89.6
X154.159Y-94.68
X157.459Y-89.6
X157.459Y-94.68
X160.759Y-89.6
X160.759Y-94.68
X163.959Y-89.56
X163.959Y-94.64
X167.059Y-89.6
X167.059Y-94.68
X170.099Y-89.6
X170.099Y-94.68
X173.559Y-89.66
X173.559Y-94.74
X176.859Y-89.7
X176.859Y-94.78
T3
X96.059Y-92.34
X97.329Y-91.07
X97.329Y-93.61
X101.659Y-92.34
X102.929Y-91.07
X102.929Y-93.61
T4
X146.599Y-80.63
X147.489Y-74.29
X147.869Y-78.09
X148.489Y-76.04
X149.139Y-80.63
X149.489Y-74.29
X150.409Y-78.09
X150.489Y-76.04
X151.489Y-74.29
X151.679Y-80.63
X152.489Y-76.04
X152.949Y-78.09
X153.489Y-74.29
X154.219Y-80.63
X154.389Y-76.04
X155.489Y-78.09
X166.151Y-80.63
X167.041Y-74.29
X167.421Y-78.09
X168.041Y-76.04
X168.691Y-80.63
X169.041Y-74.29
X169.962Y-78.09
X170.041Y-76.04
X171.041Y-74.29
X171.231Y-80.63
X172.041Y-76.04
X172.501Y-78.09
X173.041Y-74.29
X173.772Y-80.63
X173.941Y-76.04
X175.041Y-78.09
T5
X108.659Y-91.395
X108.659Y-93.395
X110.659Y-116.595
X110.659Y-118.595
X147.459Y-103.44
X147.459Y-108.44
X151.339Y-100.34
X151.339Y-107.96
X153.879Y-100.34
X153.879Y-107.96
X156.419Y-100.34
X156.419Y-107.96
X158.959Y-100.34
X158.959Y-107.96
X161.499Y-100.34
X161.499Y-107.96
X164.039Y-100.34
X164.039Y-107.96
X166.579Y-100.34
X166.579Y-107.96
X169.119Y-100.34
X169.119Y-107.96
X171.659Y-100.34
X171.659Y-107.96
X174.199Y-100.34
X174.199Y-107.96
T6
X88.859Y-74.64
X91.399Y-74.64
T7
X88.559Y-81.44
X88.559Y-85.94
X95.972Y-67.245
X96.15Y-85.533
X98.665Y-67.245
X98.919Y-85.584
X107.148Y-67.169
X107.275Y-85.381
X107.759Y-98.04
X107.759Y-100.58
X107.759Y-103.12
X107.759Y-105.66
X107.759Y-108.2
X107.759Y-110.74
X109.765Y-67.194
X110.009Y-85.34
X115.759Y-76.76
X115.759Y-79.3
X115.759Y-81.84
X115.759Y-84.38
X115.759Y-86.92
X115.759Y-89.46
X115.759Y-92.0
X115.759Y-94.54
X115.759Y-97.08
X115.759Y-99.62
X115.759Y-102.16
X115.759Y-104.7
X115.759Y-107.24
X138.619Y-76.76
X138.619Y-79.3
X138.619Y-81.84
X138.619Y-84.38
X138.619Y-86.92
X138.619Y-89.46
X138.619Y-92.0
X138.619Y-94.54
X138.619Y-97.08
X138.619Y-99.62
X138.619Y-102.16
X138.619Y-104.7
X138.619Y-107.24
T8
X88.609Y-114.34
X93.709Y-115.54
T9
X145.5Y-118.6
X149.0Y-118.6
X152.5Y-118.6
X156.0Y-118.6
X164.7Y-118.6
X168.2Y-118.6
X171.7Y-118.6
X175.2Y-118.6
T10
X91.059Y-80.19
X91.059Y-87.19
T7
X99.759Y-115.74G85X101.759Y-115.74
G05
X99.759Y-121.74G85X101.759Y-121.74
G05
X105.459Y-119.74G85X105.459Y-117.74
G05
T0
M30
