%TF.GenerationSoftware,KiCad,Pcbnew,7.0.9*%
%TF.CreationDate,2024-07-05T12:55:43+10:00*%
%TF.ProjectId,ethernet_led_controller,65746865-726e-4657-945f-6c65645f636f,v1_1_0*%
%TF.SameCoordinates,Original*%
%TF.FileFunction,Profile,NP*%
%FSLAX46Y46*%
G04 Gerber Fmt 4.6, Leading zero omitted, Abs format (unit mm)*
G04 Created by KiCad (PCBNEW 7.0.9) date 2024-07-05 12:55:43*
%MOMM*%
%LPD*%
G01*
G04 APERTURE LIST*
%TA.AperFunction,Profile*%
%ADD10C,0.100000*%
%TD*%
G04 APERTURE END LIST*
D10*
X90259000Y-63740000D02*
G75*
G03*
X86759000Y-67240000I0J-3500000D01*
G01*
X183259000Y-123740000D02*
G75*
G03*
X186759000Y-120240000I0J3500000D01*
G01*
X92059000Y-120240000D02*
G75*
G03*
X92059000Y-120240000I-1800000J0D01*
G01*
X114259000Y-123740000D02*
X90259000Y-123740000D01*
X86759000Y-120240000D02*
X86759000Y-67240000D01*
X117733874Y-110340000D02*
X117759000Y-120240000D01*
X133133874Y-106840000D02*
X121233874Y-106840000D01*
X136633874Y-120240000D02*
X136633874Y-110340000D01*
X121233874Y-106839974D02*
G75*
G03*
X117733874Y-110340000I26J-3500026D01*
G01*
X186759000Y-67240000D02*
X186759000Y-120240000D01*
X86759000Y-120240000D02*
G75*
G03*
X90259000Y-123740000I3500000J0D01*
G01*
X136633900Y-110340000D02*
G75*
G03*
X133133874Y-106840000I-3500000J0D01*
G01*
X92059000Y-67240000D02*
G75*
G03*
X92059000Y-67240000I-1800000J0D01*
G01*
X114259000Y-123740000D02*
G75*
G03*
X117759000Y-120240000I0J3500000D01*
G01*
X185059000Y-67240000D02*
G75*
G03*
X185059000Y-67240000I-1800000J0D01*
G01*
X186759000Y-67240000D02*
G75*
G03*
X183259000Y-63740000I-3500000J0D01*
G01*
X183259000Y-123740000D02*
X140133874Y-123740000D01*
X185059000Y-120240000D02*
G75*
G03*
X185059000Y-120240000I-1800000J0D01*
G01*
X136633900Y-120240000D02*
G75*
G03*
X140133874Y-123740000I3500000J0D01*
G01*
X90259000Y-63740000D02*
X183259000Y-63740000D01*
M02*
