%TF.GenerationSoftware,KiCad,Pcbnew,7.0.9*%
%TF.CreationDate,2024-07-05T12:55:43+10:00*%
%TF.ProjectId,ethernet_led_controller,65746865-726e-4657-945f-6c65645f636f,v1_1_0*%
%TF.SameCoordinates,Original*%
%TF.FileFunction,Soldermask,Top*%
%TF.FilePolarity,Negative*%
%FSLAX46Y46*%
G04 Gerber Fmt 4.6, Leading zero omitted, Abs format (unit mm)*
G04 Created by KiCad (PCBNEW 7.0.9) date 2024-07-05 12:55:43*
%MOMM*%
%LPD*%
G01*
G04 APERTURE LIST*
G04 Aperture macros list*
%AMRoundRect*
0 Rectangle with rounded corners*
0 $1 Rounding radius*
0 $2 $3 $4 $5 $6 $7 $8 $9 X,Y pos of 4 corners*
0 Add a 4 corners polygon primitive as box body*
4,1,4,$2,$3,$4,$5,$6,$7,$8,$9,$2,$3,0*
0 Add four circle primitives for the rounded corners*
1,1,$1+$1,$2,$3*
1,1,$1+$1,$4,$5*
1,1,$1+$1,$6,$7*
1,1,$1+$1,$8,$9*
0 Add four rect primitives between the rounded corners*
20,1,$1+$1,$2,$3,$4,$5,0*
20,1,$1+$1,$4,$5,$6,$7,0*
20,1,$1+$1,$6,$7,$8,$9,0*
20,1,$1+$1,$8,$9,$2,$3,0*%
G04 Aperture macros list end*
%ADD10C,3.200000*%
%ADD11R,1.500000X1.500000*%
%ADD12C,1.500000*%
%ADD13R,3.500000X3.500000*%
%ADD14RoundRect,0.750000X1.000000X-0.750000X1.000000X0.750000X-1.000000X0.750000X-1.000000X-0.750000X0*%
%ADD15RoundRect,0.875000X0.875000X-0.875000X0.875000X0.875000X-0.875000X0.875000X-0.875000X-0.875000X0*%
%ADD16C,1.400000*%
%ADD17O,1.400000X1.400000*%
%ADD18RoundRect,0.220000X1.980000X-0.880000X1.980000X0.880000X-1.980000X0.880000X-1.980000X-0.880000X0*%
%ADD19C,1.700000*%
%ADD20R,1.800000X1.100000*%
%ADD21RoundRect,0.275000X0.625000X-0.275000X0.625000X0.275000X-0.625000X0.275000X-0.625000X-0.275000X0*%
%ADD22R,1.700000X1.700000*%
%ADD23O,1.700000X1.700000*%
%ADD24R,2.400000X2.400000*%
%ADD25C,2.400000*%
%ADD26R,1.600000X1.600000*%
%ADD27C,1.600000*%
%ADD28C,2.010000*%
%ADD29C,2.200000*%
%ADD30R,1.800000X1.800000*%
%ADD31C,1.800000*%
%ADD32RoundRect,1.250000X1.250000X-1.250000X1.250000X1.250000X-1.250000X1.250000X-1.250000X-1.250000X0*%
%ADD33R,1.600000X2.400000*%
%ADD34O,1.600000X2.400000*%
G04 APERTURE END LIST*
D10*
%TO.C,J2*%
X157339000Y-71740000D03*
X156759000Y-71740000D03*
X145329000Y-71740000D03*
X144739000Y-71740000D03*
D11*
X155489000Y-78090000D03*
X147489000Y-74290000D03*
D12*
X154219000Y-80630000D03*
X148489000Y-76040000D03*
X152949000Y-78090000D03*
X149489000Y-74290000D03*
X151679000Y-80630000D03*
X150489000Y-76040000D03*
X151489000Y-74290000D03*
X150409000Y-78090000D03*
X152489000Y-76040000D03*
X149139000Y-80630000D03*
X153489000Y-74290000D03*
X147869000Y-78090000D03*
X154389000Y-76040000D03*
X146599000Y-80630000D03*
%TD*%
D13*
%TO.C,J6*%
X100759000Y-115740000D03*
D14*
X100759000Y-121740000D03*
D15*
X105459000Y-118740000D03*
%TD*%
D16*
%TO.C,R1*%
X111159000Y-102340000D03*
D17*
X111159000Y-97260000D03*
%TD*%
D18*
%TO.C,U1*%
X114997000Y-76760000D03*
D19*
X115759000Y-76760000D03*
D18*
X114997000Y-79300000D03*
D19*
X115759000Y-79300000D03*
D18*
X114997000Y-81840000D03*
D19*
X115759000Y-81840000D03*
D18*
X114997000Y-84380000D03*
D19*
X115759000Y-84380000D03*
D18*
X114997000Y-86920000D03*
D19*
X115759000Y-86920000D03*
D18*
X114997000Y-89460000D03*
D19*
X115759000Y-89460000D03*
D18*
X114997000Y-92000000D03*
D19*
X115759000Y-92000000D03*
D18*
X114997000Y-94540000D03*
D19*
X115759000Y-94540000D03*
D18*
X114997000Y-97080000D03*
D19*
X115759000Y-97080000D03*
D18*
X114997000Y-99620000D03*
D19*
X115759000Y-99620000D03*
D18*
X114997000Y-102160000D03*
D19*
X115759000Y-102160000D03*
D18*
X114997000Y-104700000D03*
D19*
X115759000Y-104700000D03*
D18*
X114997000Y-107240000D03*
D19*
X115759000Y-107240000D03*
X138619000Y-107240000D03*
D18*
X139381000Y-107240000D03*
D19*
X138619000Y-104700000D03*
D18*
X139381000Y-104700000D03*
D19*
X138619000Y-102160000D03*
D18*
X139381000Y-102160000D03*
D19*
X138619000Y-99620000D03*
D18*
X139381000Y-99620000D03*
D19*
X138619000Y-97080000D03*
D18*
X139381000Y-97080000D03*
D19*
X138619000Y-94540000D03*
D18*
X139381000Y-94540000D03*
D19*
X138619000Y-92000000D03*
D18*
X139381000Y-92000000D03*
D19*
X138619000Y-89460000D03*
D18*
X139381000Y-89460000D03*
D19*
X138619000Y-86920000D03*
D18*
X139381000Y-86920000D03*
D19*
X138619000Y-84380000D03*
D18*
X139381000Y-84380000D03*
D19*
X138619000Y-81840000D03*
D18*
X139381000Y-81840000D03*
D19*
X138619000Y-79300000D03*
D18*
X139381000Y-79300000D03*
D19*
X138619000Y-76760000D03*
D18*
X139381000Y-76760000D03*
%TD*%
D20*
%TO.C,Q2*%
X103329000Y-93610000D03*
D21*
X101259000Y-92340000D03*
X103329000Y-91070000D03*
%TD*%
D16*
%TO.C,R5*%
X160759000Y-94680000D03*
D17*
X160759000Y-89600000D03*
%TD*%
D22*
%TO.C,J1*%
X107759000Y-110740000D03*
D23*
X107759000Y-108200000D03*
X107759000Y-105660000D03*
X107759000Y-103120000D03*
X107759000Y-100580000D03*
X107759000Y-98040000D03*
%TD*%
D10*
%TO.C,J3*%
X176891500Y-71740000D03*
X176311500Y-71740000D03*
X164881500Y-71740000D03*
X164291500Y-71740000D03*
D11*
X175041500Y-78090000D03*
X167041500Y-74290000D03*
D12*
X173771500Y-80630000D03*
X168041500Y-76040000D03*
X172501500Y-78090000D03*
X169041500Y-74290000D03*
X171231500Y-80630000D03*
X170041500Y-76040000D03*
X171041500Y-74290000D03*
X169961500Y-78090000D03*
X172041500Y-76040000D03*
X168691500Y-80630000D03*
X173041500Y-74290000D03*
X167421500Y-78090000D03*
X173941500Y-76040000D03*
X166151500Y-80630000D03*
%TD*%
D24*
%TO.C,J4*%
X164700000Y-118600000D03*
D25*
X168200000Y-118600000D03*
X171700000Y-118600000D03*
X175200000Y-118600000D03*
%TD*%
D26*
%TO.C,C1*%
X108659000Y-93395112D03*
D27*
X108659000Y-91395112D03*
%TD*%
D28*
%TO.C,F1*%
X93709000Y-115540000D03*
X88609000Y-114340000D03*
%TD*%
D16*
%TO.C,R11*%
X87979000Y-91040000D03*
D17*
X93059000Y-91040000D03*
%TD*%
D26*
%TO.C,C2*%
X110659000Y-118595112D03*
D27*
X110659000Y-116595112D03*
%TD*%
D16*
%TO.C,R8*%
X170099000Y-94680000D03*
D17*
X170099000Y-89600000D03*
%TD*%
D16*
%TO.C,R12*%
X87979000Y-93840000D03*
D17*
X93059000Y-93840000D03*
%TD*%
D16*
%TO.C,R10*%
X176859000Y-94780000D03*
D17*
X176859000Y-89700000D03*
%TD*%
D29*
%TO.C,SW1*%
X91059000Y-87190000D03*
X91059000Y-80190000D03*
D19*
X88559000Y-85940000D03*
X88559000Y-81440000D03*
%TD*%
D16*
%TO.C,R4*%
X157459000Y-94680000D03*
D17*
X157459000Y-89600000D03*
%TD*%
D16*
%TO.C,R9*%
X173559000Y-94740000D03*
D17*
X173559000Y-89660000D03*
%TD*%
D16*
%TO.C,R2*%
X111059000Y-110980000D03*
D17*
X111059000Y-105900000D03*
%TD*%
D27*
%TO.C,C3*%
X147459000Y-108440000D03*
X147459000Y-103440000D03*
%TD*%
D30*
%TO.C,D1*%
X88859000Y-74640000D03*
D31*
X91399000Y-74640000D03*
%TD*%
D20*
%TO.C,Q1*%
X97729000Y-93610000D03*
D21*
X95659000Y-92340000D03*
X97729000Y-91070000D03*
%TD*%
D16*
%TO.C,R3*%
X154159000Y-94680000D03*
D17*
X154159000Y-89600000D03*
%TD*%
D24*
%TO.C,J5*%
X145500000Y-118600000D03*
D25*
X149000000Y-118600000D03*
X152500000Y-118600000D03*
X156000000Y-118600000D03*
%TD*%
D22*
%TO.C,J8*%
X95972400Y-67245200D03*
D23*
X98664800Y-67245200D03*
D32*
X97459000Y-66490000D03*
D23*
X109764600Y-67194400D03*
D22*
X107148400Y-67169000D03*
D32*
X108559000Y-66440000D03*
X108609000Y-86340000D03*
D22*
X107275400Y-85380800D03*
D23*
X110009000Y-85340000D03*
D32*
X97609000Y-86440000D03*
D23*
X98918800Y-85584000D03*
D22*
X96150200Y-85533200D03*
%TD*%
D16*
%TO.C,R6*%
X163959000Y-94640000D03*
D17*
X163959000Y-89560000D03*
%TD*%
D33*
%TO.C,U2*%
X151339000Y-107960000D03*
D34*
X153879000Y-107960000D03*
X156419000Y-107960000D03*
X158959000Y-107960000D03*
X161499000Y-107960000D03*
X164039000Y-107960000D03*
X166579000Y-107960000D03*
X169119000Y-107960000D03*
X171659000Y-107960000D03*
X174199000Y-107960000D03*
X174199000Y-100340000D03*
X171659000Y-100340000D03*
X169119000Y-100340000D03*
X166579000Y-100340000D03*
X164039000Y-100340000D03*
X161499000Y-100340000D03*
X158959000Y-100340000D03*
X156419000Y-100340000D03*
X153879000Y-100340000D03*
X151339000Y-100340000D03*
%TD*%
D16*
%TO.C,R7*%
X167059000Y-94680000D03*
D17*
X167059000Y-89600000D03*
%TD*%
M02*
